G04 #@! TF.GenerationSoftware,KiCad,Pcbnew,7.0.1*
G04 #@! TF.CreationDate,2023-03-23T23:12:12+01:00*
G04 #@! TF.ProjectId,solarScavenger,736f6c61-7253-4636-9176-656e6765722e,rev?*
G04 #@! TF.SameCoordinates,Original*
G04 #@! TF.FileFunction,Legend,Bot*
G04 #@! TF.FilePolarity,Positive*
%FSLAX46Y46*%
G04 Gerber Fmt 4.6, Leading zero omitted, Abs format (unit mm)*
G04 Created by KiCad (PCBNEW 7.0.1) date 2023-03-23 23:12:12*
%MOMM*%
%LPD*%
G01*
G04 APERTURE LIST*
%ADD10C,0.150000*%
%ADD11C,0.120000*%
G04 APERTURE END LIST*
D10*
X-46278800Y1955800D02*
X-59232800Y1955800D01*
X-46989905Y4061162D02*
X-46894667Y4108781D01*
X-46894667Y4108781D02*
X-46751810Y4108781D01*
X-46751810Y4108781D02*
X-46608953Y4061162D01*
X-46608953Y4061162D02*
X-46513715Y3965924D01*
X-46513715Y3965924D02*
X-46466096Y3870686D01*
X-46466096Y3870686D02*
X-46418477Y3680210D01*
X-46418477Y3680210D02*
X-46418477Y3537353D01*
X-46418477Y3537353D02*
X-46466096Y3346877D01*
X-46466096Y3346877D02*
X-46513715Y3251639D01*
X-46513715Y3251639D02*
X-46608953Y3156400D01*
X-46608953Y3156400D02*
X-46751810Y3108781D01*
X-46751810Y3108781D02*
X-46847048Y3108781D01*
X-46847048Y3108781D02*
X-46989905Y3156400D01*
X-46989905Y3156400D02*
X-47037524Y3204020D01*
X-47037524Y3204020D02*
X-47037524Y3537353D01*
X-47037524Y3537353D02*
X-46847048Y3537353D01*
X-47466096Y3108781D02*
X-47466096Y3775448D01*
X-47466096Y3584972D02*
X-47513715Y3680210D01*
X-47513715Y3680210D02*
X-47561334Y3727829D01*
X-47561334Y3727829D02*
X-47656572Y3775448D01*
X-47656572Y3775448D02*
X-47751810Y3775448D01*
X-48513715Y3108781D02*
X-48513715Y3632591D01*
X-48513715Y3632591D02*
X-48466096Y3727829D01*
X-48466096Y3727829D02*
X-48370858Y3775448D01*
X-48370858Y3775448D02*
X-48180382Y3775448D01*
X-48180382Y3775448D02*
X-48085144Y3727829D01*
X-48513715Y3156400D02*
X-48418477Y3108781D01*
X-48418477Y3108781D02*
X-48180382Y3108781D01*
X-48180382Y3108781D02*
X-48085144Y3156400D01*
X-48085144Y3156400D02*
X-48037525Y3251639D01*
X-48037525Y3251639D02*
X-48037525Y3346877D01*
X-48037525Y3346877D02*
X-48085144Y3442115D01*
X-48085144Y3442115D02*
X-48180382Y3489734D01*
X-48180382Y3489734D02*
X-48418477Y3489734D01*
X-48418477Y3489734D02*
X-48513715Y3537353D01*
X-49418477Y3156400D02*
X-49323239Y3108781D01*
X-49323239Y3108781D02*
X-49132763Y3108781D01*
X-49132763Y3108781D02*
X-49037525Y3156400D01*
X-49037525Y3156400D02*
X-48989906Y3204020D01*
X-48989906Y3204020D02*
X-48942287Y3299258D01*
X-48942287Y3299258D02*
X-48942287Y3584972D01*
X-48942287Y3584972D02*
X-48989906Y3680210D01*
X-48989906Y3680210D02*
X-49037525Y3727829D01*
X-49037525Y3727829D02*
X-49132763Y3775448D01*
X-49132763Y3775448D02*
X-49323239Y3775448D01*
X-49323239Y3775448D02*
X-49418477Y3727829D01*
X-49847049Y3108781D02*
X-49847049Y3775448D01*
X-49847049Y4108781D02*
X-49799430Y4061162D01*
X-49799430Y4061162D02*
X-49847049Y4013543D01*
X-49847049Y4013543D02*
X-49894668Y4061162D01*
X-49894668Y4061162D02*
X-49847049Y4108781D01*
X-49847049Y4108781D02*
X-49847049Y4013543D01*
X-50751810Y3108781D02*
X-50751810Y3632591D01*
X-50751810Y3632591D02*
X-50704191Y3727829D01*
X-50704191Y3727829D02*
X-50608953Y3775448D01*
X-50608953Y3775448D02*
X-50418477Y3775448D01*
X-50418477Y3775448D02*
X-50323239Y3727829D01*
X-50751810Y3156400D02*
X-50656572Y3108781D01*
X-50656572Y3108781D02*
X-50418477Y3108781D01*
X-50418477Y3108781D02*
X-50323239Y3156400D01*
X-50323239Y3156400D02*
X-50275620Y3251639D01*
X-50275620Y3251639D02*
X-50275620Y3346877D01*
X-50275620Y3346877D02*
X-50323239Y3442115D01*
X-50323239Y3442115D02*
X-50418477Y3489734D01*
X-50418477Y3489734D02*
X-50656572Y3489734D01*
X-50656572Y3489734D02*
X-50751810Y3537353D01*
X-51180382Y3156400D02*
X-51275620Y3108781D01*
X-51275620Y3108781D02*
X-51466096Y3108781D01*
X-51466096Y3108781D02*
X-51561334Y3156400D01*
X-51561334Y3156400D02*
X-51608953Y3251639D01*
X-51608953Y3251639D02*
X-51608953Y3299258D01*
X-51608953Y3299258D02*
X-51561334Y3394496D01*
X-51561334Y3394496D02*
X-51466096Y3442115D01*
X-51466096Y3442115D02*
X-51323239Y3442115D01*
X-51323239Y3442115D02*
X-51228001Y3489734D01*
X-51228001Y3489734D02*
X-51180382Y3584972D01*
X-51180382Y3584972D02*
X-51180382Y3632591D01*
X-51180382Y3632591D02*
X-51228001Y3727829D01*
X-51228001Y3727829D02*
X-51323239Y3775448D01*
X-51323239Y3775448D02*
X-51466096Y3775448D01*
X-51466096Y3775448D02*
X-51561334Y3727829D01*
X-53228001Y3108781D02*
X-53228001Y3632591D01*
X-53228001Y3632591D02*
X-53180382Y3727829D01*
X-53180382Y3727829D02*
X-53085144Y3775448D01*
X-53085144Y3775448D02*
X-52894668Y3775448D01*
X-52894668Y3775448D02*
X-52799430Y3727829D01*
X-53228001Y3156400D02*
X-53132763Y3108781D01*
X-53132763Y3108781D02*
X-52894668Y3108781D01*
X-52894668Y3108781D02*
X-52799430Y3156400D01*
X-52799430Y3156400D02*
X-52751811Y3251639D01*
X-52751811Y3251639D02*
X-52751811Y3346877D01*
X-52751811Y3346877D02*
X-52799430Y3442115D01*
X-52799430Y3442115D02*
X-52894668Y3489734D01*
X-52894668Y3489734D02*
X-53132763Y3489734D01*
X-53132763Y3489734D02*
X-53228001Y3537353D01*
X-53704192Y3204020D02*
X-53751811Y3156400D01*
X-53751811Y3156400D02*
X-53704192Y3108781D01*
X-53704192Y3108781D02*
X-53656573Y3156400D01*
X-53656573Y3156400D02*
X-53704192Y3204020D01*
X-53704192Y3204020D02*
X-53704192Y3108781D01*
X-53704192Y3727829D02*
X-53751811Y3680210D01*
X-53751811Y3680210D02*
X-53704192Y3632591D01*
X-53704192Y3632591D02*
X-53656573Y3680210D01*
X-53656573Y3680210D02*
X-53704192Y3727829D01*
X-53704192Y3727829D02*
X-53704192Y3632591D01*
X-47085143Y344972D02*
X-47037524Y392591D01*
X-47037524Y392591D02*
X-46942286Y440210D01*
X-46942286Y440210D02*
X-46847048Y440210D01*
X-46847048Y440210D02*
X-46751810Y392591D01*
X-46751810Y392591D02*
X-46704191Y344972D01*
X-46704191Y344972D02*
X-46656572Y249734D01*
X-46656572Y249734D02*
X-46656572Y154496D01*
X-46656572Y154496D02*
X-46704191Y59258D01*
X-46704191Y59258D02*
X-46751810Y11639D01*
X-46751810Y11639D02*
X-46847048Y-35980D01*
X-46847048Y-35980D02*
X-46942286Y-35980D01*
X-46942286Y-35980D02*
X-47037524Y11639D01*
X-47037524Y11639D02*
X-47085143Y59258D01*
X-47085143Y440210D02*
X-47085143Y59258D01*
X-47085143Y59258D02*
X-47132762Y11639D01*
X-47132762Y11639D02*
X-47180381Y11639D01*
X-47180381Y11639D02*
X-47275620Y59258D01*
X-47275620Y59258D02*
X-47323239Y154496D01*
X-47323239Y154496D02*
X-47323239Y392591D01*
X-47323239Y392591D02*
X-47228000Y535448D01*
X-47228000Y535448D02*
X-47085143Y630686D01*
X-47085143Y630686D02*
X-46894667Y678305D01*
X-46894667Y678305D02*
X-46704191Y630686D01*
X-46704191Y630686D02*
X-46561334Y535448D01*
X-46561334Y535448D02*
X-46466096Y392591D01*
X-46466096Y392591D02*
X-46418477Y202115D01*
X-46418477Y202115D02*
X-46466096Y11639D01*
X-46466096Y11639D02*
X-46561334Y-131219D01*
X-46561334Y-131219D02*
X-46704191Y-226457D01*
X-46704191Y-226457D02*
X-46894667Y-274076D01*
X-46894667Y-274076D02*
X-47085143Y-226457D01*
X-47085143Y-226457D02*
X-47228000Y-131219D01*
X-47704191Y-83600D02*
X-47799429Y-131219D01*
X-47799429Y-131219D02*
X-47989905Y-131219D01*
X-47989905Y-131219D02*
X-48085143Y-83600D01*
X-48085143Y-83600D02*
X-48132762Y11639D01*
X-48132762Y11639D02*
X-48132762Y59258D01*
X-48132762Y59258D02*
X-48085143Y154496D01*
X-48085143Y154496D02*
X-47989905Y202115D01*
X-47989905Y202115D02*
X-47847048Y202115D01*
X-47847048Y202115D02*
X-47751810Y249734D01*
X-47751810Y249734D02*
X-47704191Y344972D01*
X-47704191Y344972D02*
X-47704191Y392591D01*
X-47704191Y392591D02*
X-47751810Y487829D01*
X-47751810Y487829D02*
X-47847048Y535448D01*
X-47847048Y535448D02*
X-47989905Y535448D01*
X-47989905Y535448D02*
X-48085143Y487829D01*
X-48561334Y535448D02*
X-48561334Y-464552D01*
X-48561334Y487829D02*
X-48656572Y535448D01*
X-48656572Y535448D02*
X-48847048Y535448D01*
X-48847048Y535448D02*
X-48942286Y487829D01*
X-48942286Y487829D02*
X-48989905Y440210D01*
X-48989905Y440210D02*
X-49037524Y344972D01*
X-49037524Y344972D02*
X-49037524Y59258D01*
X-49037524Y59258D02*
X-48989905Y-35980D01*
X-48989905Y-35980D02*
X-48942286Y-83600D01*
X-48942286Y-83600D02*
X-48847048Y-131219D01*
X-48847048Y-131219D02*
X-48656572Y-131219D01*
X-48656572Y-131219D02*
X-48561334Y-83600D01*
X-49894667Y535448D02*
X-49894667Y-131219D01*
X-49466096Y535448D02*
X-49466096Y11639D01*
X-49466096Y11639D02*
X-49513715Y-83600D01*
X-49513715Y-83600D02*
X-49608953Y-131219D01*
X-49608953Y-131219D02*
X-49751810Y-131219D01*
X-49751810Y-131219D02*
X-49847048Y-83600D01*
X-49847048Y-83600D02*
X-49894667Y-35980D01*
X-50751810Y-83600D02*
X-50656572Y-131219D01*
X-50656572Y-131219D02*
X-50466096Y-131219D01*
X-50466096Y-131219D02*
X-50370858Y-83600D01*
X-50370858Y-83600D02*
X-50323239Y11639D01*
X-50323239Y11639D02*
X-50323239Y392591D01*
X-50323239Y392591D02*
X-50370858Y487829D01*
X-50370858Y487829D02*
X-50466096Y535448D01*
X-50466096Y535448D02*
X-50656572Y535448D01*
X-50656572Y535448D02*
X-50751810Y487829D01*
X-50751810Y487829D02*
X-50799429Y392591D01*
X-50799429Y392591D02*
X-50799429Y297353D01*
X-50799429Y297353D02*
X-50323239Y202115D01*
X-51228001Y-131219D02*
X-51228001Y535448D01*
X-51228001Y344972D02*
X-51275620Y440210D01*
X-51275620Y440210D02*
X-51323239Y487829D01*
X-51323239Y487829D02*
X-51418477Y535448D01*
X-51418477Y535448D02*
X-51513715Y535448D01*
X-51704192Y535448D02*
X-52085144Y535448D01*
X-51847049Y868781D02*
X-51847049Y11639D01*
X-51847049Y11639D02*
X-51894668Y-83600D01*
X-51894668Y-83600D02*
X-51989906Y-131219D01*
X-51989906Y-131219D02*
X-52085144Y-131219D01*
X-52799430Y-83600D02*
X-52704192Y-131219D01*
X-52704192Y-131219D02*
X-52513716Y-131219D01*
X-52513716Y-131219D02*
X-52418478Y-83600D01*
X-52418478Y-83600D02*
X-52370859Y11639D01*
X-52370859Y11639D02*
X-52370859Y392591D01*
X-52370859Y392591D02*
X-52418478Y487829D01*
X-52418478Y487829D02*
X-52513716Y535448D01*
X-52513716Y535448D02*
X-52704192Y535448D01*
X-52704192Y535448D02*
X-52799430Y487829D01*
X-52799430Y487829D02*
X-52847049Y392591D01*
X-52847049Y392591D02*
X-52847049Y297353D01*
X-52847049Y297353D02*
X-52370859Y202115D01*
X-53228002Y-83600D02*
X-53323240Y-131219D01*
X-53323240Y-131219D02*
X-53513716Y-131219D01*
X-53513716Y-131219D02*
X-53608954Y-83600D01*
X-53608954Y-83600D02*
X-53656573Y11639D01*
X-53656573Y11639D02*
X-53656573Y59258D01*
X-53656573Y59258D02*
X-53608954Y154496D01*
X-53608954Y154496D02*
X-53513716Y202115D01*
X-53513716Y202115D02*
X-53370859Y202115D01*
X-53370859Y202115D02*
X-53275621Y249734D01*
X-53275621Y249734D02*
X-53228002Y344972D01*
X-53228002Y344972D02*
X-53228002Y392591D01*
X-53228002Y392591D02*
X-53275621Y487829D01*
X-53275621Y487829D02*
X-53370859Y535448D01*
X-53370859Y535448D02*
X-53513716Y535448D01*
X-53513716Y535448D02*
X-53608954Y487829D01*
X-47085143Y-1275028D02*
X-47037524Y-1227409D01*
X-47037524Y-1227409D02*
X-46942286Y-1179790D01*
X-46942286Y-1179790D02*
X-46847048Y-1179790D01*
X-46847048Y-1179790D02*
X-46751810Y-1227409D01*
X-46751810Y-1227409D02*
X-46704191Y-1275028D01*
X-46704191Y-1275028D02*
X-46656572Y-1370266D01*
X-46656572Y-1370266D02*
X-46656572Y-1465504D01*
X-46656572Y-1465504D02*
X-46704191Y-1560742D01*
X-46704191Y-1560742D02*
X-46751810Y-1608361D01*
X-46751810Y-1608361D02*
X-46847048Y-1655980D01*
X-46847048Y-1655980D02*
X-46942286Y-1655980D01*
X-46942286Y-1655980D02*
X-47037524Y-1608361D01*
X-47037524Y-1608361D02*
X-47085143Y-1560742D01*
X-47085143Y-1179790D02*
X-47085143Y-1560742D01*
X-47085143Y-1560742D02*
X-47132762Y-1608361D01*
X-47132762Y-1608361D02*
X-47180381Y-1608361D01*
X-47180381Y-1608361D02*
X-47275620Y-1560742D01*
X-47275620Y-1560742D02*
X-47323239Y-1465504D01*
X-47323239Y-1465504D02*
X-47323239Y-1227409D01*
X-47323239Y-1227409D02*
X-47228000Y-1084552D01*
X-47228000Y-1084552D02*
X-47085143Y-989314D01*
X-47085143Y-989314D02*
X-46894667Y-941695D01*
X-46894667Y-941695D02*
X-46704191Y-989314D01*
X-46704191Y-989314D02*
X-46561334Y-1084552D01*
X-46561334Y-1084552D02*
X-46466096Y-1227409D01*
X-46466096Y-1227409D02*
X-46418477Y-1417885D01*
X-46418477Y-1417885D02*
X-46466096Y-1608361D01*
X-46466096Y-1608361D02*
X-46561334Y-1751219D01*
X-46561334Y-1751219D02*
X-46704191Y-1846457D01*
X-46704191Y-1846457D02*
X-46894667Y-1894076D01*
X-46894667Y-1894076D02*
X-47085143Y-1846457D01*
X-47085143Y-1846457D02*
X-47228000Y-1751219D01*
X-48180381Y-1703600D02*
X-48085143Y-1751219D01*
X-48085143Y-1751219D02*
X-47894667Y-1751219D01*
X-47894667Y-1751219D02*
X-47799429Y-1703600D01*
X-47799429Y-1703600D02*
X-47751810Y-1655980D01*
X-47751810Y-1655980D02*
X-47704191Y-1560742D01*
X-47704191Y-1560742D02*
X-47704191Y-1275028D01*
X-47704191Y-1275028D02*
X-47751810Y-1179790D01*
X-47751810Y-1179790D02*
X-47799429Y-1132171D01*
X-47799429Y-1132171D02*
X-47894667Y-1084552D01*
X-47894667Y-1084552D02*
X-48085143Y-1084552D01*
X-48085143Y-1084552D02*
X-48180381Y-1132171D01*
X-49037524Y-1751219D02*
X-49037524Y-1227409D01*
X-49037524Y-1227409D02*
X-48989905Y-1132171D01*
X-48989905Y-1132171D02*
X-48894667Y-1084552D01*
X-48894667Y-1084552D02*
X-48704191Y-1084552D01*
X-48704191Y-1084552D02*
X-48608953Y-1132171D01*
X-49037524Y-1703600D02*
X-48942286Y-1751219D01*
X-48942286Y-1751219D02*
X-48704191Y-1751219D01*
X-48704191Y-1751219D02*
X-48608953Y-1703600D01*
X-48608953Y-1703600D02*
X-48561334Y-1608361D01*
X-48561334Y-1608361D02*
X-48561334Y-1513123D01*
X-48561334Y-1513123D02*
X-48608953Y-1417885D01*
X-48608953Y-1417885D02*
X-48704191Y-1370266D01*
X-48704191Y-1370266D02*
X-48942286Y-1370266D01*
X-48942286Y-1370266D02*
X-49037524Y-1322647D01*
X-49513715Y-1751219D02*
X-49513715Y-1084552D01*
X-49513715Y-1275028D02*
X-49561334Y-1179790D01*
X-49561334Y-1179790D02*
X-49608953Y-1132171D01*
X-49608953Y-1132171D02*
X-49704191Y-1084552D01*
X-49704191Y-1084552D02*
X-49799429Y-1084552D01*
X-50275620Y-1751219D02*
X-50180382Y-1703600D01*
X-50180382Y-1703600D02*
X-50132763Y-1608361D01*
X-50132763Y-1608361D02*
X-50132763Y-751219D01*
X-50799430Y-1751219D02*
X-50704192Y-1703600D01*
X-50704192Y-1703600D02*
X-50656573Y-1655980D01*
X-50656573Y-1655980D02*
X-50608954Y-1560742D01*
X-50608954Y-1560742D02*
X-50608954Y-1275028D01*
X-50608954Y-1275028D02*
X-50656573Y-1179790D01*
X-50656573Y-1179790D02*
X-50704192Y-1132171D01*
X-50704192Y-1132171D02*
X-50799430Y-1084552D01*
X-50799430Y-1084552D02*
X-50942287Y-1084552D01*
X-50942287Y-1084552D02*
X-51037525Y-1132171D01*
X-51037525Y-1132171D02*
X-51085144Y-1179790D01*
X-51085144Y-1179790D02*
X-51132763Y-1275028D01*
X-51132763Y-1275028D02*
X-51132763Y-1560742D01*
X-51132763Y-1560742D02*
X-51085144Y-1655980D01*
X-51085144Y-1655980D02*
X-51037525Y-1703600D01*
X-51037525Y-1703600D02*
X-50942287Y-1751219D01*
X-50942287Y-1751219D02*
X-50799430Y-1751219D01*
X-51513716Y-1703600D02*
X-51608954Y-1751219D01*
X-51608954Y-1751219D02*
X-51799430Y-1751219D01*
X-51799430Y-1751219D02*
X-51894668Y-1703600D01*
X-51894668Y-1703600D02*
X-51942287Y-1608361D01*
X-51942287Y-1608361D02*
X-51942287Y-1560742D01*
X-51942287Y-1560742D02*
X-51894668Y-1465504D01*
X-51894668Y-1465504D02*
X-51799430Y-1417885D01*
X-51799430Y-1417885D02*
X-51656573Y-1417885D01*
X-51656573Y-1417885D02*
X-51561335Y-1370266D01*
X-51561335Y-1370266D02*
X-51513716Y-1275028D01*
X-51513716Y-1275028D02*
X-51513716Y-1227409D01*
X-51513716Y-1227409D02*
X-51561335Y-1132171D01*
X-51561335Y-1132171D02*
X-51656573Y-1084552D01*
X-51656573Y-1084552D02*
X-51799430Y-1084552D01*
X-51799430Y-1084552D02*
X-51894668Y-1132171D01*
X-52370859Y-1751219D02*
X-52370859Y-751219D01*
X-52370859Y-1132171D02*
X-52466097Y-1084552D01*
X-52466097Y-1084552D02*
X-52656573Y-1084552D01*
X-52656573Y-1084552D02*
X-52751811Y-1132171D01*
X-52751811Y-1132171D02*
X-52799430Y-1179790D01*
X-52799430Y-1179790D02*
X-52847049Y-1275028D01*
X-52847049Y-1275028D02*
X-52847049Y-1560742D01*
X-52847049Y-1560742D02*
X-52799430Y-1655980D01*
X-52799430Y-1655980D02*
X-52751811Y-1703600D01*
X-52751811Y-1703600D02*
X-52656573Y-1751219D01*
X-52656573Y-1751219D02*
X-52466097Y-1751219D01*
X-52466097Y-1751219D02*
X-52370859Y-1703600D01*
X-53656573Y-1703600D02*
X-53561335Y-1751219D01*
X-53561335Y-1751219D02*
X-53370859Y-1751219D01*
X-53370859Y-1751219D02*
X-53275621Y-1703600D01*
X-53275621Y-1703600D02*
X-53228002Y-1608361D01*
X-53228002Y-1608361D02*
X-53228002Y-1227409D01*
X-53228002Y-1227409D02*
X-53275621Y-1132171D01*
X-53275621Y-1132171D02*
X-53370859Y-1084552D01*
X-53370859Y-1084552D02*
X-53561335Y-1084552D01*
X-53561335Y-1084552D02*
X-53656573Y-1132171D01*
X-53656573Y-1132171D02*
X-53704192Y-1227409D01*
X-53704192Y-1227409D02*
X-53704192Y-1322647D01*
X-53704192Y-1322647D02*
X-53228002Y-1417885D01*
X-53989907Y-1084552D02*
X-54370859Y-1084552D01*
X-54132764Y-751219D02*
X-54132764Y-1608361D01*
X-54132764Y-1608361D02*
X-54180383Y-1703600D01*
X-54180383Y-1703600D02*
X-54275621Y-1751219D01*
X-54275621Y-1751219D02*
X-54370859Y-1751219D01*
X-55132764Y-1751219D02*
X-55132764Y-751219D01*
X-55132764Y-1703600D02*
X-55037526Y-1751219D01*
X-55037526Y-1751219D02*
X-54847050Y-1751219D01*
X-54847050Y-1751219D02*
X-54751812Y-1703600D01*
X-54751812Y-1703600D02*
X-54704193Y-1655980D01*
X-54704193Y-1655980D02*
X-54656574Y-1560742D01*
X-54656574Y-1560742D02*
X-54656574Y-1275028D01*
X-54656574Y-1275028D02*
X-54704193Y-1179790D01*
X-54704193Y-1179790D02*
X-54751812Y-1132171D01*
X-54751812Y-1132171D02*
X-54847050Y-1084552D01*
X-54847050Y-1084552D02*
X-55037526Y-1084552D01*
X-55037526Y-1084552D02*
X-55132764Y-1132171D01*
X-55989907Y-1703600D02*
X-55894669Y-1751219D01*
X-55894669Y-1751219D02*
X-55704193Y-1751219D01*
X-55704193Y-1751219D02*
X-55608955Y-1703600D01*
X-55608955Y-1703600D02*
X-55561336Y-1608361D01*
X-55561336Y-1608361D02*
X-55561336Y-1227409D01*
X-55561336Y-1227409D02*
X-55608955Y-1132171D01*
X-55608955Y-1132171D02*
X-55704193Y-1084552D01*
X-55704193Y-1084552D02*
X-55894669Y-1084552D01*
X-55894669Y-1084552D02*
X-55989907Y-1132171D01*
X-55989907Y-1132171D02*
X-56037526Y-1227409D01*
X-56037526Y-1227409D02*
X-56037526Y-1322647D01*
X-56037526Y-1322647D02*
X-55561336Y-1417885D01*
X-56370860Y-1084552D02*
X-56608955Y-1751219D01*
X-56608955Y-1751219D02*
X-56847050Y-1084552D01*
X-47085143Y-2895028D02*
X-47037524Y-2847409D01*
X-47037524Y-2847409D02*
X-46942286Y-2799790D01*
X-46942286Y-2799790D02*
X-46847048Y-2799790D01*
X-46847048Y-2799790D02*
X-46751810Y-2847409D01*
X-46751810Y-2847409D02*
X-46704191Y-2895028D01*
X-46704191Y-2895028D02*
X-46656572Y-2990266D01*
X-46656572Y-2990266D02*
X-46656572Y-3085504D01*
X-46656572Y-3085504D02*
X-46704191Y-3180742D01*
X-46704191Y-3180742D02*
X-46751810Y-3228361D01*
X-46751810Y-3228361D02*
X-46847048Y-3275980D01*
X-46847048Y-3275980D02*
X-46942286Y-3275980D01*
X-46942286Y-3275980D02*
X-47037524Y-3228361D01*
X-47037524Y-3228361D02*
X-47085143Y-3180742D01*
X-47085143Y-2799790D02*
X-47085143Y-3180742D01*
X-47085143Y-3180742D02*
X-47132762Y-3228361D01*
X-47132762Y-3228361D02*
X-47180381Y-3228361D01*
X-47180381Y-3228361D02*
X-47275620Y-3180742D01*
X-47275620Y-3180742D02*
X-47323239Y-3085504D01*
X-47323239Y-3085504D02*
X-47323239Y-2847409D01*
X-47323239Y-2847409D02*
X-47228000Y-2704552D01*
X-47228000Y-2704552D02*
X-47085143Y-2609314D01*
X-47085143Y-2609314D02*
X-46894667Y-2561695D01*
X-46894667Y-2561695D02*
X-46704191Y-2609314D01*
X-46704191Y-2609314D02*
X-46561334Y-2704552D01*
X-46561334Y-2704552D02*
X-46466096Y-2847409D01*
X-46466096Y-2847409D02*
X-46418477Y-3037885D01*
X-46418477Y-3037885D02*
X-46466096Y-3228361D01*
X-46466096Y-3228361D02*
X-46561334Y-3371219D01*
X-46561334Y-3371219D02*
X-46704191Y-3466457D01*
X-46704191Y-3466457D02*
X-46894667Y-3514076D01*
X-46894667Y-3514076D02*
X-47085143Y-3466457D01*
X-47085143Y-3466457D02*
X-47228000Y-3371219D01*
X-48180381Y-3371219D02*
X-48180381Y-2847409D01*
X-48180381Y-2847409D02*
X-48132762Y-2752171D01*
X-48132762Y-2752171D02*
X-48037524Y-2704552D01*
X-48037524Y-2704552D02*
X-47847048Y-2704552D01*
X-47847048Y-2704552D02*
X-47751810Y-2752171D01*
X-48180381Y-3323600D02*
X-48085143Y-3371219D01*
X-48085143Y-3371219D02*
X-47847048Y-3371219D01*
X-47847048Y-3371219D02*
X-47751810Y-3323600D01*
X-47751810Y-3323600D02*
X-47704191Y-3228361D01*
X-47704191Y-3228361D02*
X-47704191Y-3133123D01*
X-47704191Y-3133123D02*
X-47751810Y-3037885D01*
X-47751810Y-3037885D02*
X-47847048Y-2990266D01*
X-47847048Y-2990266D02*
X-48085143Y-2990266D01*
X-48085143Y-2990266D02*
X-48180381Y-2942647D01*
X-48656572Y-3371219D02*
X-48656572Y-2704552D01*
X-48656572Y-2895028D02*
X-48704191Y-2799790D01*
X-48704191Y-2799790D02*
X-48751810Y-2752171D01*
X-48751810Y-2752171D02*
X-48847048Y-2704552D01*
X-48847048Y-2704552D02*
X-48942286Y-2704552D01*
X-49704191Y-3371219D02*
X-49704191Y-2847409D01*
X-49704191Y-2847409D02*
X-49656572Y-2752171D01*
X-49656572Y-2752171D02*
X-49561334Y-2704552D01*
X-49561334Y-2704552D02*
X-49370858Y-2704552D01*
X-49370858Y-2704552D02*
X-49275620Y-2752171D01*
X-49704191Y-3323600D02*
X-49608953Y-3371219D01*
X-49608953Y-3371219D02*
X-49370858Y-3371219D01*
X-49370858Y-3371219D02*
X-49275620Y-3323600D01*
X-49275620Y-3323600D02*
X-49228001Y-3228361D01*
X-49228001Y-3228361D02*
X-49228001Y-3133123D01*
X-49228001Y-3133123D02*
X-49275620Y-3037885D01*
X-49275620Y-3037885D02*
X-49370858Y-2990266D01*
X-49370858Y-2990266D02*
X-49608953Y-2990266D01*
X-49608953Y-2990266D02*
X-49704191Y-2942647D01*
X-50180382Y-3371219D02*
X-50180382Y-2371219D01*
X-50180382Y-2752171D02*
X-50275620Y-2704552D01*
X-50275620Y-2704552D02*
X-50466096Y-2704552D01*
X-50466096Y-2704552D02*
X-50561334Y-2752171D01*
X-50561334Y-2752171D02*
X-50608953Y-2799790D01*
X-50608953Y-2799790D02*
X-50656572Y-2895028D01*
X-50656572Y-2895028D02*
X-50656572Y-3180742D01*
X-50656572Y-3180742D02*
X-50608953Y-3275980D01*
X-50608953Y-3275980D02*
X-50561334Y-3323600D01*
X-50561334Y-3323600D02*
X-50466096Y-3371219D01*
X-50466096Y-3371219D02*
X-50275620Y-3371219D01*
X-50275620Y-3371219D02*
X-50180382Y-3323600D01*
X-51513715Y-3371219D02*
X-51513715Y-2847409D01*
X-51513715Y-2847409D02*
X-51466096Y-2752171D01*
X-51466096Y-2752171D02*
X-51370858Y-2704552D01*
X-51370858Y-2704552D02*
X-51180382Y-2704552D01*
X-51180382Y-2704552D02*
X-51085144Y-2752171D01*
X-51513715Y-3323600D02*
X-51418477Y-3371219D01*
X-51418477Y-3371219D02*
X-51180382Y-3371219D01*
X-51180382Y-3371219D02*
X-51085144Y-3323600D01*
X-51085144Y-3323600D02*
X-51037525Y-3228361D01*
X-51037525Y-3228361D02*
X-51037525Y-3133123D01*
X-51037525Y-3133123D02*
X-51085144Y-3037885D01*
X-51085144Y-3037885D02*
X-51180382Y-2990266D01*
X-51180382Y-2990266D02*
X-51418477Y-2990266D01*
X-51418477Y-2990266D02*
X-51513715Y-2942647D01*
X-51751810Y-3466457D02*
X-52513715Y-3466457D01*
X-52704192Y-3323600D02*
X-52799430Y-3371219D01*
X-52799430Y-3371219D02*
X-52989906Y-3371219D01*
X-52989906Y-3371219D02*
X-53085144Y-3323600D01*
X-53085144Y-3323600D02*
X-53132763Y-3228361D01*
X-53132763Y-3228361D02*
X-53132763Y-3180742D01*
X-53132763Y-3180742D02*
X-53085144Y-3085504D01*
X-53085144Y-3085504D02*
X-52989906Y-3037885D01*
X-52989906Y-3037885D02*
X-52847049Y-3037885D01*
X-52847049Y-3037885D02*
X-52751811Y-2990266D01*
X-52751811Y-2990266D02*
X-52704192Y-2895028D01*
X-52704192Y-2895028D02*
X-52704192Y-2847409D01*
X-52704192Y-2847409D02*
X-52751811Y-2752171D01*
X-52751811Y-2752171D02*
X-52847049Y-2704552D01*
X-52847049Y-2704552D02*
X-52989906Y-2704552D01*
X-52989906Y-2704552D02*
X-53085144Y-2752171D01*
X-53418478Y-2704552D02*
X-53799430Y-2704552D01*
X-53561335Y-2371219D02*
X-53561335Y-3228361D01*
X-53561335Y-3228361D02*
X-53608954Y-3323600D01*
X-53608954Y-3323600D02*
X-53704192Y-3371219D01*
X-53704192Y-3371219D02*
X-53799430Y-3371219D01*
X-47085143Y-4515028D02*
X-47037524Y-4467409D01*
X-47037524Y-4467409D02*
X-46942286Y-4419790D01*
X-46942286Y-4419790D02*
X-46847048Y-4419790D01*
X-46847048Y-4419790D02*
X-46751810Y-4467409D01*
X-46751810Y-4467409D02*
X-46704191Y-4515028D01*
X-46704191Y-4515028D02*
X-46656572Y-4610266D01*
X-46656572Y-4610266D02*
X-46656572Y-4705504D01*
X-46656572Y-4705504D02*
X-46704191Y-4800742D01*
X-46704191Y-4800742D02*
X-46751810Y-4848361D01*
X-46751810Y-4848361D02*
X-46847048Y-4895980D01*
X-46847048Y-4895980D02*
X-46942286Y-4895980D01*
X-46942286Y-4895980D02*
X-47037524Y-4848361D01*
X-47037524Y-4848361D02*
X-47085143Y-4800742D01*
X-47085143Y-4419790D02*
X-47085143Y-4800742D01*
X-47085143Y-4800742D02*
X-47132762Y-4848361D01*
X-47132762Y-4848361D02*
X-47180381Y-4848361D01*
X-47180381Y-4848361D02*
X-47275620Y-4800742D01*
X-47275620Y-4800742D02*
X-47323239Y-4705504D01*
X-47323239Y-4705504D02*
X-47323239Y-4467409D01*
X-47323239Y-4467409D02*
X-47228000Y-4324552D01*
X-47228000Y-4324552D02*
X-47085143Y-4229314D01*
X-47085143Y-4229314D02*
X-46894667Y-4181695D01*
X-46894667Y-4181695D02*
X-46704191Y-4229314D01*
X-46704191Y-4229314D02*
X-46561334Y-4324552D01*
X-46561334Y-4324552D02*
X-46466096Y-4467409D01*
X-46466096Y-4467409D02*
X-46418477Y-4657885D01*
X-46418477Y-4657885D02*
X-46466096Y-4848361D01*
X-46466096Y-4848361D02*
X-46561334Y-4991219D01*
X-46561334Y-4991219D02*
X-46704191Y-5086457D01*
X-46704191Y-5086457D02*
X-46894667Y-5134076D01*
X-46894667Y-5134076D02*
X-47085143Y-5086457D01*
X-47085143Y-5086457D02*
X-47228000Y-4991219D01*
X-47751810Y-4991219D02*
X-47751810Y-3991219D01*
X-47847048Y-4610266D02*
X-48132762Y-4991219D01*
X-48132762Y-4324552D02*
X-47751810Y-4705504D01*
X-48989905Y-4324552D02*
X-48989905Y-4991219D01*
X-48561334Y-4324552D02*
X-48561334Y-4848361D01*
X-48561334Y-4848361D02*
X-48608953Y-4943600D01*
X-48608953Y-4943600D02*
X-48704191Y-4991219D01*
X-48704191Y-4991219D02*
X-48847048Y-4991219D01*
X-48847048Y-4991219D02*
X-48942286Y-4943600D01*
X-48942286Y-4943600D02*
X-48989905Y-4895980D01*
X-49466096Y-4991219D02*
X-49466096Y-3991219D01*
X-49561334Y-4610266D02*
X-49847048Y-4991219D01*
X-49847048Y-4324552D02*
X-49466096Y-4705504D01*
X-50704191Y-4324552D02*
X-50704191Y-4991219D01*
X-50275620Y-4324552D02*
X-50275620Y-4848361D01*
X-50275620Y-4848361D02*
X-50323239Y-4943600D01*
X-50323239Y-4943600D02*
X-50418477Y-4991219D01*
X-50418477Y-4991219D02*
X-50561334Y-4991219D01*
X-50561334Y-4991219D02*
X-50656572Y-4943600D01*
X-50656572Y-4943600D02*
X-50704191Y-4895980D01*
X-51608953Y-4991219D02*
X-51608953Y-3991219D01*
X-51608953Y-4943600D02*
X-51513715Y-4991219D01*
X-51513715Y-4991219D02*
X-51323239Y-4991219D01*
X-51323239Y-4991219D02*
X-51228001Y-4943600D01*
X-51228001Y-4943600D02*
X-51180382Y-4895980D01*
X-51180382Y-4895980D02*
X-51132763Y-4800742D01*
X-51132763Y-4800742D02*
X-51132763Y-4515028D01*
X-51132763Y-4515028D02*
X-51180382Y-4419790D01*
X-51180382Y-4419790D02*
X-51228001Y-4372171D01*
X-51228001Y-4372171D02*
X-51323239Y-4324552D01*
X-51323239Y-4324552D02*
X-51513715Y-4324552D01*
X-51513715Y-4324552D02*
X-51608953Y-4372171D01*
X-52085144Y-4991219D02*
X-52085144Y-4324552D01*
X-52085144Y-4515028D02*
X-52132763Y-4419790D01*
X-52132763Y-4419790D02*
X-52180382Y-4372171D01*
X-52180382Y-4372171D02*
X-52275620Y-4324552D01*
X-52275620Y-4324552D02*
X-52370858Y-4324552D01*
X-53132763Y-4324552D02*
X-53132763Y-4991219D01*
X-52704192Y-4324552D02*
X-52704192Y-4848361D01*
X-52704192Y-4848361D02*
X-52751811Y-4943600D01*
X-52751811Y-4943600D02*
X-52847049Y-4991219D01*
X-52847049Y-4991219D02*
X-52989906Y-4991219D01*
X-52989906Y-4991219D02*
X-53085144Y-4943600D01*
X-53085144Y-4943600D02*
X-53132763Y-4895980D01*
X-53751811Y-4991219D02*
X-53656573Y-4943600D01*
X-53656573Y-4943600D02*
X-53608954Y-4848361D01*
X-53608954Y-4848361D02*
X-53608954Y-3991219D01*
X-54561335Y-4324552D02*
X-54561335Y-4991219D01*
X-54132764Y-4324552D02*
X-54132764Y-4848361D01*
X-54132764Y-4848361D02*
X-54180383Y-4943600D01*
X-54180383Y-4943600D02*
X-54275621Y-4991219D01*
X-54275621Y-4991219D02*
X-54418478Y-4991219D01*
X-54418478Y-4991219D02*
X-54513716Y-4943600D01*
X-54513716Y-4943600D02*
X-54561335Y-4895980D01*
X-47085143Y-6135028D02*
X-47037524Y-6087409D01*
X-47037524Y-6087409D02*
X-46942286Y-6039790D01*
X-46942286Y-6039790D02*
X-46847048Y-6039790D01*
X-46847048Y-6039790D02*
X-46751810Y-6087409D01*
X-46751810Y-6087409D02*
X-46704191Y-6135028D01*
X-46704191Y-6135028D02*
X-46656572Y-6230266D01*
X-46656572Y-6230266D02*
X-46656572Y-6325504D01*
X-46656572Y-6325504D02*
X-46704191Y-6420742D01*
X-46704191Y-6420742D02*
X-46751810Y-6468361D01*
X-46751810Y-6468361D02*
X-46847048Y-6515980D01*
X-46847048Y-6515980D02*
X-46942286Y-6515980D01*
X-46942286Y-6515980D02*
X-47037524Y-6468361D01*
X-47037524Y-6468361D02*
X-47085143Y-6420742D01*
X-47085143Y-6039790D02*
X-47085143Y-6420742D01*
X-47085143Y-6420742D02*
X-47132762Y-6468361D01*
X-47132762Y-6468361D02*
X-47180381Y-6468361D01*
X-47180381Y-6468361D02*
X-47275620Y-6420742D01*
X-47275620Y-6420742D02*
X-47323239Y-6325504D01*
X-47323239Y-6325504D02*
X-47323239Y-6087409D01*
X-47323239Y-6087409D02*
X-47228000Y-5944552D01*
X-47228000Y-5944552D02*
X-47085143Y-5849314D01*
X-47085143Y-5849314D02*
X-46894667Y-5801695D01*
X-46894667Y-5801695D02*
X-46704191Y-5849314D01*
X-46704191Y-5849314D02*
X-46561334Y-5944552D01*
X-46561334Y-5944552D02*
X-46466096Y-6087409D01*
X-46466096Y-6087409D02*
X-46418477Y-6277885D01*
X-46418477Y-6277885D02*
X-46466096Y-6468361D01*
X-46466096Y-6468361D02*
X-46561334Y-6611219D01*
X-46561334Y-6611219D02*
X-46704191Y-6706457D01*
X-46704191Y-6706457D02*
X-46894667Y-6754076D01*
X-46894667Y-6754076D02*
X-47085143Y-6706457D01*
X-47085143Y-6706457D02*
X-47228000Y-6611219D01*
X-47608953Y-5944552D02*
X-47989905Y-5944552D01*
X-47751810Y-6611219D02*
X-47751810Y-5754076D01*
X-47751810Y-5754076D02*
X-47799429Y-5658838D01*
X-47799429Y-5658838D02*
X-47894667Y-5611219D01*
X-47894667Y-5611219D02*
X-47989905Y-5611219D01*
X-48751810Y-6611219D02*
X-48751810Y-6087409D01*
X-48751810Y-6087409D02*
X-48704191Y-5992171D01*
X-48704191Y-5992171D02*
X-48608953Y-5944552D01*
X-48608953Y-5944552D02*
X-48418477Y-5944552D01*
X-48418477Y-5944552D02*
X-48323239Y-5992171D01*
X-48751810Y-6563600D02*
X-48656572Y-6611219D01*
X-48656572Y-6611219D02*
X-48418477Y-6611219D01*
X-48418477Y-6611219D02*
X-48323239Y-6563600D01*
X-48323239Y-6563600D02*
X-48275620Y-6468361D01*
X-48275620Y-6468361D02*
X-48275620Y-6373123D01*
X-48275620Y-6373123D02*
X-48323239Y-6277885D01*
X-48323239Y-6277885D02*
X-48418477Y-6230266D01*
X-48418477Y-6230266D02*
X-48656572Y-6230266D01*
X-48656572Y-6230266D02*
X-48751810Y-6182647D01*
X-49085144Y-5944552D02*
X-49466096Y-5944552D01*
X-49228001Y-5611219D02*
X-49228001Y-6468361D01*
X-49228001Y-6468361D02*
X-49275620Y-6563600D01*
X-49275620Y-6563600D02*
X-49370858Y-6611219D01*
X-49370858Y-6611219D02*
X-49466096Y-6611219D01*
X-50180382Y-6563600D02*
X-50085144Y-6611219D01*
X-50085144Y-6611219D02*
X-49894668Y-6611219D01*
X-49894668Y-6611219D02*
X-49799430Y-6563600D01*
X-49799430Y-6563600D02*
X-49751811Y-6468361D01*
X-49751811Y-6468361D02*
X-49751811Y-6087409D01*
X-49751811Y-6087409D02*
X-49799430Y-5992171D01*
X-49799430Y-5992171D02*
X-49894668Y-5944552D01*
X-49894668Y-5944552D02*
X-50085144Y-5944552D01*
X-50085144Y-5944552D02*
X-50180382Y-5992171D01*
X-50180382Y-5992171D02*
X-50228001Y-6087409D01*
X-50228001Y-6087409D02*
X-50228001Y-6182647D01*
X-50228001Y-6182647D02*
X-49751811Y-6277885D01*
X-51085144Y-5944552D02*
X-51085144Y-6611219D01*
X-50656573Y-5944552D02*
X-50656573Y-6468361D01*
X-50656573Y-6468361D02*
X-50704192Y-6563600D01*
X-50704192Y-6563600D02*
X-50799430Y-6611219D01*
X-50799430Y-6611219D02*
X-50942287Y-6611219D01*
X-50942287Y-6611219D02*
X-51037525Y-6563600D01*
X-51037525Y-6563600D02*
X-51085144Y-6515980D01*
X-51561335Y-6611219D02*
X-51561335Y-5611219D01*
X-51656573Y-6230266D02*
X-51942287Y-6611219D01*
X-51942287Y-5944552D02*
X-51561335Y-6325504D01*
X-52370859Y-6611219D02*
X-52370859Y-5944552D01*
X-52370859Y-5611219D02*
X-52323240Y-5658838D01*
X-52323240Y-5658838D02*
X-52370859Y-5706457D01*
X-52370859Y-5706457D02*
X-52418478Y-5658838D01*
X-52418478Y-5658838D02*
X-52370859Y-5611219D01*
X-52370859Y-5611219D02*
X-52370859Y-5706457D01*
X-53370858Y-6611219D02*
X-52799430Y-6611219D01*
X-53085144Y-6611219D02*
X-53085144Y-5611219D01*
X-53085144Y-5611219D02*
X-52989906Y-5754076D01*
X-52989906Y-5754076D02*
X-52894668Y-5849314D01*
X-52894668Y-5849314D02*
X-52799430Y-5896933D01*
X-47085143Y-7755028D02*
X-47037524Y-7707409D01*
X-47037524Y-7707409D02*
X-46942286Y-7659790D01*
X-46942286Y-7659790D02*
X-46847048Y-7659790D01*
X-46847048Y-7659790D02*
X-46751810Y-7707409D01*
X-46751810Y-7707409D02*
X-46704191Y-7755028D01*
X-46704191Y-7755028D02*
X-46656572Y-7850266D01*
X-46656572Y-7850266D02*
X-46656572Y-7945504D01*
X-46656572Y-7945504D02*
X-46704191Y-8040742D01*
X-46704191Y-8040742D02*
X-46751810Y-8088361D01*
X-46751810Y-8088361D02*
X-46847048Y-8135980D01*
X-46847048Y-8135980D02*
X-46942286Y-8135980D01*
X-46942286Y-8135980D02*
X-47037524Y-8088361D01*
X-47037524Y-8088361D02*
X-47085143Y-8040742D01*
X-47085143Y-7659790D02*
X-47085143Y-8040742D01*
X-47085143Y-8040742D02*
X-47132762Y-8088361D01*
X-47132762Y-8088361D02*
X-47180381Y-8088361D01*
X-47180381Y-8088361D02*
X-47275620Y-8040742D01*
X-47275620Y-8040742D02*
X-47323239Y-7945504D01*
X-47323239Y-7945504D02*
X-47323239Y-7707409D01*
X-47323239Y-7707409D02*
X-47228000Y-7564552D01*
X-47228000Y-7564552D02*
X-47085143Y-7469314D01*
X-47085143Y-7469314D02*
X-46894667Y-7421695D01*
X-46894667Y-7421695D02*
X-46704191Y-7469314D01*
X-46704191Y-7469314D02*
X-46561334Y-7564552D01*
X-46561334Y-7564552D02*
X-46466096Y-7707409D01*
X-46466096Y-7707409D02*
X-46418477Y-7897885D01*
X-46418477Y-7897885D02*
X-46466096Y-8088361D01*
X-46466096Y-8088361D02*
X-46561334Y-8231219D01*
X-46561334Y-8231219D02*
X-46704191Y-8326457D01*
X-46704191Y-8326457D02*
X-46894667Y-8374076D01*
X-46894667Y-8374076D02*
X-47085143Y-8326457D01*
X-47085143Y-8326457D02*
X-47228000Y-8231219D01*
X-48180381Y-8231219D02*
X-48180381Y-7707409D01*
X-48180381Y-7707409D02*
X-48132762Y-7612171D01*
X-48132762Y-7612171D02*
X-48037524Y-7564552D01*
X-48037524Y-7564552D02*
X-47847048Y-7564552D01*
X-47847048Y-7564552D02*
X-47751810Y-7612171D01*
X-48180381Y-8183600D02*
X-48085143Y-8231219D01*
X-48085143Y-8231219D02*
X-47847048Y-8231219D01*
X-47847048Y-8231219D02*
X-47751810Y-8183600D01*
X-47751810Y-8183600D02*
X-47704191Y-8088361D01*
X-47704191Y-8088361D02*
X-47704191Y-7993123D01*
X-47704191Y-7993123D02*
X-47751810Y-7897885D01*
X-47751810Y-7897885D02*
X-47847048Y-7850266D01*
X-47847048Y-7850266D02*
X-48085143Y-7850266D01*
X-48085143Y-7850266D02*
X-48180381Y-7802647D01*
X-48656572Y-7564552D02*
X-48656572Y-8231219D01*
X-48656572Y-7659790D02*
X-48704191Y-7612171D01*
X-48704191Y-7612171D02*
X-48799429Y-7564552D01*
X-48799429Y-7564552D02*
X-48942286Y-7564552D01*
X-48942286Y-7564552D02*
X-49037524Y-7612171D01*
X-49037524Y-7612171D02*
X-49085143Y-7707409D01*
X-49085143Y-7707409D02*
X-49085143Y-8231219D01*
X-49989905Y-8231219D02*
X-49989905Y-7231219D01*
X-49989905Y-8183600D02*
X-49894667Y-8231219D01*
X-49894667Y-8231219D02*
X-49704191Y-8231219D01*
X-49704191Y-8231219D02*
X-49608953Y-8183600D01*
X-49608953Y-8183600D02*
X-49561334Y-8135980D01*
X-49561334Y-8135980D02*
X-49513715Y-8040742D01*
X-49513715Y-8040742D02*
X-49513715Y-7755028D01*
X-49513715Y-7755028D02*
X-49561334Y-7659790D01*
X-49561334Y-7659790D02*
X-49608953Y-7612171D01*
X-49608953Y-7612171D02*
X-49704191Y-7564552D01*
X-49704191Y-7564552D02*
X-49894667Y-7564552D01*
X-49894667Y-7564552D02*
X-49989905Y-7612171D01*
X-50370858Y-7564552D02*
X-50608953Y-8231219D01*
X-50847048Y-7564552D02*
X-50608953Y-8231219D01*
X-50608953Y-8231219D02*
X-50513715Y-8469314D01*
X-50513715Y-8469314D02*
X-50466096Y-8516933D01*
X-50466096Y-8516933D02*
X-50370858Y-8564552D01*
X-51656572Y-7564552D02*
X-51656572Y-8374076D01*
X-51656572Y-8374076D02*
X-51608953Y-8469314D01*
X-51608953Y-8469314D02*
X-51561334Y-8516933D01*
X-51561334Y-8516933D02*
X-51466096Y-8564552D01*
X-51466096Y-8564552D02*
X-51323239Y-8564552D01*
X-51323239Y-8564552D02*
X-51228001Y-8516933D01*
X-51656572Y-8183600D02*
X-51561334Y-8231219D01*
X-51561334Y-8231219D02*
X-51370858Y-8231219D01*
X-51370858Y-8231219D02*
X-51275620Y-8183600D01*
X-51275620Y-8183600D02*
X-51228001Y-8135980D01*
X-51228001Y-8135980D02*
X-51180382Y-8040742D01*
X-51180382Y-8040742D02*
X-51180382Y-7755028D01*
X-51180382Y-7755028D02*
X-51228001Y-7659790D01*
X-51228001Y-7659790D02*
X-51275620Y-7612171D01*
X-51275620Y-7612171D02*
X-51370858Y-7564552D01*
X-51370858Y-7564552D02*
X-51561334Y-7564552D01*
X-51561334Y-7564552D02*
X-51656572Y-7612171D01*
X-52132763Y-8231219D02*
X-52132763Y-7564552D01*
X-52132763Y-7659790D02*
X-52180382Y-7612171D01*
X-52180382Y-7612171D02*
X-52275620Y-7564552D01*
X-52275620Y-7564552D02*
X-52418477Y-7564552D01*
X-52418477Y-7564552D02*
X-52513715Y-7612171D01*
X-52513715Y-7612171D02*
X-52561334Y-7707409D01*
X-52561334Y-7707409D02*
X-52561334Y-8231219D01*
X-52561334Y-7707409D02*
X-52608953Y-7612171D01*
X-52608953Y-7612171D02*
X-52704191Y-7564552D01*
X-52704191Y-7564552D02*
X-52847048Y-7564552D01*
X-52847048Y-7564552D02*
X-52942287Y-7612171D01*
X-52942287Y-7612171D02*
X-52989906Y-7707409D01*
X-52989906Y-7707409D02*
X-52989906Y-8231219D01*
X-53228000Y-8326457D02*
X-53989905Y-8326457D01*
X-47085143Y-9375028D02*
X-47037524Y-9327409D01*
X-47037524Y-9327409D02*
X-46942286Y-9279790D01*
X-46942286Y-9279790D02*
X-46847048Y-9279790D01*
X-46847048Y-9279790D02*
X-46751810Y-9327409D01*
X-46751810Y-9327409D02*
X-46704191Y-9375028D01*
X-46704191Y-9375028D02*
X-46656572Y-9470266D01*
X-46656572Y-9470266D02*
X-46656572Y-9565504D01*
X-46656572Y-9565504D02*
X-46704191Y-9660742D01*
X-46704191Y-9660742D02*
X-46751810Y-9708361D01*
X-46751810Y-9708361D02*
X-46847048Y-9755980D01*
X-46847048Y-9755980D02*
X-46942286Y-9755980D01*
X-46942286Y-9755980D02*
X-47037524Y-9708361D01*
X-47037524Y-9708361D02*
X-47085143Y-9660742D01*
X-47085143Y-9279790D02*
X-47085143Y-9660742D01*
X-47085143Y-9660742D02*
X-47132762Y-9708361D01*
X-47132762Y-9708361D02*
X-47180381Y-9708361D01*
X-47180381Y-9708361D02*
X-47275620Y-9660742D01*
X-47275620Y-9660742D02*
X-47323239Y-9565504D01*
X-47323239Y-9565504D02*
X-47323239Y-9327409D01*
X-47323239Y-9327409D02*
X-47228000Y-9184552D01*
X-47228000Y-9184552D02*
X-47085143Y-9089314D01*
X-47085143Y-9089314D02*
X-46894667Y-9041695D01*
X-46894667Y-9041695D02*
X-46704191Y-9089314D01*
X-46704191Y-9089314D02*
X-46561334Y-9184552D01*
X-46561334Y-9184552D02*
X-46466096Y-9327409D01*
X-46466096Y-9327409D02*
X-46418477Y-9517885D01*
X-46418477Y-9517885D02*
X-46466096Y-9708361D01*
X-46466096Y-9708361D02*
X-46561334Y-9851219D01*
X-46561334Y-9851219D02*
X-46704191Y-9946457D01*
X-46704191Y-9946457D02*
X-46894667Y-9994076D01*
X-46894667Y-9994076D02*
X-47085143Y-9946457D01*
X-47085143Y-9946457D02*
X-47228000Y-9851219D01*
X-48180381Y-9184552D02*
X-48180381Y-9851219D01*
X-47751810Y-9184552D02*
X-47751810Y-9708361D01*
X-47751810Y-9708361D02*
X-47799429Y-9803600D01*
X-47799429Y-9803600D02*
X-47894667Y-9851219D01*
X-47894667Y-9851219D02*
X-48037524Y-9851219D01*
X-48037524Y-9851219D02*
X-48132762Y-9803600D01*
X-48132762Y-9803600D02*
X-48180381Y-9755980D01*
X-48656572Y-9184552D02*
X-48656572Y-9851219D01*
X-48656572Y-9279790D02*
X-48704191Y-9232171D01*
X-48704191Y-9232171D02*
X-48799429Y-9184552D01*
X-48799429Y-9184552D02*
X-48942286Y-9184552D01*
X-48942286Y-9184552D02*
X-49037524Y-9232171D01*
X-49037524Y-9232171D02*
X-49085143Y-9327409D01*
X-49085143Y-9327409D02*
X-49085143Y-9851219D01*
X-49323238Y-9946457D02*
X-50085143Y-9946457D01*
X-50323239Y-9851219D02*
X-50323239Y-8851219D01*
X-50323239Y-9232171D02*
X-50418477Y-9184552D01*
X-50418477Y-9184552D02*
X-50608953Y-9184552D01*
X-50608953Y-9184552D02*
X-50704191Y-9232171D01*
X-50704191Y-9232171D02*
X-50751810Y-9279790D01*
X-50751810Y-9279790D02*
X-50799429Y-9375028D01*
X-50799429Y-9375028D02*
X-50799429Y-9660742D01*
X-50799429Y-9660742D02*
X-50751810Y-9755980D01*
X-50751810Y-9755980D02*
X-50704191Y-9803600D01*
X-50704191Y-9803600D02*
X-50608953Y-9851219D01*
X-50608953Y-9851219D02*
X-50418477Y-9851219D01*
X-50418477Y-9851219D02*
X-50323239Y-9803600D01*
X-51228001Y-9851219D02*
X-51228001Y-9184552D01*
X-51228001Y-8851219D02*
X-51180382Y-8898838D01*
X-51180382Y-8898838D02*
X-51228001Y-8946457D01*
X-51228001Y-8946457D02*
X-51275620Y-8898838D01*
X-51275620Y-8898838D02*
X-51228001Y-8851219D01*
X-51228001Y-8851219D02*
X-51228001Y-8946457D01*
X-51608953Y-9184552D02*
X-52132762Y-9184552D01*
X-52132762Y-9184552D02*
X-51608953Y-9851219D01*
X-51608953Y-9851219D02*
X-52132762Y-9851219D01*
X-52942286Y-9803600D02*
X-52847048Y-9851219D01*
X-52847048Y-9851219D02*
X-52656572Y-9851219D01*
X-52656572Y-9851219D02*
X-52561334Y-9803600D01*
X-52561334Y-9803600D02*
X-52513715Y-9755980D01*
X-52513715Y-9755980D02*
X-52466096Y-9660742D01*
X-52466096Y-9660742D02*
X-52466096Y-9375028D01*
X-52466096Y-9375028D02*
X-52513715Y-9279790D01*
X-52513715Y-9279790D02*
X-52561334Y-9232171D01*
X-52561334Y-9232171D02*
X-52656572Y-9184552D01*
X-52656572Y-9184552D02*
X-52847048Y-9184552D01*
X-52847048Y-9184552D02*
X-52942286Y-9232171D01*
X-53513715Y-9851219D02*
X-53418477Y-9803600D01*
X-53418477Y-9803600D02*
X-53370858Y-9755980D01*
X-53370858Y-9755980D02*
X-53323239Y-9660742D01*
X-53323239Y-9660742D02*
X-53323239Y-9375028D01*
X-53323239Y-9375028D02*
X-53370858Y-9279790D01*
X-53370858Y-9279790D02*
X-53418477Y-9232171D01*
X-53418477Y-9232171D02*
X-53513715Y-9184552D01*
X-53513715Y-9184552D02*
X-53656572Y-9184552D01*
X-53656572Y-9184552D02*
X-53751810Y-9232171D01*
X-53751810Y-9232171D02*
X-53799429Y-9279790D01*
X-53799429Y-9279790D02*
X-53847048Y-9375028D01*
X-53847048Y-9375028D02*
X-53847048Y-9660742D01*
X-53847048Y-9660742D02*
X-53799429Y-9755980D01*
X-53799429Y-9755980D02*
X-53751810Y-9803600D01*
X-53751810Y-9803600D02*
X-53656572Y-9851219D01*
X-53656572Y-9851219D02*
X-53513715Y-9851219D01*
X-47085143Y-10995028D02*
X-47037524Y-10947409D01*
X-47037524Y-10947409D02*
X-46942286Y-10899790D01*
X-46942286Y-10899790D02*
X-46847048Y-10899790D01*
X-46847048Y-10899790D02*
X-46751810Y-10947409D01*
X-46751810Y-10947409D02*
X-46704191Y-10995028D01*
X-46704191Y-10995028D02*
X-46656572Y-11090266D01*
X-46656572Y-11090266D02*
X-46656572Y-11185504D01*
X-46656572Y-11185504D02*
X-46704191Y-11280742D01*
X-46704191Y-11280742D02*
X-46751810Y-11328361D01*
X-46751810Y-11328361D02*
X-46847048Y-11375980D01*
X-46847048Y-11375980D02*
X-46942286Y-11375980D01*
X-46942286Y-11375980D02*
X-47037524Y-11328361D01*
X-47037524Y-11328361D02*
X-47085143Y-11280742D01*
X-47085143Y-10899790D02*
X-47085143Y-11280742D01*
X-47085143Y-11280742D02*
X-47132762Y-11328361D01*
X-47132762Y-11328361D02*
X-47180381Y-11328361D01*
X-47180381Y-11328361D02*
X-47275620Y-11280742D01*
X-47275620Y-11280742D02*
X-47323239Y-11185504D01*
X-47323239Y-11185504D02*
X-47323239Y-10947409D01*
X-47323239Y-10947409D02*
X-47228000Y-10804552D01*
X-47228000Y-10804552D02*
X-47085143Y-10709314D01*
X-47085143Y-10709314D02*
X-46894667Y-10661695D01*
X-46894667Y-10661695D02*
X-46704191Y-10709314D01*
X-46704191Y-10709314D02*
X-46561334Y-10804552D01*
X-46561334Y-10804552D02*
X-46466096Y-10947409D01*
X-46466096Y-10947409D02*
X-46418477Y-11137885D01*
X-46418477Y-11137885D02*
X-46466096Y-11328361D01*
X-46466096Y-11328361D02*
X-46561334Y-11471219D01*
X-46561334Y-11471219D02*
X-46704191Y-11566457D01*
X-46704191Y-11566457D02*
X-46894667Y-11614076D01*
X-46894667Y-11614076D02*
X-47085143Y-11566457D01*
X-47085143Y-11566457D02*
X-47228000Y-11471219D01*
X-47751810Y-10804552D02*
X-47751810Y-11661695D01*
X-47751810Y-11661695D02*
X-47704191Y-11756933D01*
X-47704191Y-11756933D02*
X-47608953Y-11804552D01*
X-47608953Y-11804552D02*
X-47561334Y-11804552D01*
X-47751810Y-10471219D02*
X-47704191Y-10518838D01*
X-47704191Y-10518838D02*
X-47751810Y-10566457D01*
X-47751810Y-10566457D02*
X-47799429Y-10518838D01*
X-47799429Y-10518838D02*
X-47751810Y-10471219D01*
X-47751810Y-10471219D02*
X-47751810Y-10566457D01*
X-48085143Y-10804552D02*
X-48466095Y-10804552D01*
X-48228000Y-11471219D02*
X-48228000Y-10614076D01*
X-48228000Y-10614076D02*
X-48275619Y-10518838D01*
X-48275619Y-10518838D02*
X-48370857Y-10471219D01*
X-48370857Y-10471219D02*
X-48466095Y-10471219D01*
X-49180381Y-11423600D02*
X-49085143Y-11471219D01*
X-49085143Y-11471219D02*
X-48894667Y-11471219D01*
X-48894667Y-11471219D02*
X-48799429Y-11423600D01*
X-48799429Y-11423600D02*
X-48751810Y-11328361D01*
X-48751810Y-11328361D02*
X-48751810Y-10947409D01*
X-48751810Y-10947409D02*
X-48799429Y-10852171D01*
X-48799429Y-10852171D02*
X-48894667Y-10804552D01*
X-48894667Y-10804552D02*
X-49085143Y-10804552D01*
X-49085143Y-10804552D02*
X-49180381Y-10852171D01*
X-49180381Y-10852171D02*
X-49228000Y-10947409D01*
X-49228000Y-10947409D02*
X-49228000Y-11042647D01*
X-49228000Y-11042647D02*
X-48751810Y-11137885D01*
X-49799429Y-11471219D02*
X-49704191Y-11423600D01*
X-49704191Y-11423600D02*
X-49656572Y-11328361D01*
X-49656572Y-11328361D02*
X-49656572Y-10471219D01*
X-50180382Y-11471219D02*
X-50180382Y-10804552D01*
X-50180382Y-10471219D02*
X-50132763Y-10518838D01*
X-50132763Y-10518838D02*
X-50180382Y-10566457D01*
X-50180382Y-10566457D02*
X-50228001Y-10518838D01*
X-50228001Y-10518838D02*
X-50180382Y-10471219D01*
X-50180382Y-10471219D02*
X-50180382Y-10566457D01*
X-50656572Y-10804552D02*
X-50656572Y-11804552D01*
X-50656572Y-10852171D02*
X-50751810Y-10804552D01*
X-50751810Y-10804552D02*
X-50942286Y-10804552D01*
X-50942286Y-10804552D02*
X-51037524Y-10852171D01*
X-51037524Y-10852171D02*
X-51085143Y-10899790D01*
X-51085143Y-10899790D02*
X-51132762Y-10995028D01*
X-51132762Y-10995028D02*
X-51132762Y-11280742D01*
X-51132762Y-11280742D02*
X-51085143Y-11375980D01*
X-51085143Y-11375980D02*
X-51037524Y-11423600D01*
X-51037524Y-11423600D02*
X-50942286Y-11471219D01*
X-50942286Y-11471219D02*
X-50751810Y-11471219D01*
X-50751810Y-11471219D02*
X-50656572Y-11423600D01*
X-51942286Y-11423600D02*
X-51847048Y-11471219D01*
X-51847048Y-11471219D02*
X-51656572Y-11471219D01*
X-51656572Y-11471219D02*
X-51561334Y-11423600D01*
X-51561334Y-11423600D02*
X-51513715Y-11328361D01*
X-51513715Y-11328361D02*
X-51513715Y-10947409D01*
X-51513715Y-10947409D02*
X-51561334Y-10852171D01*
X-51561334Y-10852171D02*
X-51656572Y-10804552D01*
X-51656572Y-10804552D02*
X-51847048Y-10804552D01*
X-51847048Y-10804552D02*
X-51942286Y-10852171D01*
X-51942286Y-10852171D02*
X-51989905Y-10947409D01*
X-51989905Y-10947409D02*
X-51989905Y-11042647D01*
X-51989905Y-11042647D02*
X-51513715Y-11137885D01*
X-52180381Y-11566457D02*
X-52942286Y-11566457D01*
X-53180382Y-11471219D02*
X-53180382Y-10804552D01*
X-53180382Y-10899790D02*
X-53228001Y-10852171D01*
X-53228001Y-10852171D02*
X-53323239Y-10804552D01*
X-53323239Y-10804552D02*
X-53466096Y-10804552D01*
X-53466096Y-10804552D02*
X-53561334Y-10852171D01*
X-53561334Y-10852171D02*
X-53608953Y-10947409D01*
X-53608953Y-10947409D02*
X-53608953Y-11471219D01*
X-53608953Y-10947409D02*
X-53656572Y-10852171D01*
X-53656572Y-10852171D02*
X-53751810Y-10804552D01*
X-53751810Y-10804552D02*
X-53894667Y-10804552D01*
X-53894667Y-10804552D02*
X-53989906Y-10852171D01*
X-53989906Y-10852171D02*
X-54037525Y-10947409D01*
X-54037525Y-10947409D02*
X-54037525Y-11471219D01*
X-54942286Y-10804552D02*
X-54942286Y-11614076D01*
X-54942286Y-11614076D02*
X-54894667Y-11709314D01*
X-54894667Y-11709314D02*
X-54847048Y-11756933D01*
X-54847048Y-11756933D02*
X-54751810Y-11804552D01*
X-54751810Y-11804552D02*
X-54608953Y-11804552D01*
X-54608953Y-11804552D02*
X-54513715Y-11756933D01*
X-54942286Y-11423600D02*
X-54847048Y-11471219D01*
X-54847048Y-11471219D02*
X-54656572Y-11471219D01*
X-54656572Y-11471219D02*
X-54561334Y-11423600D01*
X-54561334Y-11423600D02*
X-54513715Y-11375980D01*
X-54513715Y-11375980D02*
X-54466096Y-11280742D01*
X-54466096Y-11280742D02*
X-54466096Y-10995028D01*
X-54466096Y-10995028D02*
X-54513715Y-10899790D01*
X-54513715Y-10899790D02*
X-54561334Y-10852171D01*
X-54561334Y-10852171D02*
X-54656572Y-10804552D01*
X-54656572Y-10804552D02*
X-54847048Y-10804552D01*
X-54847048Y-10804552D02*
X-54942286Y-10852171D01*
X-47085143Y-12615028D02*
X-47037524Y-12567409D01*
X-47037524Y-12567409D02*
X-46942286Y-12519790D01*
X-46942286Y-12519790D02*
X-46847048Y-12519790D01*
X-46847048Y-12519790D02*
X-46751810Y-12567409D01*
X-46751810Y-12567409D02*
X-46704191Y-12615028D01*
X-46704191Y-12615028D02*
X-46656572Y-12710266D01*
X-46656572Y-12710266D02*
X-46656572Y-12805504D01*
X-46656572Y-12805504D02*
X-46704191Y-12900742D01*
X-46704191Y-12900742D02*
X-46751810Y-12948361D01*
X-46751810Y-12948361D02*
X-46847048Y-12995980D01*
X-46847048Y-12995980D02*
X-46942286Y-12995980D01*
X-46942286Y-12995980D02*
X-47037524Y-12948361D01*
X-47037524Y-12948361D02*
X-47085143Y-12900742D01*
X-47085143Y-12519790D02*
X-47085143Y-12900742D01*
X-47085143Y-12900742D02*
X-47132762Y-12948361D01*
X-47132762Y-12948361D02*
X-47180381Y-12948361D01*
X-47180381Y-12948361D02*
X-47275620Y-12900742D01*
X-47275620Y-12900742D02*
X-47323239Y-12805504D01*
X-47323239Y-12805504D02*
X-47323239Y-12567409D01*
X-47323239Y-12567409D02*
X-47228000Y-12424552D01*
X-47228000Y-12424552D02*
X-47085143Y-12329314D01*
X-47085143Y-12329314D02*
X-46894667Y-12281695D01*
X-46894667Y-12281695D02*
X-46704191Y-12329314D01*
X-46704191Y-12329314D02*
X-46561334Y-12424552D01*
X-46561334Y-12424552D02*
X-46466096Y-12567409D01*
X-46466096Y-12567409D02*
X-46418477Y-12757885D01*
X-46418477Y-12757885D02*
X-46466096Y-12948361D01*
X-46466096Y-12948361D02*
X-46561334Y-13091219D01*
X-46561334Y-13091219D02*
X-46704191Y-13186457D01*
X-46704191Y-13186457D02*
X-46894667Y-13234076D01*
X-46894667Y-13234076D02*
X-47085143Y-13186457D01*
X-47085143Y-13186457D02*
X-47228000Y-13091219D01*
X-47751810Y-12424552D02*
X-47751810Y-13424552D01*
X-47751810Y-12472171D02*
X-47847048Y-12424552D01*
X-47847048Y-12424552D02*
X-48037524Y-12424552D01*
X-48037524Y-12424552D02*
X-48132762Y-12472171D01*
X-48132762Y-12472171D02*
X-48180381Y-12519790D01*
X-48180381Y-12519790D02*
X-48228000Y-12615028D01*
X-48228000Y-12615028D02*
X-48228000Y-12900742D01*
X-48228000Y-12900742D02*
X-48180381Y-12995980D01*
X-48180381Y-12995980D02*
X-48132762Y-13043600D01*
X-48132762Y-13043600D02*
X-48037524Y-13091219D01*
X-48037524Y-13091219D02*
X-47847048Y-13091219D01*
X-47847048Y-13091219D02*
X-47751810Y-13043600D01*
X-49085143Y-13091219D02*
X-49085143Y-12567409D01*
X-49085143Y-12567409D02*
X-49037524Y-12472171D01*
X-49037524Y-12472171D02*
X-48942286Y-12424552D01*
X-48942286Y-12424552D02*
X-48751810Y-12424552D01*
X-48751810Y-12424552D02*
X-48656572Y-12472171D01*
X-49085143Y-13043600D02*
X-48989905Y-13091219D01*
X-48989905Y-13091219D02*
X-48751810Y-13091219D01*
X-48751810Y-13091219D02*
X-48656572Y-13043600D01*
X-48656572Y-13043600D02*
X-48608953Y-12948361D01*
X-48608953Y-12948361D02*
X-48608953Y-12853123D01*
X-48608953Y-12853123D02*
X-48656572Y-12757885D01*
X-48656572Y-12757885D02*
X-48751810Y-12710266D01*
X-48751810Y-12710266D02*
X-48989905Y-12710266D01*
X-48989905Y-12710266D02*
X-49085143Y-12662647D01*
X-49989905Y-13043600D02*
X-49894667Y-13091219D01*
X-49894667Y-13091219D02*
X-49704191Y-13091219D01*
X-49704191Y-13091219D02*
X-49608953Y-13043600D01*
X-49608953Y-13043600D02*
X-49561334Y-12995980D01*
X-49561334Y-12995980D02*
X-49513715Y-12900742D01*
X-49513715Y-12900742D02*
X-49513715Y-12615028D01*
X-49513715Y-12615028D02*
X-49561334Y-12519790D01*
X-49561334Y-12519790D02*
X-49608953Y-12472171D01*
X-49608953Y-12472171D02*
X-49704191Y-12424552D01*
X-49704191Y-12424552D02*
X-49894667Y-12424552D01*
X-49894667Y-12424552D02*
X-49989905Y-12472171D01*
X-50561334Y-13091219D02*
X-50466096Y-13043600D01*
X-50466096Y-13043600D02*
X-50418477Y-12995980D01*
X-50418477Y-12995980D02*
X-50370858Y-12900742D01*
X-50370858Y-12900742D02*
X-50370858Y-12615028D01*
X-50370858Y-12615028D02*
X-50418477Y-12519790D01*
X-50418477Y-12519790D02*
X-50466096Y-12472171D01*
X-50466096Y-12472171D02*
X-50561334Y-12424552D01*
X-50561334Y-12424552D02*
X-50704191Y-12424552D01*
X-50704191Y-12424552D02*
X-50799429Y-12472171D01*
X-50799429Y-12472171D02*
X-50847048Y-12519790D01*
X-50847048Y-12519790D02*
X-50894667Y-12615028D01*
X-50894667Y-12615028D02*
X-50894667Y-12900742D01*
X-50894667Y-12900742D02*
X-50847048Y-12995980D01*
X-50847048Y-12995980D02*
X-50799429Y-13043600D01*
X-50799429Y-13043600D02*
X-50704191Y-13091219D01*
X-50704191Y-13091219D02*
X-50561334Y-13091219D01*
X-51085143Y-13186457D02*
X-51847048Y-13186457D01*
X-52513715Y-12424552D02*
X-52513715Y-13234076D01*
X-52513715Y-13234076D02*
X-52466096Y-13329314D01*
X-52466096Y-13329314D02*
X-52418477Y-13376933D01*
X-52418477Y-13376933D02*
X-52323239Y-13424552D01*
X-52323239Y-13424552D02*
X-52180382Y-13424552D01*
X-52180382Y-13424552D02*
X-52085144Y-13376933D01*
X-52513715Y-13043600D02*
X-52418477Y-13091219D01*
X-52418477Y-13091219D02*
X-52228001Y-13091219D01*
X-52228001Y-13091219D02*
X-52132763Y-13043600D01*
X-52132763Y-13043600D02*
X-52085144Y-12995980D01*
X-52085144Y-12995980D02*
X-52037525Y-12900742D01*
X-52037525Y-12900742D02*
X-52037525Y-12615028D01*
X-52037525Y-12615028D02*
X-52085144Y-12519790D01*
X-52085144Y-12519790D02*
X-52132763Y-12472171D01*
X-52132763Y-12472171D02*
X-52228001Y-12424552D01*
X-52228001Y-12424552D02*
X-52418477Y-12424552D01*
X-52418477Y-12424552D02*
X-52513715Y-12472171D01*
X-53418477Y-12424552D02*
X-53418477Y-13234076D01*
X-53418477Y-13234076D02*
X-53370858Y-13329314D01*
X-53370858Y-13329314D02*
X-53323239Y-13376933D01*
X-53323239Y-13376933D02*
X-53228001Y-13424552D01*
X-53228001Y-13424552D02*
X-53085144Y-13424552D01*
X-53085144Y-13424552D02*
X-52989906Y-13376933D01*
X-53418477Y-13043600D02*
X-53323239Y-13091219D01*
X-53323239Y-13091219D02*
X-53132763Y-13091219D01*
X-53132763Y-13091219D02*
X-53037525Y-13043600D01*
X-53037525Y-13043600D02*
X-52989906Y-12995980D01*
X-52989906Y-12995980D02*
X-52942287Y-12900742D01*
X-52942287Y-12900742D02*
X-52942287Y-12615028D01*
X-52942287Y-12615028D02*
X-52989906Y-12519790D01*
X-52989906Y-12519790D02*
X-53037525Y-12472171D01*
X-53037525Y-12472171D02*
X-53132763Y-12424552D01*
X-53132763Y-12424552D02*
X-53323239Y-12424552D01*
X-53323239Y-12424552D02*
X-53418477Y-12472171D01*
X-54323239Y-12424552D02*
X-54323239Y-13234076D01*
X-54323239Y-13234076D02*
X-54275620Y-13329314D01*
X-54275620Y-13329314D02*
X-54228001Y-13376933D01*
X-54228001Y-13376933D02*
X-54132763Y-13424552D01*
X-54132763Y-13424552D02*
X-53989906Y-13424552D01*
X-53989906Y-13424552D02*
X-53894668Y-13376933D01*
X-54323239Y-13043600D02*
X-54228001Y-13091219D01*
X-54228001Y-13091219D02*
X-54037525Y-13091219D01*
X-54037525Y-13091219D02*
X-53942287Y-13043600D01*
X-53942287Y-13043600D02*
X-53894668Y-12995980D01*
X-53894668Y-12995980D02*
X-53847049Y-12900742D01*
X-53847049Y-12900742D02*
X-53847049Y-12615028D01*
X-53847049Y-12615028D02*
X-53894668Y-12519790D01*
X-53894668Y-12519790D02*
X-53942287Y-12472171D01*
X-53942287Y-12472171D02*
X-54037525Y-12424552D01*
X-54037525Y-12424552D02*
X-54228001Y-12424552D01*
X-54228001Y-12424552D02*
X-54323239Y-12472171D01*
X-47085143Y-14235028D02*
X-47037524Y-14187409D01*
X-47037524Y-14187409D02*
X-46942286Y-14139790D01*
X-46942286Y-14139790D02*
X-46847048Y-14139790D01*
X-46847048Y-14139790D02*
X-46751810Y-14187409D01*
X-46751810Y-14187409D02*
X-46704191Y-14235028D01*
X-46704191Y-14235028D02*
X-46656572Y-14330266D01*
X-46656572Y-14330266D02*
X-46656572Y-14425504D01*
X-46656572Y-14425504D02*
X-46704191Y-14520742D01*
X-46704191Y-14520742D02*
X-46751810Y-14568361D01*
X-46751810Y-14568361D02*
X-46847048Y-14615980D01*
X-46847048Y-14615980D02*
X-46942286Y-14615980D01*
X-46942286Y-14615980D02*
X-47037524Y-14568361D01*
X-47037524Y-14568361D02*
X-47085143Y-14520742D01*
X-47085143Y-14139790D02*
X-47085143Y-14520742D01*
X-47085143Y-14520742D02*
X-47132762Y-14568361D01*
X-47132762Y-14568361D02*
X-47180381Y-14568361D01*
X-47180381Y-14568361D02*
X-47275620Y-14520742D01*
X-47275620Y-14520742D02*
X-47323239Y-14425504D01*
X-47323239Y-14425504D02*
X-47323239Y-14187409D01*
X-47323239Y-14187409D02*
X-47228000Y-14044552D01*
X-47228000Y-14044552D02*
X-47085143Y-13949314D01*
X-47085143Y-13949314D02*
X-46894667Y-13901695D01*
X-46894667Y-13901695D02*
X-46704191Y-13949314D01*
X-46704191Y-13949314D02*
X-46561334Y-14044552D01*
X-46561334Y-14044552D02*
X-46466096Y-14187409D01*
X-46466096Y-14187409D02*
X-46418477Y-14377885D01*
X-46418477Y-14377885D02*
X-46466096Y-14568361D01*
X-46466096Y-14568361D02*
X-46561334Y-14711219D01*
X-46561334Y-14711219D02*
X-46704191Y-14806457D01*
X-46704191Y-14806457D02*
X-46894667Y-14854076D01*
X-46894667Y-14854076D02*
X-47085143Y-14806457D01*
X-47085143Y-14806457D02*
X-47228000Y-14711219D01*
X-47656572Y-14044552D02*
X-47894667Y-14711219D01*
X-47894667Y-14711219D02*
X-48132762Y-14044552D01*
X-48513715Y-14711219D02*
X-48513715Y-14044552D01*
X-48513715Y-13711219D02*
X-48466096Y-13758838D01*
X-48466096Y-13758838D02*
X-48513715Y-13806457D01*
X-48513715Y-13806457D02*
X-48561334Y-13758838D01*
X-48561334Y-13758838D02*
X-48513715Y-13711219D01*
X-48513715Y-13711219D02*
X-48513715Y-13806457D01*
X-48847048Y-14044552D02*
X-49228000Y-14044552D01*
X-48989905Y-13711219D02*
X-48989905Y-14568361D01*
X-48989905Y-14568361D02*
X-49037524Y-14663600D01*
X-49037524Y-14663600D02*
X-49132762Y-14711219D01*
X-49132762Y-14711219D02*
X-49228000Y-14711219D01*
X-49704191Y-14711219D02*
X-49608953Y-14663600D01*
X-49608953Y-14663600D02*
X-49561334Y-14615980D01*
X-49561334Y-14615980D02*
X-49513715Y-14520742D01*
X-49513715Y-14520742D02*
X-49513715Y-14235028D01*
X-49513715Y-14235028D02*
X-49561334Y-14139790D01*
X-49561334Y-14139790D02*
X-49608953Y-14092171D01*
X-49608953Y-14092171D02*
X-49704191Y-14044552D01*
X-49704191Y-14044552D02*
X-49847048Y-14044552D01*
X-49847048Y-14044552D02*
X-49942286Y-14092171D01*
X-49942286Y-14092171D02*
X-49989905Y-14139790D01*
X-49989905Y-14139790D02*
X-50037524Y-14235028D01*
X-50037524Y-14235028D02*
X-50037524Y-14520742D01*
X-50037524Y-14520742D02*
X-49989905Y-14615980D01*
X-49989905Y-14615980D02*
X-49942286Y-14663600D01*
X-49942286Y-14663600D02*
X-49847048Y-14711219D01*
X-49847048Y-14711219D02*
X-49704191Y-14711219D01*
X-50466096Y-14711219D02*
X-50466096Y-14044552D01*
X-50466096Y-14235028D02*
X-50513715Y-14139790D01*
X-50513715Y-14139790D02*
X-50561334Y-14092171D01*
X-50561334Y-14092171D02*
X-50656572Y-14044552D01*
X-50656572Y-14044552D02*
X-50751810Y-14044552D01*
X-51085144Y-14711219D02*
X-51085144Y-14044552D01*
X-51085144Y-13711219D02*
X-51037525Y-13758838D01*
X-51037525Y-13758838D02*
X-51085144Y-13806457D01*
X-51085144Y-13806457D02*
X-51132763Y-13758838D01*
X-51132763Y-13758838D02*
X-51085144Y-13711219D01*
X-51085144Y-13711219D02*
X-51085144Y-13806457D01*
X-51704191Y-14711219D02*
X-51608953Y-14663600D01*
X-51608953Y-14663600D02*
X-51561334Y-14615980D01*
X-51561334Y-14615980D02*
X-51513715Y-14520742D01*
X-51513715Y-14520742D02*
X-51513715Y-14235028D01*
X-51513715Y-14235028D02*
X-51561334Y-14139790D01*
X-51561334Y-14139790D02*
X-51608953Y-14092171D01*
X-51608953Y-14092171D02*
X-51704191Y-14044552D01*
X-51704191Y-14044552D02*
X-51847048Y-14044552D01*
X-51847048Y-14044552D02*
X-51942286Y-14092171D01*
X-51942286Y-14092171D02*
X-51989905Y-14139790D01*
X-51989905Y-14139790D02*
X-52037524Y-14235028D01*
X-52037524Y-14235028D02*
X-52037524Y-14520742D01*
X-52037524Y-14520742D02*
X-51989905Y-14615980D01*
X-51989905Y-14615980D02*
X-51942286Y-14663600D01*
X-51942286Y-14663600D02*
X-51847048Y-14711219D01*
X-51847048Y-14711219D02*
X-51704191Y-14711219D01*
X-52656572Y-13711219D02*
X-52751810Y-13711219D01*
X-52751810Y-13711219D02*
X-52847048Y-13758838D01*
X-52847048Y-13758838D02*
X-52894667Y-13806457D01*
X-52894667Y-13806457D02*
X-52942286Y-13901695D01*
X-52942286Y-13901695D02*
X-52989905Y-14092171D01*
X-52989905Y-14092171D02*
X-52989905Y-14330266D01*
X-52989905Y-14330266D02*
X-52942286Y-14520742D01*
X-52942286Y-14520742D02*
X-52894667Y-14615980D01*
X-52894667Y-14615980D02*
X-52847048Y-14663600D01*
X-52847048Y-14663600D02*
X-52751810Y-14711219D01*
X-52751810Y-14711219D02*
X-52656572Y-14711219D01*
X-52656572Y-14711219D02*
X-52561334Y-14663600D01*
X-52561334Y-14663600D02*
X-52513715Y-14615980D01*
X-52513715Y-14615980D02*
X-52466096Y-14520742D01*
X-52466096Y-14520742D02*
X-52418477Y-14330266D01*
X-52418477Y-14330266D02*
X-52418477Y-14092171D01*
X-52418477Y-14092171D02*
X-52466096Y-13901695D01*
X-52466096Y-13901695D02*
X-52513715Y-13806457D01*
X-52513715Y-13806457D02*
X-52561334Y-13758838D01*
X-52561334Y-13758838D02*
X-52656572Y-13711219D01*
X-53561334Y-14139790D02*
X-53466096Y-14092171D01*
X-53466096Y-14092171D02*
X-53418477Y-14044552D01*
X-53418477Y-14044552D02*
X-53370858Y-13949314D01*
X-53370858Y-13949314D02*
X-53370858Y-13901695D01*
X-53370858Y-13901695D02*
X-53418477Y-13806457D01*
X-53418477Y-13806457D02*
X-53466096Y-13758838D01*
X-53466096Y-13758838D02*
X-53561334Y-13711219D01*
X-53561334Y-13711219D02*
X-53751810Y-13711219D01*
X-53751810Y-13711219D02*
X-53847048Y-13758838D01*
X-53847048Y-13758838D02*
X-53894667Y-13806457D01*
X-53894667Y-13806457D02*
X-53942286Y-13901695D01*
X-53942286Y-13901695D02*
X-53942286Y-13949314D01*
X-53942286Y-13949314D02*
X-53894667Y-14044552D01*
X-53894667Y-14044552D02*
X-53847048Y-14092171D01*
X-53847048Y-14092171D02*
X-53751810Y-14139790D01*
X-53751810Y-14139790D02*
X-53561334Y-14139790D01*
X-53561334Y-14139790D02*
X-53466096Y-14187409D01*
X-53466096Y-14187409D02*
X-53418477Y-14235028D01*
X-53418477Y-14235028D02*
X-53370858Y-14330266D01*
X-53370858Y-14330266D02*
X-53370858Y-14520742D01*
X-53370858Y-14520742D02*
X-53418477Y-14615980D01*
X-53418477Y-14615980D02*
X-53466096Y-14663600D01*
X-53466096Y-14663600D02*
X-53561334Y-14711219D01*
X-53561334Y-14711219D02*
X-53751810Y-14711219D01*
X-53751810Y-14711219D02*
X-53847048Y-14663600D01*
X-53847048Y-14663600D02*
X-53894667Y-14615980D01*
X-53894667Y-14615980D02*
X-53942286Y-14520742D01*
X-53942286Y-14520742D02*
X-53942286Y-14330266D01*
X-53942286Y-14330266D02*
X-53894667Y-14235028D01*
X-53894667Y-14235028D02*
X-53847048Y-14187409D01*
X-53847048Y-14187409D02*
X-53751810Y-14139790D01*
G04 #@! TO.C,Q4*
X-19234162Y15063143D02*
X-19138924Y15110762D01*
X-19138924Y15110762D02*
X-19043686Y15206000D01*
X-19043686Y15206000D02*
X-18900829Y15348858D01*
X-18900829Y15348858D02*
X-18805591Y15396477D01*
X-18805591Y15396477D02*
X-18710353Y15396477D01*
X-18757972Y15158381D02*
X-18662734Y15206000D01*
X-18662734Y15206000D02*
X-18567496Y15301239D01*
X-18567496Y15301239D02*
X-18519877Y15491715D01*
X-18519877Y15491715D02*
X-18519877Y15825048D01*
X-18519877Y15825048D02*
X-18567496Y16015524D01*
X-18567496Y16015524D02*
X-18662734Y16110762D01*
X-18662734Y16110762D02*
X-18757972Y16158381D01*
X-18757972Y16158381D02*
X-18948448Y16158381D01*
X-18948448Y16158381D02*
X-19043686Y16110762D01*
X-19043686Y16110762D02*
X-19138924Y16015524D01*
X-19138924Y16015524D02*
X-19186543Y15825048D01*
X-19186543Y15825048D02*
X-19186543Y15491715D01*
X-19186543Y15491715D02*
X-19138924Y15301239D01*
X-19138924Y15301239D02*
X-19043686Y15206000D01*
X-19043686Y15206000D02*
X-18948448Y15158381D01*
X-18948448Y15158381D02*
X-18757972Y15158381D01*
X-20043686Y15825048D02*
X-20043686Y15158381D01*
X-19805591Y16206000D02*
X-19567496Y15491715D01*
X-19567496Y15491715D02*
X-20186543Y15491715D01*
G04 #@! TO.C,Q5*
X-19107162Y11430943D02*
X-19011924Y11478562D01*
X-19011924Y11478562D02*
X-18916686Y11573800D01*
X-18916686Y11573800D02*
X-18773829Y11716658D01*
X-18773829Y11716658D02*
X-18678591Y11764277D01*
X-18678591Y11764277D02*
X-18583353Y11764277D01*
X-18630972Y11526181D02*
X-18535734Y11573800D01*
X-18535734Y11573800D02*
X-18440496Y11669039D01*
X-18440496Y11669039D02*
X-18392877Y11859515D01*
X-18392877Y11859515D02*
X-18392877Y12192848D01*
X-18392877Y12192848D02*
X-18440496Y12383324D01*
X-18440496Y12383324D02*
X-18535734Y12478562D01*
X-18535734Y12478562D02*
X-18630972Y12526181D01*
X-18630972Y12526181D02*
X-18821448Y12526181D01*
X-18821448Y12526181D02*
X-18916686Y12478562D01*
X-18916686Y12478562D02*
X-19011924Y12383324D01*
X-19011924Y12383324D02*
X-19059543Y12192848D01*
X-19059543Y12192848D02*
X-19059543Y11859515D01*
X-19059543Y11859515D02*
X-19011924Y11669039D01*
X-19011924Y11669039D02*
X-18916686Y11573800D01*
X-18916686Y11573800D02*
X-18821448Y11526181D01*
X-18821448Y11526181D02*
X-18630972Y11526181D01*
X-19964305Y12526181D02*
X-19488115Y12526181D01*
X-19488115Y12526181D02*
X-19440496Y12049991D01*
X-19440496Y12049991D02*
X-19488115Y12097610D01*
X-19488115Y12097610D02*
X-19583353Y12145229D01*
X-19583353Y12145229D02*
X-19821448Y12145229D01*
X-19821448Y12145229D02*
X-19916686Y12097610D01*
X-19916686Y12097610D02*
X-19964305Y12049991D01*
X-19964305Y12049991D02*
X-20011924Y11954753D01*
X-20011924Y11954753D02*
X-20011924Y11716658D01*
X-20011924Y11716658D02*
X-19964305Y11621420D01*
X-19964305Y11621420D02*
X-19916686Y11573800D01*
X-19916686Y11573800D02*
X-19821448Y11526181D01*
X-19821448Y11526181D02*
X-19583353Y11526181D01*
X-19583353Y11526181D02*
X-19488115Y11573800D01*
X-19488115Y11573800D02*
X-19440496Y11621420D01*
G04 #@! TO.C,Q6*
X-19361162Y18720743D02*
X-19265924Y18768362D01*
X-19265924Y18768362D02*
X-19170686Y18863600D01*
X-19170686Y18863600D02*
X-19027829Y19006458D01*
X-19027829Y19006458D02*
X-18932591Y19054077D01*
X-18932591Y19054077D02*
X-18837353Y19054077D01*
X-18884972Y18815981D02*
X-18789734Y18863600D01*
X-18789734Y18863600D02*
X-18694496Y18958839D01*
X-18694496Y18958839D02*
X-18646877Y19149315D01*
X-18646877Y19149315D02*
X-18646877Y19482648D01*
X-18646877Y19482648D02*
X-18694496Y19673124D01*
X-18694496Y19673124D02*
X-18789734Y19768362D01*
X-18789734Y19768362D02*
X-18884972Y19815981D01*
X-18884972Y19815981D02*
X-19075448Y19815981D01*
X-19075448Y19815981D02*
X-19170686Y19768362D01*
X-19170686Y19768362D02*
X-19265924Y19673124D01*
X-19265924Y19673124D02*
X-19313543Y19482648D01*
X-19313543Y19482648D02*
X-19313543Y19149315D01*
X-19313543Y19149315D02*
X-19265924Y18958839D01*
X-19265924Y18958839D02*
X-19170686Y18863600D01*
X-19170686Y18863600D02*
X-19075448Y18815981D01*
X-19075448Y18815981D02*
X-18884972Y18815981D01*
X-20170686Y19815981D02*
X-19980210Y19815981D01*
X-19980210Y19815981D02*
X-19884972Y19768362D01*
X-19884972Y19768362D02*
X-19837353Y19720743D01*
X-19837353Y19720743D02*
X-19742115Y19577886D01*
X-19742115Y19577886D02*
X-19694496Y19387410D01*
X-19694496Y19387410D02*
X-19694496Y19006458D01*
X-19694496Y19006458D02*
X-19742115Y18911220D01*
X-19742115Y18911220D02*
X-19789734Y18863600D01*
X-19789734Y18863600D02*
X-19884972Y18815981D01*
X-19884972Y18815981D02*
X-20075448Y18815981D01*
X-20075448Y18815981D02*
X-20170686Y18863600D01*
X-20170686Y18863600D02*
X-20218305Y18911220D01*
X-20218305Y18911220D02*
X-20265924Y19006458D01*
X-20265924Y19006458D02*
X-20265924Y19244553D01*
X-20265924Y19244553D02*
X-20218305Y19339791D01*
X-20218305Y19339791D02*
X-20170686Y19387410D01*
X-20170686Y19387410D02*
X-20075448Y19435029D01*
X-20075448Y19435029D02*
X-19884972Y19435029D01*
X-19884972Y19435029D02*
X-19789734Y19387410D01*
X-19789734Y19387410D02*
X-19742115Y19339791D01*
X-19742115Y19339791D02*
X-19694496Y19244553D01*
G04 #@! TO.C,Q2*
X-19030962Y7900343D02*
X-18935724Y7947962D01*
X-18935724Y7947962D02*
X-18840486Y8043200D01*
X-18840486Y8043200D02*
X-18697629Y8186058D01*
X-18697629Y8186058D02*
X-18602391Y8233677D01*
X-18602391Y8233677D02*
X-18507153Y8233677D01*
X-18554772Y7995581D02*
X-18459534Y8043200D01*
X-18459534Y8043200D02*
X-18364296Y8138439D01*
X-18364296Y8138439D02*
X-18316677Y8328915D01*
X-18316677Y8328915D02*
X-18316677Y8662248D01*
X-18316677Y8662248D02*
X-18364296Y8852724D01*
X-18364296Y8852724D02*
X-18459534Y8947962D01*
X-18459534Y8947962D02*
X-18554772Y8995581D01*
X-18554772Y8995581D02*
X-18745248Y8995581D01*
X-18745248Y8995581D02*
X-18840486Y8947962D01*
X-18840486Y8947962D02*
X-18935724Y8852724D01*
X-18935724Y8852724D02*
X-18983343Y8662248D01*
X-18983343Y8662248D02*
X-18983343Y8328915D01*
X-18983343Y8328915D02*
X-18935724Y8138439D01*
X-18935724Y8138439D02*
X-18840486Y8043200D01*
X-18840486Y8043200D02*
X-18745248Y7995581D01*
X-18745248Y7995581D02*
X-18554772Y7995581D01*
X-19364296Y8900343D02*
X-19411915Y8947962D01*
X-19411915Y8947962D02*
X-19507153Y8995581D01*
X-19507153Y8995581D02*
X-19745248Y8995581D01*
X-19745248Y8995581D02*
X-19840486Y8947962D01*
X-19840486Y8947962D02*
X-19888105Y8900343D01*
X-19888105Y8900343D02*
X-19935724Y8805105D01*
X-19935724Y8805105D02*
X-19935724Y8709867D01*
X-19935724Y8709867D02*
X-19888105Y8567010D01*
X-19888105Y8567010D02*
X-19316677Y7995581D01*
X-19316677Y7995581D02*
X-19935724Y7995581D01*
D11*
G04 #@! TO.C,Q4*
X-16075900Y17164066D02*
X-16725900Y17164066D01*
X-16075900Y17164066D02*
X-15425900Y17164066D01*
X-16075900Y14044066D02*
X-17750900Y14044066D01*
X-16075900Y14044066D02*
X-15425900Y14044066D01*
G04 #@! TO.C,Q5*
X-16075900Y13472600D02*
X-16725900Y13472600D01*
X-16075900Y13472600D02*
X-15425900Y13472600D01*
X-16075900Y10352600D02*
X-17750900Y10352600D01*
X-16075900Y10352600D02*
X-15425900Y10352600D01*
G04 #@! TO.C,Q6*
X-16075900Y20855532D02*
X-16725900Y20855532D01*
X-16075900Y20855532D02*
X-15425900Y20855532D01*
X-16075900Y17735532D02*
X-17750900Y17735532D01*
X-16075900Y17735532D02*
X-15425900Y17735532D01*
G04 #@! TO.C,Q2*
X-16075900Y9781132D02*
X-16725900Y9781132D01*
X-16075900Y9781132D02*
X-15425900Y9781132D01*
X-16075900Y6661132D02*
X-17750900Y6661132D01*
X-16075900Y6661132D02*
X-15425900Y6661132D01*
G04 #@! TD*
M02*
