G04 #@! TF.GenerationSoftware,KiCad,Pcbnew,7.0.1*
G04 #@! TF.CreationDate,2023-03-23T23:12:12+01:00*
G04 #@! TF.ProjectId,solarScavenger,736f6c61-7253-4636-9176-656e6765722e,rev?*
G04 #@! TF.SameCoordinates,Original*
G04 #@! TF.FileFunction,Copper,L2,Bot*
G04 #@! TF.FilePolarity,Positive*
%FSLAX46Y46*%
G04 Gerber Fmt 4.6, Leading zero omitted, Abs format (unit mm)*
G04 Created by KiCad (PCBNEW 7.0.1) date 2023-03-23 23:12:12*
%MOMM*%
%LPD*%
G01*
G04 APERTURE LIST*
G04 Aperture macros list*
%AMRoundRect*
0 Rectangle with rounded corners*
0 $1 Rounding radius*
0 $2 $3 $4 $5 $6 $7 $8 $9 X,Y pos of 4 corners*
0 Add a 4 corners polygon primitive as box body*
4,1,4,$2,$3,$4,$5,$6,$7,$8,$9,$2,$3,0*
0 Add four circle primitives for the rounded corners*
1,1,$1+$1,$2,$3*
1,1,$1+$1,$4,$5*
1,1,$1+$1,$6,$7*
1,1,$1+$1,$8,$9*
0 Add four rect primitives between the rounded corners*
20,1,$1+$1,$2,$3,$4,$5,0*
20,1,$1+$1,$4,$5,$6,$7,0*
20,1,$1+$1,$6,$7,$8,$9,0*
20,1,$1+$1,$8,$9,$2,$3,0*%
%AMHorizOval*
0 Thick line with rounded ends*
0 $1 width*
0 $2 $3 position (X,Y) of the first rounded end (center of the circle)*
0 $4 $5 position (X,Y) of the second rounded end (center of the circle)*
0 Add line between two ends*
20,1,$1,$2,$3,$4,$5,0*
0 Add two circle primitives to create the rounded ends*
1,1,$1,$2,$3*
1,1,$1,$4,$5*%
%AMRotRect*
0 Rectangle, with rotation*
0 The origin of the aperture is its center*
0 $1 length*
0 $2 width*
0 $3 Rotation angle, in degrees counterclockwise*
0 Add horizontal line*
21,1,$1,$2,0,0,$3*%
G04 Aperture macros list end*
G04 #@! TA.AperFunction,ComponentPad*
%ADD10R,1.700000X1.700000*%
G04 #@! TD*
G04 #@! TA.AperFunction,ComponentPad*
%ADD11O,1.700000X1.700000*%
G04 #@! TD*
G04 #@! TA.AperFunction,ComponentPad*
%ADD12R,3.800000X3.800000*%
G04 #@! TD*
G04 #@! TA.AperFunction,ComponentPad*
%ADD13C,3.800000*%
G04 #@! TD*
G04 #@! TA.AperFunction,ComponentPad*
%ADD14C,6.400000*%
G04 #@! TD*
G04 #@! TA.AperFunction,ComponentPad*
%ADD15R,2.000000X1.905000*%
G04 #@! TD*
G04 #@! TA.AperFunction,ComponentPad*
%ADD16O,2.000000X1.905000*%
G04 #@! TD*
G04 #@! TA.AperFunction,ComponentPad*
%ADD17RotRect,1.700000X1.700000X43.600000*%
G04 #@! TD*
G04 #@! TA.AperFunction,ComponentPad*
%ADD18HorizOval,1.700000X0.000000X0.000000X0.000000X0.000000X0*%
G04 #@! TD*
G04 #@! TA.AperFunction,ComponentPad*
%ADD19R,1.600000X1.600000*%
G04 #@! TD*
G04 #@! TA.AperFunction,ComponentPad*
%ADD20O,1.600000X1.600000*%
G04 #@! TD*
G04 #@! TA.AperFunction,SMDPad,CuDef*
%ADD21RoundRect,0.150000X-0.587500X-0.150000X0.587500X-0.150000X0.587500X0.150000X-0.587500X0.150000X0*%
G04 #@! TD*
G04 #@! TA.AperFunction,ViaPad*
%ADD22C,0.800000*%
G04 #@! TD*
G04 #@! TA.AperFunction,Conductor*
%ADD23C,0.200000*%
G04 #@! TD*
G04 #@! TA.AperFunction,Conductor*
%ADD24C,2.000000*%
G04 #@! TD*
G04 #@! TA.AperFunction,Conductor*
%ADD25C,0.250000*%
G04 #@! TD*
G04 #@! TA.AperFunction,Conductor*
%ADD26C,1.000000*%
G04 #@! TD*
G04 APERTURE END LIST*
D10*
G04 #@! TO.P,J7,1,Pin_1*
G04 #@! TO.N,MOTOR_SUPPLY_N*
X-40640000Y3810000D03*
D11*
G04 #@! TO.P,J7,2,Pin_2*
G04 #@! TO.N,RUDDER_ADC*
X-40640000Y1270000D03*
G04 #@! TO.P,J7,3,Pin_3*
G04 #@! TO.N,+3V3*
X-40640000Y-1270000D03*
G04 #@! TD*
D10*
G04 #@! TO.P,JP1,1,A*
G04 #@! TO.N,+3V3*
X-27940000Y4064000D03*
D11*
G04 #@! TO.P,JP1,2,C*
G04 #@! TO.N,ESP32_BOOT*
X-30480000Y4064000D03*
G04 #@! TO.P,JP1,3,B*
G04 #@! TO.N,MOTOR_SUPPLY_N*
X-33020000Y4064000D03*
G04 #@! TD*
D12*
G04 #@! TO.P,J1,1,Pin_1*
G04 #@! TO.N,MOTOR_SUPPLY_N*
X-22466000Y-19598000D03*
D13*
G04 #@! TO.P,J1,2,Pin_2*
G04 #@! TO.N,SUPPLY_IN_P*
X-22466000Y-24598000D03*
G04 #@! TD*
D10*
G04 #@! TO.P,JP11,1,A*
G04 #@! TO.N,Net-(JP11-A)*
X-2946400Y16789400D03*
D11*
G04 #@! TO.P,JP11,2,C*
G04 #@! TO.N,Net-(J24-Pin_1)*
X-2946400Y14249400D03*
G04 #@! TO.P,JP11,3,B*
G04 #@! TO.N,Net-(J23-Pin_1)*
X-2946400Y11709400D03*
G04 #@! TD*
D10*
G04 #@! TO.P,R5,1*
G04 #@! TO.N,LIGHT_SENSOR*
X-60502800Y2592000D03*
D11*
G04 #@! TO.P,R5,2*
G04 #@! TO.N,MOTOR_SUPPLY_N*
X-60502800Y52000D03*
G04 #@! TD*
D10*
G04 #@! TO.P,J8,1,Pin_1*
G04 #@! TO.N,MOTOR_SUPPLY_N*
X-38100000Y3810000D03*
D11*
G04 #@! TO.P,J8,2,Pin_2*
G04 #@! TO.N,THROTTLE_ADC*
X-38100000Y1270000D03*
G04 #@! TO.P,J8,3,Pin_3*
G04 #@! TO.N,+3V3*
X-38100000Y-1270000D03*
G04 #@! TD*
D14*
G04 #@! TO.P,REF\u002A\u002A,1*
G04 #@! TO.N,N/C*
X-67466000Y13208000D03*
G04 #@! TD*
D15*
G04 #@! TO.P,U3,1,GND*
G04 #@! TO.N,MOTOR_SUPPLY_N*
X-67056000Y-1016000D03*
D16*
G04 #@! TO.P,U3,2,VO*
G04 #@! TO.N,+3V3*
X-67056000Y1524000D03*
G04 #@! TO.P,U3,3,VI*
G04 #@! TO.N,+BATT*
X-67056000Y4064000D03*
G04 #@! TD*
D14*
G04 #@! TO.P,REF\u002A\u002A,1*
G04 #@! TO.N,N/C*
X2534000Y13208000D03*
G04 #@! TD*
D10*
G04 #@! TO.P,J4,1,Pin_1*
G04 #@! TO.N,ESC_PWM*
X-21336000Y-5080000D03*
D11*
G04 #@! TO.P,J4,2,Pin_2*
G04 #@! TO.N,ESC_5V*
X-18796000Y-5080000D03*
G04 #@! TO.P,J4,3,Pin_3*
G04 #@! TO.N,ESC_GND*
X-16256000Y-5080000D03*
G04 #@! TD*
D10*
G04 #@! TO.P,JP9,1,A*
G04 #@! TO.N,Net-(JP9-A)*
X-5486400Y16789400D03*
D11*
G04 #@! TO.P,JP9,2,C*
G04 #@! TO.N,Net-(J20-Pin_1)*
X-5486400Y14249400D03*
G04 #@! TO.P,JP9,3,B*
G04 #@! TO.N,Net-(J19-Pin_1)*
X-5486400Y11709400D03*
G04 #@! TD*
D12*
G04 #@! TO.P,J5,1,Pin_1*
G04 #@! TO.N,MOTOR_SUPPLY_N*
X-42466000Y-19518000D03*
D13*
G04 #@! TO.P,J5,2,Pin_2*
G04 #@! TO.N,MOTOR_SUPPLY_P*
X-42466000Y-24518000D03*
G04 #@! TD*
D10*
G04 #@! TO.P,J2,1,Pin_1*
G04 #@! TO.N,+3V3*
X-19050000Y29972000D03*
D11*
G04 #@! TO.P,J2,2,Pin_2*
G04 #@! TO.N,UART_TX*
X-19050000Y27432000D03*
G04 #@! TO.P,J2,3,Pin_3*
G04 #@! TO.N,UART_RX*
X-19050000Y24892000D03*
G04 #@! TO.P,J2,4,Pin_4*
G04 #@! TO.N,MOTOR_SUPPLY_N*
X-19050000Y22352000D03*
G04 #@! TD*
D10*
G04 #@! TO.P,J21,1,Pin_1*
G04 #@! TO.N,Net-(J21-Pin_1)*
X0Y2540000D03*
D11*
G04 #@! TO.P,J21,2,Pin_2*
G04 #@! TO.N,+BATT*
X2540000Y2540000D03*
G04 #@! TO.P,J21,3,Pin_3*
G04 #@! TO.N,MOTOR_SUPPLY_N*
X5080000Y2540000D03*
G04 #@! TD*
D10*
G04 #@! TO.P,J20,1,Pin_1*
G04 #@! TO.N,Net-(J20-Pin_1)*
X0Y22098000D03*
D11*
G04 #@! TO.P,J20,2,Pin_2*
G04 #@! TO.N,+BATT*
X2540000Y22098000D03*
G04 #@! TO.P,J20,3,Pin_3*
G04 #@! TO.N,MOTOR_SUPPLY_N*
X5080000Y22098000D03*
G04 #@! TD*
D10*
G04 #@! TO.P,JP8,1,A*
G04 #@! TO.N,Net-(JP8-A)*
X-10617200Y16789400D03*
D11*
G04 #@! TO.P,JP8,2,C*
G04 #@! TO.N,Net-(J18-Pin_1)*
X-10617200Y14249400D03*
G04 #@! TO.P,JP8,3,B*
G04 #@! TO.N,Net-(J17-Pin_1)*
X-10617200Y11709400D03*
G04 #@! TD*
D14*
G04 #@! TO.P,REF\u002A\u002A,1*
G04 #@! TO.N,N/C*
X-49466000Y-21452000D03*
G04 #@! TD*
D10*
G04 #@! TO.P,J18,1,Pin_1*
G04 #@! TO.N,Net-(J18-Pin_1)*
X0Y27178000D03*
D11*
G04 #@! TO.P,J18,2,Pin_2*
G04 #@! TO.N,+BATT*
X2540000Y27178000D03*
G04 #@! TO.P,J18,3,Pin_3*
G04 #@! TO.N,MOTOR_SUPPLY_N*
X5080000Y27178000D03*
G04 #@! TD*
D10*
G04 #@! TO.P,JP10,1,A*
G04 #@! TO.N,Net-(JP10-A)*
X-8026400Y16789400D03*
D11*
G04 #@! TO.P,JP10,2,C*
G04 #@! TO.N,Net-(J22-Pin_1)*
X-8026400Y14249400D03*
G04 #@! TO.P,JP10,3,B*
G04 #@! TO.N,Net-(J21-Pin_1)*
X-8026400Y11709400D03*
G04 #@! TD*
D17*
G04 #@! TO.P,J3,1,Pin_1*
G04 #@! TO.N,MOTOR_SUPPLY_N*
X-62000434Y-9006403D03*
D18*
G04 #@! TO.P,J3,2,Pin_2*
G04 #@! TO.N,+BATT*
X-60248800Y-10845800D03*
G04 #@! TO.P,J3,3,Pin_3*
G04 #@! TO.N,unconnected-(J3-Pin_3-Pad3)*
X-58497167Y-12685196D03*
G04 #@! TD*
D10*
G04 #@! TO.P,J22,1,Pin_1*
G04 #@! TO.N,Net-(J22-Pin_1)*
X0Y24638000D03*
D11*
G04 #@! TO.P,J22,2,Pin_2*
G04 #@! TO.N,+BATT*
X2540000Y24638000D03*
G04 #@! TO.P,J22,3,Pin_3*
G04 #@! TO.N,MOTOR_SUPPLY_N*
X5080000Y24638000D03*
G04 #@! TD*
D10*
G04 #@! TO.P,J23,1,Pin_1*
G04 #@! TO.N,Net-(J23-Pin_1)*
X0Y7620000D03*
D11*
G04 #@! TO.P,J23,2,Pin_2*
G04 #@! TO.N,+BATT*
X2540000Y7620000D03*
G04 #@! TO.P,J23,3,Pin_3*
G04 #@! TO.N,MOTOR_SUPPLY_N*
X5080000Y7620000D03*
G04 #@! TD*
D14*
G04 #@! TO.P,REF\u002A\u002A,1*
G04 #@! TO.N,N/C*
X-15466000Y-21452000D03*
G04 #@! TD*
D10*
G04 #@! TO.P,J17,1,Pin_1*
G04 #@! TO.N,Net-(J17-Pin_1)*
X0Y0D03*
D11*
G04 #@! TO.P,J17,2,Pin_2*
G04 #@! TO.N,+BATT*
X2540000Y0D03*
G04 #@! TO.P,J17,3,Pin_3*
G04 #@! TO.N,MOTOR_SUPPLY_N*
X5080000Y0D03*
G04 #@! TD*
D10*
G04 #@! TO.P,J24,1,Pin_1*
G04 #@! TO.N,Net-(J24-Pin_1)*
X0Y19558000D03*
D11*
G04 #@! TO.P,J24,2,Pin_2*
G04 #@! TO.N,+BATT*
X2540000Y19558000D03*
G04 #@! TO.P,J24,3,Pin_3*
G04 #@! TO.N,MOTOR_SUPPLY_N*
X5080000Y19558000D03*
G04 #@! TD*
D10*
G04 #@! TO.P,J19,1,Pin_1*
G04 #@! TO.N,Net-(J19-Pin_1)*
X15000Y5080000D03*
D11*
G04 #@! TO.P,J19,2,Pin_2*
G04 #@! TO.N,+BATT*
X2555000Y5080000D03*
G04 #@! TO.P,J19,3,Pin_3*
G04 #@! TO.N,MOTOR_SUPPLY_N*
X5095000Y5080000D03*
G04 #@! TD*
D19*
G04 #@! TO.P,U2,1*
G04 #@! TO.N,Net-(R3-Pad2)*
X-8651000Y5578000D03*
D20*
G04 #@! TO.P,U2,2*
G04 #@! TO.N,MOTOR_SUPPLY_N*
X-11191000Y5578000D03*
G04 #@! TO.P,U2,3,NC*
G04 #@! TO.N,unconnected-(U2-NC-Pad3)*
X-13731000Y5578000D03*
G04 #@! TO.P,U2,4*
G04 #@! TO.N,ESC_PWM*
X-13731000Y-2042000D03*
G04 #@! TO.P,U2,5*
G04 #@! TO.N,ESC_5V*
X-11191000Y-2042000D03*
G04 #@! TO.P,U2,6*
G04 #@! TO.N,unconnected-(U2-Pad6)*
X-8651000Y-2042000D03*
G04 #@! TD*
D21*
G04 #@! TO.P,Q4,1,G*
G04 #@! TO.N,Net-(Q4-G)*
X-17013400Y14654066D03*
G04 #@! TO.P,Q4,2,S*
G04 #@! TO.N,MOTOR_SUPPLY_N*
X-17013400Y16554066D03*
G04 #@! TO.P,Q4,3,D*
G04 #@! TO.N,Net-(JP9-A)*
X-15138400Y15604066D03*
G04 #@! TD*
G04 #@! TO.P,Q5,1,G*
G04 #@! TO.N,Net-(Q5-G)*
X-17013400Y10962600D03*
G04 #@! TO.P,Q5,2,S*
G04 #@! TO.N,MOTOR_SUPPLY_N*
X-17013400Y12862600D03*
G04 #@! TO.P,Q5,3,D*
G04 #@! TO.N,Net-(JP10-A)*
X-15138400Y11912600D03*
G04 #@! TD*
G04 #@! TO.P,Q6,1,G*
G04 #@! TO.N,Net-(Q6-G)*
X-17013400Y18345532D03*
G04 #@! TO.P,Q6,2,S*
G04 #@! TO.N,MOTOR_SUPPLY_N*
X-17013400Y20245532D03*
G04 #@! TO.P,Q6,3,D*
G04 #@! TO.N,Net-(JP11-A)*
X-15138400Y19295532D03*
G04 #@! TD*
G04 #@! TO.P,Q2,1,G*
G04 #@! TO.N,Net-(Q2-G)*
X-17013400Y7271132D03*
G04 #@! TO.P,Q2,2,S*
G04 #@! TO.N,MOTOR_SUPPLY_N*
X-17013400Y9171132D03*
G04 #@! TO.P,Q2,3,D*
G04 #@! TO.N,Net-(JP8-A)*
X-15138400Y8221132D03*
G04 #@! TD*
D22*
G04 #@! TO.N,MOTOR_SUPPLY_N*
X-47675800Y25273000D03*
X-51511200Y4851400D03*
X-31267400Y25298400D03*
X-49047400Y23825200D03*
X-53035200Y1295400D03*
X-29718000Y22326600D03*
X-61493400Y18389600D03*
X-58572400Y20955000D03*
X-54787800Y3886200D03*
X-13360400Y11861800D03*
X-34137600Y25628600D03*
X-47320200Y21742400D03*
X-15138400Y13970000D03*
X-34213800Y22377400D03*
X-49631600Y3200400D03*
X-55346600Y23520400D03*
G04 #@! TO.N,+3V3*
X-56616600Y-381000D03*
X-56554500Y16980500D03*
X-61214000Y11176000D03*
G04 #@! TO.N,/SD_DATA2*
X-42926000Y10160000D03*
X-57658000Y12539500D03*
G04 #@! TO.N,/SD_DATA3*
X-55118000Y12700000D03*
X-36830000Y9398000D03*
G04 #@! TO.N,/SD_CMD*
X-34037967Y10498581D03*
X-52832000Y12700000D03*
G04 #@! TO.N,/SD_CLK*
X-38735000Y17576800D03*
X-54559200Y20751800D03*
G04 #@! TO.N,/SD_DATA0*
X-34008996Y11497663D03*
X-50292000Y12700000D03*
G04 #@! TO.N,/SD_DATA1*
X-48260000Y12954000D03*
X-34036000Y12496800D03*
G04 #@! TO.N,LED_2*
X-20396200Y-12065000D03*
X-44653200Y8991600D03*
G04 #@! TO.N,LED_1*
X-9753600Y-7264400D03*
X-25527000Y12547600D03*
G04 #@! TO.N,PWM_TO_ESC*
X-22225000Y10363200D03*
X-25438100Y18580100D03*
G04 #@! TO.N,MOTOR_VOLTAGE*
X-42926000Y13995400D03*
X-26060400Y4699000D03*
X-37414200Y21488400D03*
G04 #@! TO.N,INA_SDA*
X-26670000Y1016000D03*
X-26289000Y21894800D03*
G04 #@! TO.N,INA_SCL*
X-25649348Y23584500D03*
X-37846000Y-8128000D03*
G04 #@! TO.N,THROTTLE_ADC*
X-39459500Y14452600D03*
G04 #@! TO.N,LIGHT_SENSOR*
X-61976000Y15494000D03*
X-43437498Y17268502D03*
G04 #@! TO.N,+BATT*
X-13436600Y-9067800D03*
G04 #@! TO.N,Net-(JP9-A)*
X-13030200Y20116800D03*
G04 #@! TO.N,Net-(JP10-A)*
X-13258800Y14452600D03*
G04 #@! TO.N,Net-(JP11-A)*
X-13004800Y22123400D03*
G04 #@! TO.N,Net-(Q2-G)*
X-19278600Y10566400D03*
G04 #@! TO.N,Net-(Q4-G)*
X-19253200Y15544800D03*
G04 #@! TO.N,Net-(Q5-G)*
X-19253200Y13081000D03*
G04 #@! TO.N,Net-(Q6-G)*
X-19278600Y18008600D03*
G04 #@! TO.N,BATT_SENSOR*
X-43002200Y16256000D03*
X-58648600Y10109200D03*
G04 #@! TD*
D23*
G04 #@! TO.N,MOTOR_SUPPLY_N*
X-66649600Y-609600D02*
X-67056000Y-1016000D01*
D24*
X-42466000Y-19518000D02*
X-22546000Y-19518000D01*
D23*
X-61164400Y-609600D02*
X-66649600Y-609600D01*
D24*
X-22546000Y-19518000D02*
X-22466000Y-19598000D01*
D23*
X-60502800Y52000D02*
X-61164400Y-609600D01*
D25*
G04 #@! TO.N,+3V3*
X-62738000Y15757305D02*
X-62738000Y12700000D01*
X-61477305Y17018000D02*
X-62738000Y15757305D01*
X-56592000Y17018000D02*
X-61477305Y17018000D01*
X-62738000Y12700000D02*
X-61214000Y11176000D01*
X-56554500Y16980500D02*
X-56592000Y17018000D01*
G04 #@! TO.N,ESC_PWM*
X-18298000Y-2042000D02*
X-13731000Y-2042000D01*
X-21336000Y-5080000D02*
X-18298000Y-2042000D01*
G04 #@! TO.N,/SD_DATA2*
X-55278500Y10160000D02*
X-57658000Y12539500D01*
X-42926000Y10160000D02*
X-55278500Y10160000D01*
G04 #@! TO.N,/SD_DATA3*
X-36830000Y9652000D02*
X-36830000Y9398000D01*
X-55118000Y12700000D02*
X-53340000Y10922000D01*
X-38100000Y10922000D02*
X-36830000Y9652000D01*
X-53340000Y10922000D02*
X-38100000Y10922000D01*
G04 #@! TO.N,/SD_CMD*
X-34628581Y10498581D02*
X-35814000Y11684000D01*
X-34037967Y10498581D02*
X-34628581Y10498581D01*
X-35814000Y11684000D02*
X-51816000Y11684000D01*
X-51816000Y11684000D02*
X-52832000Y12700000D01*
G04 #@! TO.N,/SD_CLK*
X-38735000Y17576800D02*
X-38735000Y18262600D01*
X-38735000Y18262600D02*
X-41224200Y20751800D01*
X-41224200Y20751800D02*
X-54559200Y20751800D01*
G04 #@! TO.N,/SD_DATA0*
X-35343000Y12229000D02*
X-49821000Y12229000D01*
X-34008996Y11497663D02*
X-34611663Y11497663D01*
X-34611663Y11497663D02*
X-35343000Y12229000D01*
X-49821000Y12229000D02*
X-50292000Y12700000D01*
G04 #@! TO.N,/SD_DATA1*
X-34671000Y12496800D02*
X-35128200Y12954000D01*
X-34036000Y12496800D02*
X-34671000Y12496800D01*
X-35128200Y12954000D02*
X-48260000Y12954000D01*
G04 #@! TO.N,LED_2*
X-44678600Y-4292600D02*
X-36906200Y-12065000D01*
X-44678600Y8966200D02*
X-44678600Y-4292600D01*
X-44653200Y8991600D02*
X-44678600Y8966200D01*
X-36906200Y-12065000D02*
X-20396200Y-12065000D01*
G04 #@! TO.N,LED_1*
X-9753600Y-7264400D02*
X-12446000Y-4572000D01*
X-12446000Y-4572000D02*
X-12446000Y-533400D01*
X-12446000Y-533400D02*
X-25527000Y12547600D01*
G04 #@! TO.N,PWM_TO_ESC*
X-25438100Y18402300D02*
X-22225000Y15189200D01*
X-25438100Y18580100D02*
X-25438100Y18402300D01*
X-22225000Y15189200D02*
X-22225000Y10363200D01*
G04 #@! TO.N,MOTOR_VOLTAGE*
X-37414200Y21488400D02*
X-36550600Y20624800D01*
X-36550600Y20624800D02*
X-36550600Y18542000D01*
X-28702000Y14487305D02*
X-28702000Y9144000D01*
X-35703095Y21488400D02*
X-28702000Y14487305D01*
X-41097200Y13995400D02*
X-42926000Y13995400D01*
X-37414200Y21488400D02*
X-35703095Y21488400D01*
X-36550600Y18542000D02*
X-41097200Y13995400D01*
X-26060400Y6502400D02*
X-26060400Y4699000D01*
X-28702000Y9144000D02*
X-26060400Y6502400D01*
G04 #@! TO.N,INA_SDA*
X-27508200Y20675600D02*
X-27508200Y9804400D01*
X-26289000Y21894800D02*
X-27508200Y20675600D01*
X-25171400Y2514600D02*
X-26670000Y1016000D01*
X-27508200Y9804400D02*
X-25171400Y7467600D01*
X-25171400Y7467600D02*
X-25171400Y2514600D01*
G04 #@! TO.N,INA_SCL*
X-25323800Y23258952D02*
X-25649348Y23584500D01*
X-24409400Y1244600D02*
X-24409400Y7747000D01*
X-37846000Y-8128000D02*
X-33782000Y-8128000D01*
X-26644600Y20167600D02*
X-25323800Y21488400D01*
X-25323800Y21488400D02*
X-25323800Y23258952D01*
X-33782000Y-8128000D02*
X-24409400Y1244600D01*
X-24409400Y7747000D02*
X-26644600Y9982200D01*
X-26644600Y9982200D02*
X-26644600Y20167600D01*
G04 #@! TO.N,THROTTLE_ADC*
X-33070800Y10007600D02*
X-35560000Y7518400D01*
X-35560000Y7518400D02*
X-35560000Y2819400D01*
X-34112200Y13665200D02*
X-33070800Y12623800D01*
X-33070800Y12623800D02*
X-33070800Y10007600D01*
X-37109400Y1270000D02*
X-38100000Y1270000D01*
X-39459500Y14452600D02*
X-38672100Y13665200D01*
X-35560000Y2819400D02*
X-37109400Y1270000D01*
X-38672100Y13665200D02*
X-34112200Y13665200D01*
G04 #@! TO.N,LIGHT_SENSOR*
X-61214000Y16256000D02*
X-61976000Y15494000D01*
X-43437498Y17268502D02*
X-44450000Y16256000D01*
X-44450000Y16256000D02*
X-61214000Y16256000D01*
G04 #@! TO.N,+BATT*
X-991000Y16027000D02*
X-991000Y11151000D01*
D26*
X-18770600Y-14401800D02*
X-13436600Y-9067800D01*
D25*
X2540000Y19558000D02*
X-991000Y16027000D01*
D26*
X-42392600Y-10845800D02*
X-38836600Y-14401800D01*
X-60248800Y-10845800D02*
X-42392600Y-10845800D01*
X2540000Y27178000D02*
X2540000Y19558000D01*
X-38836600Y-14401800D02*
X-18770600Y-14401800D01*
D25*
X-991000Y11151000D02*
X2540000Y7620000D01*
G04 #@! TO.N,Net-(J18-Pin_1)*
X-9321800Y15610600D02*
X-9321800Y17856200D01*
X-9321800Y17856200D02*
X0Y27178000D01*
X-10617200Y14315200D02*
X-9321800Y15610600D01*
G04 #@! TO.N,Net-(J20-Pin_1)*
X-4216400Y17881600D02*
X0Y22098000D01*
X-5486400Y14264400D02*
X-4216400Y15534400D01*
X-4216400Y15534400D02*
X-4216400Y17881600D01*
G04 #@! TO.N,Net-(J22-Pin_1)*
X-6731000Y15559800D02*
X-6731000Y17907000D01*
X-8026400Y14264400D02*
X-6731000Y15559800D01*
X-6731000Y17907000D02*
X0Y24638000D01*
G04 #@! TO.N,Net-(J24-Pin_1)*
X0Y19304000D02*
X0Y19558000D01*
X-1574800Y15621000D02*
X-1574800Y17729200D01*
X-1574800Y17729200D02*
X0Y19304000D01*
X-2946400Y14249400D02*
X-1574800Y15621000D01*
G04 #@! TO.N,Net-(JP8-A)*
X-15138400Y8221132D02*
X-12217400Y11142132D01*
X-12217400Y11142132D02*
X-12217400Y15255000D01*
X-12217400Y15255000D02*
X-10617200Y16855200D01*
G04 #@! TO.N,Net-(JP9-A)*
X-13030200Y20116800D02*
X-13030200Y17712266D01*
X-13030200Y17712266D02*
X-15138400Y15604066D01*
G04 #@! TO.N,Net-(JP10-A)*
X-13258800Y13792200D02*
X-15138400Y11912600D01*
X-13258800Y14452600D02*
X-13258800Y13792200D01*
G04 #@! TO.N,Net-(JP11-A)*
X-15138400Y19295532D02*
X-15138400Y19989800D01*
X-15138400Y19989800D02*
X-13004800Y22123400D01*
G04 #@! TO.N,Net-(Q2-G)*
X-19278600Y10566400D02*
X-19278600Y9536332D01*
X-19278600Y9536332D02*
X-17013400Y7271132D01*
G04 #@! TO.N,Net-(Q4-G)*
X-17904134Y15544800D02*
X-17013400Y14654066D01*
X-19253200Y15544800D02*
X-17904134Y15544800D01*
G04 #@! TO.N,Net-(Q5-G)*
X-19253200Y13081000D02*
X-17134800Y10962600D01*
X-17134800Y10962600D02*
X-17013400Y10962600D01*
G04 #@! TO.N,Net-(Q6-G)*
X-17350332Y18008600D02*
X-17013400Y18345532D01*
X-19278600Y18008600D02*
X-17350332Y18008600D01*
G04 #@! TO.N,BATT_SENSOR*
X-58648600Y10109200D02*
X-58648600Y13157200D01*
X-44958000Y14300200D02*
X-43002200Y16256000D01*
X-57505600Y14300200D02*
X-44958000Y14300200D01*
X-58648600Y13157200D02*
X-57505600Y14300200D01*
G04 #@! TD*
G04 #@! TA.AperFunction,Conductor*
G04 #@! TO.N,MOTOR_SUPPLY_N*
G36*
X-12894015Y13124466D02*
G01*
X-12856415Y13080443D01*
X-12842900Y13024148D01*
X-12842900Y11452584D01*
X-12852339Y11405131D01*
X-12879219Y11364903D01*
X-15186172Y9057951D01*
X-15226400Y9031071D01*
X-15273853Y9021632D01*
X-15791594Y9021632D01*
X-15803886Y9020665D01*
X-15828473Y9018730D01*
X-15986298Y8972877D01*
X-16044594Y8938400D01*
X-16107715Y8921132D01*
X-16763400Y8921132D01*
X-16763400Y8371132D01*
X-16500400Y8371132D01*
X-16438400Y8354519D01*
X-16393013Y8309132D01*
X-16376400Y8247132D01*
X-16376400Y8195632D01*
X-16393013Y8133632D01*
X-16438400Y8088245D01*
X-16500400Y8071632D01*
X-16877948Y8071632D01*
X-16925401Y8081071D01*
X-16965629Y8107951D01*
X-17227081Y8369403D01*
X-17253961Y8409631D01*
X-17263400Y8457084D01*
X-17263400Y9297132D01*
X-17246787Y9359132D01*
X-17201400Y9404519D01*
X-17139400Y9421132D01*
X-15778605Y9421132D01*
X-15778605Y9421133D01*
X-15778801Y9423621D01*
X-15824620Y9581333D01*
X-15908218Y9722690D01*
X-16024343Y9838815D01*
X-16165703Y9922415D01*
X-16252150Y9947530D01*
X-16306331Y9980034D01*
X-16337463Y10035015D01*
X-16337463Y10098198D01*
X-16306331Y10153179D01*
X-16252150Y10185682D01*
X-16185755Y10204972D01*
X-16165502Y10210856D01*
X-16024035Y10294519D01*
X-15907819Y10410735D01*
X-15824156Y10552202D01*
X-15778302Y10710031D01*
X-15775400Y10746906D01*
X-15775400Y10988100D01*
X-15758787Y11050100D01*
X-15713400Y11095487D01*
X-15651400Y11112100D01*
X-14485208Y11112100D01*
X-14485206Y11112100D01*
X-14448331Y11115002D01*
X-14290502Y11160856D01*
X-14149035Y11244519D01*
X-14032819Y11360735D01*
X-13949156Y11502202D01*
X-13903302Y11660031D01*
X-13900400Y11696906D01*
X-13900400Y12128294D01*
X-13903302Y12165169D01*
X-13904891Y12170639D01*
X-13905919Y12236072D01*
X-13873498Y12292914D01*
X-13054582Y13111829D01*
X-13005218Y13142079D01*
X-12947502Y13146621D01*
X-12894015Y13124466D01*
G37*
G04 #@! TD.AperFunction*
G04 #@! TA.AperFunction,Conductor*
G36*
X-14154635Y14823092D02*
G01*
X-14122885Y14764798D01*
X-14125751Y14698481D01*
X-14144474Y14640860D01*
X-14164260Y14452600D01*
X-14144474Y14264343D01*
X-14085980Y14084317D01*
X-14047646Y14017920D01*
X-14031506Y13966728D01*
X-14038512Y13913510D01*
X-14067353Y13868240D01*
X-15186172Y12749419D01*
X-15226400Y12722539D01*
X-15273853Y12713100D01*
X-15791594Y12713100D01*
X-15803886Y12712133D01*
X-15828473Y12710198D01*
X-15986298Y12664345D01*
X-16044594Y12629868D01*
X-16107715Y12612600D01*
X-16763400Y12612600D01*
X-16763400Y12062600D01*
X-16500400Y12062600D01*
X-16438400Y12045987D01*
X-16393013Y12000600D01*
X-16376400Y11938600D01*
X-16376400Y11887100D01*
X-16393013Y11825100D01*
X-16438400Y11779713D01*
X-16500400Y11763100D01*
X-16999348Y11763100D01*
X-17046801Y11772539D01*
X-17087029Y11799419D01*
X-17227081Y11939471D01*
X-17253961Y11979699D01*
X-17263400Y12027152D01*
X-17263400Y12988600D01*
X-17246787Y13050600D01*
X-17201400Y13095987D01*
X-17139400Y13112600D01*
X-15778605Y13112600D01*
X-15778605Y13112601D01*
X-15778801Y13115089D01*
X-15824620Y13272801D01*
X-15908218Y13414158D01*
X-16024343Y13530283D01*
X-16165703Y13613883D01*
X-16252147Y13638997D01*
X-16306328Y13671501D01*
X-16337460Y13726481D01*
X-16337460Y13789665D01*
X-16306328Y13844646D01*
X-16252147Y13877149D01*
X-16232349Y13882901D01*
X-16165502Y13902322D01*
X-16024035Y13985985D01*
X-15907819Y14102201D01*
X-15824156Y14243668D01*
X-15778302Y14401497D01*
X-15775400Y14438372D01*
X-15775400Y14679566D01*
X-15758787Y14741566D01*
X-15713400Y14786953D01*
X-15651400Y14803566D01*
X-14485208Y14803566D01*
X-14485206Y14803566D01*
X-14448331Y14806468D01*
X-14290502Y14852322D01*
X-14290501Y14852324D01*
X-14278278Y14855874D01*
X-14211903Y14856657D01*
X-14154635Y14823092D01*
G37*
G04 #@! TD.AperFunction*
G04 #@! TA.AperFunction,Conductor*
G36*
X5098426Y32857302D02*
G01*
X6502052Y32855476D01*
X6563984Y32838809D01*
X6609305Y32793429D01*
X6625891Y32731476D01*
X6625891Y27566531D01*
X6611880Y27509274D01*
X6573015Y27464956D01*
X6518076Y27443592D01*
X6459481Y27450009D01*
X6410469Y27482758D01*
X6382116Y27534437D01*
X6353430Y27641493D01*
X6253599Y27855579D01*
X6118109Y28049079D01*
X5951081Y28216107D01*
X5757576Y28351601D01*
X5543492Y28451431D01*
X5330000Y28508636D01*
X5330000Y18227365D01*
X5543492Y18284570D01*
X5757576Y18384400D01*
X5951081Y18519894D01*
X6118106Y18686919D01*
X6253600Y18880424D01*
X6353430Y19094508D01*
X6382116Y19201563D01*
X6410469Y19253242D01*
X6459481Y19285991D01*
X6518076Y19292408D01*
X6573015Y19271044D01*
X6611880Y19226726D01*
X6625891Y19169469D01*
X6625891Y8008531D01*
X6611880Y7951274D01*
X6573015Y7906956D01*
X6518076Y7885592D01*
X6459481Y7892009D01*
X6410469Y7924758D01*
X6382116Y7976437D01*
X6353430Y8083493D01*
X6253599Y8297579D01*
X6118109Y8491079D01*
X5951081Y8658107D01*
X5757576Y8793601D01*
X5543492Y8893431D01*
X5330000Y8950636D01*
X5330000Y6459413D01*
X5335561Y6451091D01*
X5345000Y6403638D01*
X5345000Y3756362D01*
X5335561Y3708909D01*
X5330000Y3700587D01*
X5330000Y-1330635D01*
X5543492Y-1273430D01*
X5757576Y-1173600D01*
X5951081Y-1038106D01*
X6118106Y-871081D01*
X6253600Y-677576D01*
X6353430Y-463492D01*
X6382116Y-356437D01*
X6410469Y-304758D01*
X6459481Y-272009D01*
X6518076Y-265592D01*
X6573015Y-286956D01*
X6611880Y-331274D01*
X6625891Y-388531D01*
X6625891Y-3417936D01*
X6617293Y-3463304D01*
X6592693Y-3502381D01*
X1490004Y-8989144D01*
X-12306405Y-23823992D01*
X-12359443Y-23857656D01*
X-12422173Y-23861007D01*
X-12478496Y-23833184D01*
X-12513955Y-23781330D01*
X-12519451Y-23718751D01*
X-12493573Y-23661510D01*
X-12468124Y-23630084D01*
X-12292249Y-23359260D01*
X-12256877Y-23304793D01*
X-12154687Y-23104233D01*
X-12080786Y-22959194D01*
X-11941786Y-22597087D01*
X-11841398Y-22222433D01*
X-11780722Y-21839338D01*
X-11760422Y-21452000D01*
X-11780722Y-21064662D01*
X-11811061Y-20873114D01*
X-11841397Y-20681570D01*
X-11941786Y-20306913D01*
X-12080786Y-19944806D01*
X-12256877Y-19599206D01*
X-12468122Y-19273919D01*
X-12472915Y-19268000D01*
X-12712219Y-18972484D01*
X-12986484Y-18698219D01*
X-13287916Y-18454124D01*
X-13287918Y-18454123D01*
X-13287920Y-18454121D01*
X-13613207Y-18242876D01*
X-13958807Y-18066785D01*
X-14320914Y-17927785D01*
X-14695571Y-17827396D01*
X-15078660Y-17766722D01*
X-15336888Y-17753188D01*
X-15466000Y-17746422D01*
X-15466001Y-17746422D01*
X-15853341Y-17766722D01*
X-16236430Y-17827396D01*
X-16611087Y-17927785D01*
X-16973194Y-18066785D01*
X-17318794Y-18242876D01*
X-17644081Y-18454121D01*
X-17945520Y-18698222D01*
X-18219778Y-18972480D01*
X-18463879Y-19273919D01*
X-18675124Y-19599206D01*
X-18851215Y-19944806D01*
X-18990215Y-20306913D01*
X-19090604Y-20681570D01*
X-19151278Y-21064659D01*
X-19171578Y-21451999D01*
X-19151278Y-21839340D01*
X-19090604Y-22222429D01*
X-18990215Y-22597086D01*
X-18851215Y-22959193D01*
X-18675124Y-23304793D01*
X-18463879Y-23630080D01*
X-18463876Y-23630084D01*
X-18219781Y-23931516D01*
X-17945516Y-24205781D01*
X-17644084Y-24449876D01*
X-17644082Y-24449877D01*
X-17644081Y-24449878D01*
X-17318794Y-24661123D01*
X-16973194Y-24837214D01*
X-16611087Y-24976214D01*
X-16236430Y-25076603D01*
X-16044886Y-25106939D01*
X-15853338Y-25137278D01*
X-15466000Y-25157578D01*
X-15078662Y-25137278D01*
X-14829314Y-25097785D01*
X-14695571Y-25076603D01*
X-14695567Y-25076602D01*
X-14320913Y-24976214D01*
X-13958806Y-24837214D01*
X-13613211Y-24661125D01*
X-13613212Y-24661125D01*
X-13613207Y-24661123D01*
X-13392818Y-24518000D01*
X-13287916Y-24449876D01*
X-13034990Y-24245059D01*
X-12979228Y-24219444D01*
X-12918008Y-24223704D01*
X-12866327Y-24256799D01*
X-12836846Y-24310622D01*
X-12836783Y-24371991D01*
X-12866156Y-24425874D01*
X-16959324Y-28827131D01*
X-17000605Y-28856367D01*
X-17050126Y-28866685D01*
X-46406930Y-28866685D01*
X-46455804Y-28856647D01*
X-46496765Y-28828159D01*
X-48237606Y-26998500D01*
X-49801970Y-25354321D01*
X-49831174Y-25303568D01*
X-49833833Y-25245071D01*
X-49809352Y-25191876D01*
X-49763191Y-25155847D01*
X-49705647Y-25145018D01*
X-49466000Y-25157578D01*
X-49078662Y-25137278D01*
X-48829314Y-25097785D01*
X-48695571Y-25076603D01*
X-48695567Y-25076602D01*
X-48320913Y-24976214D01*
X-47958806Y-24837214D01*
X-47613211Y-24661125D01*
X-47613212Y-24661125D01*
X-47613207Y-24661123D01*
X-47392818Y-24518000D01*
X-47392816Y-24517999D01*
X-44871247Y-24517999D01*
X-44852281Y-24819452D01*
X-44795681Y-25116163D01*
X-44702342Y-25403428D01*
X-44573732Y-25676739D01*
X-44522964Y-25756736D01*
X-44411885Y-25931768D01*
X-44345705Y-26011766D01*
X-44219350Y-26164503D01*
X-43999161Y-26371276D01*
X-43754796Y-26548816D01*
X-43622450Y-26621574D01*
X-43490104Y-26694332D01*
X-43349684Y-26749928D01*
X-43209263Y-26805525D01*
X-43054859Y-26845168D01*
X-42916698Y-26880642D01*
X-42667686Y-26912100D01*
X-42617028Y-26918500D01*
X-42617027Y-26918500D01*
X-42314973Y-26918500D01*
X-42314972Y-26918500D01*
X-42271640Y-26913025D01*
X-42015302Y-26880642D01*
X-41722738Y-26805525D01*
X-41441896Y-26694332D01*
X-41177205Y-26548816D01*
X-41042949Y-26451274D01*
X-40932840Y-26371276D01*
X-40908921Y-26348814D01*
X-40712651Y-26164504D01*
X-40520115Y-25931768D01*
X-40358267Y-25676736D01*
X-40229659Y-25403430D01*
X-40136319Y-25116160D01*
X-40079720Y-24819457D01*
X-40065787Y-24598000D01*
X-24871247Y-24598000D01*
X-24852281Y-24899452D01*
X-24795681Y-25196163D01*
X-24702342Y-25483428D01*
X-24573732Y-25756739D01*
X-24449032Y-25953234D01*
X-24411885Y-26011768D01*
X-24285531Y-26164504D01*
X-24219350Y-26244503D01*
X-23999161Y-26451276D01*
X-23754796Y-26628816D01*
X-23635623Y-26694332D01*
X-23490104Y-26774332D01*
X-23411319Y-26805525D01*
X-23209263Y-26885525D01*
X-23080832Y-26918500D01*
X-22916698Y-26960642D01*
X-22667686Y-26992100D01*
X-22617028Y-26998500D01*
X-22617027Y-26998500D01*
X-22314973Y-26998500D01*
X-22314972Y-26998500D01*
X-22271640Y-26993025D01*
X-22015302Y-26960642D01*
X-21722738Y-26885525D01*
X-21441896Y-26774332D01*
X-21177205Y-26628816D01*
X-21177206Y-26628816D01*
X-20932840Y-26451276D01*
X-20847647Y-26371274D01*
X-20712651Y-26244504D01*
X-20520115Y-26011768D01*
X-20358267Y-25756736D01*
X-20229659Y-25483430D01*
X-20136319Y-25196160D01*
X-20079720Y-24899457D01*
X-20060754Y-24598000D01*
X-20079720Y-24296543D01*
X-20136319Y-23999840D01*
X-20229659Y-23712570D01*
X-20358267Y-23439264D01*
X-20358268Y-23439263D01*
X-20358269Y-23439260D01*
X-20443607Y-23304789D01*
X-20520115Y-23184232D01*
X-20712651Y-22951496D01*
X-20797842Y-22871496D01*
X-20932840Y-22744723D01*
X-21177205Y-22567183D01*
X-21441898Y-22421667D01*
X-21722738Y-22310474D01*
X-21989028Y-22242104D01*
X-22041163Y-22214150D01*
X-22074414Y-22165223D01*
X-22081213Y-22106459D01*
X-22060014Y-22051232D01*
X-22015640Y-22012111D01*
X-21958191Y-21998000D01*
X-20518176Y-21998000D01*
X-20458625Y-21991597D01*
X-20323911Y-21941352D01*
X-20208812Y-21855188D01*
X-20122648Y-21740089D01*
X-20072403Y-21605375D01*
X-20066000Y-21545824D01*
X-20066000Y-19848000D01*
X-24866000Y-19848000D01*
X-24866000Y-21545824D01*
X-24859598Y-21605375D01*
X-24809353Y-21740089D01*
X-24723189Y-21855188D01*
X-24608090Y-21941352D01*
X-24473376Y-21991597D01*
X-24413824Y-21998000D01*
X-22973809Y-21998000D01*
X-22916360Y-22012111D01*
X-22871986Y-22051232D01*
X-22850787Y-22106459D01*
X-22857586Y-22165223D01*
X-22890837Y-22214150D01*
X-22942972Y-22242104D01*
X-23209263Y-22310474D01*
X-23490103Y-22421667D01*
X-23754796Y-22567183D01*
X-23999161Y-22744723D01*
X-24219350Y-22951496D01*
X-24411886Y-23184233D01*
X-24573732Y-23439260D01*
X-24702342Y-23712571D01*
X-24795681Y-23999836D01*
X-24852281Y-24296547D01*
X-24871247Y-24598000D01*
X-40065787Y-24598000D01*
X-40060754Y-24518000D01*
X-40079720Y-24216543D01*
X-40136319Y-23919840D01*
X-40229659Y-23632570D01*
X-40358267Y-23359264D01*
X-40358268Y-23359263D01*
X-40358269Y-23359260D01*
X-40469346Y-23184232D01*
X-40520115Y-23104232D01*
X-40712651Y-22871496D01*
X-40932840Y-22664723D01*
X-41177205Y-22487183D01*
X-41441898Y-22341667D01*
X-41722738Y-22230474D01*
X-41989028Y-22162104D01*
X-42041163Y-22134150D01*
X-42074414Y-22085223D01*
X-42081213Y-22026459D01*
X-42060014Y-21971232D01*
X-42015640Y-21932111D01*
X-41958191Y-21918000D01*
X-40518176Y-21918000D01*
X-40458625Y-21911597D01*
X-40323911Y-21861352D01*
X-40208812Y-21775188D01*
X-40122648Y-21660089D01*
X-40072403Y-21525375D01*
X-40066000Y-21465824D01*
X-40066000Y-19768000D01*
X-44866000Y-19768000D01*
X-44866000Y-21465824D01*
X-44859598Y-21525375D01*
X-44809353Y-21660089D01*
X-44723189Y-21775188D01*
X-44608090Y-21861352D01*
X-44473376Y-21911597D01*
X-44413824Y-21918000D01*
X-42973809Y-21918000D01*
X-42916360Y-21932111D01*
X-42871986Y-21971232D01*
X-42850787Y-22026459D01*
X-42857586Y-22085223D01*
X-42890837Y-22134150D01*
X-42942972Y-22162104D01*
X-43209263Y-22230474D01*
X-43490103Y-22341667D01*
X-43754796Y-22487183D01*
X-43999161Y-22664723D01*
X-44219350Y-22871496D01*
X-44411886Y-23104233D01*
X-44573732Y-23359260D01*
X-44702342Y-23632571D01*
X-44795681Y-23919836D01*
X-44852281Y-24216547D01*
X-44871247Y-24517999D01*
X-47392816Y-24517999D01*
X-47287916Y-24449876D01*
X-46986484Y-24205781D01*
X-46712219Y-23931516D01*
X-46468124Y-23630084D01*
X-46292251Y-23359264D01*
X-46256877Y-23304793D01*
X-46154687Y-23104233D01*
X-46080786Y-22959194D01*
X-45941786Y-22597087D01*
X-45841398Y-22222433D01*
X-45780722Y-21839338D01*
X-45760422Y-21452000D01*
X-45780722Y-21064662D01*
X-45811060Y-20873114D01*
X-45841397Y-20681570D01*
X-45941786Y-20306913D01*
X-46080786Y-19944806D01*
X-46256877Y-19599206D01*
X-46420013Y-19348000D01*
X-24866000Y-19348000D01*
X-22716000Y-19348000D01*
X-22716000Y-17198000D01*
X-22216000Y-17198000D01*
X-22216000Y-19348000D01*
X-20066000Y-19348000D01*
X-20066000Y-17650176D01*
X-20072403Y-17590624D01*
X-20122648Y-17455910D01*
X-20208812Y-17340811D01*
X-20323911Y-17254647D01*
X-20458625Y-17204402D01*
X-20518176Y-17198000D01*
X-22216000Y-17198000D01*
X-22716000Y-17198000D01*
X-24413824Y-17198000D01*
X-24473376Y-17204402D01*
X-24608090Y-17254647D01*
X-24723189Y-17340811D01*
X-24809353Y-17455910D01*
X-24859598Y-17590624D01*
X-24866000Y-17650176D01*
X-24866000Y-19348000D01*
X-46420013Y-19348000D01*
X-46468122Y-19273919D01*
X-46472915Y-19268000D01*
X-44866000Y-19268000D01*
X-42716000Y-19268000D01*
X-42716000Y-17118000D01*
X-42216000Y-17118000D01*
X-42216000Y-19268000D01*
X-40066000Y-19268000D01*
X-40066000Y-17570176D01*
X-40072403Y-17510624D01*
X-40122648Y-17375910D01*
X-40208812Y-17260811D01*
X-40323911Y-17174647D01*
X-40458625Y-17124402D01*
X-40518176Y-17118000D01*
X-42216000Y-17118000D01*
X-42716000Y-17118000D01*
X-44413824Y-17118000D01*
X-44473376Y-17124402D01*
X-44608090Y-17174647D01*
X-44723189Y-17260811D01*
X-44809353Y-17375910D01*
X-44859598Y-17510624D01*
X-44866000Y-17570176D01*
X-44866000Y-19268000D01*
X-46472915Y-19268000D01*
X-46712219Y-18972484D01*
X-46986484Y-18698219D01*
X-47287916Y-18454124D01*
X-47287918Y-18454123D01*
X-47287920Y-18454121D01*
X-47613207Y-18242876D01*
X-47958807Y-18066785D01*
X-48320914Y-17927785D01*
X-48695571Y-17827396D01*
X-49078660Y-17766722D01*
X-49336888Y-17753188D01*
X-49466000Y-17746422D01*
X-49466001Y-17746422D01*
X-49853341Y-17766722D01*
X-50236430Y-17827396D01*
X-50611087Y-17927785D01*
X-50973194Y-18066785D01*
X-51318794Y-18242876D01*
X-51644081Y-18454121D01*
X-51945520Y-18698222D01*
X-52219778Y-18972480D01*
X-52463879Y-19273919D01*
X-52675124Y-19599206D01*
X-52851215Y-19944806D01*
X-52990215Y-20306913D01*
X-53090604Y-20681570D01*
X-53151278Y-21064659D01*
X-53171578Y-21452000D01*
X-53169123Y-21498845D01*
X-53180466Y-21557513D01*
X-53217931Y-21604065D01*
X-53272818Y-21627688D01*
X-53332381Y-21622899D01*
X-53382788Y-21590808D01*
X-64298252Y-10118432D01*
X-62805663Y-10118432D01*
X-62358909Y-10587568D01*
X-62313206Y-10626278D01*
X-62183916Y-10689186D01*
X-62042145Y-10713116D01*
X-61899376Y-10696139D01*
X-61769707Y-10640708D01*
X-61707165Y-10631497D01*
X-61648209Y-10654316D01*
X-61608164Y-10703232D01*
X-61597438Y-10765533D01*
X-61604460Y-10845798D01*
X-61583864Y-11081207D01*
X-61551000Y-11203855D01*
X-61522703Y-11309463D01*
X-61422835Y-11523630D01*
X-61287295Y-11717201D01*
X-61120201Y-11884295D01*
X-60926630Y-12019835D01*
X-60712463Y-12119703D01*
X-60484208Y-12180863D01*
X-60248801Y-12201459D01*
X-60248801Y-12201458D01*
X-60248800Y-12201459D01*
X-60131097Y-12191161D01*
X-60013391Y-12180863D01*
X-59980774Y-12172123D01*
X-59948043Y-12163352D01*
X-59883857Y-12163352D01*
X-59828269Y-12195445D01*
X-59796174Y-12251033D01*
X-59796174Y-12315220D01*
X-59832231Y-12449788D01*
X-59852827Y-12685196D01*
X-59832231Y-12920603D01*
X-59787458Y-13087697D01*
X-59771070Y-13148859D01*
X-59671202Y-13363026D01*
X-59535662Y-13556597D01*
X-59368568Y-13723691D01*
X-59174997Y-13859231D01*
X-58960830Y-13959099D01*
X-58732575Y-14020259D01*
X-58497167Y-14040855D01*
X-58261759Y-14020259D01*
X-58033504Y-13959099D01*
X-57819337Y-13859231D01*
X-57625766Y-13723691D01*
X-57458672Y-13556597D01*
X-57323132Y-13363026D01*
X-57223264Y-13148859D01*
X-57162104Y-12920604D01*
X-57141508Y-12685196D01*
X-57162104Y-12449788D01*
X-57223264Y-12221533D01*
X-57315981Y-12022703D01*
X-57327333Y-11962190D01*
X-57308179Y-11903675D01*
X-57263241Y-11861586D01*
X-57203598Y-11846300D01*
X-42858383Y-11846300D01*
X-42810930Y-11855739D01*
X-42770702Y-11882619D01*
X-39554151Y-15099170D01*
X-39551958Y-15101419D01*
X-39491659Y-15164853D01*
X-39443230Y-15198560D01*
X-39435738Y-15204209D01*
X-39390008Y-15241497D01*
X-39369661Y-15252125D01*
X-39363043Y-15255582D01*
X-39349619Y-15263715D01*
X-39324650Y-15281094D01*
X-39324649Y-15281095D01*
X-39270435Y-15304360D01*
X-39261925Y-15308402D01*
X-39209649Y-15335709D01*
X-39180400Y-15344077D01*
X-39165630Y-15349335D01*
X-39137658Y-15361340D01*
X-39137655Y-15361340D01*
X-39137654Y-15361341D01*
X-39079874Y-15373214D01*
X-39070731Y-15375457D01*
X-39014018Y-15391686D01*
X-38983680Y-15393996D01*
X-38968152Y-15396173D01*
X-38938341Y-15402300D01*
X-38879356Y-15402300D01*
X-38869941Y-15402658D01*
X-38865794Y-15402973D01*
X-38811124Y-15407137D01*
X-38784322Y-15403723D01*
X-38780948Y-15403294D01*
X-38765283Y-15402300D01*
X-18784879Y-15402300D01*
X-18781738Y-15402339D01*
X-18694237Y-15404557D01*
X-18636168Y-15394148D01*
X-18626864Y-15392843D01*
X-18568162Y-15386874D01*
X-18539133Y-15377765D01*
X-18523900Y-15374026D01*
X-18493947Y-15368658D01*
X-18439174Y-15346778D01*
X-18430299Y-15343619D01*
X-18412925Y-15338167D01*
X-18374012Y-15325959D01*
X-18347406Y-15311190D01*
X-18333238Y-15304462D01*
X-18304983Y-15293177D01*
X-18255721Y-15260709D01*
X-18247690Y-15255843D01*
X-18196098Y-15227209D01*
X-18173013Y-15207389D01*
X-18160486Y-15197944D01*
X-18135081Y-15181202D01*
X-18093349Y-15139468D01*
X-18086477Y-15133100D01*
X-18041705Y-15094666D01*
X-18023076Y-15070598D01*
X-18012717Y-15058836D01*
X-12693260Y-9739380D01*
X-12596902Y-9621207D01*
X-12502691Y-9440849D01*
X-12446714Y-9245218D01*
X-12431263Y-9042324D01*
X-12456970Y-8840472D01*
X-12522784Y-8647928D01*
X-12626010Y-8472573D01*
X-12762421Y-8321587D01*
X-12762422Y-8321586D01*
X-12762424Y-8321584D01*
X-12926434Y-8201150D01*
X-13111332Y-8116194D01*
X-13309546Y-8070197D01*
X-13512961Y-8065042D01*
X-13713255Y-8100942D01*
X-13902220Y-8176423D01*
X-14072119Y-8288396D01*
X-19148701Y-13364981D01*
X-19188929Y-13391861D01*
X-19236382Y-13401300D01*
X-38370817Y-13401300D01*
X-38418270Y-13391861D01*
X-38458498Y-13364981D01*
X-41675033Y-10148447D01*
X-41677188Y-10146238D01*
X-41737541Y-10082747D01*
X-41785960Y-10049046D01*
X-41793482Y-10043375D01*
X-41839195Y-10006100D01*
X-41866160Y-9992015D01*
X-41879581Y-9983884D01*
X-41904551Y-9966505D01*
X-41904552Y-9966504D01*
X-41904554Y-9966503D01*
X-41958755Y-9943243D01*
X-41967264Y-9939202D01*
X-42019547Y-9911892D01*
X-42025474Y-9910196D01*
X-42048802Y-9903521D01*
X-42063580Y-9898259D01*
X-42091542Y-9886260D01*
X-42149328Y-9874383D01*
X-42158472Y-9872138D01*
X-42215179Y-9855913D01*
X-42245525Y-9853602D01*
X-42261066Y-9851422D01*
X-42290858Y-9845300D01*
X-42290859Y-9845300D01*
X-42349842Y-9845300D01*
X-42359256Y-9844942D01*
X-42368402Y-9844245D01*
X-42418076Y-9840463D01*
X-42418077Y-9840463D01*
X-42448251Y-9844306D01*
X-42463917Y-9845300D01*
X-59288042Y-9845300D01*
X-59335495Y-9835861D01*
X-59375723Y-9808981D01*
X-59377396Y-9807308D01*
X-59377399Y-9807305D01*
X-59570970Y-9671765D01*
X-59785137Y-9571897D01*
X-59846299Y-9555509D01*
X-60013393Y-9510736D01*
X-60248801Y-9490140D01*
X-60255207Y-9490701D01*
X-60318882Y-9479338D01*
X-60368173Y-9437455D01*
X-60389667Y-9376450D01*
X-60377516Y-9312920D01*
X-60317651Y-9189884D01*
X-60293721Y-9048113D01*
X-60310698Y-8905344D01*
X-60367215Y-8773134D01*
X-60403641Y-8725599D01*
X-60850397Y-8256459D01*
X-60850398Y-8256458D01*
X-62009072Y-9359851D01*
X-62805662Y-10118431D01*
X-62805663Y-10118432D01*
X-64298252Y-10118432D01*
X-65395985Y-8964692D01*
X-63707148Y-8964692D01*
X-63690171Y-9107461D01*
X-63633654Y-9239671D01*
X-63597228Y-9287206D01*
X-63150473Y-9756345D01*
X-63150472Y-9756346D01*
X-62353883Y-8997764D01*
X-62353882Y-8997763D01*
X-63112464Y-8201175D01*
X-63112465Y-8201174D01*
X-63581600Y-8647928D01*
X-63620310Y-8693631D01*
X-63683218Y-8822921D01*
X-63707148Y-8964692D01*
X-65395985Y-8964692D01*
X-66450510Y-7856365D01*
X-62750379Y-7856365D01*
X-61991797Y-8652954D01*
X-61991796Y-8652955D01*
X-61195208Y-7894373D01*
X-61195207Y-7894372D01*
X-61641960Y-7425237D01*
X-61687663Y-7386527D01*
X-61816953Y-7323619D01*
X-61958724Y-7299689D01*
X-62101493Y-7316666D01*
X-62233703Y-7373183D01*
X-62281238Y-7409609D01*
X-62750378Y-7856364D01*
X-62750379Y-7856365D01*
X-66450510Y-7856365D01*
X-71317975Y-2740560D01*
X-71343268Y-2701146D01*
X-71352140Y-2655163D01*
X-71352171Y-2605063D01*
X-71353000Y-1266000D01*
X-68556000Y-1266000D01*
X-68556000Y-2016324D01*
X-68549598Y-2075875D01*
X-68499353Y-2210589D01*
X-68413189Y-2325688D01*
X-68298090Y-2411852D01*
X-68163376Y-2462097D01*
X-68103824Y-2468500D01*
X-67306000Y-2468500D01*
X-67306000Y-1266000D01*
X-66806000Y-1266000D01*
X-66806000Y-2468500D01*
X-66008176Y-2468500D01*
X-65948625Y-2462097D01*
X-65813911Y-2411852D01*
X-65698812Y-2325688D01*
X-65612648Y-2210589D01*
X-65562403Y-2075875D01*
X-65556000Y-2016324D01*
X-65556000Y-1266000D01*
X-66806000Y-1266000D01*
X-67306000Y-1266000D01*
X-68556000Y-1266000D01*
X-71353000Y-1266000D01*
X-71354654Y1403601D01*
X-68556500Y1403601D01*
X-68516866Y1166085D01*
X-68445253Y957484D01*
X-68438679Y938336D01*
X-68324072Y726561D01*
X-68304623Y701573D01*
X-68212846Y583656D01*
X-68188992Y531228D01*
X-68191400Y473679D01*
X-68219549Y423426D01*
X-68267365Y391313D01*
X-68298087Y379854D01*
X-68413189Y293689D01*
X-68499353Y178590D01*
X-68549598Y43876D01*
X-68556000Y-15676D01*
X-68556000Y-766000D01*
X-65556000Y-766000D01*
X-65556000Y-198000D01*
X-61833436Y-198000D01*
X-61776231Y-411492D01*
X-61676401Y-625576D01*
X-61540907Y-819081D01*
X-61373882Y-986106D01*
X-61180377Y-1121600D01*
X-60966293Y-1221430D01*
X-60752801Y-1278635D01*
X-60752800Y-1278636D01*
X-60752800Y-198000D01*
X-60252800Y-198000D01*
X-60252800Y-1278635D01*
X-60039308Y-1221430D01*
X-59825224Y-1121600D01*
X-59631719Y-986106D01*
X-59464694Y-819081D01*
X-59329200Y-625576D01*
X-59229370Y-411492D01*
X-59221200Y-381000D01*
X-57522060Y-381000D01*
X-57502274Y-569257D01*
X-57443780Y-749284D01*
X-57349134Y-913216D01*
X-57222471Y-1053889D01*
X-57069331Y-1165151D01*
X-56896403Y-1242144D01*
X-56711248Y-1281500D01*
X-56711246Y-1281500D01*
X-56521954Y-1281500D01*
X-56521952Y-1281500D01*
X-56398516Y-1255262D01*
X-56336797Y-1242144D01*
X-56163870Y-1165151D01*
X-56010729Y-1053888D01*
X-55884067Y-913216D01*
X-55789421Y-749284D01*
X-55730926Y-569256D01*
X-55711140Y-381000D01*
X-55730926Y-192744D01*
X-55774949Y-57255D01*
X-55789421Y-12715D01*
X-55884067Y151217D01*
X-56010730Y291890D01*
X-56163870Y403152D01*
X-56336798Y480145D01*
X-56521952Y519500D01*
X-56521954Y519500D01*
X-56711246Y519500D01*
X-56711248Y519500D01*
X-56896403Y480145D01*
X-57069331Y403152D01*
X-57222471Y291890D01*
X-57349134Y151217D01*
X-57443780Y-12715D01*
X-57502274Y-192742D01*
X-57522060Y-381000D01*
X-59221200Y-381000D01*
X-59172164Y-198000D01*
X-60252800Y-198000D01*
X-60752800Y-198000D01*
X-61833436Y-198000D01*
X-65556000Y-198000D01*
X-65556000Y-15676D01*
X-65562403Y43876D01*
X-65612648Y178590D01*
X-65698812Y293689D01*
X-65813912Y379853D01*
X-65844635Y391312D01*
X-65892452Y423426D01*
X-65920601Y473678D01*
X-65923008Y531228D01*
X-65899155Y583656D01*
X-65787928Y726561D01*
X-65673321Y938336D01*
X-65595134Y1166087D01*
X-65555500Y1403601D01*
X-65555500Y1644399D01*
X-65563799Y1694131D01*
X-61853300Y1694131D01*
X-61846891Y1634516D01*
X-61821744Y1567093D01*
X-61796596Y1499669D01*
X-61710346Y1384454D01*
X-61595131Y1298204D01*
X-61463202Y1248998D01*
X-61412822Y1214019D01*
X-61385369Y1159175D01*
X-61387558Y1097882D01*
X-61418853Y1045135D01*
X-61540912Y923076D01*
X-61676400Y729579D01*
X-61776231Y515493D01*
X-61833436Y302001D01*
X-61833436Y302000D01*
X-59172164Y302000D01*
X-59172165Y302001D01*
X-59229370Y515493D01*
X-59329201Y729579D01*
X-59464691Y923079D01*
X-59586747Y1045135D01*
X-59618043Y1097881D01*
X-59620232Y1159174D01*
X-59592779Y1214019D01*
X-59542402Y1248997D01*
X-59410469Y1298204D01*
X-59295254Y1384454D01*
X-59209004Y1499669D01*
X-59158709Y1634517D01*
X-59152300Y1694127D01*
X-59152301Y3489872D01*
X-59158709Y3549483D01*
X-59209004Y3684331D01*
X-59295254Y3799546D01*
X-59410469Y3885796D01*
X-59545317Y3936091D01*
X-59604927Y3942500D01*
X-59604931Y3942500D01*
X-61400670Y3942500D01*
X-61460285Y3936091D01*
X-61595131Y3885796D01*
X-61710346Y3799546D01*
X-61796596Y3684332D01*
X-61846891Y3549485D01*
X-61846891Y3549483D01*
X-61852481Y3497484D01*
X-61853300Y3489870D01*
X-61853300Y1694131D01*
X-65563799Y1694131D01*
X-65595134Y1881913D01*
X-65673321Y2109664D01*
X-65787928Y2321439D01*
X-65935829Y2511463D01*
X-66112990Y2674551D01*
X-66136930Y2690192D01*
X-66178163Y2734982D01*
X-66193108Y2794000D01*
X-66178163Y2853018D01*
X-66136929Y2897809D01*
X-66136927Y2897810D01*
X-66112990Y2913449D01*
X-65935829Y3076537D01*
X-65787928Y3266561D01*
X-65673321Y3478336D01*
X-65595134Y3706087D01*
X-65555500Y3943601D01*
X-65555500Y4184399D01*
X-65595134Y4421913D01*
X-65673321Y4649664D01*
X-65787928Y4861439D01*
X-65935829Y5051463D01*
X-66112990Y5214551D01*
X-66314578Y5346255D01*
X-66424875Y5394636D01*
X-66535094Y5442983D01*
X-66665686Y5476053D01*
X-66768524Y5502095D01*
X-66768526Y5502096D01*
X-66768529Y5502096D01*
X-66948394Y5517000D01*
X-66948400Y5517000D01*
X-67163600Y5517000D01*
X-67163606Y5517000D01*
X-67343472Y5502096D01*
X-67576907Y5442983D01*
X-67797423Y5346255D01*
X-67999009Y5214552D01*
X-68176171Y5051464D01*
X-68324071Y4861441D01*
X-68324073Y4861439D01*
X-68324072Y4861439D01*
X-68395134Y4730127D01*
X-68438681Y4649660D01*
X-68516866Y4421916D01*
X-68556500Y4184399D01*
X-68556500Y3943601D01*
X-68516866Y3706085D01*
X-68442639Y3489870D01*
X-68438679Y3478336D01*
X-68324072Y3266561D01*
X-68176171Y3076537D01*
X-67999010Y2913449D01*
X-67975071Y2897809D01*
X-67933839Y2853020D01*
X-67918893Y2794004D01*
X-67933837Y2734987D01*
X-67975068Y2690195D01*
X-67999006Y2674555D01*
X-68176171Y2511464D01*
X-68324071Y2321441D01*
X-68438681Y2109660D01*
X-68516866Y1881916D01*
X-68556500Y1644399D01*
X-68556500Y1403601D01*
X-71354654Y1403601D01*
X-71361572Y12572758D01*
X-71346576Y12631943D01*
X-71305150Y12676799D01*
X-71247339Y12696447D01*
X-71187160Y12686122D01*
X-71139204Y12648329D01*
X-71115099Y12592230D01*
X-71090604Y12437571D01*
X-70990215Y12062914D01*
X-70851215Y11700807D01*
X-70675124Y11355207D01*
X-70463879Y11029920D01*
X-70463876Y11029916D01*
X-70219781Y10728484D01*
X-69945516Y10454219D01*
X-69644084Y10210124D01*
X-69644082Y10210123D01*
X-69644081Y10210122D01*
X-69318794Y9998877D01*
X-68973194Y9822786D01*
X-68611087Y9683786D01*
X-68236430Y9583397D01*
X-68054375Y9554563D01*
X-67853338Y9522722D01*
X-67466000Y9502422D01*
X-67078662Y9522722D01*
X-66823295Y9563168D01*
X-66695571Y9583397D01*
X-66684901Y9586256D01*
X-66320913Y9683786D01*
X-65958806Y9822786D01*
X-65613211Y9998875D01*
X-65613212Y9998875D01*
X-65613207Y9998877D01*
X-65434711Y10114794D01*
X-65287916Y10210124D01*
X-64986484Y10454219D01*
X-64712219Y10728484D01*
X-64468124Y11029916D01*
X-64328759Y11244519D01*
X-64256877Y11355207D01*
X-64126656Y11610781D01*
X-64080786Y11700806D01*
X-63941786Y12062913D01*
X-63841398Y12437567D01*
X-63839989Y12446458D01*
X-63810612Y12631943D01*
X-63780722Y12820662D01*
X-63760422Y13208000D01*
X-63780722Y13595338D01*
X-63824791Y13873581D01*
X-63841397Y13978430D01*
X-63941786Y14353087D01*
X-64080786Y14715194D01*
X-64256877Y15060794D01*
X-64468122Y15386081D01*
X-64472943Y15392035D01*
X-64712219Y15687516D01*
X-64801814Y15777111D01*
X-63368160Y15777111D01*
X-63364050Y15733630D01*
X-63363500Y15721961D01*
X-63363500Y12782744D01*
X-63365765Y12762238D01*
X-63363561Y12692127D01*
X-63363500Y12688232D01*
X-63363500Y12660651D01*
X-63362997Y12656666D01*
X-63362082Y12645033D01*
X-63360710Y12601374D01*
X-63355121Y12582140D01*
X-63351175Y12563084D01*
X-63348665Y12543208D01*
X-63332586Y12502596D01*
X-63328803Y12491549D01*
X-63316618Y12449609D01*
X-63306420Y12432365D01*
X-63297864Y12414900D01*
X-63290486Y12396268D01*
X-63290485Y12396267D01*
X-63264820Y12360941D01*
X-63258407Y12351178D01*
X-63236174Y12313584D01*
X-63236171Y12313581D01*
X-63236170Y12313580D01*
X-63222005Y12299415D01*
X-63209373Y12284625D01*
X-63197594Y12268413D01*
X-63163942Y12240574D01*
X-63155301Y12232711D01*
X-62152962Y11230371D01*
X-62128723Y11196074D01*
X-62117322Y11155652D01*
X-62099674Y10987743D01*
X-62041180Y10807716D01*
X-61946534Y10643784D01*
X-61819871Y10503111D01*
X-61666731Y10391849D01*
X-61493803Y10314856D01*
X-61308648Y10275500D01*
X-61308646Y10275500D01*
X-61119354Y10275500D01*
X-61119352Y10275500D01*
X-60995916Y10301738D01*
X-60934197Y10314856D01*
X-60761270Y10391849D01*
X-60735277Y10410734D01*
X-60608130Y10503111D01*
X-60593026Y10519885D01*
X-60481467Y10643784D01*
X-60386821Y10807716D01*
X-60328326Y10987744D01*
X-60308540Y11176000D01*
X-60328326Y11364256D01*
X-60361677Y11466900D01*
X-60386821Y11544285D01*
X-60481467Y11708217D01*
X-60608130Y11848890D01*
X-60761270Y11960152D01*
X-60934198Y12037145D01*
X-61119352Y12076500D01*
X-61119354Y12076500D01*
X-61178547Y12076500D01*
X-61226000Y12085939D01*
X-61266228Y12112819D01*
X-62076181Y12922772D01*
X-62103061Y12963000D01*
X-62112500Y13010453D01*
X-62112500Y14469500D01*
X-62095887Y14531500D01*
X-62050500Y14576887D01*
X-61988500Y14593500D01*
X-61881352Y14593500D01*
X-61708039Y14630339D01*
X-61696197Y14632856D01*
X-61523270Y14709849D01*
X-61507044Y14721638D01*
X-61370130Y14821111D01*
X-61361138Y14831097D01*
X-61243467Y14961784D01*
X-61148821Y15125716D01*
X-61090326Y15305744D01*
X-61072678Y15473659D01*
X-61061279Y15514074D01*
X-61037038Y15548373D01*
X-60991226Y15594183D01*
X-60950998Y15621062D01*
X-60903547Y15630500D01*
X-44811654Y15630500D01*
X-44755359Y15616985D01*
X-44711336Y15579385D01*
X-44689181Y15525898D01*
X-44693723Y15468182D01*
X-44723973Y15418819D01*
X-45180772Y14962019D01*
X-45221000Y14935139D01*
X-45268453Y14925700D01*
X-57422859Y14925700D01*
X-57443363Y14927964D01*
X-57513455Y14925761D01*
X-57517349Y14925700D01*
X-57544952Y14925700D01*
X-57548947Y14925196D01*
X-57560571Y14924282D01*
X-57604232Y14922910D01*
X-57623472Y14917320D01*
X-57642519Y14913375D01*
X-57662391Y14910865D01*
X-57703001Y14894787D01*
X-57714046Y14891006D01*
X-57755990Y14878819D01*
X-57773235Y14868621D01*
X-57790696Y14860067D01*
X-57809333Y14852688D01*
X-57844669Y14827015D01*
X-57854426Y14820605D01*
X-57892020Y14798371D01*
X-57906187Y14784204D01*
X-57920976Y14771574D01*
X-57937187Y14759796D01*
X-57965028Y14726142D01*
X-57972889Y14717503D01*
X-59032392Y13658001D01*
X-59048490Y13645104D01*
X-59096504Y13593975D01*
X-59099209Y13591183D01*
X-59118726Y13571666D01*
X-59121185Y13568495D01*
X-59128758Y13559628D01*
X-59158665Y13527780D01*
X-59168315Y13510226D01*
X-59178991Y13493972D01*
X-59191274Y13478137D01*
X-59208625Y13438042D01*
X-59213762Y13427556D01*
X-59234798Y13389293D01*
X-59239779Y13369891D01*
X-59246080Y13351489D01*
X-59254039Y13333098D01*
X-59260872Y13289958D01*
X-59263240Y13278526D01*
X-59274100Y13236222D01*
X-59274100Y13216184D01*
X-59275627Y13196787D01*
X-59278760Y13177004D01*
X-59276682Y13155023D01*
X-59274650Y13133525D01*
X-59274100Y13121856D01*
X-59274100Y10807887D01*
X-59282336Y10763449D01*
X-59305948Y10724918D01*
X-59323576Y10705339D01*
X-59381136Y10641414D01*
X-59475780Y10477485D01*
X-59534274Y10297458D01*
X-59554060Y10109200D01*
X-59534274Y9920943D01*
X-59475780Y9740916D01*
X-59381134Y9576984D01*
X-59254471Y9436311D01*
X-59101331Y9325049D01*
X-58928403Y9248056D01*
X-58743248Y9208700D01*
X-58743246Y9208700D01*
X-58553954Y9208700D01*
X-58553952Y9208700D01*
X-58430516Y9234938D01*
X-58368797Y9248056D01*
X-58195870Y9325049D01*
X-58173574Y9341248D01*
X-58042730Y9436311D01*
X-57916067Y9576984D01*
X-57821421Y9740916D01*
X-57803876Y9794913D01*
X-57762926Y9920944D01*
X-57743140Y10109200D01*
X-57762926Y10297456D01*
X-57804772Y10426244D01*
X-57821421Y10477485D01*
X-57916065Y10641414D01*
X-57973624Y10705339D01*
X-57991253Y10724918D01*
X-58014864Y10763449D01*
X-58023100Y10807887D01*
X-58023100Y11543359D01*
X-58011021Y11596742D01*
X-57977136Y11639725D01*
X-57928048Y11663933D01*
X-57873319Y11664649D01*
X-57752648Y11639000D01*
X-57752646Y11639000D01*
X-57693452Y11639000D01*
X-57645999Y11629561D01*
X-57605772Y11602682D01*
X-56690939Y10687848D01*
X-55779304Y9776213D01*
X-55766404Y9760112D01*
X-55715277Y9712100D01*
X-55712481Y9709390D01*
X-55692971Y9689880D01*
X-55689789Y9687412D01*
X-55680929Y9679845D01*
X-55663126Y9663126D01*
X-55649082Y9649938D01*
X-55631530Y9640289D01*
X-55615262Y9629603D01*
X-55599436Y9617327D01*
X-55559354Y9599983D01*
X-55548867Y9594845D01*
X-55510593Y9573803D01*
X-55504489Y9572236D01*
X-55491192Y9568822D01*
X-55472787Y9562522D01*
X-55454396Y9554563D01*
X-55411250Y9547730D01*
X-55399832Y9545365D01*
X-55357519Y9534500D01*
X-55337484Y9534500D01*
X-55318085Y9532973D01*
X-55298304Y9529840D01*
X-55254826Y9533950D01*
X-55243156Y9534500D01*
X-45594315Y9534500D01*
X-45538020Y9520985D01*
X-45493997Y9483386D01*
X-45471842Y9429898D01*
X-45476384Y9372182D01*
X-45538874Y9179858D01*
X-45554512Y9031071D01*
X-45558660Y8991600D01*
X-45556692Y8972877D01*
X-45538874Y8803343D01*
X-45480380Y8623316D01*
X-45385734Y8459384D01*
X-45335950Y8404094D01*
X-45312336Y8365560D01*
X-45304100Y8321122D01*
X-45304100Y-4209856D01*
X-45306365Y-4230362D01*
X-45304161Y-4300473D01*
X-45304100Y-4304368D01*
X-45304100Y-4331949D01*
X-45303597Y-4335934D01*
X-45302682Y-4347567D01*
X-45301310Y-4391226D01*
X-45295721Y-4410460D01*
X-45291775Y-4429516D01*
X-45289265Y-4449392D01*
X-45273186Y-4490004D01*
X-45269403Y-4501051D01*
X-45257218Y-4542991D01*
X-45247020Y-4560235D01*
X-45238464Y-4577700D01*
X-45231086Y-4596332D01*
X-45231085Y-4596333D01*
X-45205420Y-4631659D01*
X-45199007Y-4641422D01*
X-45176774Y-4679016D01*
X-45176771Y-4679019D01*
X-45176770Y-4679020D01*
X-45162605Y-4693185D01*
X-45149973Y-4707975D01*
X-45138194Y-4724187D01*
X-45104542Y-4752026D01*
X-45095901Y-4759889D01*
X-37407004Y-12448787D01*
X-37394104Y-12464888D01*
X-37342977Y-12512900D01*
X-37340180Y-12515611D01*
X-37320671Y-12535120D01*
X-37317489Y-12537588D01*
X-37308629Y-12545155D01*
X-37276782Y-12575062D01*
X-37259230Y-12584711D01*
X-37242962Y-12595397D01*
X-37227136Y-12607673D01*
X-37187054Y-12625017D01*
X-37176567Y-12630155D01*
X-37138293Y-12651197D01*
X-37129790Y-12653379D01*
X-37118892Y-12656178D01*
X-37100487Y-12662478D01*
X-37082096Y-12670437D01*
X-37038950Y-12677270D01*
X-37027532Y-12679635D01*
X-36985219Y-12690500D01*
X-36965183Y-12690500D01*
X-36945786Y-12692026D01*
X-36926004Y-12695160D01*
X-36885480Y-12691328D01*
X-36882528Y-12691050D01*
X-36870858Y-12690500D01*
X-21099947Y-12690500D01*
X-21049512Y-12701220D01*
X-21007799Y-12731526D01*
X-21002071Y-12737888D01*
X-20848930Y-12849151D01*
X-20848929Y-12849151D01*
X-20848928Y-12849152D01*
X-20676003Y-12926144D01*
X-20490848Y-12965500D01*
X-20490846Y-12965500D01*
X-20301554Y-12965500D01*
X-20301552Y-12965500D01*
X-20178116Y-12939262D01*
X-20116397Y-12926144D01*
X-19943470Y-12849151D01*
X-19790329Y-12737888D01*
X-19663667Y-12597216D01*
X-19569021Y-12433284D01*
X-19510526Y-12253256D01*
X-19490740Y-12065000D01*
X-19510526Y-11876744D01*
X-19569021Y-11696716D01*
X-19569021Y-11696715D01*
X-19663667Y-11532783D01*
X-19790330Y-11392110D01*
X-19943470Y-11280848D01*
X-20116398Y-11203855D01*
X-20301552Y-11164500D01*
X-20301554Y-11164500D01*
X-20490846Y-11164500D01*
X-20490848Y-11164500D01*
X-20676003Y-11203855D01*
X-20848928Y-11280847D01*
X-20888313Y-11309462D01*
X-21002071Y-11392112D01*
X-21007799Y-11398473D01*
X-21049512Y-11428780D01*
X-21099947Y-11439500D01*
X-36595747Y-11439500D01*
X-36643200Y-11430061D01*
X-36683428Y-11403181D01*
X-44016781Y-4069828D01*
X-44043661Y-4029600D01*
X-44053100Y-3982147D01*
X-44053100Y4060000D01*
X-41990000Y4060000D01*
X-40890000Y4060000D01*
X-40890000Y5160000D01*
X-40390000Y5160000D01*
X-40390000Y4060000D01*
X-38350000Y4060000D01*
X-38350000Y5160000D01*
X-37850000Y5160000D01*
X-37850000Y4060000D01*
X-36750000Y4060000D01*
X-36750000Y4707824D01*
X-36756403Y4767376D01*
X-36806648Y4902090D01*
X-36892812Y5017189D01*
X-37007911Y5103353D01*
X-37142625Y5153598D01*
X-37202176Y5160000D01*
X-37850000Y5160000D01*
X-38350000Y5160000D01*
X-38997824Y5160000D01*
X-39057376Y5153598D01*
X-39192090Y5103353D01*
X-39295689Y5025798D01*
X-39343642Y5003899D01*
X-39396358Y5003899D01*
X-39444311Y5025798D01*
X-39547911Y5103353D01*
X-39682625Y5153598D01*
X-39742176Y5160000D01*
X-40390000Y5160000D01*
X-40890000Y5160000D01*
X-41537824Y5160000D01*
X-41597376Y5153598D01*
X-41732090Y5103353D01*
X-41847189Y5017189D01*
X-41933353Y4902090D01*
X-41983598Y4767376D01*
X-41990000Y4707824D01*
X-41990000Y4060000D01*
X-44053100Y4060000D01*
X-44053100Y8264703D01*
X-44044864Y8309141D01*
X-44021250Y8347675D01*
X-43920667Y8459384D01*
X-43826021Y8623316D01*
X-43797098Y8712332D01*
X-43767526Y8803344D01*
X-43747740Y8991600D01*
X-43767526Y9179856D01*
X-43801995Y9285941D01*
X-43830016Y9372182D01*
X-43834558Y9429898D01*
X-43812403Y9483386D01*
X-43768380Y9520985D01*
X-43712085Y9534500D01*
X-43629747Y9534500D01*
X-43579312Y9523780D01*
X-43537599Y9493474D01*
X-43531871Y9487112D01*
X-43378730Y9375849D01*
X-43378729Y9375849D01*
X-43378728Y9375848D01*
X-43205803Y9298856D01*
X-43020648Y9259500D01*
X-43020646Y9259500D01*
X-42831354Y9259500D01*
X-42831352Y9259500D01*
X-42706953Y9285942D01*
X-42646197Y9298856D01*
X-42473270Y9375849D01*
X-42407517Y9423621D01*
X-42320130Y9487111D01*
X-42314402Y9493472D01*
X-42193467Y9627784D01*
X-42098821Y9791716D01*
X-42040326Y9971744D01*
X-42020540Y10160000D01*
X-42020541Y10160002D01*
X-42019178Y10172961D01*
X-42018145Y10172853D01*
X-42008622Y10226857D01*
X-41962882Y10277658D01*
X-41897171Y10296500D01*
X-38410452Y10296500D01*
X-38362999Y10287061D01*
X-38322771Y10260181D01*
X-37751141Y9688550D01*
X-37721935Y9642261D01*
X-37715501Y9587908D01*
X-37735460Y9398001D01*
X-37715674Y9209743D01*
X-37657180Y9029717D01*
X-37562534Y8865784D01*
X-37435871Y8725111D01*
X-37282731Y8613849D01*
X-37109803Y8536856D01*
X-36924648Y8497500D01*
X-36924646Y8497500D01*
X-36735354Y8497500D01*
X-36735352Y8497500D01*
X-36611917Y8523738D01*
X-36550197Y8536856D01*
X-36377270Y8613849D01*
X-36315820Y8658495D01*
X-36224130Y8725111D01*
X-36207643Y8743421D01*
X-36097467Y8865784D01*
X-36081402Y8893610D01*
X-36002820Y9029717D01*
X-35969321Y9132818D01*
X-35944326Y9209744D01*
X-35924540Y9398000D01*
X-35944326Y9586256D01*
X-35981706Y9701299D01*
X-36002821Y9766285D01*
X-36097467Y9930217D01*
X-36224130Y10070890D01*
X-36377266Y10182150D01*
X-36477680Y10226857D01*
X-36533453Y10251689D01*
X-36570695Y10277286D01*
X-37140228Y10846819D01*
X-37170478Y10896182D01*
X-37175020Y10953898D01*
X-37152865Y11007385D01*
X-37108842Y11044985D01*
X-37052547Y11058500D01*
X-36124452Y11058500D01*
X-36076999Y11049061D01*
X-36036771Y11022181D01*
X-35129384Y10114794D01*
X-35116483Y10098692D01*
X-35114369Y10096707D01*
X-35114367Y10096704D01*
X-35086878Y10070890D01*
X-35065341Y10050665D01*
X-35062545Y10047955D01*
X-35043051Y10028461D01*
X-35039877Y10025999D01*
X-35031013Y10018428D01*
X-34999163Y9988519D01*
X-34988667Y9982749D01*
X-34981607Y9978867D01*
X-34965350Y9968189D01*
X-34949517Y9955907D01*
X-34937451Y9950686D01*
X-34909425Y9938558D01*
X-34898938Y9933421D01*
X-34860673Y9912384D01*
X-34841265Y9907401D01*
X-34822871Y9901103D01*
X-34804476Y9893143D01*
X-34761327Y9886310D01*
X-34749916Y9883947D01*
X-34716418Y9875346D01*
X-34683025Y9861307D01*
X-34655118Y9838221D01*
X-34643838Y9825693D01*
X-34490697Y9714430D01*
X-34490696Y9714430D01*
X-34490695Y9714429D01*
X-34487977Y9713218D01*
X-34441034Y9676706D01*
X-34416491Y9622536D01*
X-34419993Y9563168D01*
X-34450734Y9512259D01*
X-35943792Y8019201D01*
X-35959890Y8006304D01*
X-36007904Y7955175D01*
X-36010609Y7952383D01*
X-36030126Y7932866D01*
X-36032585Y7929695D01*
X-36040158Y7920828D01*
X-36070065Y7888980D01*
X-36079715Y7871426D01*
X-36090391Y7855172D01*
X-36102674Y7839337D01*
X-36120025Y7799242D01*
X-36125162Y7788756D01*
X-36146198Y7750493D01*
X-36151179Y7731091D01*
X-36157480Y7712689D01*
X-36165439Y7694298D01*
X-36172272Y7651158D01*
X-36174640Y7639726D01*
X-36185500Y7597422D01*
X-36185500Y7577384D01*
X-36187027Y7557987D01*
X-36190160Y7538204D01*
X-36188789Y7523701D01*
X-36186050Y7494725D01*
X-36185500Y7483056D01*
X-36185500Y3129853D01*
X-36194939Y3082400D01*
X-36221817Y3042175D01*
X-36335460Y2928531D01*
X-36558582Y2705410D01*
X-36616457Y2672728D01*
X-36682895Y2674626D01*
X-36738809Y2710561D01*
X-36768133Y2770208D01*
X-36762443Y2836429D01*
X-36756403Y2852624D01*
X-36750000Y2912176D01*
X-36750000Y3560000D01*
X-41990000Y3560000D01*
X-41990000Y2912176D01*
X-41983598Y2852625D01*
X-41933353Y2717911D01*
X-41847189Y2602812D01*
X-41732089Y2516648D01*
X-41600529Y2467578D01*
X-41550150Y2432599D01*
X-41522697Y2377754D01*
X-41524886Y2316461D01*
X-41556181Y2263715D01*
X-41678497Y2141399D01*
X-41814035Y1947830D01*
X-41913903Y1733664D01*
X-41975064Y1505408D01*
X-41995659Y1270001D01*
X-41975064Y1034593D01*
X-41938429Y897870D01*
X-41913903Y806337D01*
X-41814035Y592170D01*
X-41678495Y398599D01*
X-41511401Y231505D01*
X-41325840Y101574D01*
X-41286976Y57257D01*
X-41272965Y0D01*
X-41286976Y-57257D01*
X-41325841Y-101575D01*
X-41511405Y-231508D01*
X-41678495Y-398598D01*
X-41814035Y-592170D01*
X-41913903Y-806336D01*
X-41975064Y-1034592D01*
X-41995660Y-1269999D01*
X-41975064Y-1505407D01*
X-41954432Y-1582406D01*
X-41913903Y-1733663D01*
X-41814035Y-1947830D01*
X-41678495Y-2141401D01*
X-41511401Y-2308495D01*
X-41317830Y-2444035D01*
X-41103663Y-2543903D01*
X-40875408Y-2605063D01*
X-40640000Y-2625659D01*
X-40404592Y-2605063D01*
X-40176337Y-2543903D01*
X-39962170Y-2444035D01*
X-39768599Y-2308495D01*
X-39601505Y-2141401D01*
X-39471574Y-1955839D01*
X-39427257Y-1916976D01*
X-39370000Y-1902965D01*
X-39312743Y-1916976D01*
X-39268427Y-1955839D01*
X-39138495Y-2141401D01*
X-38971401Y-2308495D01*
X-38777830Y-2444035D01*
X-38563663Y-2543903D01*
X-38335408Y-2605063D01*
X-38100000Y-2625659D01*
X-37864592Y-2605063D01*
X-37636337Y-2543903D01*
X-37422170Y-2444035D01*
X-37228599Y-2308495D01*
X-37061505Y-2141401D01*
X-36925965Y-1947830D01*
X-36826097Y-1733663D01*
X-36764937Y-1505408D01*
X-36744341Y-1270000D01*
X-36764937Y-1034592D01*
X-36826097Y-806337D01*
X-36925965Y-592171D01*
X-37061505Y-398599D01*
X-37228599Y-231505D01*
X-37414161Y-101573D01*
X-37453026Y-57255D01*
X-37467036Y1D01*
X-37453025Y57258D01*
X-37414163Y101572D01*
X-37228599Y231505D01*
X-37061505Y398599D01*
X-36925965Y592170D01*
X-36903804Y639697D01*
X-36883285Y670582D01*
X-36854555Y694017D01*
X-36841761Y701584D01*
X-36824304Y710136D01*
X-36805668Y717514D01*
X-36770336Y743186D01*
X-36760570Y749600D01*
X-36722982Y771829D01*
X-36722983Y771829D01*
X-36722980Y771830D01*
X-36708815Y785996D01*
X-36694027Y798627D01*
X-36677813Y810406D01*
X-36649962Y844074D01*
X-36642121Y852691D01*
X-35176212Y2318600D01*
X-35160115Y2331494D01*
X-35158127Y2333613D01*
X-35158123Y2333614D01*
X-35112052Y2382677D01*
X-35109434Y2385377D01*
X-35089880Y2404929D01*
X-35087419Y2408102D01*
X-35079844Y2416973D01*
X-35049938Y2448818D01*
X-35040283Y2466382D01*
X-35029606Y2482636D01*
X-35017327Y2498464D01*
X-34999982Y2538548D01*
X-34994840Y2549044D01*
X-34973803Y2587308D01*
X-34968821Y2606716D01*
X-34962519Y2625120D01*
X-34954563Y2643504D01*
X-34947731Y2686648D01*
X-34945367Y2698062D01*
X-34934500Y2740381D01*
X-34934500Y2760417D01*
X-34932973Y2779816D01*
X-34929840Y2799596D01*
X-34933950Y2843072D01*
X-34934500Y2854742D01*
X-34934500Y3814000D01*
X-34350636Y3814000D01*
X-34293431Y3600508D01*
X-34193601Y3386424D01*
X-34058107Y3192919D01*
X-33891082Y3025894D01*
X-33697577Y2890400D01*
X-33483493Y2790570D01*
X-33270001Y2733365D01*
X-33270000Y2733364D01*
X-33270000Y3814000D01*
X-34350636Y3814000D01*
X-34934500Y3814000D01*
X-34934500Y4314000D01*
X-34350636Y4314000D01*
X-33270000Y4314000D01*
X-33270000Y5394636D01*
X-33270001Y5394636D01*
X-33483493Y5337431D01*
X-33697579Y5237600D01*
X-33891079Y5102110D01*
X-34058110Y4935079D01*
X-34193600Y4741579D01*
X-34293431Y4527493D01*
X-34350636Y4314001D01*
X-34350636Y4314000D01*
X-34934500Y4314000D01*
X-34934500Y7207948D01*
X-34925061Y7255401D01*
X-34898181Y7295629D01*
X-33822678Y8371132D01*
X-32687011Y9506800D01*
X-32670915Y9519694D01*
X-32668927Y9521813D01*
X-32668923Y9521814D01*
X-32622852Y9570877D01*
X-32620234Y9573577D01*
X-32600680Y9593129D01*
X-32598219Y9596302D01*
X-32590644Y9605173D01*
X-32560738Y9637018D01*
X-32551083Y9654582D01*
X-32540406Y9670836D01*
X-32528127Y9686664D01*
X-32510782Y9726748D01*
X-32505640Y9737244D01*
X-32503621Y9740916D01*
X-32484603Y9775508D01*
X-32479621Y9794916D01*
X-32473319Y9813320D01*
X-32465363Y9831704D01*
X-32458531Y9874848D01*
X-32456167Y9886262D01*
X-32445300Y9928581D01*
X-32445300Y9948616D01*
X-32443773Y9968015D01*
X-32443183Y9971743D01*
X-32440640Y9987796D01*
X-32444750Y10031275D01*
X-32445300Y10042944D01*
X-32445300Y12541056D01*
X-32443036Y12561563D01*
X-32443237Y12567951D01*
X-32445239Y12631673D01*
X-32445300Y12635568D01*
X-32445300Y12663147D01*
X-32445803Y12667128D01*
X-32446720Y12678781D01*
X-32446793Y12681116D01*
X-32448091Y12722427D01*
X-32453680Y12741660D01*
X-32457626Y12760718D01*
X-32460136Y12780594D01*
X-32476212Y12821196D01*
X-32479996Y12832247D01*
X-32490679Y12869015D01*
X-32492182Y12874190D01*
X-32502386Y12891445D01*
X-32510939Y12908905D01*
X-32513703Y12915885D01*
X-32518314Y12927532D01*
X-32543992Y12962875D01*
X-32550399Y12972629D01*
X-32572631Y13010221D01*
X-32586794Y13024384D01*
X-32599433Y13039183D01*
X-32611205Y13055387D01*
X-32644859Y13083227D01*
X-32653501Y13091091D01*
X-33611398Y14048989D01*
X-33624294Y14065087D01*
X-33675425Y14113102D01*
X-33678222Y14115813D01*
X-33697730Y14135321D01*
X-33700910Y14137788D01*
X-33709776Y14145361D01*
X-33741618Y14175262D01*
X-33759176Y14184915D01*
X-33775436Y14195596D01*
X-33791264Y14207873D01*
X-33831349Y14225220D01*
X-33841839Y14230359D01*
X-33880109Y14251398D01*
X-33899509Y14256379D01*
X-33917916Y14262681D01*
X-33936303Y14270638D01*
X-33979442Y14277471D01*
X-33990876Y14279839D01*
X-34033181Y14290700D01*
X-34053216Y14290700D01*
X-34072614Y14292227D01*
X-34080038Y14293403D01*
X-34092395Y14295360D01*
X-34092396Y14295360D01*
X-34125449Y14292236D01*
X-34135875Y14291250D01*
X-34147544Y14290700D01*
X-38361647Y14290700D01*
X-38409100Y14300139D01*
X-38449329Y14327019D01*
X-38520541Y14398232D01*
X-38544780Y14432530D01*
X-38556179Y14472947D01*
X-38573826Y14640856D01*
X-38610960Y14755142D01*
X-38632321Y14820885D01*
X-38726967Y14984817D01*
X-38853628Y15125487D01*
X-38855661Y15126964D01*
X-38868746Y15136471D01*
X-38904050Y15176198D01*
X-38919479Y15227059D01*
X-38912197Y15279707D01*
X-38883544Y15324468D01*
X-36166811Y18041200D01*
X-36150715Y18054094D01*
X-36148727Y18056213D01*
X-36148723Y18056214D01*
X-36102652Y18105277D01*
X-36100034Y18107977D01*
X-36080480Y18127529D01*
X-36078019Y18130702D01*
X-36070444Y18139573D01*
X-36040538Y18171418D01*
X-36030883Y18188982D01*
X-36020206Y18205236D01*
X-36007927Y18221064D01*
X-35990582Y18261148D01*
X-35985440Y18271644D01*
X-35983327Y18275487D01*
X-35964403Y18309908D01*
X-35959421Y18329316D01*
X-35953119Y18347720D01*
X-35945163Y18366104D01*
X-35938331Y18409244D01*
X-35935963Y18420674D01*
X-35925100Y18462981D01*
X-35925100Y18483016D01*
X-35923573Y18502415D01*
X-35923532Y18502679D01*
X-35920440Y18522196D01*
X-35924550Y18565675D01*
X-35925100Y18577344D01*
X-35925100Y20526453D01*
X-35911585Y20582748D01*
X-35873985Y20626771D01*
X-35820498Y20648926D01*
X-35762782Y20644384D01*
X-35713419Y20614134D01*
X-29363819Y14264534D01*
X-29336939Y14224306D01*
X-29327500Y14176853D01*
X-29327500Y9226744D01*
X-29329765Y9206238D01*
X-29327561Y9136127D01*
X-29327500Y9132232D01*
X-29327500Y9104651D01*
X-29326997Y9100666D01*
X-29326082Y9089033D01*
X-29324710Y9045374D01*
X-29319121Y9026140D01*
X-29315175Y9007084D01*
X-29312665Y8987208D01*
X-29296586Y8946596D01*
X-29292803Y8935549D01*
X-29280618Y8893609D01*
X-29270420Y8876365D01*
X-29261864Y8858900D01*
X-29254486Y8840268D01*
X-29254485Y8840267D01*
X-29228820Y8804941D01*
X-29222407Y8795178D01*
X-29200174Y8757584D01*
X-29200171Y8757581D01*
X-29200170Y8757580D01*
X-29186005Y8743415D01*
X-29173373Y8728625D01*
X-29161594Y8712413D01*
X-29127942Y8684574D01*
X-29119301Y8676711D01*
X-26722219Y6279629D01*
X-26695339Y6239401D01*
X-26685900Y6191948D01*
X-26685900Y5476053D01*
X-26700024Y5418578D01*
X-26739180Y5374197D01*
X-26794447Y5353020D01*
X-26853232Y5359871D01*
X-26982517Y5408091D01*
X-27042127Y5414500D01*
X-27042131Y5414500D01*
X-28837870Y5414500D01*
X-28897485Y5408091D01*
X-29032331Y5357796D01*
X-29147546Y5271546D01*
X-29233796Y5156331D01*
X-29282811Y5024917D01*
X-29317791Y4974538D01*
X-29372635Y4947085D01*
X-29433928Y4949274D01*
X-29486674Y4980570D01*
X-29608596Y5102492D01*
X-29608599Y5102495D01*
X-29802170Y5238035D01*
X-30016337Y5337903D01*
X-30077499Y5354291D01*
X-30244593Y5399064D01*
X-30480000Y5419660D01*
X-30715408Y5399064D01*
X-30943664Y5337903D01*
X-31157830Y5238035D01*
X-31351402Y5102495D01*
X-31518492Y4935405D01*
X-31518495Y4935402D01*
X-31518495Y4935401D01*
X-31610952Y4803358D01*
X-31648731Y4749404D01*
X-31693049Y4710539D01*
X-31750306Y4696528D01*
X-31807563Y4710539D01*
X-31851881Y4749405D01*
X-31981891Y4935079D01*
X-32148919Y5102107D01*
X-32342424Y5237601D01*
X-32556508Y5337431D01*
X-32770000Y5394636D01*
X-32770000Y2733365D01*
X-32556508Y2790570D01*
X-32342424Y2890400D01*
X-32148919Y3025894D01*
X-31981891Y3192922D01*
X-31851881Y3378595D01*
X-31807563Y3417461D01*
X-31750306Y3431472D01*
X-31693049Y3417461D01*
X-31648733Y3378598D01*
X-31518495Y3192599D01*
X-31351401Y3025505D01*
X-31157830Y2889965D01*
X-30943663Y2790097D01*
X-30715408Y2728937D01*
X-30480000Y2708341D01*
X-30244592Y2728937D01*
X-30016337Y2790097D01*
X-29802170Y2889965D01*
X-29608599Y3025505D01*
X-29486671Y3147434D01*
X-29433928Y3178727D01*
X-29372635Y3180916D01*
X-29317791Y3153463D01*
X-29282811Y3103084D01*
X-29233796Y2971669D01*
X-29147546Y2856454D01*
X-29032331Y2770204D01*
X-28897483Y2719909D01*
X-28837873Y2713500D01*
X-27042128Y2713501D01*
X-26982517Y2719909D01*
X-26847669Y2770204D01*
X-26732454Y2856454D01*
X-26646204Y2971669D01*
X-26595909Y3106517D01*
X-26589500Y3166127D01*
X-26589501Y3757910D01*
X-26574474Y3817076D01*
X-26533036Y3861903D01*
X-26475229Y3881526D01*
X-26415065Y3871187D01*
X-26340203Y3837856D01*
X-26155048Y3798500D01*
X-26155046Y3798500D01*
X-25965754Y3798500D01*
X-25946682Y3802554D01*
X-25891953Y3801838D01*
X-25842865Y3777630D01*
X-25808980Y3734648D01*
X-25796900Y3681264D01*
X-25796900Y2825053D01*
X-25806339Y2777600D01*
X-25833219Y2737372D01*
X-26617772Y1952819D01*
X-26658000Y1925939D01*
X-26705453Y1916500D01*
X-26764648Y1916500D01*
X-26949803Y1877145D01*
X-27122731Y1800152D01*
X-27275871Y1688890D01*
X-27402534Y1548217D01*
X-27497180Y1384285D01*
X-27555674Y1204258D01*
X-27575460Y1016001D01*
X-27555674Y827743D01*
X-27497180Y647716D01*
X-27402534Y483784D01*
X-27275871Y343111D01*
X-27122731Y231849D01*
X-26949803Y154856D01*
X-26764648Y115500D01*
X-26722453Y115500D01*
X-26666158Y101985D01*
X-26622135Y64385D01*
X-26599980Y10898D01*
X-26604522Y-46818D01*
X-26634772Y-96181D01*
X-34004772Y-7466181D01*
X-34045000Y-7493061D01*
X-34092453Y-7502500D01*
X-37142253Y-7502500D01*
X-37192688Y-7491780D01*
X-37234402Y-7461473D01*
X-37240129Y-7455112D01*
X-37393270Y-7343849D01*
X-37393271Y-7343848D01*
X-37393273Y-7343847D01*
X-37566198Y-7266855D01*
X-37751352Y-7227500D01*
X-37751354Y-7227500D01*
X-37940646Y-7227500D01*
X-37940648Y-7227500D01*
X-38125803Y-7266855D01*
X-38298731Y-7343848D01*
X-38451871Y-7455110D01*
X-38578534Y-7595783D01*
X-38673180Y-7759715D01*
X-38731674Y-7939742D01*
X-38751460Y-8127999D01*
X-38731674Y-8316257D01*
X-38673180Y-8496284D01*
X-38578534Y-8660216D01*
X-38451871Y-8800889D01*
X-38298731Y-8912151D01*
X-38125803Y-8989144D01*
X-37940648Y-9028500D01*
X-37940646Y-9028500D01*
X-37751354Y-9028500D01*
X-37751352Y-9028500D01*
X-37627917Y-9002262D01*
X-37566197Y-8989144D01*
X-37393270Y-8912151D01*
X-37240129Y-8800888D01*
X-37234402Y-8794526D01*
X-37192688Y-8764220D01*
X-37142253Y-8753500D01*
X-33864744Y-8753500D01*
X-33844238Y-8755764D01*
X-33841335Y-8755672D01*
X-33841333Y-8755673D01*
X-33774128Y-8753561D01*
X-33770232Y-8753500D01*
X-33742651Y-8753500D01*
X-33742650Y-8753500D01*
X-33738681Y-8752998D01*
X-33727035Y-8752080D01*
X-33683373Y-8750709D01*
X-33664141Y-8745120D01*
X-33645082Y-8741174D01*
X-33638804Y-8740381D01*
X-33625208Y-8738664D01*
X-33584593Y-8722582D01*
X-33573556Y-8718803D01*
X-33531610Y-8706618D01*
X-33514371Y-8696422D01*
X-33496898Y-8687862D01*
X-33478268Y-8680486D01*
X-33442936Y-8654814D01*
X-33433170Y-8648400D01*
X-33395582Y-8626171D01*
X-33395583Y-8626171D01*
X-33395580Y-8626170D01*
X-33381415Y-8612004D01*
X-33366627Y-8599373D01*
X-33350413Y-8587594D01*
X-33322562Y-8553926D01*
X-33314721Y-8545309D01*
X-24025611Y743800D01*
X-24009515Y756694D01*
X-24007527Y758813D01*
X-24007523Y758814D01*
X-23961452Y807877D01*
X-23958834Y810577D01*
X-23939280Y830129D01*
X-23936819Y833302D01*
X-23929244Y842173D01*
X-23899338Y874018D01*
X-23889688Y891573D01*
X-23879000Y907843D01*
X-23872231Y916569D01*
X-23866727Y923664D01*
X-23849374Y963768D01*
X-23844243Y974238D01*
X-23823203Y1012508D01*
X-23818225Y1031901D01*
X-23811919Y1050318D01*
X-23810382Y1053872D01*
X-23803962Y1068704D01*
X-23797128Y1111855D01*
X-23794765Y1123269D01*
X-23783900Y1165581D01*
X-23783900Y1185616D01*
X-23782373Y1205015D01*
X-23780947Y1214019D01*
X-23779240Y1224796D01*
X-23783350Y1268275D01*
X-23783900Y1279944D01*
X-23783900Y7664259D01*
X-23781637Y7684763D01*
X-23781937Y7694298D01*
X-23783839Y7754855D01*
X-23783900Y7758749D01*
X-23783900Y7786343D01*
X-23783900Y7786350D01*
X-23784405Y7790347D01*
X-23785320Y7801977D01*
X-23785595Y7810735D01*
X-23786691Y7845627D01*
X-23792280Y7864860D01*
X-23796226Y7883918D01*
X-23798736Y7903792D01*
X-23808992Y7929695D01*
X-23814815Y7944403D01*
X-23818596Y7955448D01*
X-23830781Y7997387D01*
X-23830782Y7997388D01*
X-23830782Y7997390D01*
X-23840983Y8014639D01*
X-23849540Y8032105D01*
X-23856914Y8050732D01*
X-23882587Y8086068D01*
X-23888998Y8095828D01*
X-23890791Y8098859D01*
X-23911230Y8133421D01*
X-23925395Y8147586D01*
X-23938031Y8162380D01*
X-23949805Y8178586D01*
X-23949806Y8178587D01*
X-23983465Y8206432D01*
X-23992095Y8214286D01*
X-25982781Y10204972D01*
X-26009661Y10245200D01*
X-26019100Y10292653D01*
X-26019100Y11590034D01*
X-26004073Y11649202D01*
X-25962634Y11694030D01*
X-25904828Y11713652D01*
X-25844665Y11703314D01*
X-25823814Y11694030D01*
X-25806801Y11686455D01*
X-25621648Y11647100D01*
X-25621646Y11647100D01*
X-25562452Y11647100D01*
X-25514999Y11637661D01*
X-25474771Y11610781D01*
X-13289661Y-574329D01*
X-13257567Y-629916D01*
X-13257567Y-694103D01*
X-13289660Y-749691D01*
X-13345248Y-781785D01*
X-13409435Y-781785D01*
X-13504309Y-756364D01*
X-13731000Y-736531D01*
X-13957690Y-756364D01*
X-14177498Y-815261D01*
X-14383736Y-911432D01*
X-14570141Y-1041953D01*
X-14731047Y-1202859D01*
X-14843613Y-1363623D01*
X-14887931Y-1402489D01*
X-14945188Y-1416500D01*
X-18215256Y-1416500D01*
X-18235763Y-1414235D01*
X-18305873Y-1416439D01*
X-18309768Y-1416500D01*
X-18337350Y-1416500D01*
X-18341335Y-1417003D01*
X-18352967Y-1417918D01*
X-18396631Y-1419290D01*
X-18415871Y-1424880D01*
X-18434919Y-1428825D01*
X-18454791Y-1431335D01*
X-18495401Y-1447413D01*
X-18506446Y-1451194D01*
X-18548390Y-1463381D01*
X-18565635Y-1473579D01*
X-18583096Y-1482133D01*
X-18601733Y-1489512D01*
X-18637069Y-1515185D01*
X-18646826Y-1521595D01*
X-18684420Y-1543829D01*
X-18698587Y-1557996D01*
X-18713376Y-1570626D01*
X-18729587Y-1582404D01*
X-18757428Y-1616058D01*
X-18765289Y-1624697D01*
X-20833773Y-3693181D01*
X-20874001Y-3720061D01*
X-20921454Y-3729500D01*
X-22233870Y-3729500D01*
X-22293485Y-3735909D01*
X-22428331Y-3786204D01*
X-22543546Y-3872454D01*
X-22629796Y-3987668D01*
X-22680091Y-4122516D01*
X-22686500Y-4182130D01*
X-22686500Y-5977869D01*
X-22680091Y-6037484D01*
X-22654944Y-6104907D01*
X-22629796Y-6172331D01*
X-22543546Y-6287546D01*
X-22428331Y-6373796D01*
X-22293483Y-6424091D01*
X-22233873Y-6430500D01*
X-20438128Y-6430499D01*
X-20378517Y-6424091D01*
X-20243669Y-6373796D01*
X-20128454Y-6287546D01*
X-20042204Y-6172331D01*
X-19993190Y-6040916D01*
X-19958211Y-5990537D01*
X-19903366Y-5963084D01*
X-19842073Y-5965273D01*
X-19789327Y-5996569D01*
X-19667401Y-6118495D01*
X-19473830Y-6254035D01*
X-19259663Y-6353903D01*
X-19031408Y-6415063D01*
X-18796000Y-6435659D01*
X-18560592Y-6415063D01*
X-18332337Y-6353903D01*
X-18118170Y-6254035D01*
X-17924599Y-6118495D01*
X-17757505Y-5951401D01*
X-17627574Y-5765839D01*
X-17583257Y-5726975D01*
X-17526000Y-5712964D01*
X-17468743Y-5726975D01*
X-17424427Y-5765839D01*
X-17294495Y-5951401D01*
X-17127401Y-6118495D01*
X-16933830Y-6254035D01*
X-16719663Y-6353903D01*
X-16491408Y-6415063D01*
X-16256000Y-6435659D01*
X-16020592Y-6415063D01*
X-15792337Y-6353903D01*
X-15578170Y-6254035D01*
X-15384599Y-6118495D01*
X-15217505Y-5951401D01*
X-15081965Y-5757830D01*
X-14982097Y-5543663D01*
X-14920937Y-5315408D01*
X-14900341Y-5080000D01*
X-14920937Y-4844592D01*
X-14982097Y-4616337D01*
X-15081965Y-4402171D01*
X-15217505Y-4208599D01*
X-15384599Y-4041505D01*
X-15578170Y-3905965D01*
X-15792337Y-3806097D01*
X-15853498Y-3789709D01*
X-16020593Y-3744936D01*
X-16256000Y-3724340D01*
X-16491408Y-3744936D01*
X-16719664Y-3806097D01*
X-16933830Y-3905965D01*
X-17127402Y-4041505D01*
X-17294495Y-4208598D01*
X-17424425Y-4394159D01*
X-17468743Y-4433025D01*
X-17526000Y-4447036D01*
X-17583257Y-4433025D01*
X-17627575Y-4394159D01*
X-17664286Y-4341730D01*
X-17757505Y-4208599D01*
X-17924599Y-4041505D01*
X-18118170Y-3905965D01*
X-18332337Y-3806097D01*
X-18393498Y-3789709D01*
X-18560593Y-3744936D01*
X-18806730Y-3723401D01*
X-18871409Y-3698249D01*
X-18912444Y-3642283D01*
X-18916983Y-3573034D01*
X-18883605Y-3512194D01*
X-18075229Y-2703819D01*
X-18035000Y-2676939D01*
X-17987547Y-2667500D01*
X-14945188Y-2667500D01*
X-14887931Y-2681511D01*
X-14843613Y-2720377D01*
X-14731047Y-2881140D01*
X-14570141Y-3042046D01*
X-14383736Y-3172567D01*
X-14383735Y-3172567D01*
X-14383734Y-3172568D01*
X-14177496Y-3268739D01*
X-13957692Y-3327635D01*
X-13731000Y-3347468D01*
X-13504308Y-3327635D01*
X-13284504Y-3268739D01*
X-13277905Y-3265662D01*
X-13247904Y-3251673D01*
X-13187390Y-3240321D01*
X-13128875Y-3259475D01*
X-13086786Y-3304412D01*
X-13071500Y-3364055D01*
X-13071500Y-4489256D01*
X-13073765Y-4509762D01*
X-13071561Y-4579873D01*
X-13071500Y-4583768D01*
X-13071500Y-4611349D01*
X-13070997Y-4615334D01*
X-13070082Y-4626967D01*
X-13068710Y-4670626D01*
X-13063121Y-4689860D01*
X-13059175Y-4708916D01*
X-13056665Y-4728792D01*
X-13040586Y-4769404D01*
X-13036803Y-4780451D01*
X-13024618Y-4822391D01*
X-13014420Y-4839635D01*
X-13005864Y-4857100D01*
X-12998486Y-4875732D01*
X-12998485Y-4875733D01*
X-12972820Y-4911059D01*
X-12966407Y-4920822D01*
X-12944174Y-4958416D01*
X-12944171Y-4958419D01*
X-12944170Y-4958420D01*
X-12930005Y-4972585D01*
X-12917373Y-4987375D01*
X-12905594Y-5003587D01*
X-12871942Y-5031426D01*
X-12863301Y-5039289D01*
X-10692562Y-7210028D01*
X-10668323Y-7244325D01*
X-10656922Y-7284747D01*
X-10639274Y-7452657D01*
X-10580780Y-7632684D01*
X-10486134Y-7796616D01*
X-10359471Y-7937289D01*
X-10206331Y-8048551D01*
X-10033403Y-8125544D01*
X-9848248Y-8164900D01*
X-9848246Y-8164900D01*
X-9658954Y-8164900D01*
X-9658952Y-8164900D01*
X-9485352Y-8128000D01*
X-9473797Y-8125544D01*
X-9300870Y-8048551D01*
X-9151109Y-7939744D01*
X-9147730Y-7937289D01*
X-9074864Y-7856364D01*
X-9021067Y-7796616D01*
X-8926421Y-7632684D01*
X-8867926Y-7452656D01*
X-8848140Y-7264400D01*
X-8867926Y-7076144D01*
X-8926421Y-6896116D01*
X-8926421Y-6896115D01*
X-9021067Y-6732183D01*
X-9147730Y-6591510D01*
X-9300870Y-6480248D01*
X-9473798Y-6403255D01*
X-9658952Y-6363900D01*
X-9658954Y-6363900D01*
X-9718148Y-6363900D01*
X-9765601Y-6354461D01*
X-9805829Y-6327581D01*
X-11784181Y-4349228D01*
X-11811061Y-4309000D01*
X-11820500Y-4261547D01*
X-11820500Y-3378044D01*
X-11805214Y-3318401D01*
X-11763125Y-3273463D01*
X-11704610Y-3254309D01*
X-11644095Y-3265662D01*
X-11637496Y-3268739D01*
X-11417692Y-3327635D01*
X-11191000Y-3347468D01*
X-10964308Y-3327635D01*
X-10744504Y-3268739D01*
X-10538266Y-3172568D01*
X-10351861Y-3042047D01*
X-10190953Y-2881139D01*
X-10060432Y-2694734D01*
X-10033382Y-2636724D01*
X-9987625Y-2584549D01*
X-9921000Y-2565129D01*
X-9854375Y-2584549D01*
X-9808618Y-2636725D01*
X-9781569Y-2694733D01*
X-9651047Y-2881140D01*
X-9490141Y-3042046D01*
X-9303736Y-3172567D01*
X-9303735Y-3172567D01*
X-9303734Y-3172568D01*
X-9097496Y-3268739D01*
X-8877692Y-3327635D01*
X-8651000Y-3347468D01*
X-8424308Y-3327635D01*
X-8204504Y-3268739D01*
X-7998266Y-3172568D01*
X-7811861Y-3042047D01*
X-7650953Y-2881139D01*
X-7520432Y-2694734D01*
X-7424261Y-2488496D01*
X-7365365Y-2268692D01*
X-7345532Y-2042000D01*
X-7365365Y-1815308D01*
X-7424261Y-1595504D01*
X-7520432Y-1389266D01*
X-7543964Y-1355659D01*
X-7650954Y-1202859D01*
X-7811860Y-1041953D01*
X-7998265Y-911432D01*
X-8204503Y-815261D01*
X-8424311Y-756364D01*
X-8651000Y-736531D01*
X-8877690Y-756364D01*
X-9097498Y-815261D01*
X-9303736Y-911432D01*
X-9490141Y-1041953D01*
X-9651047Y-1202859D01*
X-9781567Y-1389263D01*
X-9808618Y-1447275D01*
X-9854375Y-1499450D01*
X-9921000Y-1518869D01*
X-9987625Y-1499450D01*
X-10033382Y-1447275D01*
X-10060432Y-1389266D01*
X-10087577Y-1350499D01*
X-10190954Y-1202859D01*
X-10351860Y-1041953D01*
X-10538265Y-911432D01*
X-10744503Y-815261D01*
X-10964311Y-756364D01*
X-11191000Y-736531D01*
X-11417690Y-756364D01*
X-11637498Y-815261D01*
X-11644095Y-818338D01*
X-11704610Y-829691D01*
X-11763125Y-810537D01*
X-11805214Y-765599D01*
X-11820500Y-705956D01*
X-11820500Y-616144D01*
X-11818236Y-595636D01*
X-11818597Y-584159D01*
X-11820439Y-525513D01*
X-11820500Y-521619D01*
X-11820500Y-494054D01*
X-11820500Y-494050D01*
X-11821003Y-490070D01*
X-11821919Y-478428D01*
X-11822388Y-463492D01*
X-11823290Y-434773D01*
X-11828882Y-415526D01*
X-11832826Y-396485D01*
X-11835336Y-376608D01*
X-11851421Y-335983D01*
X-11855192Y-324968D01*
X-11867382Y-283010D01*
X-11877586Y-265755D01*
X-11886139Y-248295D01*
X-11893514Y-229668D01*
X-11919192Y-194325D01*
X-11925599Y-184571D01*
X-11947831Y-146979D01*
X-11961994Y-132816D01*
X-11974633Y-118017D01*
X-11986405Y-101813D01*
X-12020059Y-73973D01*
X-12028701Y-66109D01*
X-17672809Y5578000D01*
X-15036469Y5578000D01*
X-15016636Y5351311D01*
X-14957739Y5131503D01*
X-14861568Y4925265D01*
X-14731047Y4738860D01*
X-14570141Y4577954D01*
X-14383736Y4447433D01*
X-14383735Y4447433D01*
X-14383734Y4447432D01*
X-14177496Y4351261D01*
X-13957692Y4292365D01*
X-13731000Y4272532D01*
X-13504308Y4292365D01*
X-13284504Y4351261D01*
X-13078266Y4447432D01*
X-12891861Y4577953D01*
X-12730953Y4738861D01*
X-12600432Y4925266D01*
X-12573107Y4983866D01*
X-12527351Y5036041D01*
X-12460726Y5055461D01*
X-12394101Y5036042D01*
X-12348343Y4983867D01*
X-12321134Y4925518D01*
X-12190659Y4739181D01*
X-12029820Y4578342D01*
X-11843481Y4447866D01*
X-11637327Y4351734D01*
X-11441001Y4299129D01*
X-11441000Y4299128D01*
X-11441000Y4299129D01*
X-10941000Y4299129D01*
X-10744674Y4351734D01*
X-10538520Y4447866D01*
X-10352181Y4578342D01*
X-10191341Y4739182D01*
X-10173809Y4764220D01*
X-10128967Y4803358D01*
X-10071053Y4817092D01*
X-10013411Y4802259D01*
X-9969322Y4762274D01*
X-9948943Y4706352D01*
X-9945091Y4670516D01*
X-9937312Y4649660D01*
X-9894796Y4535669D01*
X-9808546Y4420454D01*
X-9693331Y4334204D01*
X-9558483Y4283909D01*
X-9498873Y4277500D01*
X-7803128Y4277501D01*
X-7743517Y4283909D01*
X-7608669Y4334204D01*
X-7493454Y4420454D01*
X-7407204Y4535669D01*
X-7356909Y4670517D01*
X-7350500Y4730127D01*
X-7350501Y6425872D01*
X-7356909Y6485483D01*
X-7407204Y6620331D01*
X-7493454Y6735546D01*
X-7608669Y6821796D01*
X-7743517Y6872091D01*
X-7803127Y6878500D01*
X-7803131Y6878500D01*
X-9498870Y6878500D01*
X-9558485Y6872091D01*
X-9693331Y6821796D01*
X-9808546Y6735546D01*
X-9894796Y6620332D01*
X-9945093Y6485480D01*
X-9948945Y6449648D01*
X-9969324Y6393726D01*
X-10013413Y6353743D01*
X-10071055Y6338910D01*
X-10128968Y6352644D01*
X-10173809Y6391781D01*
X-10191340Y6416818D01*
X-10352181Y6577659D01*
X-10538520Y6708135D01*
X-10744674Y6804267D01*
X-10941000Y6856872D01*
X-10941000Y4299129D01*
X-11441000Y4299129D01*
X-11441000Y6856872D01*
X-11441001Y6856872D01*
X-11637327Y6804267D01*
X-11843481Y6708135D01*
X-12029820Y6577659D01*
X-12190659Y6416820D01*
X-12321137Y6230478D01*
X-12348344Y6172134D01*
X-12394101Y6119959D01*
X-12460726Y6100540D01*
X-12527350Y6119960D01*
X-12573107Y6172135D01*
X-12600433Y6230736D01*
X-12730954Y6417141D01*
X-12891860Y6578047D01*
X-13078265Y6708568D01*
X-13284503Y6804739D01*
X-13504311Y6863636D01*
X-13731000Y6883469D01*
X-13957690Y6863636D01*
X-14177498Y6804739D01*
X-14383736Y6708568D01*
X-14570141Y6578047D01*
X-14731047Y6417141D01*
X-14861568Y6230736D01*
X-14957739Y6024498D01*
X-15016636Y5804690D01*
X-15036469Y5578000D01*
X-17672809Y5578000D01*
X-21614569Y9519760D01*
X-21646084Y9573262D01*
X-21647710Y9635335D01*
X-21619038Y9690413D01*
X-21558072Y9758123D01*
X-21492467Y9830984D01*
X-21397821Y9994916D01*
X-21339326Y10174944D01*
X-21319540Y10363200D01*
X-21339326Y10551456D01*
X-21344182Y10566400D01*
X-20184060Y10566400D01*
X-20164274Y10378143D01*
X-20105780Y10198116D01*
X-20011136Y10034187D01*
X-19996942Y10018423D01*
X-19935948Y9950683D01*
X-19912336Y9912151D01*
X-19904100Y9867713D01*
X-19904100Y9619076D01*
X-19906365Y9598570D01*
X-19904161Y9528459D01*
X-19904100Y9524564D01*
X-19904100Y9496983D01*
X-19903597Y9492998D01*
X-19902682Y9481365D01*
X-19901310Y9437706D01*
X-19895721Y9418472D01*
X-19891775Y9399416D01*
X-19889265Y9379540D01*
X-19873186Y9338928D01*
X-19869403Y9327881D01*
X-19857218Y9285941D01*
X-19847020Y9268697D01*
X-19838464Y9251232D01*
X-19831086Y9232600D01*
X-19831085Y9232599D01*
X-19805420Y9197273D01*
X-19799007Y9187510D01*
X-19776774Y9149916D01*
X-19776771Y9149913D01*
X-19776770Y9149912D01*
X-19762605Y9135747D01*
X-19749973Y9120957D01*
X-19738194Y9104745D01*
X-19704542Y9076906D01*
X-19695901Y9069043D01*
X-18278305Y7651447D01*
X-18245882Y7594606D01*
X-18246908Y7529177D01*
X-18248498Y7523706D01*
X-18251400Y7486823D01*
X-18251400Y7055440D01*
X-18248498Y7018560D01*
X-18202645Y6860735D01*
X-18169529Y6804739D01*
X-18118981Y6719267D01*
X-18002765Y6603051D01*
X-17960485Y6578047D01*
X-17861298Y6519388D01*
X-17703473Y6473535D01*
X-17703469Y6473534D01*
X-17666594Y6470632D01*
X-16360208Y6470632D01*
X-16360206Y6470632D01*
X-16323331Y6473534D01*
X-16165502Y6519388D01*
X-16024035Y6603051D01*
X-15907819Y6719267D01*
X-15824156Y6860734D01*
X-15778302Y7018563D01*
X-15775400Y7055438D01*
X-15775400Y7296632D01*
X-15758787Y7358632D01*
X-15713400Y7404019D01*
X-15651400Y7420632D01*
X-14485208Y7420632D01*
X-14485206Y7420632D01*
X-14448331Y7423534D01*
X-14290502Y7469388D01*
X-14149035Y7553051D01*
X-14032819Y7669267D01*
X-13949156Y7810734D01*
X-13903302Y7968563D01*
X-13900400Y8005438D01*
X-13900400Y8436826D01*
X-13903302Y8473701D01*
X-13904891Y8479171D01*
X-13905919Y8544604D01*
X-13873498Y8601446D01*
X-11833611Y10641332D01*
X-11817515Y10654226D01*
X-11815527Y10656345D01*
X-11815523Y10656346D01*
X-11769452Y10705409D01*
X-11766834Y10708109D01*
X-11747280Y10727661D01*
X-11745286Y10730233D01*
X-11743173Y10731769D01*
X-11741758Y10733182D01*
X-11741535Y10732959D01*
X-11689311Y10770907D01*
X-11620255Y10775256D01*
X-11559619Y10741924D01*
X-11488601Y10670905D01*
X-11295030Y10535365D01*
X-11080863Y10435497D01*
X-10852608Y10374337D01*
X-10617200Y10353741D01*
X-10381792Y10374337D01*
X-10153537Y10435497D01*
X-9939370Y10535365D01*
X-9745799Y10670905D01*
X-9578705Y10837999D01*
X-9443165Y11031570D01*
X-9434183Y11050834D01*
X-9388425Y11103010D01*
X-9321800Y11122430D01*
X-9255175Y11103010D01*
X-9209418Y11050834D01*
X-9200435Y11031570D01*
X-9064895Y10837999D01*
X-8897801Y10670905D01*
X-8704230Y10535365D01*
X-8490063Y10435497D01*
X-8261808Y10374337D01*
X-8026400Y10353741D01*
X-7790992Y10374337D01*
X-7562737Y10435497D01*
X-7348570Y10535365D01*
X-7154999Y10670905D01*
X-6987905Y10837999D01*
X-6857974Y11023561D01*
X-6813657Y11062425D01*
X-6756400Y11076436D01*
X-6699143Y11062425D01*
X-6654827Y11023561D01*
X-6524895Y10837999D01*
X-6357801Y10670905D01*
X-6164230Y10535365D01*
X-5950063Y10435497D01*
X-5721808Y10374337D01*
X-5486400Y10353741D01*
X-5250992Y10374337D01*
X-5022737Y10435497D01*
X-4808570Y10535365D01*
X-4614999Y10670905D01*
X-4447905Y10837999D01*
X-4317974Y11023561D01*
X-4273657Y11062425D01*
X-4216400Y11076436D01*
X-4159143Y11062425D01*
X-4114827Y11023561D01*
X-3984895Y10837999D01*
X-3817801Y10670905D01*
X-3624230Y10535365D01*
X-3410063Y10435497D01*
X-3181808Y10374337D01*
X-2946400Y10353741D01*
X-2710992Y10374337D01*
X-2482737Y10435497D01*
X-2268570Y10535365D01*
X-2074999Y10670905D01*
X-1907905Y10837999D01*
X-1804862Y10985161D01*
X-1754019Y11027184D01*
X-1688819Y11037189D01*
X-1627713Y11012344D01*
X-1587994Y10959680D01*
X-1585585Y10953595D01*
X-1581803Y10942549D01*
X-1569618Y10900609D01*
X-1559420Y10883365D01*
X-1550864Y10865900D01*
X-1543486Y10847268D01*
X-1535746Y10836615D01*
X-1517820Y10811941D01*
X-1511407Y10802178D01*
X-1489174Y10764584D01*
X-1489171Y10764581D01*
X-1489170Y10764580D01*
X-1475005Y10750415D01*
X-1462373Y10735625D01*
X-1450594Y10719413D01*
X-1416942Y10691574D01*
X-1408301Y10683711D01*
X93228Y9182181D01*
X123478Y9132818D01*
X128020Y9075102D01*
X105865Y9021615D01*
X61842Y8984015D01*
X5547Y8970500D01*
X-897870Y8970500D01*
X-957485Y8964091D01*
X-1092331Y8913796D01*
X-1207546Y8827546D01*
X-1293796Y8712332D01*
X-1344091Y8577484D01*
X-1350500Y8517870D01*
X-1350500Y6722131D01*
X-1344091Y6662516D01*
X-1328357Y6620332D01*
X-1293796Y6527669D01*
X-1235389Y6449648D01*
X-1208922Y6414292D01*
X-1187023Y6366339D01*
X-1187023Y6313623D01*
X-1208922Y6265672D01*
X-1228587Y6239401D01*
X-1278796Y6172331D01*
X-1329091Y6037484D01*
X-1335500Y5977870D01*
X-1335500Y4182131D01*
X-1329091Y4122516D01*
X-1307266Y4064000D01*
X-1278796Y3987669D01*
X-1217901Y3906324D01*
X-1208922Y3894330D01*
X-1187023Y3846377D01*
X-1187023Y3793661D01*
X-1208922Y3745708D01*
X-1293796Y3632332D01*
X-1344091Y3497484D01*
X-1350500Y3437870D01*
X-1350500Y1642131D01*
X-1344091Y1582516D01*
X-1293796Y1447668D01*
X-1216423Y1344310D01*
X-1194524Y1296358D01*
X-1194524Y1243642D01*
X-1216423Y1195690D01*
X-1293795Y1092334D01*
X-1341756Y963743D01*
X-1344091Y957483D01*
X-1350257Y900126D01*
X-1350500Y897870D01*
X-1350500Y-897869D01*
X-1344091Y-957484D01*
X-1318944Y-1024907D01*
X-1293796Y-1092331D01*
X-1207546Y-1207546D01*
X-1092331Y-1293796D01*
X-957483Y-1344091D01*
X-897873Y-1350500D01*
X897872Y-1350499D01*
X957483Y-1344091D01*
X1092331Y-1293796D01*
X1207546Y-1207546D01*
X1293796Y-1092331D01*
X1342810Y-960916D01*
X1377789Y-910537D01*
X1432634Y-883084D01*
X1493927Y-885273D01*
X1546673Y-916569D01*
X1668599Y-1038495D01*
X1862170Y-1174035D01*
X2076337Y-1273903D01*
X2304592Y-1335063D01*
X2540000Y-1355659D01*
X2775408Y-1335063D01*
X3003663Y-1273903D01*
X3217830Y-1174035D01*
X3411401Y-1038495D01*
X3578495Y-871401D01*
X3708732Y-685402D01*
X3753048Y-646539D01*
X3810305Y-632528D01*
X3867562Y-646539D01*
X3911880Y-685404D01*
X4041893Y-871081D01*
X4208918Y-1038106D01*
X4402423Y-1173600D01*
X4616507Y-1273430D01*
X4829999Y-1330635D01*
X4830000Y-1330636D01*
X4830000Y3863638D01*
X4839439Y3911091D01*
X4845000Y3919413D01*
X4845000Y6240587D01*
X4839439Y6248909D01*
X4830000Y6296362D01*
X4830000Y8950636D01*
X4829999Y8950636D01*
X4616507Y8893431D01*
X4402421Y8793600D01*
X4208921Y8658110D01*
X4041893Y8491082D01*
X3911880Y8305404D01*
X3867562Y8266539D01*
X3810305Y8252528D01*
X3753048Y8266539D01*
X3708730Y8305405D01*
X3578495Y8491401D01*
X3411401Y8658495D01*
X3217830Y8794035D01*
X3003663Y8893903D01*
X2942502Y8910291D01*
X2775407Y8955064D01*
X2540000Y8975660D01*
X2304593Y8955064D01*
X2204126Y8928144D01*
X2139939Y8928144D01*
X2084352Y8960238D01*
X1674143Y9370448D01*
X1642748Y9423534D01*
X1640810Y9485179D01*
X1668810Y9540132D01*
X1719821Y9574798D01*
X1781220Y9580602D01*
X2146662Y9522722D01*
X2534000Y9502422D01*
X2921338Y9522722D01*
X3176705Y9563168D01*
X3304429Y9583397D01*
X3315099Y9586256D01*
X3679087Y9683786D01*
X4041194Y9822786D01*
X4386789Y9998875D01*
X4386788Y9998875D01*
X4386793Y9998877D01*
X4565289Y10114794D01*
X4712084Y10210124D01*
X5013516Y10454219D01*
X5287781Y10728484D01*
X5531876Y11029916D01*
X5671241Y11244519D01*
X5743123Y11355207D01*
X5873344Y11610781D01*
X5919214Y11700806D01*
X6058214Y12062913D01*
X6158602Y12437567D01*
X6160011Y12446458D01*
X6189388Y12631943D01*
X6219278Y12820662D01*
X6239578Y13208000D01*
X6219278Y13595338D01*
X6175209Y13873581D01*
X6158603Y13978430D01*
X6058214Y14353087D01*
X5919214Y14715194D01*
X5743123Y15060794D01*
X5531878Y15386081D01*
X5527057Y15392035D01*
X5287781Y15687516D01*
X5013516Y15961781D01*
X4712084Y16205876D01*
X4712082Y16205877D01*
X4712080Y16205879D01*
X4386793Y16417124D01*
X4041193Y16593215D01*
X3679086Y16732215D01*
X3304429Y16832604D01*
X2921340Y16893278D01*
X2534000Y16913578D01*
X2146659Y16893278D01*
X1763570Y16832604D01*
X1388913Y16732215D01*
X1026806Y16593215D01*
X681206Y16417123D01*
X536874Y16323393D01*
X480146Y16303860D01*
X420888Y16313246D01*
X372973Y16349352D01*
X347617Y16403728D01*
X350757Y16463642D01*
X381656Y16515067D01*
X2084354Y18217765D01*
X2139940Y18249857D01*
X2204124Y18249857D01*
X2304592Y18222937D01*
X2540000Y18202341D01*
X2775408Y18222937D01*
X3003663Y18284097D01*
X3217830Y18383965D01*
X3411401Y18519505D01*
X3578495Y18686599D01*
X3708732Y18872598D01*
X3753048Y18911461D01*
X3810305Y18925472D01*
X3867562Y18911461D01*
X3911880Y18872596D01*
X4041893Y18686919D01*
X4208918Y18519894D01*
X4402423Y18384400D01*
X4616507Y18284570D01*
X4829999Y18227365D01*
X4830000Y18227364D01*
X4830000Y28508636D01*
X4829999Y28508636D01*
X4616507Y28451431D01*
X4402421Y28351600D01*
X4208921Y28216110D01*
X4041893Y28049082D01*
X3911880Y27863404D01*
X3867562Y27824539D01*
X3810305Y27810528D01*
X3753048Y27824539D01*
X3708730Y27863405D01*
X3578494Y28049402D01*
X3411404Y28216492D01*
X3411401Y28216495D01*
X3217830Y28352035D01*
X3003663Y28451903D01*
X2934276Y28470495D01*
X2775407Y28513064D01*
X2540000Y28533660D01*
X2304592Y28513064D01*
X2076336Y28451903D01*
X1862170Y28352035D01*
X1668601Y28216497D01*
X1546673Y28094569D01*
X1493926Y28063274D01*
X1432634Y28061085D01*
X1377789Y28088538D01*
X1342810Y28138918D01*
X1314019Y28216110D01*
X1293796Y28270331D01*
X1207546Y28385546D01*
X1092331Y28471796D01*
X957483Y28522091D01*
X897873Y28528500D01*
X897869Y28528500D01*
X-897870Y28528500D01*
X-957485Y28522091D01*
X-1092331Y28471796D01*
X-1207546Y28385546D01*
X-1293796Y28270332D01*
X-1344091Y28135484D01*
X-1350500Y28075869D01*
X-1350500Y26763453D01*
X-1359939Y26716000D01*
X-1386819Y26675772D01*
X-9705592Y18357001D01*
X-9721690Y18344104D01*
X-9769704Y18292975D01*
X-9772409Y18290183D01*
X-9791926Y18270666D01*
X-9794385Y18267495D01*
X-9801958Y18258628D01*
X-9831863Y18226781D01*
X-9841514Y18209226D01*
X-9852191Y18192971D01*
X-9856121Y18187904D01*
X-9899549Y18152546D01*
X-9954104Y18139900D01*
X-11515070Y18139900D01*
X-11574685Y18133491D01*
X-11709531Y18083196D01*
X-11824746Y17996946D01*
X-11910996Y17881732D01*
X-11954513Y17765058D01*
X-11961291Y17746883D01*
X-11967076Y17693072D01*
X-11967700Y17687269D01*
X-11967700Y16440654D01*
X-11977139Y16393201D01*
X-12004019Y16352973D01*
X-12601192Y15755801D01*
X-12617290Y15742904D01*
X-12665304Y15691775D01*
X-12668009Y15688983D01*
X-12687526Y15669466D01*
X-12689985Y15666295D01*
X-12697558Y15657428D01*
X-12727465Y15625580D01*
X-12737115Y15608026D01*
X-12747791Y15591772D01*
X-12760074Y15575937D01*
X-12777425Y15535842D01*
X-12782562Y15525356D01*
X-12803598Y15487093D01*
X-12808579Y15467691D01*
X-12814880Y15449289D01*
X-12822839Y15430898D01*
X-12825435Y15414505D01*
X-12852920Y15354200D01*
X-12907538Y15316662D01*
X-12973688Y15312617D01*
X-13164151Y15353100D01*
X-13164154Y15353100D01*
X-13353446Y15353100D01*
X-13353448Y15353100D01*
X-13538603Y15313745D01*
X-13723436Y15231451D01*
X-13724491Y15233819D01*
X-13772497Y15216646D01*
X-13840384Y15232244D01*
X-13889150Y15281981D01*
X-13903408Y15350161D01*
X-13903304Y15351494D01*
X-13903302Y15351497D01*
X-13900400Y15388372D01*
X-13900400Y15819760D01*
X-13903302Y15856635D01*
X-13904891Y15862105D01*
X-13905919Y15927538D01*
X-13873498Y15984380D01*
X-12646412Y17211465D01*
X-12630315Y17224360D01*
X-12628327Y17226479D01*
X-12628323Y17226480D01*
X-12582252Y17275543D01*
X-12579634Y17278243D01*
X-12560080Y17297795D01*
X-12557619Y17300968D01*
X-12550044Y17309839D01*
X-12520138Y17341684D01*
X-12510488Y17359239D01*
X-12499800Y17375509D01*
X-12495597Y17380927D01*
X-12487527Y17391330D01*
X-12470174Y17431434D01*
X-12465043Y17441904D01*
X-12444003Y17480174D01*
X-12439025Y17499567D01*
X-12432719Y17517984D01*
X-12424874Y17536112D01*
X-12424762Y17536370D01*
X-12417928Y17579521D01*
X-12415565Y17590935D01*
X-12404700Y17633247D01*
X-12404700Y17653282D01*
X-12403173Y17672681D01*
X-12400040Y17692462D01*
X-12404150Y17735941D01*
X-12404700Y17747610D01*
X-12404700Y19418113D01*
X-12396464Y19462551D01*
X-12372853Y19501083D01*
X-12297667Y19584584D01*
X-12259189Y19651229D01*
X-12203021Y19748516D01*
X-12171686Y19844956D01*
X-12144526Y19928544D01*
X-12124740Y20116800D01*
X-12144526Y20305056D01*
X-12200623Y20477704D01*
X-12203021Y20485085D01*
X-12297667Y20649017D01*
X-12424330Y20789690D01*
X-12577470Y20900952D01*
X-12750398Y20977945D01*
X-12835863Y20996111D01*
X-12894966Y21027009D01*
X-12929514Y21084055D01*
X-12929514Y21150748D01*
X-12894965Y21207794D01*
X-12835862Y21238691D01*
X-12796384Y21247083D01*
X-12724997Y21262256D01*
X-12552070Y21339249D01*
X-12451116Y21412596D01*
X-12398930Y21450511D01*
X-12364813Y21488401D01*
X-12272267Y21591184D01*
X-12177621Y21755116D01*
X-12119126Y21935144D01*
X-12099340Y22123400D01*
X-12119126Y22311656D01*
X-12157343Y22429274D01*
X-12177621Y22491685D01*
X-12272267Y22655617D01*
X-12398930Y22796290D01*
X-12552070Y22907552D01*
X-12724998Y22984545D01*
X-12910152Y23023900D01*
X-12910154Y23023900D01*
X-13099446Y23023900D01*
X-13099448Y23023900D01*
X-13284603Y22984545D01*
X-13457531Y22907552D01*
X-13610671Y22796290D01*
X-13737334Y22655617D01*
X-13831980Y22491685D01*
X-13890474Y22311658D01*
X-13908121Y22143751D01*
X-13919521Y22103330D01*
X-13943761Y22069032D01*
X-15522192Y20490601D01*
X-15538290Y20477704D01*
X-15568649Y20445375D01*
X-15623512Y20411459D01*
X-15687988Y20409687D01*
X-15744631Y20440539D01*
X-15778115Y20495666D01*
X-15824618Y20655730D01*
X-15908218Y20797090D01*
X-16024343Y20913215D01*
X-16165703Y20996815D01*
X-16323407Y21042632D01*
X-16360261Y21045532D01*
X-16763400Y21045532D01*
X-16763400Y19445532D01*
X-16500400Y19445532D01*
X-16438400Y19428919D01*
X-16393013Y19383532D01*
X-16376400Y19321532D01*
X-16376400Y19270032D01*
X-16393013Y19208032D01*
X-16438400Y19162645D01*
X-16500400Y19146032D01*
X-17666594Y19146032D01*
X-17678886Y19145065D01*
X-17703473Y19143130D01*
X-17861298Y19097277D01*
X-18002766Y19013613D01*
X-18118981Y18897398D01*
X-18202645Y18755930D01*
X-18212065Y18723504D01*
X-18237274Y18677076D01*
X-18279522Y18645355D01*
X-18331141Y18634100D01*
X-18574853Y18634100D01*
X-18625288Y18644820D01*
X-18667002Y18675127D01*
X-18672729Y18681488D01*
X-18825870Y18792751D01*
X-18825871Y18792752D01*
X-18825873Y18792753D01*
X-18998798Y18869745D01*
X-19183952Y18909100D01*
X-19183954Y18909100D01*
X-19373246Y18909100D01*
X-19373248Y18909100D01*
X-19558403Y18869745D01*
X-19731331Y18792752D01*
X-19884471Y18681490D01*
X-20011134Y18540817D01*
X-20105780Y18376885D01*
X-20164274Y18196858D01*
X-20184060Y18008600D01*
X-20164274Y17820343D01*
X-20105780Y17640316D01*
X-20011134Y17476384D01*
X-19884471Y17335711D01*
X-19731331Y17224449D01*
X-19558403Y17147456D01*
X-19373248Y17108100D01*
X-19373246Y17108100D01*
X-19183954Y17108100D01*
X-19183952Y17108100D01*
X-19058706Y17134722D01*
X-18998797Y17147456D01*
X-18825870Y17224449D01*
X-18672729Y17335712D01*
X-18667002Y17342074D01*
X-18625288Y17372380D01*
X-18574853Y17383100D01*
X-18140468Y17383100D01*
X-18084173Y17369585D01*
X-18040150Y17331985D01*
X-18017995Y17278498D01*
X-18022537Y17220782D01*
X-18052787Y17171419D01*
X-18118583Y17105624D01*
X-18202181Y16964267D01*
X-18248000Y16806555D01*
X-18248196Y16804067D01*
X-18248195Y16804066D01*
X-15778605Y16804066D01*
X-15778605Y16804067D01*
X-15778801Y16806555D01*
X-15824620Y16964267D01*
X-15908218Y17105624D01*
X-16024343Y17221749D01*
X-16165703Y17305349D01*
X-16252147Y17330463D01*
X-16306328Y17362967D01*
X-16337460Y17417947D01*
X-16337460Y17481131D01*
X-16306328Y17536112D01*
X-16252147Y17568615D01*
X-16207956Y17581454D01*
X-16165502Y17593788D01*
X-16024035Y17677451D01*
X-15907819Y17793667D01*
X-15824156Y17935134D01*
X-15778302Y18092963D01*
X-15775400Y18129838D01*
X-15775400Y18371032D01*
X-15758787Y18433032D01*
X-15713400Y18478419D01*
X-15651400Y18495032D01*
X-14485208Y18495032D01*
X-14485206Y18495032D01*
X-14448331Y18497934D01*
X-14290502Y18543788D01*
X-14149035Y18627451D01*
X-14032819Y18743667D01*
X-13949156Y18885134D01*
X-13903302Y19042963D01*
X-13899757Y19055163D01*
X-13899086Y19054968D01*
X-13882802Y19101924D01*
X-13835995Y19143518D01*
X-13774832Y19156937D01*
X-13714910Y19138760D01*
X-13671511Y19093622D01*
X-13655700Y19033033D01*
X-13655700Y18022718D01*
X-13665139Y17975265D01*
X-13692019Y17935037D01*
X-15186172Y16440885D01*
X-15226400Y16414005D01*
X-15273853Y16404566D01*
X-15791594Y16404566D01*
X-15802242Y16403728D01*
X-15828473Y16401664D01*
X-15986298Y16355811D01*
X-16044594Y16321334D01*
X-16107715Y16304066D01*
X-16763400Y16304066D01*
X-16763400Y15754066D01*
X-16500400Y15754066D01*
X-16438400Y15737453D01*
X-16393013Y15692066D01*
X-16376400Y15630066D01*
X-16376400Y15578566D01*
X-16393013Y15516566D01*
X-16438400Y15471179D01*
X-16500400Y15454566D01*
X-16877948Y15454566D01*
X-16925401Y15464005D01*
X-16965629Y15490885D01*
X-17227081Y15752338D01*
X-17253961Y15792566D01*
X-17263400Y15840019D01*
X-17263400Y16304066D01*
X-18248195Y16304066D01*
X-18248197Y16304065D01*
X-18248193Y16304025D01*
X-18261327Y16238003D01*
X-18307022Y16188572D01*
X-18371811Y16170300D01*
X-18549453Y16170300D01*
X-18599888Y16181020D01*
X-18641602Y16211327D01*
X-18647329Y16217688D01*
X-18800470Y16328951D01*
X-18800471Y16328952D01*
X-18800473Y16328953D01*
X-18973398Y16405945D01*
X-19158552Y16445300D01*
X-19158554Y16445300D01*
X-19347846Y16445300D01*
X-19347848Y16445300D01*
X-19533003Y16405945D01*
X-19705931Y16328952D01*
X-19859071Y16217690D01*
X-19985734Y16077017D01*
X-20080380Y15913085D01*
X-20138874Y15733058D01*
X-20158660Y15544800D01*
X-20138874Y15356543D01*
X-20080380Y15176516D01*
X-19985734Y15012584D01*
X-19859071Y14871911D01*
X-19705931Y14760649D01*
X-19533003Y14683656D01*
X-19347848Y14644300D01*
X-19347846Y14644300D01*
X-19158554Y14644300D01*
X-19158552Y14644300D01*
X-19035116Y14670538D01*
X-18973397Y14683656D01*
X-18800470Y14760649D01*
X-18647329Y14871912D01*
X-18641602Y14878274D01*
X-18599888Y14908580D01*
X-18549453Y14919300D01*
X-18375400Y14919300D01*
X-18313400Y14902687D01*
X-18268013Y14857300D01*
X-18251400Y14795300D01*
X-18251400Y14438372D01*
X-18250940Y14432530D01*
X-18248498Y14401494D01*
X-18202645Y14243669D01*
X-18127031Y14115813D01*
X-18118981Y14102201D01*
X-18002765Y13985985D01*
X-17917433Y13935520D01*
X-17861298Y13902322D01*
X-17774654Y13877149D01*
X-17720473Y13844645D01*
X-17689341Y13789665D01*
X-17689341Y13726482D01*
X-17720473Y13671501D01*
X-17774654Y13638997D01*
X-17861098Y13613883D01*
X-18002458Y13530283D01*
X-18118582Y13414159D01*
X-18169842Y13327483D01*
X-18208822Y13286751D01*
X-18261807Y13267487D01*
X-18317844Y13273674D01*
X-18365351Y13304033D01*
X-18394505Y13352287D01*
X-18400225Y13369891D01*
X-18426021Y13449284D01*
X-18426021Y13449285D01*
X-18520667Y13613217D01*
X-18647330Y13753890D01*
X-18800470Y13865152D01*
X-18973398Y13942145D01*
X-19158552Y13981500D01*
X-19158554Y13981500D01*
X-19347846Y13981500D01*
X-19347848Y13981500D01*
X-19533003Y13942145D01*
X-19705931Y13865152D01*
X-19859071Y13753890D01*
X-19985734Y13613217D01*
X-20080380Y13449285D01*
X-20138874Y13269258D01*
X-20158660Y13081000D01*
X-20138874Y12892743D01*
X-20080380Y12712716D01*
X-19985734Y12548784D01*
X-19859071Y12408111D01*
X-19705931Y12296849D01*
X-19533003Y12219856D01*
X-19347848Y12180500D01*
X-19347846Y12180500D01*
X-19288652Y12180500D01*
X-19241199Y12171061D01*
X-19200971Y12144181D01*
X-18287719Y11230929D01*
X-18260839Y11190701D01*
X-18251400Y11143248D01*
X-18251400Y11051012D01*
X-18268013Y10989012D01*
X-18313400Y10943625D01*
X-18375400Y10927012D01*
X-18437400Y10943625D01*
X-18482787Y10989012D01*
X-18546067Y11098617D01*
X-18672730Y11239290D01*
X-18825870Y11350552D01*
X-18998798Y11427545D01*
X-19183952Y11466900D01*
X-19183954Y11466900D01*
X-19373246Y11466900D01*
X-19373248Y11466900D01*
X-19558403Y11427545D01*
X-19731331Y11350552D01*
X-19884471Y11239290D01*
X-20011134Y11098617D01*
X-20105780Y10934685D01*
X-20164274Y10754658D01*
X-20184060Y10566400D01*
X-21344182Y10566400D01*
X-21373407Y10656346D01*
X-21397821Y10731485D01*
X-21492465Y10895414D01*
X-21527825Y10934685D01*
X-21567653Y10978918D01*
X-21591264Y11017449D01*
X-21599500Y11061887D01*
X-21599500Y15106456D01*
X-21597236Y15126964D01*
X-21597535Y15136469D01*
X-21599439Y15197087D01*
X-21599500Y15200981D01*
X-21599500Y15228546D01*
X-21599500Y15228550D01*
X-21600003Y15232530D01*
X-21600919Y15244172D01*
X-21601239Y15254364D01*
X-21602290Y15287827D01*
X-21607882Y15307074D01*
X-21611826Y15326115D01*
X-21614336Y15345992D01*
X-21630421Y15386617D01*
X-21634192Y15397632D01*
X-21646382Y15439590D01*
X-21656586Y15456845D01*
X-21665139Y15474305D01*
X-21672514Y15492931D01*
X-21672514Y15492932D01*
X-21698192Y15528275D01*
X-21704599Y15538029D01*
X-21726831Y15575621D01*
X-21740994Y15589784D01*
X-21753633Y15604583D01*
X-21765405Y15620787D01*
X-21799059Y15648627D01*
X-21807701Y15656491D01*
X-24509713Y18358504D01*
X-24538920Y18404793D01*
X-24545353Y18459146D01*
X-24532640Y18580100D01*
X-24552426Y18768356D01*
X-24585369Y18869745D01*
X-24610921Y18948385D01*
X-24705567Y19112317D01*
X-24832230Y19252990D01*
X-24985370Y19364252D01*
X-25158298Y19441245D01*
X-25343452Y19480600D01*
X-25343454Y19480600D01*
X-25532746Y19480600D01*
X-25532748Y19480600D01*
X-25717901Y19441246D01*
X-25844665Y19384806D01*
X-25904829Y19374468D01*
X-25962635Y19394091D01*
X-26004073Y19438918D01*
X-26019100Y19498086D01*
X-26019100Y19857148D01*
X-26009661Y19904601D01*
X-25982781Y19944829D01*
X-25932078Y19995532D01*
X-18248196Y19995532D01*
X-18248000Y19993044D01*
X-18202181Y19835332D01*
X-18118583Y19693975D01*
X-18002458Y19577850D01*
X-17861098Y19494250D01*
X-17703394Y19448433D01*
X-17666539Y19445532D01*
X-17263400Y19445532D01*
X-17263400Y19995532D01*
X-18248196Y19995532D01*
X-25932078Y19995532D01*
X-25471738Y20455872D01*
X-25432077Y20495533D01*
X-18248196Y20495533D01*
X-18248195Y20495532D01*
X-17263400Y20495532D01*
X-17263400Y21045532D01*
X-17666539Y21045532D01*
X-17703394Y21042632D01*
X-17861098Y20996815D01*
X-18002458Y20913215D01*
X-18118583Y20797090D01*
X-18202181Y20655733D01*
X-18248000Y20498021D01*
X-18248196Y20495533D01*
X-25432077Y20495533D01*
X-24940011Y20987600D01*
X-24923915Y21000494D01*
X-24921927Y21002613D01*
X-24921923Y21002614D01*
X-24875852Y21051677D01*
X-24873234Y21054377D01*
X-24853680Y21073929D01*
X-24851219Y21077102D01*
X-24843644Y21085973D01*
X-24813738Y21117818D01*
X-24804083Y21135382D01*
X-24793406Y21151636D01*
X-24781127Y21167464D01*
X-24763782Y21207548D01*
X-24758640Y21218044D01*
X-24756509Y21221920D01*
X-24737603Y21256308D01*
X-24732621Y21275716D01*
X-24726319Y21294120D01*
X-24718363Y21312504D01*
X-24711531Y21355648D01*
X-24709167Y21367062D01*
X-24698300Y21409381D01*
X-24698300Y21429416D01*
X-24696773Y21448815D01*
X-24696057Y21453336D01*
X-24693640Y21468596D01*
X-24697750Y21512075D01*
X-24698300Y21523744D01*
X-24698300Y22102000D01*
X-20380636Y22102000D01*
X-20323431Y21888508D01*
X-20223601Y21674424D01*
X-20088107Y21480919D01*
X-19921082Y21313894D01*
X-19727577Y21178400D01*
X-19513493Y21078570D01*
X-19300001Y21021365D01*
X-19300000Y21021364D01*
X-19300000Y22102000D01*
X-18800000Y22102000D01*
X-18800000Y21021365D01*
X-18586508Y21078570D01*
X-18372424Y21178400D01*
X-18178919Y21313894D01*
X-18011894Y21480919D01*
X-17876400Y21674424D01*
X-17776570Y21888508D01*
X-17719364Y22102000D01*
X-18800000Y22102000D01*
X-19300000Y22102000D01*
X-20380636Y22102000D01*
X-24698300Y22102000D01*
X-24698300Y23176212D01*
X-24696037Y23196716D01*
X-24696650Y23216216D01*
X-24698239Y23266808D01*
X-24698300Y23270702D01*
X-24698300Y23298295D01*
X-24698300Y23298302D01*
X-24698805Y23302299D01*
X-24699720Y23313929D01*
X-24701091Y23357580D01*
X-24706681Y23376818D01*
X-24710626Y23395870D01*
X-24713136Y23415744D01*
X-24729222Y23456371D01*
X-24733001Y23467411D01*
X-24743247Y23502676D01*
X-24747490Y23550233D01*
X-24743888Y23584500D01*
X-24749776Y23640523D01*
X-24763674Y23772756D01*
X-24794016Y23866137D01*
X-24822169Y23952785D01*
X-24916815Y24116717D01*
X-25043478Y24257390D01*
X-25196618Y24368652D01*
X-25369546Y24445645D01*
X-25554700Y24485000D01*
X-25554702Y24485000D01*
X-25743994Y24485000D01*
X-25743996Y24485000D01*
X-25929151Y24445645D01*
X-26102079Y24368652D01*
X-26255219Y24257390D01*
X-26381882Y24116717D01*
X-26476528Y23952785D01*
X-26535022Y23772758D01*
X-26544881Y23678952D01*
X-26554808Y23584500D01*
X-26552699Y23564438D01*
X-26535022Y23396243D01*
X-26476528Y23216216D01*
X-26381882Y23052284D01*
X-26331659Y22996506D01*
X-26302519Y22939315D01*
X-26305878Y22875216D01*
X-26340837Y22821384D01*
X-26398028Y22792244D01*
X-26568803Y22755945D01*
X-26741731Y22678952D01*
X-26894871Y22567690D01*
X-27021534Y22427017D01*
X-27116180Y22263085D01*
X-27174674Y22083058D01*
X-27192321Y21915151D01*
X-27203721Y21874730D01*
X-27227961Y21840432D01*
X-27891992Y21176401D01*
X-27908090Y21163504D01*
X-27956104Y21112375D01*
X-27958809Y21109583D01*
X-27978326Y21090066D01*
X-27980785Y21086895D01*
X-27988358Y21078028D01*
X-28018265Y21046180D01*
X-28027915Y21028626D01*
X-28038591Y21012372D01*
X-28050874Y20996537D01*
X-28068225Y20956442D01*
X-28073362Y20945956D01*
X-28094398Y20907693D01*
X-28099379Y20888291D01*
X-28105680Y20869889D01*
X-28113639Y20851498D01*
X-28120472Y20808358D01*
X-28122840Y20796926D01*
X-28133700Y20754622D01*
X-28133700Y20734584D01*
X-28135227Y20715185D01*
X-28138360Y20695406D01*
X-28134250Y20651925D01*
X-28133700Y20640256D01*
X-28133700Y15102958D01*
X-28147215Y15046663D01*
X-28184815Y15002640D01*
X-28238302Y14980485D01*
X-28296018Y14985027D01*
X-28345381Y15015277D01*
X-35202293Y21872189D01*
X-35215189Y21888287D01*
X-35266320Y21936302D01*
X-35269117Y21939013D01*
X-35288625Y21958521D01*
X-35291805Y21960988D01*
X-35300671Y21968561D01*
X-35332513Y21998462D01*
X-35350071Y22008115D01*
X-35366331Y22018796D01*
X-35382159Y22031073D01*
X-35422244Y22048420D01*
X-35432734Y22053559D01*
X-35471004Y22074598D01*
X-35490404Y22079579D01*
X-35508811Y22085881D01*
X-35527198Y22093838D01*
X-35570337Y22100671D01*
X-35581771Y22103039D01*
X-35624076Y22113900D01*
X-35644111Y22113900D01*
X-35663509Y22115427D01*
X-35670933Y22116603D01*
X-35683290Y22118560D01*
X-35683291Y22118560D01*
X-35716344Y22115436D01*
X-35726770Y22114450D01*
X-35738439Y22113900D01*
X-36710453Y22113900D01*
X-36760888Y22124620D01*
X-36802602Y22154927D01*
X-36808329Y22161288D01*
X-36961470Y22272551D01*
X-36961471Y22272552D01*
X-36961473Y22272553D01*
X-37134398Y22349545D01*
X-37319552Y22388900D01*
X-37319554Y22388900D01*
X-37508846Y22388900D01*
X-37508848Y22388900D01*
X-37694003Y22349545D01*
X-37866931Y22272552D01*
X-38020071Y22161290D01*
X-38146734Y22020617D01*
X-38241380Y21856685D01*
X-38299874Y21676658D01*
X-38299875Y21676656D01*
X-38299874Y21676656D01*
X-38319660Y21488400D01*
X-38314486Y21439174D01*
X-38299874Y21300143D01*
X-38241380Y21120116D01*
X-38146734Y20956184D01*
X-38020071Y20815511D01*
X-37866931Y20704249D01*
X-37694003Y20627256D01*
X-37508848Y20587900D01*
X-37508846Y20587900D01*
X-37449653Y20587900D01*
X-37402200Y20578461D01*
X-37361972Y20551581D01*
X-37212419Y20402028D01*
X-37185539Y20361800D01*
X-37176100Y20314347D01*
X-37176100Y18852453D01*
X-37185539Y18805000D01*
X-37212419Y18764772D01*
X-37846444Y18130749D01*
X-37904127Y18098113D01*
X-37970379Y18099848D01*
X-38026274Y18135457D01*
X-38077649Y18192514D01*
X-38101264Y18231049D01*
X-38109500Y18275487D01*
X-38109500Y18301943D01*
X-38109500Y18301950D01*
X-38110005Y18305947D01*
X-38110920Y18317577D01*
X-38112291Y18361228D01*
X-38117881Y18380466D01*
X-38121826Y18399518D01*
X-38124336Y18419392D01*
X-38124844Y18420674D01*
X-38140422Y18460019D01*
X-38144195Y18471040D01*
X-38156383Y18512990D01*
X-38166579Y18530231D01*
X-38175137Y18547698D01*
X-38182514Y18566332D01*
X-38208202Y18601688D01*
X-38214591Y18611416D01*
X-38236830Y18649021D01*
X-38250994Y18663185D01*
X-38263631Y18677980D01*
X-38275405Y18694186D01*
X-38275406Y18694187D01*
X-38309065Y18722032D01*
X-38317695Y18729886D01*
X-40723398Y21135589D01*
X-40736294Y21151687D01*
X-40787425Y21199702D01*
X-40790222Y21202413D01*
X-40809730Y21221921D01*
X-40812910Y21224388D01*
X-40821776Y21231961D01*
X-40853618Y21261862D01*
X-40871176Y21271515D01*
X-40887436Y21282196D01*
X-40903264Y21294473D01*
X-40943349Y21311820D01*
X-40953839Y21316959D01*
X-40992109Y21337998D01*
X-41011509Y21342979D01*
X-41029916Y21349281D01*
X-41048303Y21357238D01*
X-41091442Y21364071D01*
X-41102876Y21366439D01*
X-41145181Y21377300D01*
X-41165216Y21377300D01*
X-41184614Y21378827D01*
X-41192038Y21380003D01*
X-41204395Y21381960D01*
X-41204396Y21381960D01*
X-41237449Y21378836D01*
X-41247875Y21377850D01*
X-41259544Y21377300D01*
X-53855453Y21377300D01*
X-53905888Y21388020D01*
X-53947602Y21418327D01*
X-53953329Y21424688D01*
X-54106470Y21535951D01*
X-54106471Y21535952D01*
X-54106473Y21535953D01*
X-54279398Y21612945D01*
X-54464552Y21652300D01*
X-54464554Y21652300D01*
X-54653846Y21652300D01*
X-54653848Y21652300D01*
X-54839003Y21612945D01*
X-55011931Y21535952D01*
X-55165071Y21424690D01*
X-55291734Y21284017D01*
X-55386380Y21120085D01*
X-55444874Y20940058D01*
X-55464660Y20751801D01*
X-55464660Y20751800D01*
X-55461993Y20726425D01*
X-55444874Y20563543D01*
X-55386380Y20383516D01*
X-55291734Y20219584D01*
X-55165071Y20078911D01*
X-55011931Y19967649D01*
X-54839003Y19890656D01*
X-54653848Y19851300D01*
X-54653846Y19851300D01*
X-54464554Y19851300D01*
X-54464552Y19851300D01*
X-54341116Y19877538D01*
X-54279397Y19890656D01*
X-54106470Y19967649D01*
X-53953329Y20078912D01*
X-53947602Y20085274D01*
X-53905888Y20115580D01*
X-53855453Y20126300D01*
X-41534652Y20126300D01*
X-41487199Y20116861D01*
X-41446971Y20089981D01*
X-39534255Y18177265D01*
X-39505414Y18131995D01*
X-39498408Y18078777D01*
X-39514548Y18027585D01*
X-39562180Y17945084D01*
X-39620674Y17765058D01*
X-39640460Y17576801D01*
X-39620674Y17388543D01*
X-39562180Y17208516D01*
X-39467534Y17044584D01*
X-39363360Y16928888D01*
X-39340871Y16903912D01*
X-39303342Y16876646D01*
X-39268038Y16836918D01*
X-39252609Y16786058D01*
X-39259891Y16733410D01*
X-39288546Y16688647D01*
X-41319972Y14657219D01*
X-41360200Y14630339D01*
X-41407653Y14620900D01*
X-42222253Y14620900D01*
X-42272688Y14631620D01*
X-42314402Y14661927D01*
X-42320129Y14668288D01*
X-42473270Y14779551D01*
X-42473271Y14779552D01*
X-42473273Y14779553D01*
X-42646198Y14856545D01*
X-42831352Y14895900D01*
X-42831354Y14895900D01*
X-43020646Y14895900D01*
X-43075049Y14884337D01*
X-43191618Y14859560D01*
X-43254480Y14862525D01*
X-43307791Y14895968D01*
X-43337819Y14951274D01*
X-43336830Y15014198D01*
X-43305083Y15068527D01*
X-43054426Y15319184D01*
X-43014200Y15346061D01*
X-42966747Y15355500D01*
X-42907552Y15355500D01*
X-42782965Y15381982D01*
X-42722397Y15394856D01*
X-42549470Y15471849D01*
X-42487922Y15516566D01*
X-42396330Y15583111D01*
X-42390321Y15589784D01*
X-42269667Y15723784D01*
X-42175021Y15887716D01*
X-42116526Y16067744D01*
X-42096740Y16256000D01*
X-42116526Y16444256D01*
X-42146868Y16537637D01*
X-42175021Y16624285D01*
X-42269667Y16788217D01*
X-42396330Y16928890D01*
X-42497654Y17002505D01*
X-42538049Y17052388D01*
X-42548090Y17115781D01*
X-42532038Y17268502D01*
X-42551824Y17456758D01*
X-42590828Y17576800D01*
X-42610319Y17636787D01*
X-42704965Y17800719D01*
X-42831628Y17941392D01*
X-42984768Y18052654D01*
X-43157696Y18129647D01*
X-43342850Y18169002D01*
X-43342852Y18169002D01*
X-43532144Y18169002D01*
X-43532146Y18169002D01*
X-43717301Y18129647D01*
X-43890229Y18052654D01*
X-44043369Y17941392D01*
X-44170032Y17800719D01*
X-44264678Y17636787D01*
X-44323172Y17456760D01*
X-44325272Y17436781D01*
X-44339879Y17297792D01*
X-44340819Y17288852D01*
X-44352219Y17248431D01*
X-44376459Y17214133D01*
X-44672772Y16917819D01*
X-44713000Y16890939D01*
X-44760453Y16881500D01*
X-55526985Y16881500D01*
X-55585200Y16896015D01*
X-55629786Y16936160D01*
X-55650306Y16992537D01*
X-55668826Y17168756D01*
X-55704412Y17278277D01*
X-55727321Y17348785D01*
X-55821967Y17512717D01*
X-55948630Y17653390D01*
X-56101770Y17764652D01*
X-56274698Y17841645D01*
X-56459852Y17881000D01*
X-56459854Y17881000D01*
X-56649146Y17881000D01*
X-56649148Y17881000D01*
X-56834303Y17841645D01*
X-57007231Y17764652D01*
X-57141386Y17667182D01*
X-57175953Y17649569D01*
X-57214271Y17643500D01*
X-61394561Y17643500D01*
X-61415068Y17645765D01*
X-61485178Y17643561D01*
X-61489073Y17643500D01*
X-61516655Y17643500D01*
X-61520640Y17642997D01*
X-61532272Y17642082D01*
X-61575936Y17640710D01*
X-61595176Y17635120D01*
X-61614224Y17631175D01*
X-61634096Y17628665D01*
X-61674706Y17612587D01*
X-61685751Y17608806D01*
X-61727695Y17596619D01*
X-61744940Y17586421D01*
X-61762401Y17577867D01*
X-61781038Y17570488D01*
X-61816374Y17544815D01*
X-61826131Y17538405D01*
X-61863725Y17516171D01*
X-61877892Y17502004D01*
X-61892681Y17489374D01*
X-61908892Y17477596D01*
X-61936733Y17443942D01*
X-61944594Y17435303D01*
X-63121792Y16258106D01*
X-63137890Y16245209D01*
X-63185904Y16194080D01*
X-63188609Y16191288D01*
X-63208126Y16171771D01*
X-63210585Y16168600D01*
X-63218158Y16159733D01*
X-63248065Y16127885D01*
X-63257715Y16110331D01*
X-63268391Y16094077D01*
X-63280674Y16078242D01*
X-63298025Y16038147D01*
X-63303162Y16027661D01*
X-63324198Y15989398D01*
X-63329179Y15969996D01*
X-63335480Y15951594D01*
X-63343439Y15933203D01*
X-63350272Y15890063D01*
X-63352640Y15878631D01*
X-63363500Y15836327D01*
X-63363500Y15816289D01*
X-63365027Y15796890D01*
X-63368160Y15777111D01*
X-64801814Y15777111D01*
X-64986484Y15961781D01*
X-65287916Y16205876D01*
X-65287918Y16205877D01*
X-65287920Y16205879D01*
X-65613207Y16417124D01*
X-65958807Y16593215D01*
X-66320914Y16732215D01*
X-66695571Y16832604D01*
X-67078660Y16893278D01*
X-67466000Y16913578D01*
X-67853341Y16893278D01*
X-68236430Y16832604D01*
X-68611087Y16732215D01*
X-68973194Y16593215D01*
X-69318794Y16417124D01*
X-69644081Y16205879D01*
X-69945520Y15961778D01*
X-70219778Y15687520D01*
X-70463879Y15386081D01*
X-70675124Y15060794D01*
X-70851215Y14715194D01*
X-70990215Y14353087D01*
X-71090604Y13978429D01*
X-71115883Y13818822D01*
X-71139973Y13762743D01*
X-71187898Y13724951D01*
X-71248047Y13714599D01*
X-71305848Y13734197D01*
X-71347299Y13778996D01*
X-71362356Y13838140D01*
X-71369202Y24892000D01*
X-20405660Y24892000D01*
X-20385064Y24656593D01*
X-20340291Y24489499D01*
X-20323903Y24428337D01*
X-20224035Y24214170D01*
X-20088495Y24020599D01*
X-19921401Y23853505D01*
X-19735403Y23723268D01*
X-19696540Y23678952D01*
X-19682529Y23621695D01*
X-19696539Y23564439D01*
X-19735405Y23520120D01*
X-19921081Y23390108D01*
X-20088110Y23223079D01*
X-20223600Y23029579D01*
X-20323431Y22815493D01*
X-20380636Y22602001D01*
X-20380636Y22602000D01*
X-17719364Y22602000D01*
X-17719365Y22602001D01*
X-17776570Y22815493D01*
X-17876401Y23029579D01*
X-18011891Y23223079D01*
X-18178919Y23390107D01*
X-18364596Y23520120D01*
X-18403461Y23564438D01*
X-18417472Y23621695D01*
X-18403461Y23678952D01*
X-18364598Y23723268D01*
X-18178599Y23853505D01*
X-18011505Y24020599D01*
X-17875965Y24214170D01*
X-17776097Y24428337D01*
X-17714937Y24656592D01*
X-17694341Y24892000D01*
X-17714937Y25127408D01*
X-17776097Y25355663D01*
X-17875965Y25569829D01*
X-18011505Y25763401D01*
X-18178599Y25930495D01*
X-18364161Y26060427D01*
X-18403025Y26104743D01*
X-18417036Y26162000D01*
X-18403025Y26219257D01*
X-18364161Y26263574D01*
X-18178599Y26393505D01*
X-18011505Y26560599D01*
X-17875965Y26754170D01*
X-17776097Y26968337D01*
X-17714937Y27196592D01*
X-17694341Y27432000D01*
X-17714937Y27667408D01*
X-17776097Y27895663D01*
X-17875965Y28109829D01*
X-18011505Y28303401D01*
X-18133431Y28425327D01*
X-18164727Y28478073D01*
X-18166916Y28539366D01*
X-18139463Y28594211D01*
X-18089084Y28629190D01*
X-17957669Y28678204D01*
X-17842454Y28764454D01*
X-17756204Y28879669D01*
X-17705909Y29014517D01*
X-17699500Y29074127D01*
X-17699501Y30869872D01*
X-17705909Y30929483D01*
X-17756204Y31064331D01*
X-17842454Y31179546D01*
X-17957669Y31265796D01*
X-18092517Y31316091D01*
X-18152127Y31322500D01*
X-18152131Y31322500D01*
X-19947870Y31322500D01*
X-20007485Y31316091D01*
X-20142331Y31265796D01*
X-20257546Y31179546D01*
X-20343796Y31064332D01*
X-20394091Y30929484D01*
X-20400500Y30869870D01*
X-20400500Y29074131D01*
X-20395560Y29028182D01*
X-20394091Y29014517D01*
X-20343796Y28879669D01*
X-20257546Y28764454D01*
X-20142331Y28678204D01*
X-20030093Y28636342D01*
X-20010918Y28629190D01*
X-19960538Y28594211D01*
X-19933085Y28539366D01*
X-19935274Y28478074D01*
X-19966569Y28425327D01*
X-20088497Y28303399D01*
X-20224035Y28109830D01*
X-20323903Y27895664D01*
X-20385064Y27667408D01*
X-20405660Y27432001D01*
X-20385064Y27196593D01*
X-20340291Y27029499D01*
X-20323903Y26968337D01*
X-20224035Y26754170D01*
X-20088495Y26560599D01*
X-19921401Y26393505D01*
X-19735840Y26263574D01*
X-19696976Y26219257D01*
X-19682965Y26162000D01*
X-19696976Y26104743D01*
X-19735842Y26060425D01*
X-19871755Y25965257D01*
X-19921405Y25930492D01*
X-20088495Y25763402D01*
X-20224035Y25569830D01*
X-20323903Y25355664D01*
X-20385064Y25127408D01*
X-20405660Y24892000D01*
X-71369202Y24892000D01*
X-71371972Y29363832D01*
X-61037352Y29363832D01*
X-61021880Y29276093D01*
X-61006723Y29190134D01*
X-60936865Y29028183D01*
X-60936864Y29028182D01*
X-60831539Y28886706D01*
X-60696430Y28773335D01*
X-60696429Y28773335D01*
X-60696427Y28773333D01*
X-60538811Y28694176D01*
X-60538810Y28694176D01*
X-60538808Y28694175D01*
X-60367190Y28653500D01*
X-60367188Y28653500D01*
X-60235062Y28653500D01*
X-60235059Y28653500D01*
X-60103816Y28668840D01*
X-59938076Y28729164D01*
X-59790715Y28826085D01*
X-59669678Y28954377D01*
X-59581490Y29107124D01*
X-59530905Y29276091D01*
X-59525794Y29363832D01*
X-53057352Y29363832D01*
X-53041880Y29276093D01*
X-53026723Y29190134D01*
X-52956865Y29028183D01*
X-52956864Y29028182D01*
X-52851539Y28886706D01*
X-52716430Y28773335D01*
X-52716429Y28773335D01*
X-52716427Y28773333D01*
X-52558811Y28694176D01*
X-52558810Y28694176D01*
X-52558808Y28694175D01*
X-52387190Y28653500D01*
X-52387188Y28653500D01*
X-52255062Y28653500D01*
X-52255059Y28653500D01*
X-52123816Y28668840D01*
X-51958076Y28729164D01*
X-51810715Y28826085D01*
X-51689678Y28954377D01*
X-51601490Y29107124D01*
X-51550905Y29276091D01*
X-51540649Y29452169D01*
X-51571277Y29625866D01*
X-51641136Y29787818D01*
X-51746461Y29929294D01*
X-51746462Y29929295D01*
X-51881571Y30042666D01*
X-52039193Y30121826D01*
X-52210810Y30162500D01*
X-52210812Y30162500D01*
X-52342941Y30162500D01*
X-52408563Y30154831D01*
X-52474187Y30147160D01*
X-52639926Y30086836D01*
X-52787285Y29989916D01*
X-52908324Y29861623D01*
X-52996509Y29708880D01*
X-53047095Y29539908D01*
X-53057352Y29363832D01*
X-59525794Y29363832D01*
X-59520649Y29452169D01*
X-59551277Y29625866D01*
X-59621136Y29787818D01*
X-59726461Y29929294D01*
X-59726462Y29929295D01*
X-59861571Y30042666D01*
X-60019193Y30121826D01*
X-60190810Y30162500D01*
X-60190812Y30162500D01*
X-60322941Y30162500D01*
X-60388563Y30154831D01*
X-60454187Y30147160D01*
X-60619926Y30086836D01*
X-60767285Y29989916D01*
X-60888324Y29861623D01*
X-60976509Y29708880D01*
X-61027095Y29539908D01*
X-61037352Y29363832D01*
X-71371972Y29363832D01*
X-71373924Y32515466D01*
X-71357427Y32577340D01*
X-71312258Y32622734D01*
X-71250468Y32639540D01*
X-42418218Y32765445D01*
X-42355231Y32748573D01*
X-42309512Y32702074D01*
X-42293707Y32638808D01*
X-42418000Y26797000D01*
X-22352000Y26797000D01*
X-22352000Y26822749D01*
X-22339719Y26876552D01*
X-22305309Y26919699D01*
X-22305212Y26919776D01*
X-22301223Y26928062D01*
X-22286445Y26951578D01*
X-22286016Y26952117D01*
X-22280710Y26958769D01*
X-22278662Y26967746D01*
X-22269494Y26993945D01*
X-22265500Y27002237D01*
X-22265500Y27093763D01*
X-22265500Y32768727D01*
X-22248860Y32830774D01*
X-22203407Y32876168D01*
X-22141343Y32892727D01*
X5098426Y32857302D01*
G37*
G04 #@! TD.AperFunction*
G04 #@! TD*
M02*
