G04 #@! TF.GenerationSoftware,KiCad,Pcbnew,7.0.1*
G04 #@! TF.CreationDate,2023-03-23T23:12:12+01:00*
G04 #@! TF.ProjectId,solarScavenger,736f6c61-7253-4636-9176-656e6765722e,rev?*
G04 #@! TF.SameCoordinates,Original*
G04 #@! TF.FileFunction,Legend,Top*
G04 #@! TF.FilePolarity,Positive*
%FSLAX46Y46*%
G04 Gerber Fmt 4.6, Leading zero omitted, Abs format (unit mm)*
G04 Created by KiCad (PCBNEW 7.0.1) date 2023-03-23 23:12:12*
%MOMM*%
%LPD*%
G01*
G04 APERTURE LIST*
%ADD10C,0.150000*%
%ADD11C,0.120000*%
%ADD12C,1.000000*%
G04 APERTURE END LIST*
D10*
X-53771800Y10744200D02*
X-51993800Y14732000D01*
X-54000400Y14808200D02*
X-51841400Y10744200D01*
X-54032172Y-4490000D02*
X-53903600Y-4532857D01*
X-53903600Y-4532857D02*
X-53689315Y-4532857D01*
X-53689315Y-4532857D02*
X-53603600Y-4490000D01*
X-53603600Y-4490000D02*
X-53560743Y-4447142D01*
X-53560743Y-4447142D02*
X-53517886Y-4361428D01*
X-53517886Y-4361428D02*
X-53517886Y-4275714D01*
X-53517886Y-4275714D02*
X-53560743Y-4190000D01*
X-53560743Y-4190000D02*
X-53603600Y-4147142D01*
X-53603600Y-4147142D02*
X-53689315Y-4104285D01*
X-53689315Y-4104285D02*
X-53860743Y-4061428D01*
X-53860743Y-4061428D02*
X-53946458Y-4018571D01*
X-53946458Y-4018571D02*
X-53989315Y-3975714D01*
X-53989315Y-3975714D02*
X-54032172Y-3890000D01*
X-54032172Y-3890000D02*
X-54032172Y-3804285D01*
X-54032172Y-3804285D02*
X-53989315Y-3718571D01*
X-53989315Y-3718571D02*
X-53946458Y-3675714D01*
X-53946458Y-3675714D02*
X-53860743Y-3632857D01*
X-53860743Y-3632857D02*
X-53646458Y-3632857D01*
X-53646458Y-3632857D02*
X-53517886Y-3675714D01*
X-53003600Y-4532857D02*
X-53089315Y-4490000D01*
X-53089315Y-4490000D02*
X-53132172Y-4447142D01*
X-53132172Y-4447142D02*
X-53175029Y-4361428D01*
X-53175029Y-4361428D02*
X-53175029Y-4104285D01*
X-53175029Y-4104285D02*
X-53132172Y-4018571D01*
X-53132172Y-4018571D02*
X-53089315Y-3975714D01*
X-53089315Y-3975714D02*
X-53003600Y-3932857D01*
X-53003600Y-3932857D02*
X-52875029Y-3932857D01*
X-52875029Y-3932857D02*
X-52789315Y-3975714D01*
X-52789315Y-3975714D02*
X-52746457Y-4018571D01*
X-52746457Y-4018571D02*
X-52703600Y-4104285D01*
X-52703600Y-4104285D02*
X-52703600Y-4361428D01*
X-52703600Y-4361428D02*
X-52746457Y-4447142D01*
X-52746457Y-4447142D02*
X-52789315Y-4490000D01*
X-52789315Y-4490000D02*
X-52875029Y-4532857D01*
X-52875029Y-4532857D02*
X-53003600Y-4532857D01*
X-52189314Y-4532857D02*
X-52275029Y-4490000D01*
X-52275029Y-4490000D02*
X-52317886Y-4404285D01*
X-52317886Y-4404285D02*
X-52317886Y-3632857D01*
X-51460742Y-4532857D02*
X-51460742Y-4061428D01*
X-51460742Y-4061428D02*
X-51503600Y-3975714D01*
X-51503600Y-3975714D02*
X-51589314Y-3932857D01*
X-51589314Y-3932857D02*
X-51760742Y-3932857D01*
X-51760742Y-3932857D02*
X-51846457Y-3975714D01*
X-51460742Y-4490000D02*
X-51546457Y-4532857D01*
X-51546457Y-4532857D02*
X-51760742Y-4532857D01*
X-51760742Y-4532857D02*
X-51846457Y-4490000D01*
X-51846457Y-4490000D02*
X-51889314Y-4404285D01*
X-51889314Y-4404285D02*
X-51889314Y-4318571D01*
X-51889314Y-4318571D02*
X-51846457Y-4232857D01*
X-51846457Y-4232857D02*
X-51760742Y-4190000D01*
X-51760742Y-4190000D02*
X-51546457Y-4190000D01*
X-51546457Y-4190000D02*
X-51460742Y-4147142D01*
X-51032171Y-4532857D02*
X-51032171Y-3932857D01*
X-51032171Y-4104285D02*
X-50989314Y-4018571D01*
X-50989314Y-4018571D02*
X-50946456Y-3975714D01*
X-50946456Y-3975714D02*
X-50860742Y-3932857D01*
X-50860742Y-3932857D02*
X-50775028Y-3932857D01*
X-49832171Y-4490000D02*
X-49703599Y-4532857D01*
X-49703599Y-4532857D02*
X-49489314Y-4532857D01*
X-49489314Y-4532857D02*
X-49403599Y-4490000D01*
X-49403599Y-4490000D02*
X-49360742Y-4447142D01*
X-49360742Y-4447142D02*
X-49317885Y-4361428D01*
X-49317885Y-4361428D02*
X-49317885Y-4275714D01*
X-49317885Y-4275714D02*
X-49360742Y-4190000D01*
X-49360742Y-4190000D02*
X-49403599Y-4147142D01*
X-49403599Y-4147142D02*
X-49489314Y-4104285D01*
X-49489314Y-4104285D02*
X-49660742Y-4061428D01*
X-49660742Y-4061428D02*
X-49746457Y-4018571D01*
X-49746457Y-4018571D02*
X-49789314Y-3975714D01*
X-49789314Y-3975714D02*
X-49832171Y-3890000D01*
X-49832171Y-3890000D02*
X-49832171Y-3804285D01*
X-49832171Y-3804285D02*
X-49789314Y-3718571D01*
X-49789314Y-3718571D02*
X-49746457Y-3675714D01*
X-49746457Y-3675714D02*
X-49660742Y-3632857D01*
X-49660742Y-3632857D02*
X-49446457Y-3632857D01*
X-49446457Y-3632857D02*
X-49317885Y-3675714D01*
X-48546456Y-4490000D02*
X-48632171Y-4532857D01*
X-48632171Y-4532857D02*
X-48803599Y-4532857D01*
X-48803599Y-4532857D02*
X-48889314Y-4490000D01*
X-48889314Y-4490000D02*
X-48932171Y-4447142D01*
X-48932171Y-4447142D02*
X-48975028Y-4361428D01*
X-48975028Y-4361428D02*
X-48975028Y-4104285D01*
X-48975028Y-4104285D02*
X-48932171Y-4018571D01*
X-48932171Y-4018571D02*
X-48889314Y-3975714D01*
X-48889314Y-3975714D02*
X-48803599Y-3932857D01*
X-48803599Y-3932857D02*
X-48632171Y-3932857D01*
X-48632171Y-3932857D02*
X-48546456Y-3975714D01*
X-47775027Y-4532857D02*
X-47775027Y-4061428D01*
X-47775027Y-4061428D02*
X-47817885Y-3975714D01*
X-47817885Y-3975714D02*
X-47903599Y-3932857D01*
X-47903599Y-3932857D02*
X-48075027Y-3932857D01*
X-48075027Y-3932857D02*
X-48160742Y-3975714D01*
X-47775027Y-4490000D02*
X-47860742Y-4532857D01*
X-47860742Y-4532857D02*
X-48075027Y-4532857D01*
X-48075027Y-4532857D02*
X-48160742Y-4490000D01*
X-48160742Y-4490000D02*
X-48203599Y-4404285D01*
X-48203599Y-4404285D02*
X-48203599Y-4318571D01*
X-48203599Y-4318571D02*
X-48160742Y-4232857D01*
X-48160742Y-4232857D02*
X-48075027Y-4190000D01*
X-48075027Y-4190000D02*
X-47860742Y-4190000D01*
X-47860742Y-4190000D02*
X-47775027Y-4147142D01*
X-47432170Y-3932857D02*
X-47217884Y-4532857D01*
X-47217884Y-4532857D02*
X-47003599Y-3932857D01*
X-46317885Y-4490000D02*
X-46403599Y-4532857D01*
X-46403599Y-4532857D02*
X-46575027Y-4532857D01*
X-46575027Y-4532857D02*
X-46660742Y-4490000D01*
X-46660742Y-4490000D02*
X-46703599Y-4404285D01*
X-46703599Y-4404285D02*
X-46703599Y-4061428D01*
X-46703599Y-4061428D02*
X-46660742Y-3975714D01*
X-46660742Y-3975714D02*
X-46575027Y-3932857D01*
X-46575027Y-3932857D02*
X-46403599Y-3932857D01*
X-46403599Y-3932857D02*
X-46317885Y-3975714D01*
X-46317885Y-3975714D02*
X-46275027Y-4061428D01*
X-46275027Y-4061428D02*
X-46275027Y-4147142D01*
X-46275027Y-4147142D02*
X-46703599Y-4232857D01*
X-45889313Y-3932857D02*
X-45889313Y-4532857D01*
X-45889313Y-4018571D02*
X-45846456Y-3975714D01*
X-45846456Y-3975714D02*
X-45760741Y-3932857D01*
X-45760741Y-3932857D02*
X-45632170Y-3932857D01*
X-45632170Y-3932857D02*
X-45546456Y-3975714D01*
X-45546456Y-3975714D02*
X-45503598Y-4061428D01*
X-45503598Y-4061428D02*
X-45503598Y-4532857D01*
X-44689312Y-3932857D02*
X-44689312Y-4661428D01*
X-44689312Y-4661428D02*
X-44732170Y-4747142D01*
X-44732170Y-4747142D02*
X-44775027Y-4790000D01*
X-44775027Y-4790000D02*
X-44860741Y-4832857D01*
X-44860741Y-4832857D02*
X-44989312Y-4832857D01*
X-44989312Y-4832857D02*
X-45075027Y-4790000D01*
X-44689312Y-4490000D02*
X-44775027Y-4532857D01*
X-44775027Y-4532857D02*
X-44946455Y-4532857D01*
X-44946455Y-4532857D02*
X-45032170Y-4490000D01*
X-45032170Y-4490000D02*
X-45075027Y-4447142D01*
X-45075027Y-4447142D02*
X-45117884Y-4361428D01*
X-45117884Y-4361428D02*
X-45117884Y-4104285D01*
X-45117884Y-4104285D02*
X-45075027Y-4018571D01*
X-45075027Y-4018571D02*
X-45032170Y-3975714D01*
X-45032170Y-3975714D02*
X-44946455Y-3932857D01*
X-44946455Y-3932857D02*
X-44775027Y-3932857D01*
X-44775027Y-3932857D02*
X-44689312Y-3975714D01*
X-43917884Y-4490000D02*
X-44003598Y-4532857D01*
X-44003598Y-4532857D02*
X-44175026Y-4532857D01*
X-44175026Y-4532857D02*
X-44260741Y-4490000D01*
X-44260741Y-4490000D02*
X-44303598Y-4404285D01*
X-44303598Y-4404285D02*
X-44303598Y-4061428D01*
X-44303598Y-4061428D02*
X-44260741Y-3975714D01*
X-44260741Y-3975714D02*
X-44175026Y-3932857D01*
X-44175026Y-3932857D02*
X-44003598Y-3932857D01*
X-44003598Y-3932857D02*
X-43917884Y-3975714D01*
X-43917884Y-3975714D02*
X-43875026Y-4061428D01*
X-43875026Y-4061428D02*
X-43875026Y-4147142D01*
X-43875026Y-4147142D02*
X-44303598Y-4232857D01*
X-43489312Y-4532857D02*
X-43489312Y-3932857D01*
X-43489312Y-4104285D02*
X-43446455Y-4018571D01*
X-43446455Y-4018571D02*
X-43403597Y-3975714D01*
X-43403597Y-3975714D02*
X-43317883Y-3932857D01*
X-43317883Y-3932857D02*
X-43232169Y-3932857D01*
X-54075029Y-5390857D02*
X-53860743Y-5990857D01*
X-53860743Y-5990857D02*
X-53646458Y-5390857D01*
X-52832172Y-5990857D02*
X-53346458Y-5990857D01*
X-53089315Y-5990857D02*
X-53089315Y-5090857D01*
X-53089315Y-5090857D02*
X-53175029Y-5219428D01*
X-53175029Y-5219428D02*
X-53260744Y-5305142D01*
X-53260744Y-5305142D02*
X-53346458Y-5348000D01*
X-52446458Y-5905142D02*
X-52403601Y-5948000D01*
X-52403601Y-5948000D02*
X-52446458Y-5990857D01*
X-52446458Y-5990857D02*
X-52489315Y-5948000D01*
X-52489315Y-5948000D02*
X-52446458Y-5905142D01*
X-52446458Y-5905142D02*
X-52446458Y-5990857D01*
X-51546458Y-5990857D02*
X-52060744Y-5990857D01*
X-51803601Y-5990857D02*
X-51803601Y-5090857D01*
X-51803601Y-5090857D02*
X-51889315Y-5219428D01*
X-51889315Y-5219428D02*
X-51975030Y-5305142D01*
X-51975030Y-5305142D02*
X-52060744Y-5348000D01*
X-53432172Y-7020285D02*
X-53475029Y-6977428D01*
X-53475029Y-6977428D02*
X-53560743Y-6934571D01*
X-53560743Y-6934571D02*
X-53646458Y-6934571D01*
X-53646458Y-6934571D02*
X-53732172Y-6977428D01*
X-53732172Y-6977428D02*
X-53775029Y-7020285D01*
X-53775029Y-7020285D02*
X-53817886Y-7106000D01*
X-53817886Y-7106000D02*
X-53817886Y-7191714D01*
X-53817886Y-7191714D02*
X-53775029Y-7277428D01*
X-53775029Y-7277428D02*
X-53732172Y-7320285D01*
X-53732172Y-7320285D02*
X-53646458Y-7363142D01*
X-53646458Y-7363142D02*
X-53560743Y-7363142D01*
X-53560743Y-7363142D02*
X-53475029Y-7320285D01*
X-53475029Y-7320285D02*
X-53432172Y-7277428D01*
X-53432172Y-6934571D02*
X-53432172Y-7277428D01*
X-53432172Y-7277428D02*
X-53389315Y-7320285D01*
X-53389315Y-7320285D02*
X-53346458Y-7320285D01*
X-53346458Y-7320285D02*
X-53260743Y-7277428D01*
X-53260743Y-7277428D02*
X-53217886Y-7191714D01*
X-53217886Y-7191714D02*
X-53217886Y-6977428D01*
X-53217886Y-6977428D02*
X-53303600Y-6848857D01*
X-53303600Y-6848857D02*
X-53432172Y-6763142D01*
X-53432172Y-6763142D02*
X-53603600Y-6720285D01*
X-53603600Y-6720285D02*
X-53775029Y-6763142D01*
X-53775029Y-6763142D02*
X-53903600Y-6848857D01*
X-53903600Y-6848857D02*
X-53989315Y-6977428D01*
X-53989315Y-6977428D02*
X-54032172Y-7148857D01*
X-54032172Y-7148857D02*
X-53989315Y-7320285D01*
X-53989315Y-7320285D02*
X-53903600Y-7448857D01*
X-53903600Y-7448857D02*
X-53775029Y-7534571D01*
X-53775029Y-7534571D02*
X-53603600Y-7577428D01*
X-53603600Y-7577428D02*
X-53432172Y-7534571D01*
X-53432172Y-7534571D02*
X-53303600Y-7448857D01*
X-52403600Y-7448857D02*
X-52832172Y-7448857D01*
X-52832172Y-7448857D02*
X-52832172Y-6548857D01*
X-51717886Y-7448857D02*
X-51717886Y-6977428D01*
X-51717886Y-6977428D02*
X-51760744Y-6891714D01*
X-51760744Y-6891714D02*
X-51846458Y-6848857D01*
X-51846458Y-6848857D02*
X-52017886Y-6848857D01*
X-52017886Y-6848857D02*
X-52103601Y-6891714D01*
X-51717886Y-7406000D02*
X-51803601Y-7448857D01*
X-51803601Y-7448857D02*
X-52017886Y-7448857D01*
X-52017886Y-7448857D02*
X-52103601Y-7406000D01*
X-52103601Y-7406000D02*
X-52146458Y-7320285D01*
X-52146458Y-7320285D02*
X-52146458Y-7234571D01*
X-52146458Y-7234571D02*
X-52103601Y-7148857D01*
X-52103601Y-7148857D02*
X-52017886Y-7106000D01*
X-52017886Y-7106000D02*
X-51803601Y-7106000D01*
X-51803601Y-7106000D02*
X-51717886Y-7063142D01*
X-51289315Y-7448857D02*
X-51289315Y-6548857D01*
X-51289315Y-6891714D02*
X-51203600Y-6848857D01*
X-51203600Y-6848857D02*
X-51032172Y-6848857D01*
X-51032172Y-6848857D02*
X-50946458Y-6891714D01*
X-50946458Y-6891714D02*
X-50903600Y-6934571D01*
X-50903600Y-6934571D02*
X-50860743Y-7020285D01*
X-50860743Y-7020285D02*
X-50860743Y-7277428D01*
X-50860743Y-7277428D02*
X-50903600Y-7363142D01*
X-50903600Y-7363142D02*
X-50946458Y-7406000D01*
X-50946458Y-7406000D02*
X-51032172Y-7448857D01*
X-51032172Y-7448857D02*
X-51203600Y-7448857D01*
X-51203600Y-7448857D02*
X-51289315Y-7406000D01*
X-50003600Y-6591714D02*
X-50089314Y-6548857D01*
X-50089314Y-6548857D02*
X-50217886Y-6548857D01*
X-50217886Y-6548857D02*
X-50346457Y-6591714D01*
X-50346457Y-6591714D02*
X-50432172Y-6677428D01*
X-50432172Y-6677428D02*
X-50475029Y-6763142D01*
X-50475029Y-6763142D02*
X-50517886Y-6934571D01*
X-50517886Y-6934571D02*
X-50517886Y-7063142D01*
X-50517886Y-7063142D02*
X-50475029Y-7234571D01*
X-50475029Y-7234571D02*
X-50432172Y-7320285D01*
X-50432172Y-7320285D02*
X-50346457Y-7406000D01*
X-50346457Y-7406000D02*
X-50217886Y-7448857D01*
X-50217886Y-7448857D02*
X-50132172Y-7448857D01*
X-50132172Y-7448857D02*
X-50003600Y-7406000D01*
X-50003600Y-7406000D02*
X-49960743Y-7363142D01*
X-49960743Y-7363142D02*
X-49960743Y-7063142D01*
X-49960743Y-7063142D02*
X-50132172Y-7063142D01*
X-49446457Y-7448857D02*
X-49532172Y-7406000D01*
X-49532172Y-7406000D02*
X-49575029Y-7320285D01*
X-49575029Y-7320285D02*
X-49575029Y-6548857D01*
X-48717885Y-6848857D02*
X-48717885Y-7448857D01*
X-49103600Y-6848857D02*
X-49103600Y-7320285D01*
X-49103600Y-7320285D02*
X-49060743Y-7406000D01*
X-49060743Y-7406000D02*
X-48975028Y-7448857D01*
X-48975028Y-7448857D02*
X-48846457Y-7448857D01*
X-48846457Y-7448857D02*
X-48760743Y-7406000D01*
X-48760743Y-7406000D02*
X-48717885Y-7363142D01*
X-48160742Y-7448857D02*
X-48246457Y-7406000D01*
X-48246457Y-7406000D02*
X-48289314Y-7363142D01*
X-48289314Y-7363142D02*
X-48332171Y-7277428D01*
X-48332171Y-7277428D02*
X-48332171Y-7020285D01*
X-48332171Y-7020285D02*
X-48289314Y-6934571D01*
X-48289314Y-6934571D02*
X-48246457Y-6891714D01*
X-48246457Y-6891714D02*
X-48160742Y-6848857D01*
X-48160742Y-6848857D02*
X-48032171Y-6848857D01*
X-48032171Y-6848857D02*
X-47946457Y-6891714D01*
X-47946457Y-6891714D02*
X-47903599Y-6934571D01*
X-47903599Y-6934571D02*
X-47860742Y-7020285D01*
X-47860742Y-7020285D02*
X-47860742Y-7277428D01*
X-47860742Y-7277428D02*
X-47903599Y-7363142D01*
X-47903599Y-7363142D02*
X-47946457Y-7406000D01*
X-47946457Y-7406000D02*
X-48032171Y-7448857D01*
X-48032171Y-7448857D02*
X-48160742Y-7448857D01*
X-47475028Y-6848857D02*
X-47475028Y-7448857D01*
X-47475028Y-6934571D02*
X-47432171Y-6891714D01*
X-47432171Y-6891714D02*
X-47346456Y-6848857D01*
X-47346456Y-6848857D02*
X-47217885Y-6848857D01*
X-47217885Y-6848857D02*
X-47132171Y-6891714D01*
X-47132171Y-6891714D02*
X-47089313Y-6977428D01*
X-47089313Y-6977428D02*
X-47089313Y-7448857D01*
X-53432172Y-8478285D02*
X-53475029Y-8435428D01*
X-53475029Y-8435428D02*
X-53560743Y-8392571D01*
X-53560743Y-8392571D02*
X-53646458Y-8392571D01*
X-53646458Y-8392571D02*
X-53732172Y-8435428D01*
X-53732172Y-8435428D02*
X-53775029Y-8478285D01*
X-53775029Y-8478285D02*
X-53817886Y-8564000D01*
X-53817886Y-8564000D02*
X-53817886Y-8649714D01*
X-53817886Y-8649714D02*
X-53775029Y-8735428D01*
X-53775029Y-8735428D02*
X-53732172Y-8778285D01*
X-53732172Y-8778285D02*
X-53646458Y-8821142D01*
X-53646458Y-8821142D02*
X-53560743Y-8821142D01*
X-53560743Y-8821142D02*
X-53475029Y-8778285D01*
X-53475029Y-8778285D02*
X-53432172Y-8735428D01*
X-53432172Y-8392571D02*
X-53432172Y-8735428D01*
X-53432172Y-8735428D02*
X-53389315Y-8778285D01*
X-53389315Y-8778285D02*
X-53346458Y-8778285D01*
X-53346458Y-8778285D02*
X-53260743Y-8735428D01*
X-53260743Y-8735428D02*
X-53217886Y-8649714D01*
X-53217886Y-8649714D02*
X-53217886Y-8435428D01*
X-53217886Y-8435428D02*
X-53303600Y-8306857D01*
X-53303600Y-8306857D02*
X-53432172Y-8221142D01*
X-53432172Y-8221142D02*
X-53603600Y-8178285D01*
X-53603600Y-8178285D02*
X-53775029Y-8221142D01*
X-53775029Y-8221142D02*
X-53903600Y-8306857D01*
X-53903600Y-8306857D02*
X-53989315Y-8435428D01*
X-53989315Y-8435428D02*
X-54032172Y-8606857D01*
X-54032172Y-8606857D02*
X-53989315Y-8778285D01*
X-53989315Y-8778285D02*
X-53903600Y-8906857D01*
X-53903600Y-8906857D02*
X-53775029Y-8992571D01*
X-53775029Y-8992571D02*
X-53603600Y-9035428D01*
X-53603600Y-9035428D02*
X-53432172Y-8992571D01*
X-53432172Y-8992571D02*
X-53303600Y-8906857D01*
X-52832172Y-8906857D02*
X-52832172Y-8006857D01*
X-52832172Y-8006857D02*
X-52489315Y-8006857D01*
X-52489315Y-8006857D02*
X-52403600Y-8049714D01*
X-52403600Y-8049714D02*
X-52360743Y-8092571D01*
X-52360743Y-8092571D02*
X-52317886Y-8178285D01*
X-52317886Y-8178285D02*
X-52317886Y-8306857D01*
X-52317886Y-8306857D02*
X-52360743Y-8392571D01*
X-52360743Y-8392571D02*
X-52403600Y-8435428D01*
X-52403600Y-8435428D02*
X-52489315Y-8478285D01*
X-52489315Y-8478285D02*
X-52832172Y-8478285D01*
X-51932172Y-8906857D02*
X-51932172Y-8306857D01*
X-51932172Y-8478285D02*
X-51889315Y-8392571D01*
X-51889315Y-8392571D02*
X-51846457Y-8349714D01*
X-51846457Y-8349714D02*
X-51760743Y-8306857D01*
X-51760743Y-8306857D02*
X-51675029Y-8306857D01*
X-51032172Y-8864000D02*
X-51117886Y-8906857D01*
X-51117886Y-8906857D02*
X-51289314Y-8906857D01*
X-51289314Y-8906857D02*
X-51375029Y-8864000D01*
X-51375029Y-8864000D02*
X-51417886Y-8778285D01*
X-51417886Y-8778285D02*
X-51417886Y-8435428D01*
X-51417886Y-8435428D02*
X-51375029Y-8349714D01*
X-51375029Y-8349714D02*
X-51289314Y-8306857D01*
X-51289314Y-8306857D02*
X-51117886Y-8306857D01*
X-51117886Y-8306857D02*
X-51032172Y-8349714D01*
X-51032172Y-8349714D02*
X-50989314Y-8435428D01*
X-50989314Y-8435428D02*
X-50989314Y-8521142D01*
X-50989314Y-8521142D02*
X-51417886Y-8606857D01*
X-50217885Y-8906857D02*
X-50217885Y-8006857D01*
X-50217885Y-8864000D02*
X-50303600Y-8906857D01*
X-50303600Y-8906857D02*
X-50475028Y-8906857D01*
X-50475028Y-8906857D02*
X-50560743Y-8864000D01*
X-50560743Y-8864000D02*
X-50603600Y-8821142D01*
X-50603600Y-8821142D02*
X-50646457Y-8735428D01*
X-50646457Y-8735428D02*
X-50646457Y-8478285D01*
X-50646457Y-8478285D02*
X-50603600Y-8392571D01*
X-50603600Y-8392571D02*
X-50560743Y-8349714D01*
X-50560743Y-8349714D02*
X-50475028Y-8306857D01*
X-50475028Y-8306857D02*
X-50303600Y-8306857D01*
X-50303600Y-8306857D02*
X-50217885Y-8349714D01*
X-49789314Y-8906857D02*
X-49789314Y-8306857D01*
X-49789314Y-8006857D02*
X-49832171Y-8049714D01*
X-49832171Y-8049714D02*
X-49789314Y-8092571D01*
X-49789314Y-8092571D02*
X-49746457Y-8049714D01*
X-49746457Y-8049714D02*
X-49789314Y-8006857D01*
X-49789314Y-8006857D02*
X-49789314Y-8092571D01*
X-49360743Y-8906857D02*
X-49360743Y-8006857D01*
X-49275028Y-8564000D02*
X-49017886Y-8906857D01*
X-49017886Y-8306857D02*
X-49360743Y-8649714D01*
X-48760743Y-8306857D02*
X-48417886Y-8306857D01*
X-48632172Y-8006857D02*
X-48632172Y-8778285D01*
X-48632172Y-8778285D02*
X-48589315Y-8864000D01*
X-48589315Y-8864000D02*
X-48503600Y-8906857D01*
X-48503600Y-8906857D02*
X-48417886Y-8906857D01*
X-47989314Y-8906857D02*
X-48075029Y-8864000D01*
X-48075029Y-8864000D02*
X-48117886Y-8821142D01*
X-48117886Y-8821142D02*
X-48160743Y-8735428D01*
X-48160743Y-8735428D02*
X-48160743Y-8478285D01*
X-48160743Y-8478285D02*
X-48117886Y-8392571D01*
X-48117886Y-8392571D02*
X-48075029Y-8349714D01*
X-48075029Y-8349714D02*
X-47989314Y-8306857D01*
X-47989314Y-8306857D02*
X-47860743Y-8306857D01*
X-47860743Y-8306857D02*
X-47775029Y-8349714D01*
X-47775029Y-8349714D02*
X-47732171Y-8392571D01*
X-47732171Y-8392571D02*
X-47689314Y-8478285D01*
X-47689314Y-8478285D02*
X-47689314Y-8735428D01*
X-47689314Y-8735428D02*
X-47732171Y-8821142D01*
X-47732171Y-8821142D02*
X-47775029Y-8864000D01*
X-47775029Y-8864000D02*
X-47860743Y-8906857D01*
X-47860743Y-8906857D02*
X-47989314Y-8906857D01*
X-47303600Y-8906857D02*
X-47303600Y-8306857D01*
X-47303600Y-8478285D02*
X-47260743Y-8392571D01*
X-47260743Y-8392571D02*
X-47217885Y-8349714D01*
X-47217885Y-8349714D02*
X-47132171Y-8306857D01*
X-47132171Y-8306857D02*
X-47046457Y-8306857D01*
G04 #@! TO.C,R11*
X-52416381Y8159143D02*
X-52892572Y7825810D01*
X-52416381Y7587715D02*
X-53416381Y7587715D01*
X-53416381Y7587715D02*
X-53416381Y7968667D01*
X-53416381Y7968667D02*
X-53368762Y8063905D01*
X-53368762Y8063905D02*
X-53321143Y8111524D01*
X-53321143Y8111524D02*
X-53225905Y8159143D01*
X-53225905Y8159143D02*
X-53083048Y8159143D01*
X-53083048Y8159143D02*
X-52987810Y8111524D01*
X-52987810Y8111524D02*
X-52940191Y8063905D01*
X-52940191Y8063905D02*
X-52892572Y7968667D01*
X-52892572Y7968667D02*
X-52892572Y7587715D01*
X-52416381Y9111524D02*
X-52416381Y8540096D01*
X-52416381Y8825810D02*
X-53416381Y8825810D01*
X-53416381Y8825810D02*
X-53273524Y8730572D01*
X-53273524Y8730572D02*
X-53178286Y8635334D01*
X-53178286Y8635334D02*
X-53130667Y8540096D01*
X-52416381Y10063905D02*
X-52416381Y9492477D01*
X-52416381Y9778191D02*
X-53416381Y9778191D01*
X-53416381Y9778191D02*
X-53273524Y9682953D01*
X-53273524Y9682953D02*
X-53178286Y9587715D01*
X-53178286Y9587715D02*
X-53130667Y9492477D01*
G04 #@! TO.C,R7*
X-46670981Y23835734D02*
X-47147172Y23502401D01*
X-46670981Y23264306D02*
X-47670981Y23264306D01*
X-47670981Y23264306D02*
X-47670981Y23645258D01*
X-47670981Y23645258D02*
X-47623362Y23740496D01*
X-47623362Y23740496D02*
X-47575743Y23788115D01*
X-47575743Y23788115D02*
X-47480505Y23835734D01*
X-47480505Y23835734D02*
X-47337648Y23835734D01*
X-47337648Y23835734D02*
X-47242410Y23788115D01*
X-47242410Y23788115D02*
X-47194791Y23740496D01*
X-47194791Y23740496D02*
X-47147172Y23645258D01*
X-47147172Y23645258D02*
X-47147172Y23264306D01*
X-47670981Y24169068D02*
X-47670981Y24835734D01*
X-47670981Y24835734D02*
X-46670981Y24407163D01*
G04 #@! TO.C,J7*
X-40973334Y6677381D02*
X-40973334Y5963096D01*
X-40973334Y5963096D02*
X-41020953Y5820239D01*
X-41020953Y5820239D02*
X-41116191Y5725000D01*
X-41116191Y5725000D02*
X-41259048Y5677381D01*
X-41259048Y5677381D02*
X-41354286Y5677381D01*
X-40592381Y6677381D02*
X-39925715Y6677381D01*
X-39925715Y6677381D02*
X-40354286Y5677381D01*
G04 #@! TO.C,U5*
X-32287381Y-14477904D02*
X-31477858Y-14477904D01*
X-31477858Y-14477904D02*
X-31382620Y-14430285D01*
X-31382620Y-14430285D02*
X-31335000Y-14382666D01*
X-31335000Y-14382666D02*
X-31287381Y-14287428D01*
X-31287381Y-14287428D02*
X-31287381Y-14096952D01*
X-31287381Y-14096952D02*
X-31335000Y-14001714D01*
X-31335000Y-14001714D02*
X-31382620Y-13954095D01*
X-31382620Y-13954095D02*
X-31477858Y-13906476D01*
X-31477858Y-13906476D02*
X-32287381Y-13906476D01*
X-32287381Y-12954095D02*
X-32287381Y-13430285D01*
X-32287381Y-13430285D02*
X-31811191Y-13477904D01*
X-31811191Y-13477904D02*
X-31858810Y-13430285D01*
X-31858810Y-13430285D02*
X-31906429Y-13335047D01*
X-31906429Y-13335047D02*
X-31906429Y-13096952D01*
X-31906429Y-13096952D02*
X-31858810Y-13001714D01*
X-31858810Y-13001714D02*
X-31811191Y-12954095D01*
X-31811191Y-12954095D02*
X-31715953Y-12906476D01*
X-31715953Y-12906476D02*
X-31477858Y-12906476D01*
X-31477858Y-12906476D02*
X-31382620Y-12954095D01*
X-31382620Y-12954095D02*
X-31335000Y-13001714D01*
X-31335000Y-13001714D02*
X-31287381Y-13096952D01*
X-31287381Y-13096952D02*
X-31287381Y-13335047D01*
X-31287381Y-13335047D02*
X-31335000Y-13430285D01*
X-31335000Y-13430285D02*
X-31382620Y-13477904D01*
G04 #@! TO.C,C4*
X-42990420Y13828734D02*
X-42942800Y13781115D01*
X-42942800Y13781115D02*
X-42895181Y13638258D01*
X-42895181Y13638258D02*
X-42895181Y13543020D01*
X-42895181Y13543020D02*
X-42942800Y13400163D01*
X-42942800Y13400163D02*
X-43038039Y13304925D01*
X-43038039Y13304925D02*
X-43133277Y13257306D01*
X-43133277Y13257306D02*
X-43323753Y13209687D01*
X-43323753Y13209687D02*
X-43466610Y13209687D01*
X-43466610Y13209687D02*
X-43657086Y13257306D01*
X-43657086Y13257306D02*
X-43752324Y13304925D01*
X-43752324Y13304925D02*
X-43847562Y13400163D01*
X-43847562Y13400163D02*
X-43895181Y13543020D01*
X-43895181Y13543020D02*
X-43895181Y13638258D01*
X-43895181Y13638258D02*
X-43847562Y13781115D01*
X-43847562Y13781115D02*
X-43799943Y13828734D01*
X-43561848Y14685877D02*
X-42895181Y14685877D01*
X-43942800Y14447782D02*
X-43228515Y14209687D01*
X-43228515Y14209687D02*
X-43228515Y14828734D01*
G04 #@! TO.C,J1*
X-22343500Y-16169428D02*
X-22343500Y-15026571D01*
X-22343500Y-29169428D02*
X-22343500Y-28026571D01*
X-21772072Y-28597999D02*
X-22914929Y-28597999D01*
G04 #@! TO.C,D2*
X-2197363Y-11201875D02*
X-2925136Y-10516057D01*
X-2925136Y-10516057D02*
X-2761846Y-10342778D01*
X-2761846Y-10342778D02*
X-2629216Y-10271468D01*
X-2629216Y-10271468D02*
X-2494588Y-10267473D01*
X-2494588Y-10267473D02*
X-2392618Y-10298133D01*
X-2392618Y-10298133D02*
X-2221337Y-10394109D01*
X-2221337Y-10394109D02*
X-2117369Y-10492083D01*
X-2117369Y-10492083D02*
X-2011404Y-10657371D01*
X-2011404Y-10657371D02*
X-1974750Y-10757343D01*
X-1974750Y-10757343D02*
X-1970755Y-10891971D01*
X-1970755Y-10891971D02*
X-2034073Y-11028596D01*
X-2034073Y-11028596D02*
X-2197363Y-11201875D01*
X-2202664Y-9888256D02*
X-2204661Y-9820942D01*
X-2204661Y-9820942D02*
X-2174001Y-9718973D01*
X-2174001Y-9718973D02*
X-2010711Y-9545693D01*
X-2010711Y-9545693D02*
X-1910739Y-9509040D01*
X-1910739Y-9509040D02*
X-1843425Y-9507042D01*
X-1843425Y-9507042D02*
X-1741456Y-9537702D01*
X-1741456Y-9537702D02*
X-1672144Y-9603018D01*
X-1672144Y-9603018D02*
X-1600835Y-9735648D01*
X-1600835Y-9735648D02*
X-1576861Y-10543414D01*
X-1576861Y-10543414D02*
X-1152306Y-10092888D01*
G04 #@! TO.C,R10*
X-54702381Y8159143D02*
X-55178572Y7825810D01*
X-54702381Y7587715D02*
X-55702381Y7587715D01*
X-55702381Y7587715D02*
X-55702381Y7968667D01*
X-55702381Y7968667D02*
X-55654762Y8063905D01*
X-55654762Y8063905D02*
X-55607143Y8111524D01*
X-55607143Y8111524D02*
X-55511905Y8159143D01*
X-55511905Y8159143D02*
X-55369048Y8159143D01*
X-55369048Y8159143D02*
X-55273810Y8111524D01*
X-55273810Y8111524D02*
X-55226191Y8063905D01*
X-55226191Y8063905D02*
X-55178572Y7968667D01*
X-55178572Y7968667D02*
X-55178572Y7587715D01*
X-54702381Y9111524D02*
X-54702381Y8540096D01*
X-54702381Y8825810D02*
X-55702381Y8825810D01*
X-55702381Y8825810D02*
X-55559524Y8730572D01*
X-55559524Y8730572D02*
X-55464286Y8635334D01*
X-55464286Y8635334D02*
X-55416667Y8540096D01*
X-55702381Y9730572D02*
X-55702381Y9825810D01*
X-55702381Y9825810D02*
X-55654762Y9921048D01*
X-55654762Y9921048D02*
X-55607143Y9968667D01*
X-55607143Y9968667D02*
X-55511905Y10016286D01*
X-55511905Y10016286D02*
X-55321429Y10063905D01*
X-55321429Y10063905D02*
X-55083334Y10063905D01*
X-55083334Y10063905D02*
X-54892858Y10016286D01*
X-54892858Y10016286D02*
X-54797620Y9968667D01*
X-54797620Y9968667D02*
X-54750000Y9921048D01*
X-54750000Y9921048D02*
X-54702381Y9825810D01*
X-54702381Y9825810D02*
X-54702381Y9730572D01*
X-54702381Y9730572D02*
X-54750000Y9635334D01*
X-54750000Y9635334D02*
X-54797620Y9587715D01*
X-54797620Y9587715D02*
X-54892858Y9540096D01*
X-54892858Y9540096D02*
X-55083334Y9492477D01*
X-55083334Y9492477D02*
X-55321429Y9492477D01*
X-55321429Y9492477D02*
X-55511905Y9540096D01*
X-55511905Y9540096D02*
X-55607143Y9587715D01*
X-55607143Y9587715D02*
X-55654762Y9635334D01*
X-55654762Y9635334D02*
X-55702381Y9730572D01*
G04 #@! TO.C,R6*
X-19216667Y-12654619D02*
X-19550000Y-12178428D01*
X-19788095Y-12654619D02*
X-19788095Y-11654619D01*
X-19788095Y-11654619D02*
X-19407143Y-11654619D01*
X-19407143Y-11654619D02*
X-19311905Y-11702238D01*
X-19311905Y-11702238D02*
X-19264286Y-11749857D01*
X-19264286Y-11749857D02*
X-19216667Y-11845095D01*
X-19216667Y-11845095D02*
X-19216667Y-11987952D01*
X-19216667Y-11987952D02*
X-19264286Y-12083190D01*
X-19264286Y-12083190D02*
X-19311905Y-12130809D01*
X-19311905Y-12130809D02*
X-19407143Y-12178428D01*
X-19407143Y-12178428D02*
X-19788095Y-12178428D01*
X-18359524Y-11654619D02*
X-18550000Y-11654619D01*
X-18550000Y-11654619D02*
X-18645238Y-11702238D01*
X-18645238Y-11702238D02*
X-18692857Y-11749857D01*
X-18692857Y-11749857D02*
X-18788095Y-11892714D01*
X-18788095Y-11892714D02*
X-18835714Y-12083190D01*
X-18835714Y-12083190D02*
X-18835714Y-12464142D01*
X-18835714Y-12464142D02*
X-18788095Y-12559380D01*
X-18788095Y-12559380D02*
X-18740476Y-12607000D01*
X-18740476Y-12607000D02*
X-18645238Y-12654619D01*
X-18645238Y-12654619D02*
X-18454762Y-12654619D01*
X-18454762Y-12654619D02*
X-18359524Y-12607000D01*
X-18359524Y-12607000D02*
X-18311905Y-12559380D01*
X-18311905Y-12559380D02*
X-18264286Y-12464142D01*
X-18264286Y-12464142D02*
X-18264286Y-12226047D01*
X-18264286Y-12226047D02*
X-18311905Y-12130809D01*
X-18311905Y-12130809D02*
X-18359524Y-12083190D01*
X-18359524Y-12083190D02*
X-18454762Y-12035571D01*
X-18454762Y-12035571D02*
X-18645238Y-12035571D01*
X-18645238Y-12035571D02*
X-18740476Y-12083190D01*
X-18740476Y-12083190D02*
X-18788095Y-12130809D01*
X-18788095Y-12130809D02*
X-18835714Y-12226047D01*
G04 #@! TO.C,C1*
X-46796220Y28827834D02*
X-46748600Y28780215D01*
X-46748600Y28780215D02*
X-46700981Y28637358D01*
X-46700981Y28637358D02*
X-46700981Y28542120D01*
X-46700981Y28542120D02*
X-46748600Y28399263D01*
X-46748600Y28399263D02*
X-46843839Y28304025D01*
X-46843839Y28304025D02*
X-46939077Y28256406D01*
X-46939077Y28256406D02*
X-47129553Y28208787D01*
X-47129553Y28208787D02*
X-47272410Y28208787D01*
X-47272410Y28208787D02*
X-47462886Y28256406D01*
X-47462886Y28256406D02*
X-47558124Y28304025D01*
X-47558124Y28304025D02*
X-47653362Y28399263D01*
X-47653362Y28399263D02*
X-47700981Y28542120D01*
X-47700981Y28542120D02*
X-47700981Y28637358D01*
X-47700981Y28637358D02*
X-47653362Y28780215D01*
X-47653362Y28780215D02*
X-47605743Y28827834D01*
X-46700981Y29780215D02*
X-46700981Y29208787D01*
X-46700981Y29494501D02*
X-47700981Y29494501D01*
X-47700981Y29494501D02*
X-47558124Y29399263D01*
X-47558124Y29399263D02*
X-47462886Y29304025D01*
X-47462886Y29304025D02*
X-47415267Y29208787D01*
G04 #@! TO.C,R5*
X-63463467Y351381D02*
X-63796800Y827572D01*
X-64034895Y351381D02*
X-64034895Y1351381D01*
X-64034895Y1351381D02*
X-63653943Y1351381D01*
X-63653943Y1351381D02*
X-63558705Y1303762D01*
X-63558705Y1303762D02*
X-63511086Y1256143D01*
X-63511086Y1256143D02*
X-63463467Y1160905D01*
X-63463467Y1160905D02*
X-63463467Y1018048D01*
X-63463467Y1018048D02*
X-63511086Y922810D01*
X-63511086Y922810D02*
X-63558705Y875191D01*
X-63558705Y875191D02*
X-63653943Y827572D01*
X-63653943Y827572D02*
X-64034895Y827572D01*
X-62558705Y1351381D02*
X-63034895Y1351381D01*
X-63034895Y1351381D02*
X-63082514Y875191D01*
X-63082514Y875191D02*
X-63034895Y922810D01*
X-63034895Y922810D02*
X-62939657Y970429D01*
X-62939657Y970429D02*
X-62701562Y970429D01*
X-62701562Y970429D02*
X-62606324Y922810D01*
X-62606324Y922810D02*
X-62558705Y875191D01*
X-62558705Y875191D02*
X-62511086Y779953D01*
X-62511086Y779953D02*
X-62511086Y541858D01*
X-62511086Y541858D02*
X-62558705Y446620D01*
X-62558705Y446620D02*
X-62606324Y399000D01*
X-62606324Y399000D02*
X-62701562Y351381D01*
X-62701562Y351381D02*
X-62939657Y351381D01*
X-62939657Y351381D02*
X-63034895Y399000D01*
X-63034895Y399000D02*
X-63082514Y446620D01*
G04 #@! TO.C,JP7*
X-30890381Y-9723333D02*
X-30176096Y-9723333D01*
X-30176096Y-9723333D02*
X-30033239Y-9770952D01*
X-30033239Y-9770952D02*
X-29938000Y-9866190D01*
X-29938000Y-9866190D02*
X-29890381Y-10009047D01*
X-29890381Y-10009047D02*
X-29890381Y-10104285D01*
X-29890381Y-9247142D02*
X-30890381Y-9247142D01*
X-30890381Y-9247142D02*
X-30890381Y-8866190D01*
X-30890381Y-8866190D02*
X-30842762Y-8770952D01*
X-30842762Y-8770952D02*
X-30795143Y-8723333D01*
X-30795143Y-8723333D02*
X-30699905Y-8675714D01*
X-30699905Y-8675714D02*
X-30557048Y-8675714D01*
X-30557048Y-8675714D02*
X-30461810Y-8723333D01*
X-30461810Y-8723333D02*
X-30414191Y-8770952D01*
X-30414191Y-8770952D02*
X-30366572Y-8866190D01*
X-30366572Y-8866190D02*
X-30366572Y-9247142D01*
X-30890381Y-8342380D02*
X-30890381Y-7675714D01*
X-30890381Y-7675714D02*
X-29890381Y-8104285D01*
G04 #@! TO.C,R29*
X-15857458Y17418981D02*
X-16190791Y17895172D01*
X-16428886Y17418981D02*
X-16428886Y18418981D01*
X-16428886Y18418981D02*
X-16047934Y18418981D01*
X-16047934Y18418981D02*
X-15952696Y18371362D01*
X-15952696Y18371362D02*
X-15905077Y18323743D01*
X-15905077Y18323743D02*
X-15857458Y18228505D01*
X-15857458Y18228505D02*
X-15857458Y18085648D01*
X-15857458Y18085648D02*
X-15905077Y17990410D01*
X-15905077Y17990410D02*
X-15952696Y17942791D01*
X-15952696Y17942791D02*
X-16047934Y17895172D01*
X-16047934Y17895172D02*
X-16428886Y17895172D01*
X-15476505Y18323743D02*
X-15428886Y18371362D01*
X-15428886Y18371362D02*
X-15333648Y18418981D01*
X-15333648Y18418981D02*
X-15095553Y18418981D01*
X-15095553Y18418981D02*
X-15000315Y18371362D01*
X-15000315Y18371362D02*
X-14952696Y18323743D01*
X-14952696Y18323743D02*
X-14905077Y18228505D01*
X-14905077Y18228505D02*
X-14905077Y18133267D01*
X-14905077Y18133267D02*
X-14952696Y17990410D01*
X-14952696Y17990410D02*
X-15524124Y17418981D01*
X-15524124Y17418981D02*
X-14905077Y17418981D01*
X-14428886Y17418981D02*
X-14238410Y17418981D01*
X-14238410Y17418981D02*
X-14143172Y17466600D01*
X-14143172Y17466600D02*
X-14095553Y17514220D01*
X-14095553Y17514220D02*
X-14000315Y17657077D01*
X-14000315Y17657077D02*
X-13952696Y17847553D01*
X-13952696Y17847553D02*
X-13952696Y18228505D01*
X-13952696Y18228505D02*
X-14000315Y18323743D01*
X-14000315Y18323743D02*
X-14047934Y18371362D01*
X-14047934Y18371362D02*
X-14143172Y18418981D01*
X-14143172Y18418981D02*
X-14333648Y18418981D01*
X-14333648Y18418981D02*
X-14428886Y18371362D01*
X-14428886Y18371362D02*
X-14476505Y18323743D01*
X-14476505Y18323743D02*
X-14524124Y18228505D01*
X-14524124Y18228505D02*
X-14524124Y17990410D01*
X-14524124Y17990410D02*
X-14476505Y17895172D01*
X-14476505Y17895172D02*
X-14428886Y17847553D01*
X-14428886Y17847553D02*
X-14333648Y17799934D01*
X-14333648Y17799934D02*
X-14143172Y17799934D01*
X-14143172Y17799934D02*
X-14047934Y17847553D01*
X-14047934Y17847553D02*
X-14000315Y17895172D01*
X-14000315Y17895172D02*
X-13952696Y17990410D01*
G04 #@! TO.C,J8*
X-38433334Y6677381D02*
X-38433334Y5963096D01*
X-38433334Y5963096D02*
X-38480953Y5820239D01*
X-38480953Y5820239D02*
X-38576191Y5725000D01*
X-38576191Y5725000D02*
X-38719048Y5677381D01*
X-38719048Y5677381D02*
X-38814286Y5677381D01*
X-37814286Y6248810D02*
X-37909524Y6296429D01*
X-37909524Y6296429D02*
X-37957143Y6344048D01*
X-37957143Y6344048D02*
X-38004762Y6439286D01*
X-38004762Y6439286D02*
X-38004762Y6486905D01*
X-38004762Y6486905D02*
X-37957143Y6582143D01*
X-37957143Y6582143D02*
X-37909524Y6629762D01*
X-37909524Y6629762D02*
X-37814286Y6677381D01*
X-37814286Y6677381D02*
X-37623810Y6677381D01*
X-37623810Y6677381D02*
X-37528572Y6629762D01*
X-37528572Y6629762D02*
X-37480953Y6582143D01*
X-37480953Y6582143D02*
X-37433334Y6486905D01*
X-37433334Y6486905D02*
X-37433334Y6439286D01*
X-37433334Y6439286D02*
X-37480953Y6344048D01*
X-37480953Y6344048D02*
X-37528572Y6296429D01*
X-37528572Y6296429D02*
X-37623810Y6248810D01*
X-37623810Y6248810D02*
X-37814286Y6248810D01*
X-37814286Y6248810D02*
X-37909524Y6201191D01*
X-37909524Y6201191D02*
X-37957143Y6153572D01*
X-37957143Y6153572D02*
X-38004762Y6058334D01*
X-38004762Y6058334D02*
X-38004762Y5867858D01*
X-38004762Y5867858D02*
X-37957143Y5772620D01*
X-37957143Y5772620D02*
X-37909524Y5725000D01*
X-37909524Y5725000D02*
X-37814286Y5677381D01*
X-37814286Y5677381D02*
X-37623810Y5677381D01*
X-37623810Y5677381D02*
X-37528572Y5725000D01*
X-37528572Y5725000D02*
X-37480953Y5772620D01*
X-37480953Y5772620D02*
X-37433334Y5867858D01*
X-37433334Y5867858D02*
X-37433334Y6058334D01*
X-37433334Y6058334D02*
X-37480953Y6153572D01*
X-37480953Y6153572D02*
X-37528572Y6201191D01*
X-37528572Y6201191D02*
X-37623810Y6248810D01*
G04 #@! TO.C,R8*
X-59274381Y9117334D02*
X-59750572Y8784001D01*
X-59274381Y8545906D02*
X-60274381Y8545906D01*
X-60274381Y8545906D02*
X-60274381Y8926858D01*
X-60274381Y8926858D02*
X-60226762Y9022096D01*
X-60226762Y9022096D02*
X-60179143Y9069715D01*
X-60179143Y9069715D02*
X-60083905Y9117334D01*
X-60083905Y9117334D02*
X-59941048Y9117334D01*
X-59941048Y9117334D02*
X-59845810Y9069715D01*
X-59845810Y9069715D02*
X-59798191Y9022096D01*
X-59798191Y9022096D02*
X-59750572Y8926858D01*
X-59750572Y8926858D02*
X-59750572Y8545906D01*
X-59845810Y9688763D02*
X-59893429Y9593525D01*
X-59893429Y9593525D02*
X-59941048Y9545906D01*
X-59941048Y9545906D02*
X-60036286Y9498287D01*
X-60036286Y9498287D02*
X-60083905Y9498287D01*
X-60083905Y9498287D02*
X-60179143Y9545906D01*
X-60179143Y9545906D02*
X-60226762Y9593525D01*
X-60226762Y9593525D02*
X-60274381Y9688763D01*
X-60274381Y9688763D02*
X-60274381Y9879239D01*
X-60274381Y9879239D02*
X-60226762Y9974477D01*
X-60226762Y9974477D02*
X-60179143Y10022096D01*
X-60179143Y10022096D02*
X-60083905Y10069715D01*
X-60083905Y10069715D02*
X-60036286Y10069715D01*
X-60036286Y10069715D02*
X-59941048Y10022096D01*
X-59941048Y10022096D02*
X-59893429Y9974477D01*
X-59893429Y9974477D02*
X-59845810Y9879239D01*
X-59845810Y9879239D02*
X-59845810Y9688763D01*
X-59845810Y9688763D02*
X-59798191Y9593525D01*
X-59798191Y9593525D02*
X-59750572Y9545906D01*
X-59750572Y9545906D02*
X-59655334Y9498287D01*
X-59655334Y9498287D02*
X-59464858Y9498287D01*
X-59464858Y9498287D02*
X-59369620Y9545906D01*
X-59369620Y9545906D02*
X-59322000Y9593525D01*
X-59322000Y9593525D02*
X-59274381Y9688763D01*
X-59274381Y9688763D02*
X-59274381Y9879239D01*
X-59274381Y9879239D02*
X-59322000Y9974477D01*
X-59322000Y9974477D02*
X-59369620Y10022096D01*
X-59369620Y10022096D02*
X-59464858Y10069715D01*
X-59464858Y10069715D02*
X-59655334Y10069715D01*
X-59655334Y10069715D02*
X-59750572Y10022096D01*
X-59750572Y10022096D02*
X-59798191Y9974477D01*
X-59798191Y9974477D02*
X-59845810Y9879239D01*
G04 #@! TO.C,J4*
X-22939334Y-2764619D02*
X-22939334Y-3478904D01*
X-22939334Y-3478904D02*
X-22986953Y-3621761D01*
X-22986953Y-3621761D02*
X-23082191Y-3717000D01*
X-23082191Y-3717000D02*
X-23225048Y-3764619D01*
X-23225048Y-3764619D02*
X-23320286Y-3764619D01*
X-22034572Y-3097952D02*
X-22034572Y-3764619D01*
X-22272667Y-2717000D02*
X-22510762Y-3431285D01*
X-22510762Y-3431285D02*
X-21891715Y-3431285D01*
G04 #@! TO.C,J6*
X-57530334Y14927381D02*
X-57530334Y14213096D01*
X-57530334Y14213096D02*
X-57577953Y14070239D01*
X-57577953Y14070239D02*
X-57673191Y13975000D01*
X-57673191Y13975000D02*
X-57816048Y13927381D01*
X-57816048Y13927381D02*
X-57911286Y13927381D01*
X-56625572Y14927381D02*
X-56816048Y14927381D01*
X-56816048Y14927381D02*
X-56911286Y14879762D01*
X-56911286Y14879762D02*
X-56958905Y14832143D01*
X-56958905Y14832143D02*
X-57054143Y14689286D01*
X-57054143Y14689286D02*
X-57101762Y14498810D01*
X-57101762Y14498810D02*
X-57101762Y14117858D01*
X-57101762Y14117858D02*
X-57054143Y14022620D01*
X-57054143Y14022620D02*
X-57006524Y13975000D01*
X-57006524Y13975000D02*
X-56911286Y13927381D01*
X-56911286Y13927381D02*
X-56720810Y13927381D01*
X-56720810Y13927381D02*
X-56625572Y13975000D01*
X-56625572Y13975000D02*
X-56577953Y14022620D01*
X-56577953Y14022620D02*
X-56530334Y14117858D01*
X-56530334Y14117858D02*
X-56530334Y14355953D01*
X-56530334Y14355953D02*
X-56577953Y14451191D01*
X-56577953Y14451191D02*
X-56625572Y14498810D01*
X-56625572Y14498810D02*
X-56720810Y14546429D01*
X-56720810Y14546429D02*
X-56911286Y14546429D01*
X-56911286Y14546429D02*
X-57006524Y14498810D01*
X-57006524Y14498810D02*
X-57054143Y14451191D01*
X-57054143Y14451191D02*
X-57101762Y14355953D01*
G04 #@! TO.C,R17*
X-43150358Y-12360619D02*
X-43483691Y-11884428D01*
X-43721786Y-12360619D02*
X-43721786Y-11360619D01*
X-43721786Y-11360619D02*
X-43340834Y-11360619D01*
X-43340834Y-11360619D02*
X-43245596Y-11408238D01*
X-43245596Y-11408238D02*
X-43197977Y-11455857D01*
X-43197977Y-11455857D02*
X-43150358Y-11551095D01*
X-43150358Y-11551095D02*
X-43150358Y-11693952D01*
X-43150358Y-11693952D02*
X-43197977Y-11789190D01*
X-43197977Y-11789190D02*
X-43245596Y-11836809D01*
X-43245596Y-11836809D02*
X-43340834Y-11884428D01*
X-43340834Y-11884428D02*
X-43721786Y-11884428D01*
X-42197977Y-12360619D02*
X-42769405Y-12360619D01*
X-42483691Y-12360619D02*
X-42483691Y-11360619D01*
X-42483691Y-11360619D02*
X-42578929Y-11503476D01*
X-42578929Y-11503476D02*
X-42674167Y-11598714D01*
X-42674167Y-11598714D02*
X-42769405Y-11646333D01*
X-41864643Y-11360619D02*
X-41197977Y-11360619D01*
X-41197977Y-11360619D02*
X-41626548Y-12360619D01*
G04 #@! TO.C,R18*
X-33916858Y-27680619D02*
X-34250191Y-27204428D01*
X-34488286Y-27680619D02*
X-34488286Y-26680619D01*
X-34488286Y-26680619D02*
X-34107334Y-26680619D01*
X-34107334Y-26680619D02*
X-34012096Y-26728238D01*
X-34012096Y-26728238D02*
X-33964477Y-26775857D01*
X-33964477Y-26775857D02*
X-33916858Y-26871095D01*
X-33916858Y-26871095D02*
X-33916858Y-27013952D01*
X-33916858Y-27013952D02*
X-33964477Y-27109190D01*
X-33964477Y-27109190D02*
X-34012096Y-27156809D01*
X-34012096Y-27156809D02*
X-34107334Y-27204428D01*
X-34107334Y-27204428D02*
X-34488286Y-27204428D01*
X-32964477Y-27680619D02*
X-33535905Y-27680619D01*
X-33250191Y-27680619D02*
X-33250191Y-26680619D01*
X-33250191Y-26680619D02*
X-33345429Y-26823476D01*
X-33345429Y-26823476D02*
X-33440667Y-26918714D01*
X-33440667Y-26918714D02*
X-33535905Y-26966333D01*
X-32393048Y-27109190D02*
X-32488286Y-27061571D01*
X-32488286Y-27061571D02*
X-32535905Y-27013952D01*
X-32535905Y-27013952D02*
X-32583524Y-26918714D01*
X-32583524Y-26918714D02*
X-32583524Y-26871095D01*
X-32583524Y-26871095D02*
X-32535905Y-26775857D01*
X-32535905Y-26775857D02*
X-32488286Y-26728238D01*
X-32488286Y-26728238D02*
X-32393048Y-26680619D01*
X-32393048Y-26680619D02*
X-32202572Y-26680619D01*
X-32202572Y-26680619D02*
X-32107334Y-26728238D01*
X-32107334Y-26728238D02*
X-32059715Y-26775857D01*
X-32059715Y-26775857D02*
X-32012096Y-26871095D01*
X-32012096Y-26871095D02*
X-32012096Y-26918714D01*
X-32012096Y-26918714D02*
X-32059715Y-27013952D01*
X-32059715Y-27013952D02*
X-32107334Y-27061571D01*
X-32107334Y-27061571D02*
X-32202572Y-27109190D01*
X-32202572Y-27109190D02*
X-32393048Y-27109190D01*
X-32393048Y-27109190D02*
X-32488286Y-27156809D01*
X-32488286Y-27156809D02*
X-32535905Y-27204428D01*
X-32535905Y-27204428D02*
X-32583524Y-27299666D01*
X-32583524Y-27299666D02*
X-32583524Y-27490142D01*
X-32583524Y-27490142D02*
X-32535905Y-27585380D01*
X-32535905Y-27585380D02*
X-32488286Y-27633000D01*
X-32488286Y-27633000D02*
X-32393048Y-27680619D01*
X-32393048Y-27680619D02*
X-32202572Y-27680619D01*
X-32202572Y-27680619D02*
X-32107334Y-27633000D01*
X-32107334Y-27633000D02*
X-32059715Y-27585380D01*
X-32059715Y-27585380D02*
X-32012096Y-27490142D01*
X-32012096Y-27490142D02*
X-32012096Y-27299666D01*
X-32012096Y-27299666D02*
X-32059715Y-27204428D01*
X-32059715Y-27204428D02*
X-32107334Y-27156809D01*
X-32107334Y-27156809D02*
X-32202572Y-27109190D01*
G04 #@! TO.C,R3*
X-18327667Y4617381D02*
X-18661000Y5093572D01*
X-18899095Y4617381D02*
X-18899095Y5617381D01*
X-18899095Y5617381D02*
X-18518143Y5617381D01*
X-18518143Y5617381D02*
X-18422905Y5569762D01*
X-18422905Y5569762D02*
X-18375286Y5522143D01*
X-18375286Y5522143D02*
X-18327667Y5426905D01*
X-18327667Y5426905D02*
X-18327667Y5284048D01*
X-18327667Y5284048D02*
X-18375286Y5188810D01*
X-18375286Y5188810D02*
X-18422905Y5141191D01*
X-18422905Y5141191D02*
X-18518143Y5093572D01*
X-18518143Y5093572D02*
X-18899095Y5093572D01*
X-17994333Y5617381D02*
X-17375286Y5617381D01*
X-17375286Y5617381D02*
X-17708619Y5236429D01*
X-17708619Y5236429D02*
X-17565762Y5236429D01*
X-17565762Y5236429D02*
X-17470524Y5188810D01*
X-17470524Y5188810D02*
X-17422905Y5141191D01*
X-17422905Y5141191D02*
X-17375286Y5045953D01*
X-17375286Y5045953D02*
X-17375286Y4807858D01*
X-17375286Y4807858D02*
X-17422905Y4712620D01*
X-17422905Y4712620D02*
X-17470524Y4665000D01*
X-17470524Y4665000D02*
X-17565762Y4617381D01*
X-17565762Y4617381D02*
X-17851476Y4617381D01*
X-17851476Y4617381D02*
X-17946714Y4665000D01*
X-17946714Y4665000D02*
X-17994333Y4712620D01*
G04 #@! TO.C,R15*
X-25280858Y-15702619D02*
X-25614191Y-15226428D01*
X-25852286Y-15702619D02*
X-25852286Y-14702619D01*
X-25852286Y-14702619D02*
X-25471334Y-14702619D01*
X-25471334Y-14702619D02*
X-25376096Y-14750238D01*
X-25376096Y-14750238D02*
X-25328477Y-14797857D01*
X-25328477Y-14797857D02*
X-25280858Y-14893095D01*
X-25280858Y-14893095D02*
X-25280858Y-15035952D01*
X-25280858Y-15035952D02*
X-25328477Y-15131190D01*
X-25328477Y-15131190D02*
X-25376096Y-15178809D01*
X-25376096Y-15178809D02*
X-25471334Y-15226428D01*
X-25471334Y-15226428D02*
X-25852286Y-15226428D01*
X-24328477Y-15702619D02*
X-24899905Y-15702619D01*
X-24614191Y-15702619D02*
X-24614191Y-14702619D01*
X-24614191Y-14702619D02*
X-24709429Y-14845476D01*
X-24709429Y-14845476D02*
X-24804667Y-14940714D01*
X-24804667Y-14940714D02*
X-24899905Y-14988333D01*
X-23423715Y-14702619D02*
X-23899905Y-14702619D01*
X-23899905Y-14702619D02*
X-23947524Y-15178809D01*
X-23947524Y-15178809D02*
X-23899905Y-15131190D01*
X-23899905Y-15131190D02*
X-23804667Y-15083571D01*
X-23804667Y-15083571D02*
X-23566572Y-15083571D01*
X-23566572Y-15083571D02*
X-23471334Y-15131190D01*
X-23471334Y-15131190D02*
X-23423715Y-15178809D01*
X-23423715Y-15178809D02*
X-23376096Y-15274047D01*
X-23376096Y-15274047D02*
X-23376096Y-15512142D01*
X-23376096Y-15512142D02*
X-23423715Y-15607380D01*
X-23423715Y-15607380D02*
X-23471334Y-15655000D01*
X-23471334Y-15655000D02*
X-23566572Y-15702619D01*
X-23566572Y-15702619D02*
X-23804667Y-15702619D01*
X-23804667Y-15702619D02*
X-23899905Y-15655000D01*
X-23899905Y-15655000D02*
X-23947524Y-15607380D01*
G04 #@! TO.C,R19*
X-33916858Y-22600619D02*
X-34250191Y-22124428D01*
X-34488286Y-22600619D02*
X-34488286Y-21600619D01*
X-34488286Y-21600619D02*
X-34107334Y-21600619D01*
X-34107334Y-21600619D02*
X-34012096Y-21648238D01*
X-34012096Y-21648238D02*
X-33964477Y-21695857D01*
X-33964477Y-21695857D02*
X-33916858Y-21791095D01*
X-33916858Y-21791095D02*
X-33916858Y-21933952D01*
X-33916858Y-21933952D02*
X-33964477Y-22029190D01*
X-33964477Y-22029190D02*
X-34012096Y-22076809D01*
X-34012096Y-22076809D02*
X-34107334Y-22124428D01*
X-34107334Y-22124428D02*
X-34488286Y-22124428D01*
X-32964477Y-22600619D02*
X-33535905Y-22600619D01*
X-33250191Y-22600619D02*
X-33250191Y-21600619D01*
X-33250191Y-21600619D02*
X-33345429Y-21743476D01*
X-33345429Y-21743476D02*
X-33440667Y-21838714D01*
X-33440667Y-21838714D02*
X-33535905Y-21886333D01*
X-32488286Y-22600619D02*
X-32297810Y-22600619D01*
X-32297810Y-22600619D02*
X-32202572Y-22553000D01*
X-32202572Y-22553000D02*
X-32154953Y-22505380D01*
X-32154953Y-22505380D02*
X-32059715Y-22362523D01*
X-32059715Y-22362523D02*
X-32012096Y-22172047D01*
X-32012096Y-22172047D02*
X-32012096Y-21791095D01*
X-32012096Y-21791095D02*
X-32059715Y-21695857D01*
X-32059715Y-21695857D02*
X-32107334Y-21648238D01*
X-32107334Y-21648238D02*
X-32202572Y-21600619D01*
X-32202572Y-21600619D02*
X-32393048Y-21600619D01*
X-32393048Y-21600619D02*
X-32488286Y-21648238D01*
X-32488286Y-21648238D02*
X-32535905Y-21695857D01*
X-32535905Y-21695857D02*
X-32583524Y-21791095D01*
X-32583524Y-21791095D02*
X-32583524Y-22029190D01*
X-32583524Y-22029190D02*
X-32535905Y-22124428D01*
X-32535905Y-22124428D02*
X-32488286Y-22172047D01*
X-32488286Y-22172047D02*
X-32393048Y-22219666D01*
X-32393048Y-22219666D02*
X-32202572Y-22219666D01*
X-32202572Y-22219666D02*
X-32107334Y-22172047D01*
X-32107334Y-22172047D02*
X-32059715Y-22124428D01*
X-32059715Y-22124428D02*
X-32012096Y-22029190D01*
G04 #@! TO.C,R14*
X-29471858Y-15789619D02*
X-29805191Y-15313428D01*
X-30043286Y-15789619D02*
X-30043286Y-14789619D01*
X-30043286Y-14789619D02*
X-29662334Y-14789619D01*
X-29662334Y-14789619D02*
X-29567096Y-14837238D01*
X-29567096Y-14837238D02*
X-29519477Y-14884857D01*
X-29519477Y-14884857D02*
X-29471858Y-14980095D01*
X-29471858Y-14980095D02*
X-29471858Y-15122952D01*
X-29471858Y-15122952D02*
X-29519477Y-15218190D01*
X-29519477Y-15218190D02*
X-29567096Y-15265809D01*
X-29567096Y-15265809D02*
X-29662334Y-15313428D01*
X-29662334Y-15313428D02*
X-30043286Y-15313428D01*
X-28519477Y-15789619D02*
X-29090905Y-15789619D01*
X-28805191Y-15789619D02*
X-28805191Y-14789619D01*
X-28805191Y-14789619D02*
X-28900429Y-14932476D01*
X-28900429Y-14932476D02*
X-28995667Y-15027714D01*
X-28995667Y-15027714D02*
X-29090905Y-15075333D01*
X-27662334Y-15122952D02*
X-27662334Y-15789619D01*
X-27900429Y-14742000D02*
X-28138524Y-15456285D01*
X-28138524Y-15456285D02*
X-27519477Y-15456285D01*
G04 #@! TO.C,R22*
X-55862458Y4769781D02*
X-56195791Y5245972D01*
X-56433886Y4769781D02*
X-56433886Y5769781D01*
X-56433886Y5769781D02*
X-56052934Y5769781D01*
X-56052934Y5769781D02*
X-55957696Y5722162D01*
X-55957696Y5722162D02*
X-55910077Y5674543D01*
X-55910077Y5674543D02*
X-55862458Y5579305D01*
X-55862458Y5579305D02*
X-55862458Y5436448D01*
X-55862458Y5436448D02*
X-55910077Y5341210D01*
X-55910077Y5341210D02*
X-55957696Y5293591D01*
X-55957696Y5293591D02*
X-56052934Y5245972D01*
X-56052934Y5245972D02*
X-56433886Y5245972D01*
X-55481505Y5674543D02*
X-55433886Y5722162D01*
X-55433886Y5722162D02*
X-55338648Y5769781D01*
X-55338648Y5769781D02*
X-55100553Y5769781D01*
X-55100553Y5769781D02*
X-55005315Y5722162D01*
X-55005315Y5722162D02*
X-54957696Y5674543D01*
X-54957696Y5674543D02*
X-54910077Y5579305D01*
X-54910077Y5579305D02*
X-54910077Y5484067D01*
X-54910077Y5484067D02*
X-54957696Y5341210D01*
X-54957696Y5341210D02*
X-55529124Y4769781D01*
X-55529124Y4769781D02*
X-54910077Y4769781D01*
X-54529124Y5674543D02*
X-54481505Y5722162D01*
X-54481505Y5722162D02*
X-54386267Y5769781D01*
X-54386267Y5769781D02*
X-54148172Y5769781D01*
X-54148172Y5769781D02*
X-54052934Y5722162D01*
X-54052934Y5722162D02*
X-54005315Y5674543D01*
X-54005315Y5674543D02*
X-53957696Y5579305D01*
X-53957696Y5579305D02*
X-53957696Y5484067D01*
X-53957696Y5484067D02*
X-54005315Y5341210D01*
X-54005315Y5341210D02*
X-54576743Y4769781D01*
X-54576743Y4769781D02*
X-53957696Y4769781D01*
G04 #@! TO.C,J5*
X-42343500Y-29089428D02*
X-42343500Y-27946571D01*
X-41772072Y-28517999D02*
X-42914929Y-28517999D01*
X-42343500Y-16089428D02*
X-42343500Y-14946571D01*
G04 #@! TO.C,R21*
X-61044058Y4922181D02*
X-61377391Y5398372D01*
X-61615486Y4922181D02*
X-61615486Y5922181D01*
X-61615486Y5922181D02*
X-61234534Y5922181D01*
X-61234534Y5922181D02*
X-61139296Y5874562D01*
X-61139296Y5874562D02*
X-61091677Y5826943D01*
X-61091677Y5826943D02*
X-61044058Y5731705D01*
X-61044058Y5731705D02*
X-61044058Y5588848D01*
X-61044058Y5588848D02*
X-61091677Y5493610D01*
X-61091677Y5493610D02*
X-61139296Y5445991D01*
X-61139296Y5445991D02*
X-61234534Y5398372D01*
X-61234534Y5398372D02*
X-61615486Y5398372D01*
X-60663105Y5826943D02*
X-60615486Y5874562D01*
X-60615486Y5874562D02*
X-60520248Y5922181D01*
X-60520248Y5922181D02*
X-60282153Y5922181D01*
X-60282153Y5922181D02*
X-60186915Y5874562D01*
X-60186915Y5874562D02*
X-60139296Y5826943D01*
X-60139296Y5826943D02*
X-60091677Y5731705D01*
X-60091677Y5731705D02*
X-60091677Y5636467D01*
X-60091677Y5636467D02*
X-60139296Y5493610D01*
X-60139296Y5493610D02*
X-60710724Y4922181D01*
X-60710724Y4922181D02*
X-60091677Y4922181D01*
X-59139296Y4922181D02*
X-59710724Y4922181D01*
X-59425010Y4922181D02*
X-59425010Y5922181D01*
X-59425010Y5922181D02*
X-59520248Y5779324D01*
X-59520248Y5779324D02*
X-59615486Y5684086D01*
X-59615486Y5684086D02*
X-59710724Y5636467D01*
G04 #@! TO.C,R9*
X-56988381Y9143334D02*
X-57464572Y8810001D01*
X-56988381Y8571906D02*
X-57988381Y8571906D01*
X-57988381Y8571906D02*
X-57988381Y8952858D01*
X-57988381Y8952858D02*
X-57940762Y9048096D01*
X-57940762Y9048096D02*
X-57893143Y9095715D01*
X-57893143Y9095715D02*
X-57797905Y9143334D01*
X-57797905Y9143334D02*
X-57655048Y9143334D01*
X-57655048Y9143334D02*
X-57559810Y9095715D01*
X-57559810Y9095715D02*
X-57512191Y9048096D01*
X-57512191Y9048096D02*
X-57464572Y8952858D01*
X-57464572Y8952858D02*
X-57464572Y8571906D01*
X-56988381Y9619525D02*
X-56988381Y9810001D01*
X-56988381Y9810001D02*
X-57036000Y9905239D01*
X-57036000Y9905239D02*
X-57083620Y9952858D01*
X-57083620Y9952858D02*
X-57226477Y10048096D01*
X-57226477Y10048096D02*
X-57416953Y10095715D01*
X-57416953Y10095715D02*
X-57797905Y10095715D01*
X-57797905Y10095715D02*
X-57893143Y10048096D01*
X-57893143Y10048096D02*
X-57940762Y10000477D01*
X-57940762Y10000477D02*
X-57988381Y9905239D01*
X-57988381Y9905239D02*
X-57988381Y9714763D01*
X-57988381Y9714763D02*
X-57940762Y9619525D01*
X-57940762Y9619525D02*
X-57893143Y9571906D01*
X-57893143Y9571906D02*
X-57797905Y9524287D01*
X-57797905Y9524287D02*
X-57559810Y9524287D01*
X-57559810Y9524287D02*
X-57464572Y9571906D01*
X-57464572Y9571906D02*
X-57416953Y9619525D01*
X-57416953Y9619525D02*
X-57369334Y9714763D01*
X-57369334Y9714763D02*
X-57369334Y9905239D01*
X-57369334Y9905239D02*
X-57416953Y10000477D01*
X-57416953Y10000477D02*
X-57464572Y10048096D01*
X-57464572Y10048096D02*
X-57559810Y10095715D01*
G04 #@! TO.C,C2*
X-43096220Y18844834D02*
X-43048600Y18797215D01*
X-43048600Y18797215D02*
X-43000981Y18654358D01*
X-43000981Y18654358D02*
X-43000981Y18559120D01*
X-43000981Y18559120D02*
X-43048600Y18416263D01*
X-43048600Y18416263D02*
X-43143839Y18321025D01*
X-43143839Y18321025D02*
X-43239077Y18273406D01*
X-43239077Y18273406D02*
X-43429553Y18225787D01*
X-43429553Y18225787D02*
X-43572410Y18225787D01*
X-43572410Y18225787D02*
X-43762886Y18273406D01*
X-43762886Y18273406D02*
X-43858124Y18321025D01*
X-43858124Y18321025D02*
X-43953362Y18416263D01*
X-43953362Y18416263D02*
X-44000981Y18559120D01*
X-44000981Y18559120D02*
X-44000981Y18654358D01*
X-44000981Y18654358D02*
X-43953362Y18797215D01*
X-43953362Y18797215D02*
X-43905743Y18844834D01*
X-43905743Y19225787D02*
X-43953362Y19273406D01*
X-43953362Y19273406D02*
X-44000981Y19368644D01*
X-44000981Y19368644D02*
X-44000981Y19606739D01*
X-44000981Y19606739D02*
X-43953362Y19701977D01*
X-43953362Y19701977D02*
X-43905743Y19749596D01*
X-43905743Y19749596D02*
X-43810505Y19797215D01*
X-43810505Y19797215D02*
X-43715267Y19797215D01*
X-43715267Y19797215D02*
X-43572410Y19749596D01*
X-43572410Y19749596D02*
X-43000981Y19178168D01*
X-43000981Y19178168D02*
X-43000981Y19797215D01*
G04 #@! TO.C,R30*
X-7538381Y24604743D02*
X-8014572Y24271410D01*
X-7538381Y24033315D02*
X-8538381Y24033315D01*
X-8538381Y24033315D02*
X-8538381Y24414267D01*
X-8538381Y24414267D02*
X-8490762Y24509505D01*
X-8490762Y24509505D02*
X-8443143Y24557124D01*
X-8443143Y24557124D02*
X-8347905Y24604743D01*
X-8347905Y24604743D02*
X-8205048Y24604743D01*
X-8205048Y24604743D02*
X-8109810Y24557124D01*
X-8109810Y24557124D02*
X-8062191Y24509505D01*
X-8062191Y24509505D02*
X-8014572Y24414267D01*
X-8014572Y24414267D02*
X-8014572Y24033315D01*
X-8538381Y24938077D02*
X-8538381Y25557124D01*
X-8538381Y25557124D02*
X-8157429Y25223791D01*
X-8157429Y25223791D02*
X-8157429Y25366648D01*
X-8157429Y25366648D02*
X-8109810Y25461886D01*
X-8109810Y25461886D02*
X-8062191Y25509505D01*
X-8062191Y25509505D02*
X-7966953Y25557124D01*
X-7966953Y25557124D02*
X-7728858Y25557124D01*
X-7728858Y25557124D02*
X-7633620Y25509505D01*
X-7633620Y25509505D02*
X-7586000Y25461886D01*
X-7586000Y25461886D02*
X-7538381Y25366648D01*
X-7538381Y25366648D02*
X-7538381Y25080934D01*
X-7538381Y25080934D02*
X-7586000Y24985696D01*
X-7586000Y24985696D02*
X-7633620Y24938077D01*
X-8538381Y26176172D02*
X-8538381Y26271410D01*
X-8538381Y26271410D02*
X-8490762Y26366648D01*
X-8490762Y26366648D02*
X-8443143Y26414267D01*
X-8443143Y26414267D02*
X-8347905Y26461886D01*
X-8347905Y26461886D02*
X-8157429Y26509505D01*
X-8157429Y26509505D02*
X-7919334Y26509505D01*
X-7919334Y26509505D02*
X-7728858Y26461886D01*
X-7728858Y26461886D02*
X-7633620Y26414267D01*
X-7633620Y26414267D02*
X-7586000Y26366648D01*
X-7586000Y26366648D02*
X-7538381Y26271410D01*
X-7538381Y26271410D02*
X-7538381Y26176172D01*
X-7538381Y26176172D02*
X-7586000Y26080934D01*
X-7586000Y26080934D02*
X-7633620Y26033315D01*
X-7633620Y26033315D02*
X-7728858Y25985696D01*
X-7728858Y25985696D02*
X-7919334Y25938077D01*
X-7919334Y25938077D02*
X-8157429Y25938077D01*
X-8157429Y25938077D02*
X-8347905Y25985696D01*
X-8347905Y25985696D02*
X-8443143Y26033315D01*
X-8443143Y26033315D02*
X-8490762Y26080934D01*
X-8490762Y26080934D02*
X-8538381Y26176172D01*
G04 #@! TO.C,R25*
X-15882858Y15132981D02*
X-16216191Y15609172D01*
X-16454286Y15132981D02*
X-16454286Y16132981D01*
X-16454286Y16132981D02*
X-16073334Y16132981D01*
X-16073334Y16132981D02*
X-15978096Y16085362D01*
X-15978096Y16085362D02*
X-15930477Y16037743D01*
X-15930477Y16037743D02*
X-15882858Y15942505D01*
X-15882858Y15942505D02*
X-15882858Y15799648D01*
X-15882858Y15799648D02*
X-15930477Y15704410D01*
X-15930477Y15704410D02*
X-15978096Y15656791D01*
X-15978096Y15656791D02*
X-16073334Y15609172D01*
X-16073334Y15609172D02*
X-16454286Y15609172D01*
X-15501905Y16037743D02*
X-15454286Y16085362D01*
X-15454286Y16085362D02*
X-15359048Y16132981D01*
X-15359048Y16132981D02*
X-15120953Y16132981D01*
X-15120953Y16132981D02*
X-15025715Y16085362D01*
X-15025715Y16085362D02*
X-14978096Y16037743D01*
X-14978096Y16037743D02*
X-14930477Y15942505D01*
X-14930477Y15942505D02*
X-14930477Y15847267D01*
X-14930477Y15847267D02*
X-14978096Y15704410D01*
X-14978096Y15704410D02*
X-15549524Y15132981D01*
X-15549524Y15132981D02*
X-14930477Y15132981D01*
X-14025715Y16132981D02*
X-14501905Y16132981D01*
X-14501905Y16132981D02*
X-14549524Y15656791D01*
X-14549524Y15656791D02*
X-14501905Y15704410D01*
X-14501905Y15704410D02*
X-14406667Y15752029D01*
X-14406667Y15752029D02*
X-14168572Y15752029D01*
X-14168572Y15752029D02*
X-14073334Y15704410D01*
X-14073334Y15704410D02*
X-14025715Y15656791D01*
X-14025715Y15656791D02*
X-13978096Y15561553D01*
X-13978096Y15561553D02*
X-13978096Y15323458D01*
X-13978096Y15323458D02*
X-14025715Y15228220D01*
X-14025715Y15228220D02*
X-14073334Y15180600D01*
X-14073334Y15180600D02*
X-14168572Y15132981D01*
X-14168572Y15132981D02*
X-14406667Y15132981D01*
X-14406667Y15132981D02*
X-14501905Y15180600D01*
X-14501905Y15180600D02*
X-14549524Y15228220D01*
G04 #@! TO.C,R23*
X-15832058Y10179981D02*
X-16165391Y10656172D01*
X-16403486Y10179981D02*
X-16403486Y11179981D01*
X-16403486Y11179981D02*
X-16022534Y11179981D01*
X-16022534Y11179981D02*
X-15927296Y11132362D01*
X-15927296Y11132362D02*
X-15879677Y11084743D01*
X-15879677Y11084743D02*
X-15832058Y10989505D01*
X-15832058Y10989505D02*
X-15832058Y10846648D01*
X-15832058Y10846648D02*
X-15879677Y10751410D01*
X-15879677Y10751410D02*
X-15927296Y10703791D01*
X-15927296Y10703791D02*
X-16022534Y10656172D01*
X-16022534Y10656172D02*
X-16403486Y10656172D01*
X-15451105Y11084743D02*
X-15403486Y11132362D01*
X-15403486Y11132362D02*
X-15308248Y11179981D01*
X-15308248Y11179981D02*
X-15070153Y11179981D01*
X-15070153Y11179981D02*
X-14974915Y11132362D01*
X-14974915Y11132362D02*
X-14927296Y11084743D01*
X-14927296Y11084743D02*
X-14879677Y10989505D01*
X-14879677Y10989505D02*
X-14879677Y10894267D01*
X-14879677Y10894267D02*
X-14927296Y10751410D01*
X-14927296Y10751410D02*
X-15498724Y10179981D01*
X-15498724Y10179981D02*
X-14879677Y10179981D01*
X-14546343Y11179981D02*
X-13927296Y11179981D01*
X-13927296Y11179981D02*
X-14260629Y10799029D01*
X-14260629Y10799029D02*
X-14117772Y10799029D01*
X-14117772Y10799029D02*
X-14022534Y10751410D01*
X-14022534Y10751410D02*
X-13974915Y10703791D01*
X-13974915Y10703791D02*
X-13927296Y10608553D01*
X-13927296Y10608553D02*
X-13927296Y10370458D01*
X-13927296Y10370458D02*
X-13974915Y10275220D01*
X-13974915Y10275220D02*
X-14022534Y10227600D01*
X-14022534Y10227600D02*
X-14117772Y10179981D01*
X-14117772Y10179981D02*
X-14403486Y10179981D01*
X-14403486Y10179981D02*
X-14498724Y10227600D01*
X-14498724Y10227600D02*
X-14546343Y10275220D01*
G04 #@! TO.C,D1*
X-11595363Y-21107875D02*
X-12323136Y-20422057D01*
X-12323136Y-20422057D02*
X-12159846Y-20248778D01*
X-12159846Y-20248778D02*
X-12027216Y-20177468D01*
X-12027216Y-20177468D02*
X-11892588Y-20173473D01*
X-11892588Y-20173473D02*
X-11790618Y-20204133D01*
X-11790618Y-20204133D02*
X-11619337Y-20300109D01*
X-11619337Y-20300109D02*
X-11515369Y-20398083D01*
X-11515369Y-20398083D02*
X-11409404Y-20563371D01*
X-11409404Y-20563371D02*
X-11372750Y-20663343D01*
X-11372750Y-20663343D02*
X-11368755Y-20797971D01*
X-11368755Y-20797971D02*
X-11432073Y-20934596D01*
X-11432073Y-20934596D02*
X-11595363Y-21107875D01*
X-10550306Y-19998888D02*
X-10942203Y-20414758D01*
X-10746254Y-20206823D02*
X-11474027Y-19521005D01*
X-11474027Y-19521005D02*
X-11435376Y-19688291D01*
X-11435376Y-19688291D02*
X-11431380Y-19822919D01*
X-11431380Y-19822919D02*
X-11462040Y-19924888D01*
G04 #@! TO.C,R2*
X-5264568Y-5302378D02*
X-5180579Y-4727214D01*
X-5680438Y-4910482D02*
X-4994620Y-4182709D01*
X-4994620Y-4182709D02*
X-4717373Y-4443973D01*
X-4717373Y-4443973D02*
X-4680720Y-4543945D01*
X-4680720Y-4543945D02*
X-4678722Y-4611259D01*
X-4678722Y-4611259D02*
X-4709382Y-4713229D01*
X-4709382Y-4713229D02*
X-4807356Y-4817196D01*
X-4807356Y-4817196D02*
X-4907328Y-4853850D01*
X-4907328Y-4853850D02*
X-4974642Y-4855848D01*
X-4974642Y-4855848D02*
X-5076611Y-4825188D01*
X-5076611Y-4825188D02*
X-5353858Y-4563924D01*
X-4366819Y-4905181D02*
X-4299505Y-4903184D01*
X-4299505Y-4903184D02*
X-4197536Y-4933844D01*
X-4197536Y-4933844D02*
X-4024256Y-5097134D01*
X-4024256Y-5097134D02*
X-3987603Y-5197106D01*
X-3987603Y-5197106D02*
X-3985605Y-5264420D01*
X-3985605Y-5264420D02*
X-4016265Y-5366389D01*
X-4016265Y-5366389D02*
X-4081581Y-5435701D01*
X-4081581Y-5435701D02*
X-4214211Y-5507010D01*
X-4214211Y-5507010D02*
X-5021977Y-5530984D01*
X-5021977Y-5530984D02*
X-4571451Y-5955539D01*
G04 #@! TO.C,R27*
X-15857458Y12516781D02*
X-16190791Y12992972D01*
X-16428886Y12516781D02*
X-16428886Y13516781D01*
X-16428886Y13516781D02*
X-16047934Y13516781D01*
X-16047934Y13516781D02*
X-15952696Y13469162D01*
X-15952696Y13469162D02*
X-15905077Y13421543D01*
X-15905077Y13421543D02*
X-15857458Y13326305D01*
X-15857458Y13326305D02*
X-15857458Y13183448D01*
X-15857458Y13183448D02*
X-15905077Y13088210D01*
X-15905077Y13088210D02*
X-15952696Y13040591D01*
X-15952696Y13040591D02*
X-16047934Y12992972D01*
X-16047934Y12992972D02*
X-16428886Y12992972D01*
X-15476505Y13421543D02*
X-15428886Y13469162D01*
X-15428886Y13469162D02*
X-15333648Y13516781D01*
X-15333648Y13516781D02*
X-15095553Y13516781D01*
X-15095553Y13516781D02*
X-15000315Y13469162D01*
X-15000315Y13469162D02*
X-14952696Y13421543D01*
X-14952696Y13421543D02*
X-14905077Y13326305D01*
X-14905077Y13326305D02*
X-14905077Y13231067D01*
X-14905077Y13231067D02*
X-14952696Y13088210D01*
X-14952696Y13088210D02*
X-15524124Y12516781D01*
X-15524124Y12516781D02*
X-14905077Y12516781D01*
X-14571743Y13516781D02*
X-13905077Y13516781D01*
X-13905077Y13516781D02*
X-14333648Y12516781D01*
G04 #@! TO.C,JP6*
X-23905381Y-9723333D02*
X-23191096Y-9723333D01*
X-23191096Y-9723333D02*
X-23048239Y-9770952D01*
X-23048239Y-9770952D02*
X-22953000Y-9866190D01*
X-22953000Y-9866190D02*
X-22905381Y-10009047D01*
X-22905381Y-10009047D02*
X-22905381Y-10104285D01*
X-22905381Y-9247142D02*
X-23905381Y-9247142D01*
X-23905381Y-9247142D02*
X-23905381Y-8866190D01*
X-23905381Y-8866190D02*
X-23857762Y-8770952D01*
X-23857762Y-8770952D02*
X-23810143Y-8723333D01*
X-23810143Y-8723333D02*
X-23714905Y-8675714D01*
X-23714905Y-8675714D02*
X-23572048Y-8675714D01*
X-23572048Y-8675714D02*
X-23476810Y-8723333D01*
X-23476810Y-8723333D02*
X-23429191Y-8770952D01*
X-23429191Y-8770952D02*
X-23381572Y-8866190D01*
X-23381572Y-8866190D02*
X-23381572Y-9247142D01*
X-23905381Y-7818571D02*
X-23905381Y-8009047D01*
X-23905381Y-8009047D02*
X-23857762Y-8104285D01*
X-23857762Y-8104285D02*
X-23810143Y-8151904D01*
X-23810143Y-8151904D02*
X-23667286Y-8247142D01*
X-23667286Y-8247142D02*
X-23476810Y-8294761D01*
X-23476810Y-8294761D02*
X-23095858Y-8294761D01*
X-23095858Y-8294761D02*
X-23000620Y-8247142D01*
X-23000620Y-8247142D02*
X-22953000Y-8199523D01*
X-22953000Y-8199523D02*
X-22905381Y-8104285D01*
X-22905381Y-8104285D02*
X-22905381Y-7913809D01*
X-22905381Y-7913809D02*
X-22953000Y-7818571D01*
X-22953000Y-7818571D02*
X-23000620Y-7770952D01*
X-23000620Y-7770952D02*
X-23095858Y-7723333D01*
X-23095858Y-7723333D02*
X-23333953Y-7723333D01*
X-23333953Y-7723333D02*
X-23429191Y-7770952D01*
X-23429191Y-7770952D02*
X-23476810Y-7818571D01*
X-23476810Y-7818571D02*
X-23524429Y-7913809D01*
X-23524429Y-7913809D02*
X-23524429Y-8104285D01*
X-23524429Y-8104285D02*
X-23476810Y-8199523D01*
X-23476810Y-8199523D02*
X-23429191Y-8247142D01*
X-23429191Y-8247142D02*
X-23333953Y-8294761D01*
G04 #@! TO.C,R24*
X-11881781Y24604743D02*
X-12357972Y24271410D01*
X-11881781Y24033315D02*
X-12881781Y24033315D01*
X-12881781Y24033315D02*
X-12881781Y24414267D01*
X-12881781Y24414267D02*
X-12834162Y24509505D01*
X-12834162Y24509505D02*
X-12786543Y24557124D01*
X-12786543Y24557124D02*
X-12691305Y24604743D01*
X-12691305Y24604743D02*
X-12548448Y24604743D01*
X-12548448Y24604743D02*
X-12453210Y24557124D01*
X-12453210Y24557124D02*
X-12405591Y24509505D01*
X-12405591Y24509505D02*
X-12357972Y24414267D01*
X-12357972Y24414267D02*
X-12357972Y24033315D01*
X-12786543Y24985696D02*
X-12834162Y25033315D01*
X-12834162Y25033315D02*
X-12881781Y25128553D01*
X-12881781Y25128553D02*
X-12881781Y25366648D01*
X-12881781Y25366648D02*
X-12834162Y25461886D01*
X-12834162Y25461886D02*
X-12786543Y25509505D01*
X-12786543Y25509505D02*
X-12691305Y25557124D01*
X-12691305Y25557124D02*
X-12596067Y25557124D01*
X-12596067Y25557124D02*
X-12453210Y25509505D01*
X-12453210Y25509505D02*
X-11881781Y24938077D01*
X-11881781Y24938077D02*
X-11881781Y25557124D01*
X-12548448Y26414267D02*
X-11881781Y26414267D01*
X-12929400Y26176172D02*
X-12215115Y25938077D01*
X-12215115Y25938077D02*
X-12215115Y26557124D01*
G04 #@! TO.C,R20*
X-47844381Y8159143D02*
X-48320572Y7825810D01*
X-47844381Y7587715D02*
X-48844381Y7587715D01*
X-48844381Y7587715D02*
X-48844381Y7968667D01*
X-48844381Y7968667D02*
X-48796762Y8063905D01*
X-48796762Y8063905D02*
X-48749143Y8111524D01*
X-48749143Y8111524D02*
X-48653905Y8159143D01*
X-48653905Y8159143D02*
X-48511048Y8159143D01*
X-48511048Y8159143D02*
X-48415810Y8111524D01*
X-48415810Y8111524D02*
X-48368191Y8063905D01*
X-48368191Y8063905D02*
X-48320572Y7968667D01*
X-48320572Y7968667D02*
X-48320572Y7587715D01*
X-48749143Y8540096D02*
X-48796762Y8587715D01*
X-48796762Y8587715D02*
X-48844381Y8682953D01*
X-48844381Y8682953D02*
X-48844381Y8921048D01*
X-48844381Y8921048D02*
X-48796762Y9016286D01*
X-48796762Y9016286D02*
X-48749143Y9063905D01*
X-48749143Y9063905D02*
X-48653905Y9111524D01*
X-48653905Y9111524D02*
X-48558667Y9111524D01*
X-48558667Y9111524D02*
X-48415810Y9063905D01*
X-48415810Y9063905D02*
X-47844381Y8492477D01*
X-47844381Y8492477D02*
X-47844381Y9111524D01*
X-48844381Y9730572D02*
X-48844381Y9825810D01*
X-48844381Y9825810D02*
X-48796762Y9921048D01*
X-48796762Y9921048D02*
X-48749143Y9968667D01*
X-48749143Y9968667D02*
X-48653905Y10016286D01*
X-48653905Y10016286D02*
X-48463429Y10063905D01*
X-48463429Y10063905D02*
X-48225334Y10063905D01*
X-48225334Y10063905D02*
X-48034858Y10016286D01*
X-48034858Y10016286D02*
X-47939620Y9968667D01*
X-47939620Y9968667D02*
X-47892000Y9921048D01*
X-47892000Y9921048D02*
X-47844381Y9825810D01*
X-47844381Y9825810D02*
X-47844381Y9730572D01*
X-47844381Y9730572D02*
X-47892000Y9635334D01*
X-47892000Y9635334D02*
X-47939620Y9587715D01*
X-47939620Y9587715D02*
X-48034858Y9540096D01*
X-48034858Y9540096D02*
X-48225334Y9492477D01*
X-48225334Y9492477D02*
X-48463429Y9492477D01*
X-48463429Y9492477D02*
X-48653905Y9540096D01*
X-48653905Y9540096D02*
X-48749143Y9587715D01*
X-48749143Y9587715D02*
X-48796762Y9635334D01*
X-48796762Y9635334D02*
X-48844381Y9730572D01*
G04 #@! TO.C,R16*
X-41118358Y-5502619D02*
X-41451691Y-5026428D01*
X-41689786Y-5502619D02*
X-41689786Y-4502619D01*
X-41689786Y-4502619D02*
X-41308834Y-4502619D01*
X-41308834Y-4502619D02*
X-41213596Y-4550238D01*
X-41213596Y-4550238D02*
X-41165977Y-4597857D01*
X-41165977Y-4597857D02*
X-41118358Y-4693095D01*
X-41118358Y-4693095D02*
X-41118358Y-4835952D01*
X-41118358Y-4835952D02*
X-41165977Y-4931190D01*
X-41165977Y-4931190D02*
X-41213596Y-4978809D01*
X-41213596Y-4978809D02*
X-41308834Y-5026428D01*
X-41308834Y-5026428D02*
X-41689786Y-5026428D01*
X-40165977Y-5502619D02*
X-40737405Y-5502619D01*
X-40451691Y-5502619D02*
X-40451691Y-4502619D01*
X-40451691Y-4502619D02*
X-40546929Y-4645476D01*
X-40546929Y-4645476D02*
X-40642167Y-4740714D01*
X-40642167Y-4740714D02*
X-40737405Y-4788333D01*
X-39308834Y-4502619D02*
X-39499310Y-4502619D01*
X-39499310Y-4502619D02*
X-39594548Y-4550238D01*
X-39594548Y-4550238D02*
X-39642167Y-4597857D01*
X-39642167Y-4597857D02*
X-39737405Y-4740714D01*
X-39737405Y-4740714D02*
X-39785024Y-4931190D01*
X-39785024Y-4931190D02*
X-39785024Y-5312142D01*
X-39785024Y-5312142D02*
X-39737405Y-5407380D01*
X-39737405Y-5407380D02*
X-39689786Y-5455000D01*
X-39689786Y-5455000D02*
X-39594548Y-5502619D01*
X-39594548Y-5502619D02*
X-39404072Y-5502619D01*
X-39404072Y-5502619D02*
X-39308834Y-5455000D01*
X-39308834Y-5455000D02*
X-39261215Y-5407380D01*
X-39261215Y-5407380D02*
X-39213596Y-5312142D01*
X-39213596Y-5312142D02*
X-39213596Y-5074047D01*
X-39213596Y-5074047D02*
X-39261215Y-4978809D01*
X-39261215Y-4978809D02*
X-39308834Y-4931190D01*
X-39308834Y-4931190D02*
X-39404072Y-4883571D01*
X-39404072Y-4883571D02*
X-39594548Y-4883571D01*
X-39594548Y-4883571D02*
X-39689786Y-4931190D01*
X-39689786Y-4931190D02*
X-39737405Y-4978809D01*
X-39737405Y-4978809D02*
X-39785024Y-5074047D01*
G04 #@! TO.C,R26*
X-9036981Y24604743D02*
X-9513172Y24271410D01*
X-9036981Y24033315D02*
X-10036981Y24033315D01*
X-10036981Y24033315D02*
X-10036981Y24414267D01*
X-10036981Y24414267D02*
X-9989362Y24509505D01*
X-9989362Y24509505D02*
X-9941743Y24557124D01*
X-9941743Y24557124D02*
X-9846505Y24604743D01*
X-9846505Y24604743D02*
X-9703648Y24604743D01*
X-9703648Y24604743D02*
X-9608410Y24557124D01*
X-9608410Y24557124D02*
X-9560791Y24509505D01*
X-9560791Y24509505D02*
X-9513172Y24414267D01*
X-9513172Y24414267D02*
X-9513172Y24033315D01*
X-9941743Y24985696D02*
X-9989362Y25033315D01*
X-9989362Y25033315D02*
X-10036981Y25128553D01*
X-10036981Y25128553D02*
X-10036981Y25366648D01*
X-10036981Y25366648D02*
X-9989362Y25461886D01*
X-9989362Y25461886D02*
X-9941743Y25509505D01*
X-9941743Y25509505D02*
X-9846505Y25557124D01*
X-9846505Y25557124D02*
X-9751267Y25557124D01*
X-9751267Y25557124D02*
X-9608410Y25509505D01*
X-9608410Y25509505D02*
X-9036981Y24938077D01*
X-9036981Y24938077D02*
X-9036981Y25557124D01*
X-10036981Y26414267D02*
X-10036981Y26223791D01*
X-10036981Y26223791D02*
X-9989362Y26128553D01*
X-9989362Y26128553D02*
X-9941743Y26080934D01*
X-9941743Y26080934D02*
X-9798886Y25985696D01*
X-9798886Y25985696D02*
X-9608410Y25938077D01*
X-9608410Y25938077D02*
X-9227458Y25938077D01*
X-9227458Y25938077D02*
X-9132220Y25985696D01*
X-9132220Y25985696D02*
X-9084600Y26033315D01*
X-9084600Y26033315D02*
X-9036981Y26128553D01*
X-9036981Y26128553D02*
X-9036981Y26319029D01*
X-9036981Y26319029D02*
X-9084600Y26414267D01*
X-9084600Y26414267D02*
X-9132220Y26461886D01*
X-9132220Y26461886D02*
X-9227458Y26509505D01*
X-9227458Y26509505D02*
X-9465553Y26509505D01*
X-9465553Y26509505D02*
X-9560791Y26461886D01*
X-9560791Y26461886D02*
X-9608410Y26414267D01*
X-9608410Y26414267D02*
X-9656029Y26319029D01*
X-9656029Y26319029D02*
X-9656029Y26128553D01*
X-9656029Y26128553D02*
X-9608410Y26033315D01*
X-9608410Y26033315D02*
X-9560791Y25985696D01*
X-9560791Y25985696D02*
X-9465553Y25938077D01*
G04 #@! TO.C,R12*
X-50130381Y8159143D02*
X-50606572Y7825810D01*
X-50130381Y7587715D02*
X-51130381Y7587715D01*
X-51130381Y7587715D02*
X-51130381Y7968667D01*
X-51130381Y7968667D02*
X-51082762Y8063905D01*
X-51082762Y8063905D02*
X-51035143Y8111524D01*
X-51035143Y8111524D02*
X-50939905Y8159143D01*
X-50939905Y8159143D02*
X-50797048Y8159143D01*
X-50797048Y8159143D02*
X-50701810Y8111524D01*
X-50701810Y8111524D02*
X-50654191Y8063905D01*
X-50654191Y8063905D02*
X-50606572Y7968667D01*
X-50606572Y7968667D02*
X-50606572Y7587715D01*
X-50130381Y9111524D02*
X-50130381Y8540096D01*
X-50130381Y8825810D02*
X-51130381Y8825810D01*
X-51130381Y8825810D02*
X-50987524Y8730572D01*
X-50987524Y8730572D02*
X-50892286Y8635334D01*
X-50892286Y8635334D02*
X-50844667Y8540096D01*
X-51035143Y9492477D02*
X-51082762Y9540096D01*
X-51082762Y9540096D02*
X-51130381Y9635334D01*
X-51130381Y9635334D02*
X-51130381Y9873429D01*
X-51130381Y9873429D02*
X-51082762Y9968667D01*
X-51082762Y9968667D02*
X-51035143Y10016286D01*
X-51035143Y10016286D02*
X-50939905Y10063905D01*
X-50939905Y10063905D02*
X-50844667Y10063905D01*
X-50844667Y10063905D02*
X-50701810Y10016286D01*
X-50701810Y10016286D02*
X-50130381Y9444858D01*
X-50130381Y9444858D02*
X-50130381Y10063905D01*
G04 #@! TO.C,Q1*
X-10738901Y-7173277D02*
X-10775555Y-7073305D01*
X-10775555Y-7073305D02*
X-10779550Y-6938677D01*
X-10779550Y-6938677D02*
X-10785544Y-6736736D01*
X-10785544Y-6736736D02*
X-10822197Y-6636764D01*
X-10822197Y-6636764D02*
X-10891509Y-6571448D01*
X-11020143Y-6777385D02*
X-11056797Y-6677413D01*
X-11056797Y-6677413D02*
X-11060793Y-6542785D01*
X-11060793Y-6542785D02*
X-10964816Y-6371504D01*
X-10964816Y-6371504D02*
X-10736210Y-6128913D01*
X-10736210Y-6128913D02*
X-10570922Y-6022948D01*
X-10570922Y-6022948D02*
X-10436295Y-6018952D01*
X-10436295Y-6018952D02*
X-10334325Y-6049612D01*
X-10334325Y-6049612D02*
X-10195702Y-6180244D01*
X-10195702Y-6180244D02*
X-10159048Y-6280216D01*
X-10159048Y-6280216D02*
X-10155052Y-6414844D01*
X-10155052Y-6414844D02*
X-10251028Y-6586125D01*
X-10251028Y-6586125D02*
X-10479635Y-6828716D01*
X-10479635Y-6828716D02*
X-10644922Y-6934681D01*
X-10644922Y-6934681D02*
X-10779550Y-6938677D01*
X-10779550Y-6938677D02*
X-10881520Y-6908017D01*
X-10881520Y-6908017D02*
X-11020143Y-6777385D01*
X-10015124Y-7724467D02*
X-10430994Y-7332571D01*
X-10223059Y-7528519D02*
X-9537241Y-6800746D01*
X-9537241Y-6800746D02*
X-9704526Y-6839398D01*
X-9704526Y-6839398D02*
X-9839154Y-6843394D01*
X-9839154Y-6843394D02*
X-9941124Y-6812733D01*
G04 #@! TO.C,C3*
X-46927420Y-11901466D02*
X-46879800Y-11949085D01*
X-46879800Y-11949085D02*
X-46832181Y-12091942D01*
X-46832181Y-12091942D02*
X-46832181Y-12187180D01*
X-46832181Y-12187180D02*
X-46879800Y-12330037D01*
X-46879800Y-12330037D02*
X-46975039Y-12425275D01*
X-46975039Y-12425275D02*
X-47070277Y-12472894D01*
X-47070277Y-12472894D02*
X-47260753Y-12520513D01*
X-47260753Y-12520513D02*
X-47403610Y-12520513D01*
X-47403610Y-12520513D02*
X-47594086Y-12472894D01*
X-47594086Y-12472894D02*
X-47689324Y-12425275D01*
X-47689324Y-12425275D02*
X-47784562Y-12330037D01*
X-47784562Y-12330037D02*
X-47832181Y-12187180D01*
X-47832181Y-12187180D02*
X-47832181Y-12091942D01*
X-47832181Y-12091942D02*
X-47784562Y-11949085D01*
X-47784562Y-11949085D02*
X-47736943Y-11901466D01*
X-47832181Y-11568132D02*
X-47832181Y-10949085D01*
X-47832181Y-10949085D02*
X-47451229Y-11282418D01*
X-47451229Y-11282418D02*
X-47451229Y-11139561D01*
X-47451229Y-11139561D02*
X-47403610Y-11044323D01*
X-47403610Y-11044323D02*
X-47355991Y-10996704D01*
X-47355991Y-10996704D02*
X-47260753Y-10949085D01*
X-47260753Y-10949085D02*
X-47022658Y-10949085D01*
X-47022658Y-10949085D02*
X-46927420Y-10996704D01*
X-46927420Y-10996704D02*
X-46879800Y-11044323D01*
X-46879800Y-11044323D02*
X-46832181Y-11139561D01*
X-46832181Y-11139561D02*
X-46832181Y-11425275D01*
X-46832181Y-11425275D02*
X-46879800Y-11520513D01*
X-46879800Y-11520513D02*
X-46927420Y-11568132D01*
G04 #@! TO.C,R13*
X-41066381Y-15360857D02*
X-41542572Y-15694190D01*
X-41066381Y-15932285D02*
X-42066381Y-15932285D01*
X-42066381Y-15932285D02*
X-42066381Y-15551333D01*
X-42066381Y-15551333D02*
X-42018762Y-15456095D01*
X-42018762Y-15456095D02*
X-41971143Y-15408476D01*
X-41971143Y-15408476D02*
X-41875905Y-15360857D01*
X-41875905Y-15360857D02*
X-41733048Y-15360857D01*
X-41733048Y-15360857D02*
X-41637810Y-15408476D01*
X-41637810Y-15408476D02*
X-41590191Y-15456095D01*
X-41590191Y-15456095D02*
X-41542572Y-15551333D01*
X-41542572Y-15551333D02*
X-41542572Y-15932285D01*
X-41066381Y-14408476D02*
X-41066381Y-14979904D01*
X-41066381Y-14694190D02*
X-42066381Y-14694190D01*
X-42066381Y-14694190D02*
X-41923524Y-14789428D01*
X-41923524Y-14789428D02*
X-41828286Y-14884666D01*
X-41828286Y-14884666D02*
X-41780667Y-14979904D01*
X-42066381Y-14075142D02*
X-42066381Y-13456095D01*
X-42066381Y-13456095D02*
X-41685429Y-13789428D01*
X-41685429Y-13789428D02*
X-41685429Y-13646571D01*
X-41685429Y-13646571D02*
X-41637810Y-13551333D01*
X-41637810Y-13551333D02*
X-41590191Y-13503714D01*
X-41590191Y-13503714D02*
X-41494953Y-13456095D01*
X-41494953Y-13456095D02*
X-41256858Y-13456095D01*
X-41256858Y-13456095D02*
X-41161620Y-13503714D01*
X-41161620Y-13503714D02*
X-41114000Y-13551333D01*
X-41114000Y-13551333D02*
X-41066381Y-13646571D01*
X-41066381Y-13646571D02*
X-41066381Y-13932285D01*
X-41066381Y-13932285D02*
X-41114000Y-14027523D01*
X-41114000Y-14027523D02*
X-41161620Y-14075142D01*
G04 #@! TO.C,R28*
X-10459381Y24604743D02*
X-10935572Y24271410D01*
X-10459381Y24033315D02*
X-11459381Y24033315D01*
X-11459381Y24033315D02*
X-11459381Y24414267D01*
X-11459381Y24414267D02*
X-11411762Y24509505D01*
X-11411762Y24509505D02*
X-11364143Y24557124D01*
X-11364143Y24557124D02*
X-11268905Y24604743D01*
X-11268905Y24604743D02*
X-11126048Y24604743D01*
X-11126048Y24604743D02*
X-11030810Y24557124D01*
X-11030810Y24557124D02*
X-10983191Y24509505D01*
X-10983191Y24509505D02*
X-10935572Y24414267D01*
X-10935572Y24414267D02*
X-10935572Y24033315D01*
X-11364143Y24985696D02*
X-11411762Y25033315D01*
X-11411762Y25033315D02*
X-11459381Y25128553D01*
X-11459381Y25128553D02*
X-11459381Y25366648D01*
X-11459381Y25366648D02*
X-11411762Y25461886D01*
X-11411762Y25461886D02*
X-11364143Y25509505D01*
X-11364143Y25509505D02*
X-11268905Y25557124D01*
X-11268905Y25557124D02*
X-11173667Y25557124D01*
X-11173667Y25557124D02*
X-11030810Y25509505D01*
X-11030810Y25509505D02*
X-10459381Y24938077D01*
X-10459381Y24938077D02*
X-10459381Y25557124D01*
X-11030810Y26128553D02*
X-11078429Y26033315D01*
X-11078429Y26033315D02*
X-11126048Y25985696D01*
X-11126048Y25985696D02*
X-11221286Y25938077D01*
X-11221286Y25938077D02*
X-11268905Y25938077D01*
X-11268905Y25938077D02*
X-11364143Y25985696D01*
X-11364143Y25985696D02*
X-11411762Y26033315D01*
X-11411762Y26033315D02*
X-11459381Y26128553D01*
X-11459381Y26128553D02*
X-11459381Y26319029D01*
X-11459381Y26319029D02*
X-11411762Y26414267D01*
X-11411762Y26414267D02*
X-11364143Y26461886D01*
X-11364143Y26461886D02*
X-11268905Y26509505D01*
X-11268905Y26509505D02*
X-11221286Y26509505D01*
X-11221286Y26509505D02*
X-11126048Y26461886D01*
X-11126048Y26461886D02*
X-11078429Y26414267D01*
X-11078429Y26414267D02*
X-11030810Y26319029D01*
X-11030810Y26319029D02*
X-11030810Y26128553D01*
X-11030810Y26128553D02*
X-10983191Y26033315D01*
X-10983191Y26033315D02*
X-10935572Y25985696D01*
X-10935572Y25985696D02*
X-10840334Y25938077D01*
X-10840334Y25938077D02*
X-10649858Y25938077D01*
X-10649858Y25938077D02*
X-10554620Y25985696D01*
X-10554620Y25985696D02*
X-10507000Y26033315D01*
X-10507000Y26033315D02*
X-10459381Y26128553D01*
X-10459381Y26128553D02*
X-10459381Y26319029D01*
X-10459381Y26319029D02*
X-10507000Y26414267D01*
X-10507000Y26414267D02*
X-10554620Y26461886D01*
X-10554620Y26461886D02*
X-10649858Y26509505D01*
X-10649858Y26509505D02*
X-10840334Y26509505D01*
X-10840334Y26509505D02*
X-10935572Y26461886D01*
X-10935572Y26461886D02*
X-10983191Y26414267D01*
X-10983191Y26414267D02*
X-11030810Y26319029D01*
G04 #@! TO.C,U2*
X-16285381Y1143096D02*
X-15475858Y1143096D01*
X-15475858Y1143096D02*
X-15380620Y1190715D01*
X-15380620Y1190715D02*
X-15333000Y1238334D01*
X-15333000Y1238334D02*
X-15285381Y1333572D01*
X-15285381Y1333572D02*
X-15285381Y1524048D01*
X-15285381Y1524048D02*
X-15333000Y1619286D01*
X-15333000Y1619286D02*
X-15380620Y1666905D01*
X-15380620Y1666905D02*
X-15475858Y1714524D01*
X-15475858Y1714524D02*
X-16285381Y1714524D01*
X-16190143Y2143096D02*
X-16237762Y2190715D01*
X-16237762Y2190715D02*
X-16285381Y2285953D01*
X-16285381Y2285953D02*
X-16285381Y2524048D01*
X-16285381Y2524048D02*
X-16237762Y2619286D01*
X-16237762Y2619286D02*
X-16190143Y2666905D01*
X-16190143Y2666905D02*
X-16094905Y2714524D01*
X-16094905Y2714524D02*
X-15999667Y2714524D01*
X-15999667Y2714524D02*
X-15856810Y2666905D01*
X-15856810Y2666905D02*
X-15285381Y2095477D01*
X-15285381Y2095477D02*
X-15285381Y2714524D01*
G04 #@! TO.C,R1*
X-13896413Y-10315816D02*
X-13812424Y-9740652D01*
X-14312283Y-9923920D02*
X-13626465Y-9196147D01*
X-13626465Y-9196147D02*
X-13349218Y-9457411D01*
X-13349218Y-9457411D02*
X-13312565Y-9557383D01*
X-13312565Y-9557383D02*
X-13310567Y-9624697D01*
X-13310567Y-9624697D02*
X-13341227Y-9726667D01*
X-13341227Y-9726667D02*
X-13439201Y-9830634D01*
X-13439201Y-9830634D02*
X-13539173Y-9867288D01*
X-13539173Y-9867288D02*
X-13606487Y-9869286D01*
X-13606487Y-9869286D02*
X-13708456Y-9838626D01*
X-13708456Y-9838626D02*
X-13985703Y-9577362D01*
X-13203296Y-10968977D02*
X-13619166Y-10577080D01*
X-13411231Y-10773029D02*
X-12725413Y-10045256D01*
X-12725413Y-10045256D02*
X-12892699Y-10083907D01*
X-12892699Y-10083907D02*
X-13027327Y-10087903D01*
X-13027327Y-10087903D02*
X-13129296Y-10057243D01*
G04 #@! TO.C,R4*
X-54706181Y901334D02*
X-55182372Y568001D01*
X-54706181Y329906D02*
X-55706181Y329906D01*
X-55706181Y329906D02*
X-55706181Y710858D01*
X-55706181Y710858D02*
X-55658562Y806096D01*
X-55658562Y806096D02*
X-55610943Y853715D01*
X-55610943Y853715D02*
X-55515705Y901334D01*
X-55515705Y901334D02*
X-55372848Y901334D01*
X-55372848Y901334D02*
X-55277610Y853715D01*
X-55277610Y853715D02*
X-55229991Y806096D01*
X-55229991Y806096D02*
X-55182372Y710858D01*
X-55182372Y710858D02*
X-55182372Y329906D01*
X-55372848Y1758477D02*
X-54706181Y1758477D01*
X-55753800Y1520382D02*
X-55039515Y1282287D01*
X-55039515Y1282287D02*
X-55039515Y1901334D01*
G04 #@! TO.C,Q3*
X-16428501Y-12710477D02*
X-16465155Y-12610505D01*
X-16465155Y-12610505D02*
X-16469150Y-12475877D01*
X-16469150Y-12475877D02*
X-16475144Y-12273936D01*
X-16475144Y-12273936D02*
X-16511797Y-12173964D01*
X-16511797Y-12173964D02*
X-16581109Y-12108648D01*
X-16709743Y-12314585D02*
X-16746397Y-12214613D01*
X-16746397Y-12214613D02*
X-16750393Y-12079985D01*
X-16750393Y-12079985D02*
X-16654416Y-11908704D01*
X-16654416Y-11908704D02*
X-16425810Y-11666113D01*
X-16425810Y-11666113D02*
X-16260522Y-11560148D01*
X-16260522Y-11560148D02*
X-16125895Y-11556152D01*
X-16125895Y-11556152D02*
X-16023925Y-11586812D01*
X-16023925Y-11586812D02*
X-15885302Y-11717444D01*
X-15885302Y-11717444D02*
X-15848648Y-11817416D01*
X-15848648Y-11817416D02*
X-15844652Y-11952044D01*
X-15844652Y-11952044D02*
X-15940628Y-12123325D01*
X-15940628Y-12123325D02*
X-16169235Y-12365916D01*
X-16169235Y-12365916D02*
X-16334522Y-12471881D01*
X-16334522Y-12471881D02*
X-16469150Y-12475877D01*
X-16469150Y-12475877D02*
X-16571120Y-12445217D01*
X-16571120Y-12445217D02*
X-16709743Y-12314585D01*
X-15469431Y-12109340D02*
X-15018905Y-12533895D01*
X-15018905Y-12533895D02*
X-15522760Y-12582535D01*
X-15522760Y-12582535D02*
X-15418793Y-12680509D01*
X-15418793Y-12680509D02*
X-15382139Y-12780481D01*
X-15382139Y-12780481D02*
X-15380141Y-12847795D01*
X-15380141Y-12847795D02*
X-15410802Y-12949765D01*
X-15410802Y-12949765D02*
X-15574092Y-13123044D01*
X-15574092Y-13123044D02*
X-15674064Y-13159698D01*
X-15674064Y-13159698D02*
X-15741377Y-13161695D01*
X-15741377Y-13161695D02*
X-15843347Y-13131035D01*
X-15843347Y-13131035D02*
X-16051282Y-12935087D01*
X-16051282Y-12935087D02*
X-16087936Y-12835115D01*
X-16087936Y-12835115D02*
X-16089934Y-12767801D01*
G04 #@! TO.C,kibuzzard-63EE93FE*
G36*
X-4238493Y1274763D02*
G01*
X-5807736Y1274763D01*
X-6448293Y1274763D01*
X-6944386Y1274763D01*
X-6944386Y2540000D01*
X-6448293Y2540000D01*
X-6438024Y2366020D01*
X-6407216Y2213173D01*
X-6355870Y2081461D01*
X-6283986Y1970881D01*
X-6158045Y1859756D01*
X-5999295Y1793081D01*
X-5807736Y1770856D01*
X-5677661Y1778893D01*
X-5569285Y1801813D01*
X-5214805Y1801813D01*
X-4921911Y1801813D01*
X-4921911Y2451894D01*
X-4531386Y2451894D01*
X-4531386Y1801813D01*
X-4238493Y1801813D01*
X-4238493Y3113881D01*
X-4028943Y3113881D01*
X-3883686Y2909094D01*
X-3733668Y3021013D01*
X-3588411Y3054350D01*
X-3450299Y3005534D01*
X-3395530Y2866231D01*
X-3439583Y2740025D01*
X-3551502Y2611438D01*
X-3621749Y2543274D01*
X-3696758Y2472134D01*
X-3771768Y2396530D01*
X-3842015Y2314972D01*
X-3903927Y2226568D01*
X-3953933Y2130425D01*
X-3986973Y2025650D01*
X-3997986Y1911350D01*
X-3999177Y1861344D01*
X-3993224Y1801813D01*
X-3031199Y1801813D01*
X-3031199Y2044700D01*
X-3664611Y2044700D01*
X-3639608Y2123281D01*
X-3578886Y2207816D01*
X-3502686Y2288778D01*
X-3431249Y2356644D01*
X-3309805Y2475706D01*
X-3202649Y2604294D01*
X-3126449Y2741216D01*
X-3097874Y2887663D01*
X-3135974Y3072209D01*
X-3238368Y3204369D01*
X-3386005Y3282950D01*
X-3559836Y3309144D01*
X-3683959Y3297238D01*
X-3808677Y3261519D01*
X-3926251Y3200797D01*
X-4028943Y3113881D01*
X-4238493Y3113881D01*
X-4238493Y3275806D01*
X-4531386Y3275806D01*
X-4531386Y2694781D01*
X-4921911Y2694781D01*
X-4921911Y3275806D01*
X-5214805Y3275806D01*
X-5214805Y1801813D01*
X-5569285Y1801813D01*
X-5563658Y1803003D01*
X-5395780Y1873250D01*
X-5469599Y2104231D01*
X-5589852Y2051844D01*
X-5779161Y2025650D01*
X-5949123Y2059285D01*
X-6063721Y2160191D01*
X-6112007Y2262981D01*
X-6140979Y2391966D01*
X-6150636Y2547144D01*
X-6142600Y2680494D01*
X-6118490Y2790031D01*
X-6035146Y2946003D01*
X-5918465Y3029347D01*
X-5783924Y3054350D01*
X-5606521Y3029347D01*
X-5474361Y2968625D01*
X-5398161Y3201988D01*
X-5446977Y3230563D01*
X-5526749Y3266281D01*
X-5637477Y3296047D01*
X-5779161Y3309144D01*
X-5918762Y3296345D01*
X-6047052Y3257947D01*
X-6161352Y3194844D01*
X-6258983Y3107928D01*
X-6338458Y2998093D01*
X-6398286Y2866231D01*
X-6435791Y2713236D01*
X-6448293Y2540000D01*
X-6944386Y2540000D01*
X-6944386Y3805238D01*
X-6448293Y3805238D01*
X-3031199Y3805238D01*
X-2535105Y3805238D01*
X-1691614Y2540000D01*
X-2535105Y1274763D01*
X-3031199Y1274763D01*
X-4238493Y1274763D01*
G37*
D11*
G04 #@! TO.C,R11*
X-51969000Y13567064D02*
X-51969000Y12112936D01*
X-53789000Y13567064D02*
X-53789000Y12112936D01*
G04 #@! TO.C,R7*
X-46223600Y23275336D02*
X-46223600Y24729464D01*
X-44403600Y23275336D02*
X-44403600Y24729464D01*
G04 #@! TO.C,kibuzzard-63EE9448*
G36*
X-3468158Y7469981D02*
G01*
X-3801533Y7469981D01*
X-3730096Y7605713D01*
X-3645561Y7742634D01*
X-3556265Y7872413D01*
X-3468158Y7989094D01*
X-3468158Y7469981D01*
G37*
G36*
X-4253971Y6354763D02*
G01*
X-5823215Y6354763D01*
X-6463771Y6354763D01*
X-6959865Y6354763D01*
X-6959865Y7620000D01*
X-6463771Y7620000D01*
X-6453502Y7446020D01*
X-6422694Y7293173D01*
X-6371349Y7161461D01*
X-6299465Y7050881D01*
X-6173523Y6939756D01*
X-6014773Y6873081D01*
X-5823215Y6850856D01*
X-5693139Y6858893D01*
X-5584763Y6881813D01*
X-5230283Y6881813D01*
X-4937390Y6881813D01*
X-4937390Y7531894D01*
X-4546865Y7531894D01*
X-4546865Y6881813D01*
X-4253971Y6881813D01*
X-4253971Y7229475D01*
X-4082521Y7229475D01*
X-3468158Y7229475D01*
X-3468158Y6881813D01*
X-3175265Y6881813D01*
X-3175265Y7229475D01*
X-3015721Y7229475D01*
X-3015721Y7469981D01*
X-3175265Y7469981D01*
X-3175265Y8355806D01*
X-3437202Y8355806D01*
X-3532452Y8254305D01*
X-3627702Y8140303D01*
X-3720571Y8019157D01*
X-3808677Y7896225D01*
X-3890830Y7773888D01*
X-3965840Y7654528D01*
X-4030729Y7542907D01*
X-4082521Y7443788D01*
X-4082521Y7229475D01*
X-4253971Y7229475D01*
X-4253971Y8355806D01*
X-4546865Y8355806D01*
X-4546865Y7774781D01*
X-4937390Y7774781D01*
X-4937390Y8355806D01*
X-5230283Y8355806D01*
X-5230283Y6881813D01*
X-5584763Y6881813D01*
X-5579136Y6883003D01*
X-5411258Y6953250D01*
X-5485077Y7184231D01*
X-5605330Y7131844D01*
X-5794640Y7105650D01*
X-5964601Y7139285D01*
X-6079199Y7240191D01*
X-6127485Y7342981D01*
X-6156457Y7471966D01*
X-6166115Y7627144D01*
X-6158078Y7760494D01*
X-6133968Y7870031D01*
X-6050624Y8026003D01*
X-5933943Y8109347D01*
X-5799402Y8134350D01*
X-5621999Y8109347D01*
X-5489840Y8048625D01*
X-5413640Y8281988D01*
X-5462455Y8310563D01*
X-5542227Y8346281D01*
X-5652955Y8376047D01*
X-5794640Y8389144D01*
X-5934240Y8376345D01*
X-6062530Y8337947D01*
X-6176830Y8274844D01*
X-6274461Y8187928D01*
X-6353936Y8078093D01*
X-6413765Y7946231D01*
X-6451269Y7793236D01*
X-6463771Y7620000D01*
X-6959865Y7620000D01*
X-6959865Y8885238D01*
X-6463771Y8885238D01*
X-3015721Y8885238D01*
X-2519627Y8885238D01*
X-1676135Y7620000D01*
X-2519627Y6354763D01*
X-3015721Y6354763D01*
X-3175265Y6354763D01*
X-4253971Y6354763D01*
G37*
G04 #@! TO.C,J7*
X-41970000Y5140000D02*
X-40640000Y5140000D01*
X-41970000Y3810000D02*
X-41970000Y5140000D01*
X-41970000Y2540000D02*
X-41970000Y-2600000D01*
X-41970000Y2540000D02*
X-39310000Y2540000D01*
X-41970000Y-2600000D02*
X-39310000Y-2600000D01*
X-39310000Y2540000D02*
X-39310000Y-2600000D01*
G04 #@! TO.C,kibuzzard-63F11F4E*
G36*
X-33021587Y-442295D02*
G01*
X-32923956Y-464520D01*
X-32825531Y-489920D01*
X-32719962Y-519289D01*
X-32825531Y-548658D01*
X-32923956Y-574058D01*
X-33021587Y-595489D01*
X-33123187Y-614539D01*
X-33123187Y-422451D01*
X-33021587Y-442295D01*
G37*
G36*
X-33863492Y1363486D02*
G01*
X-33512125Y1363486D01*
X-33512125Y1168224D01*
X-33091437Y1168224D01*
X-33091437Y812624D01*
X-32929512Y812624D01*
X-32929512Y1168224D01*
X-32691387Y1168224D01*
X-32691387Y761824D01*
X-32529462Y761824D01*
X-32529462Y1363486D01*
X-33512125Y1363486D01*
X-33863492Y1363486D01*
X-33863492Y1694215D01*
X-33020000Y2256543D01*
X-32176508Y1694215D01*
X-32176508Y1363486D01*
X-32176508Y-2433814D01*
X-32176508Y-2764543D01*
X-33863492Y-2764543D01*
X-33863492Y-2433814D01*
X-33863492Y-2238551D01*
X-33512125Y-2238551D01*
X-33512125Y-2433814D01*
X-32529462Y-2433814D01*
X-32529462Y-2238551D01*
X-32916812Y-2238551D01*
X-32916812Y-1978201D01*
X-32529462Y-1978201D01*
X-32529462Y-1782939D01*
X-33512125Y-1782939D01*
X-33512125Y-1978201D01*
X-33078737Y-1978201D01*
X-33078737Y-2238551D01*
X-33512125Y-2238551D01*
X-33863492Y-2238551D01*
X-33863492Y-1286051D01*
X-33532762Y-1286051D01*
X-33524384Y-1397441D01*
X-33499249Y-1488193D01*
X-33457356Y-1558308D01*
X-33366273Y-1625578D01*
X-33243837Y-1648001D01*
X-33169820Y-1641255D01*
X-33109694Y-1621014D01*
X-33020794Y-1551958D01*
X-32963644Y-1459883D01*
X-32924750Y-1363839D01*
X-32900937Y-1302720D01*
X-32871569Y-1247158D01*
X-32833469Y-1206676D01*
X-32783462Y-1190801D01*
X-32720844Y-1208088D01*
X-32683274Y-1259946D01*
X-32670750Y-1346376D01*
X-32686625Y-1458295D01*
X-32724725Y-1546401D01*
X-32573912Y-1603551D01*
X-32527875Y-1490045D01*
X-32512397Y-1416822D01*
X-32507237Y-1332089D01*
X-32515881Y-1234810D01*
X-32541810Y-1152525D01*
X-32585025Y-1085233D01*
X-32677894Y-1017962D01*
X-32800925Y-995539D01*
X-32917606Y-1020939D01*
X-32996187Y-1085233D01*
X-33048575Y-1171751D01*
X-33085087Y-1263826D01*
X-33112869Y-1330501D01*
X-33146206Y-1390826D01*
X-33188275Y-1435276D01*
X-33242250Y-1452739D01*
X-33289081Y-1445595D01*
X-33330356Y-1419401D01*
X-33358931Y-1367808D01*
X-33369250Y-1286051D01*
X-33363694Y-1206875D01*
X-33347025Y-1140795D01*
X-33299400Y-1038401D01*
X-33458150Y-981251D01*
X-33506569Y-1090789D01*
X-33526214Y-1176117D01*
X-33532762Y-1286051D01*
X-33863492Y-1286051D01*
X-33863492Y-693914D01*
X-33863492Y-341489D01*
X-33512125Y-341489D01*
X-33285113Y-385939D01*
X-33285113Y-647876D01*
X-33512125Y-693914D01*
X-33512125Y-903464D01*
X-33400714Y-877270D01*
X-33292542Y-850759D01*
X-33187608Y-823930D01*
X-33085913Y-796784D01*
X-32987456Y-769320D01*
X-32868046Y-734742D01*
X-32751911Y-700065D01*
X-32639050Y-665289D01*
X-32529462Y-630414D01*
X-32529462Y-417689D01*
X-32638157Y-384054D01*
X-32749927Y-349823D01*
X-32864772Y-314997D01*
X-32982694Y-279576D01*
X-33080325Y-251065D01*
X-33182084Y-222680D01*
X-33287970Y-194423D01*
X-33397984Y-166292D01*
X-33512125Y-138289D01*
X-33512125Y-341489D01*
X-33863492Y-341489D01*
X-33863492Y-60501D01*
X-33863492Y557036D01*
X-33512125Y557036D01*
X-33512125Y-60501D01*
X-33350200Y-60501D01*
X-33350200Y360186D01*
X-32529462Y360186D01*
X-32529462Y557036D01*
X-33512125Y557036D01*
X-33863492Y557036D01*
X-33863492Y1363486D01*
G37*
G04 #@! TO.C,U5*
X-32619000Y-12598000D02*
X-32619000Y-9148000D01*
X-32619000Y-12598000D02*
X-32619000Y-14548000D01*
X-37739000Y-12598000D02*
X-37739000Y-10648000D01*
X-37739000Y-12598000D02*
X-37739000Y-14548000D01*
G04 #@! TO.C,C4*
X-46223600Y13207948D02*
X-46223600Y14630452D01*
X-44403600Y13207948D02*
X-44403600Y14630452D01*
G04 #@! TO.C,JP1*
X-26610000Y5394000D02*
X-26610000Y4064000D01*
X-27940000Y5394000D02*
X-26610000Y5394000D01*
X-29210000Y5394000D02*
X-34350000Y5394000D01*
X-29210000Y5394000D02*
X-29210000Y2734000D01*
X-34350000Y5394000D02*
X-34350000Y2734000D01*
X-29210000Y2734000D02*
X-34350000Y2734000D01*
G04 #@! TO.C,J1*
X-21056000Y-16888000D02*
X-23876000Y-16888000D01*
X-21056000Y-16888000D02*
X-19756000Y-18588000D01*
X-23876000Y-16888000D02*
X-25176000Y-18588000D01*
X-19756000Y-18588000D02*
X-19756000Y-27308000D01*
X-25176000Y-18588000D02*
X-25176000Y-27308000D01*
X-19756000Y-27308000D02*
X-25176000Y-27308000D01*
G04 #@! TO.C,D2*
X-7408478Y-13844737D02*
X-5101438Y-16018781D01*
X-5101438Y-16018781D02*
X-2317016Y-13064024D01*
X-4624055Y-10889979D02*
X-7408478Y-13844737D01*
G04 #@! TO.C,R10*
X-54255000Y13567064D02*
X-54255000Y12112936D01*
X-56075000Y13567064D02*
X-56075000Y12112936D01*
G04 #@! TO.C,JP11*
X-4276400Y18119400D02*
X-2946400Y18119400D01*
X-4276400Y16789400D02*
X-4276400Y18119400D01*
X-4276400Y15519400D02*
X-4276400Y10379400D01*
X-4276400Y15519400D02*
X-1616400Y15519400D01*
X-4276400Y10379400D02*
X-1616400Y10379400D01*
X-1616400Y15519400D02*
X-1616400Y10379400D01*
G04 #@! TO.C,R6*
X-19777064Y-8996000D02*
X-18322936Y-8996000D01*
X-19777064Y-10816000D02*
X-18322936Y-10816000D01*
G04 #@! TO.C,C1*
X-46223600Y28283248D02*
X-46223600Y29705752D01*
X-44403600Y28283248D02*
X-44403600Y29705752D01*
G04 #@! TO.C,R5*
X-61832800Y3922000D02*
X-60502800Y3922000D01*
X-61832800Y2592000D02*
X-61832800Y3922000D01*
X-61832800Y1322000D02*
X-61832800Y-1278000D01*
X-61832800Y1322000D02*
X-59172800Y1322000D01*
X-61832800Y-1278000D02*
X-59172800Y-1278000D01*
X-59172800Y1322000D02*
X-59172800Y-1278000D01*
G04 #@! TO.C,JP7*
X-29575000Y-10235000D02*
X-29575000Y-7435000D01*
X-27575000Y-10235000D02*
X-29575000Y-10235000D01*
X-29575000Y-7435000D02*
X-27575000Y-7435000D01*
X-27575000Y-7435000D02*
X-27575000Y-10235000D01*
G04 #@! TO.C,R29*
X-19954264Y18867800D02*
X-18500136Y18867800D01*
X-19954264Y17047800D02*
X-18500136Y17047800D01*
G04 #@! TO.C,J8*
X-39430000Y5140000D02*
X-38100000Y5140000D01*
X-39430000Y3810000D02*
X-39430000Y5140000D01*
X-39430000Y2540000D02*
X-39430000Y-2600000D01*
X-39430000Y2540000D02*
X-36770000Y2540000D01*
X-39430000Y-2600000D02*
X-36770000Y-2600000D01*
X-36770000Y2540000D02*
X-36770000Y-2600000D01*
G04 #@! TO.C,U3*
X-70326000Y-3596000D02*
X-65685000Y-3596000D01*
X-70326000Y-3596000D02*
X-70326000Y6644000D01*
X-68816000Y-3596000D02*
X-68816000Y6644000D01*
X-65685000Y-3596000D02*
X-65685000Y6644000D01*
X-70326000Y-326000D02*
X-68816000Y-326000D01*
X-70326000Y3375000D02*
X-68816000Y3375000D01*
X-70326000Y6644000D02*
X-65685000Y6644000D01*
G04 #@! TO.C,R8*
X-58827000Y13567064D02*
X-58827000Y12112936D01*
X-60647000Y13567064D02*
X-60647000Y12112936D01*
G04 #@! TO.C,J4*
X-22666000Y-6410000D02*
X-22666000Y-5080000D01*
X-21336000Y-6410000D02*
X-22666000Y-6410000D01*
X-20066000Y-6410000D02*
X-14926000Y-6410000D01*
X-20066000Y-6410000D02*
X-20066000Y-3750000D01*
X-14926000Y-6410000D02*
X-14926000Y-3750000D01*
X-20066000Y-3750000D02*
X-14926000Y-3750000D01*
D10*
G04 #@! TO.C,J6*
X-57229000Y19908000D02*
X-57229000Y32908000D01*
X-59479000Y29408000D02*
X-53229000Y29408000D01*
D11*
G04 #@! TO.C,R17*
X-40319936Y-10903000D02*
X-41774064Y-10903000D01*
X-40319936Y-9083000D02*
X-41774064Y-9083000D01*
G04 #@! TO.C,R18*
X-31096936Y-26308000D02*
X-35451064Y-26308000D01*
X-31096936Y-22888000D02*
X-35451064Y-22888000D01*
G04 #@! TO.C,kibuzzard-63F12816*
G36*
X-43381789Y4114006D02*
G01*
X-43316701Y4040188D01*
X-43283364Y3933825D01*
X-43273839Y3810000D01*
X-43276815Y3739952D01*
X-43285745Y3675856D01*
X-43325433Y3570288D01*
X-43398458Y3500438D01*
X-43510376Y3475038D01*
X-43527839Y3475038D01*
X-43545301Y3476625D01*
X-43545301Y4137025D01*
X-43516726Y4140994D01*
X-43488151Y4141788D01*
X-43381789Y4114006D01*
G37*
G36*
X-44056476Y2966508D02*
G01*
X-44969289Y2966508D01*
X-45370926Y2966508D01*
X-45701656Y2966508D01*
X-45701656Y3810000D01*
X-45370926Y3810000D01*
X-45363783Y3690739D01*
X-45342351Y3586956D01*
X-45307823Y3498850D01*
X-45261389Y3426619D01*
X-45203644Y3370263D01*
X-45135183Y3329781D01*
X-45056800Y3305373D01*
X-44969289Y3297238D01*
X-44872253Y3301206D01*
X-44790695Y3313113D01*
X-44772573Y3317875D01*
X-44547014Y3317875D01*
X-44370801Y3317875D01*
X-44370801Y3970338D01*
X-44311799Y3861417D01*
X-44255443Y3752674D01*
X-44201733Y3644106D01*
X-44150668Y3535539D01*
X-44102249Y3426795D01*
X-44056476Y3317875D01*
X-43899314Y3317875D01*
X-43899314Y3328988D01*
X-43740564Y3328988D01*
X-43633408Y3310731D01*
X-43531014Y3305175D01*
X-43435169Y3312120D01*
X-43347658Y3332956D01*
X-43270069Y3368873D01*
X-43203989Y3421063D01*
X-43150212Y3490317D01*
X-43109533Y3577431D01*
X-43083934Y3683595D01*
X-43075401Y3810000D01*
X-43083140Y3933627D01*
X-43106358Y4037806D01*
X-43143465Y4123928D01*
X-43192876Y4193381D01*
X-43254590Y4246364D01*
X-43328608Y4283075D01*
X-43412944Y4304506D01*
X-43505614Y4311650D01*
X-43615151Y4306888D01*
X-43740564Y4287838D01*
X-43740564Y3328988D01*
X-43899314Y3328988D01*
X-43899314Y4300538D01*
X-44075526Y4300538D01*
X-44075526Y3695700D01*
X-44103506Y3757613D01*
X-44136645Y3829050D01*
X-44173951Y3906441D01*
X-44214433Y3986213D01*
X-44257097Y4067373D01*
X-44300951Y4148931D01*
X-44345401Y4227711D01*
X-44389851Y4300538D01*
X-44547014Y4300538D01*
X-44547014Y3317875D01*
X-44772573Y3317875D01*
X-44681951Y3341688D01*
X-44681951Y3832225D01*
X-44877214Y3832225D01*
X-44877214Y3473450D01*
X-44915314Y3468688D01*
X-44953414Y3467100D01*
X-45048267Y3487936D01*
X-45116926Y3550444D01*
X-45147794Y3616325D01*
X-45166315Y3702844D01*
X-45172489Y3810000D01*
X-45169115Y3882827D01*
X-45158995Y3948906D01*
X-45114545Y4056856D01*
X-45035964Y4127500D01*
X-44918489Y4152900D01*
X-44813714Y4135438D01*
X-44727989Y4095750D01*
X-44677189Y4251325D01*
X-44709733Y4270375D01*
X-44764501Y4294188D01*
X-44843083Y4314031D01*
X-44945476Y4322763D01*
X-45031598Y4314627D01*
X-45112164Y4290219D01*
X-45184792Y4249539D01*
X-45247101Y4192588D01*
X-45298298Y4119761D01*
X-45337589Y4031456D01*
X-45362592Y3928070D01*
X-45370926Y3810000D01*
X-45701656Y3810000D01*
X-45701656Y4653492D01*
X-45370926Y4653492D01*
X-43075401Y4653492D01*
X-42744672Y4653492D01*
X-42182344Y3810000D01*
X-42744672Y2966508D01*
X-43075401Y2966508D01*
X-43531014Y2966508D01*
X-44056476Y2966508D01*
G37*
G04 #@! TO.C,R3*
X-18761064Y8022000D02*
X-17306936Y8022000D01*
X-18761064Y6202000D02*
X-17306936Y6202000D01*
G04 #@! TO.C,R15*
X-23301936Y-14078000D02*
X-24756064Y-14078000D01*
X-23301936Y-12258000D02*
X-24756064Y-12258000D01*
G04 #@! TO.C,JP9*
X-6816400Y18119400D02*
X-5486400Y18119400D01*
X-6816400Y16789400D02*
X-6816400Y18119400D01*
X-6816400Y15519400D02*
X-6816400Y10379400D01*
X-6816400Y15519400D02*
X-4156400Y15519400D01*
X-6816400Y10379400D02*
X-4156400Y10379400D01*
X-4156400Y15519400D02*
X-4156400Y10379400D01*
G04 #@! TO.C,R19*
X-31096936Y-21228000D02*
X-35451064Y-21228000D01*
X-31096936Y-17808000D02*
X-35451064Y-17808000D01*
G04 #@! TO.C,kibuzzard-63F11F5A*
G36*
X-27603450Y1112926D02*
G01*
X-27602656Y1085938D01*
X-27611784Y1015691D01*
X-27639169Y960526D01*
X-27686000Y924807D01*
X-27753469Y912901D01*
X-27863800Y957351D01*
X-27892970Y1015691D01*
X-27902694Y1101813D01*
X-27902694Y1144676D01*
X-27607419Y1144676D01*
X-27603450Y1112926D01*
G37*
G36*
X-28777935Y649376D02*
G01*
X-28777935Y854163D01*
X-28426569Y854163D01*
X-28426569Y649376D01*
X-28322588Y694619D01*
X-28213050Y749388D01*
X-28108275Y808126D01*
X-28016994Y865276D01*
X-27972147Y795823D01*
X-27910631Y749388D01*
X-27836813Y723194D01*
X-27755056Y714463D01*
X-27677864Y721012D01*
X-27611388Y740657D01*
X-27510581Y816063D01*
X-27476053Y870038D01*
X-27451844Y933538D01*
X-27437556Y1005769D01*
X-27432794Y1085938D01*
X-27434381Y1141501D01*
X-27438350Y1208176D01*
X-27446288Y1277232D01*
X-27458194Y1339938D01*
X-28426569Y1339938D01*
X-28426569Y1144676D01*
X-28064619Y1144676D01*
X-28064619Y1043076D01*
X-28154511Y989299D01*
X-28243213Y939094D01*
X-28333105Y893652D01*
X-28426569Y854163D01*
X-28777935Y854163D01*
X-28777935Y1339938D01*
X-28777935Y1670667D01*
X-27940000Y2229291D01*
X-27102065Y1670667D01*
X-27102065Y1339938D01*
X-27102065Y-882562D01*
X-27102065Y-1213291D01*
X-28777935Y-1213291D01*
X-28777935Y-882562D01*
X-28777935Y-725399D01*
X-28777935Y-411074D01*
X-28426569Y-411074D01*
X-27774106Y-411074D01*
X-27883026Y-470076D01*
X-27991770Y-526433D01*
X-28100337Y-580143D01*
X-28208905Y-631208D01*
X-28317649Y-679626D01*
X-28426569Y-725399D01*
X-28426569Y-882562D01*
X-27443906Y-882562D01*
X-27443906Y-706349D01*
X-28048744Y-706349D01*
X-27986831Y-678370D01*
X-27915394Y-645231D01*
X-27838003Y-607924D01*
X-27758231Y-567443D01*
X-27677070Y-524779D01*
X-27595513Y-480924D01*
X-27516733Y-436474D01*
X-27443906Y-392024D01*
X-27443906Y-234862D01*
X-28426569Y-234862D01*
X-28426569Y-411074D01*
X-28777935Y-411074D01*
X-28777935Y238213D01*
X-28447206Y238213D01*
X-28440658Y149313D01*
X-28421013Y76288D01*
X-28389064Y17551D01*
X-28345606Y-28487D01*
X-28291234Y-62221D01*
X-28226544Y-84049D01*
X-28152725Y-95956D01*
X-28070969Y-99924D01*
X-27443906Y-99924D01*
X-27443906Y95338D01*
X-28056681Y95338D01*
X-28160663Y101688D01*
X-28228925Y123913D01*
X-28266231Y166776D01*
X-28277344Y235038D01*
X-28266231Y303301D01*
X-28229719Y345369D01*
X-28162250Y366801D01*
X-28058269Y373151D01*
X-27443906Y373151D01*
X-27443906Y570001D01*
X-28070969Y570001D01*
X-28152725Y566032D01*
X-28226544Y554126D01*
X-28291234Y532694D01*
X-28345606Y500151D01*
X-28421013Y397757D01*
X-28440658Y325724D01*
X-28447206Y238213D01*
X-28777935Y238213D01*
X-28777935Y649376D01*
G37*
G04 #@! TO.C,R14*
X-28381936Y-14078000D02*
X-29836064Y-14078000D01*
X-28381936Y-12258000D02*
X-29836064Y-12258000D01*
G04 #@! TO.C,R22*
X-55946664Y8199800D02*
X-54492536Y8199800D01*
X-55946664Y6379800D02*
X-54492536Y6379800D01*
G04 #@! TO.C,kibuzzard-63F12026*
G36*
X-11704461Y-4775994D02*
G01*
X-11639374Y-4849812D01*
X-11606036Y-4956175D01*
X-11596511Y-5080000D01*
X-11599488Y-5150048D01*
X-11608417Y-5214144D01*
X-11648105Y-5319712D01*
X-11721130Y-5389562D01*
X-11833049Y-5414962D01*
X-11850511Y-5414962D01*
X-11867974Y-5413375D01*
X-11867974Y-4752975D01*
X-11839399Y-4749006D01*
X-11810824Y-4748212D01*
X-11704461Y-4775994D01*
G37*
G36*
X-12379149Y-5923492D02*
G01*
X-13291961Y-5923492D01*
X-13693599Y-5923492D01*
X-14024328Y-5923492D01*
X-14586656Y-5080000D01*
X-13693599Y-5080000D01*
X-13686455Y-5199261D01*
X-13665024Y-5303044D01*
X-13630495Y-5391150D01*
X-13584061Y-5463381D01*
X-13526316Y-5519737D01*
X-13457855Y-5560219D01*
X-13379472Y-5584627D01*
X-13291961Y-5592762D01*
X-13194925Y-5588794D01*
X-13113367Y-5576887D01*
X-13095245Y-5572125D01*
X-12869686Y-5572125D01*
X-12693474Y-5572125D01*
X-12693474Y-4919662D01*
X-12634472Y-5028583D01*
X-12578115Y-5137326D01*
X-12524405Y-5245894D01*
X-12473340Y-5354461D01*
X-12424922Y-5463205D01*
X-12379149Y-5572125D01*
X-12221986Y-5572125D01*
X-12221986Y-5561012D01*
X-12063236Y-5561012D01*
X-11956080Y-5579269D01*
X-11853686Y-5584825D01*
X-11757841Y-5577880D01*
X-11670330Y-5557044D01*
X-11592741Y-5521127D01*
X-11526661Y-5468937D01*
X-11472885Y-5399683D01*
X-11432205Y-5312569D01*
X-11406606Y-5206405D01*
X-11398074Y-5080000D01*
X-11405813Y-4956373D01*
X-11429030Y-4852194D01*
X-11466138Y-4766072D01*
X-11515549Y-4696619D01*
X-11577263Y-4643636D01*
X-11651280Y-4606925D01*
X-11735616Y-4585494D01*
X-11828286Y-4578350D01*
X-11937824Y-4583112D01*
X-12063236Y-4602162D01*
X-12063236Y-5561012D01*
X-12221986Y-5561012D01*
X-12221986Y-4589462D01*
X-12398199Y-4589462D01*
X-12398199Y-5194300D01*
X-12426178Y-5132387D01*
X-12459317Y-5060950D01*
X-12496624Y-4983559D01*
X-12537105Y-4903787D01*
X-12579769Y-4822627D01*
X-12623624Y-4741069D01*
X-12668074Y-4662289D01*
X-12712524Y-4589462D01*
X-12869686Y-4589462D01*
X-12869686Y-5572125D01*
X-13095245Y-5572125D01*
X-13004624Y-5548312D01*
X-13004624Y-5057775D01*
X-13199886Y-5057775D01*
X-13199886Y-5416550D01*
X-13237986Y-5421312D01*
X-13276086Y-5422900D01*
X-13370939Y-5402064D01*
X-13439599Y-5339556D01*
X-13470467Y-5273675D01*
X-13488988Y-5187156D01*
X-13495161Y-5080000D01*
X-13491788Y-5007173D01*
X-13481667Y-4941094D01*
X-13437217Y-4833144D01*
X-13358636Y-4762500D01*
X-13241161Y-4737100D01*
X-13136386Y-4754562D01*
X-13050661Y-4794250D01*
X-12999861Y-4638675D01*
X-13032405Y-4619625D01*
X-13087174Y-4595812D01*
X-13165755Y-4575969D01*
X-13268149Y-4567237D01*
X-13354270Y-4575373D01*
X-13434836Y-4599781D01*
X-13507464Y-4640461D01*
X-13569774Y-4697412D01*
X-13620970Y-4770239D01*
X-13660261Y-4858544D01*
X-13685264Y-4961930D01*
X-13693599Y-5080000D01*
X-14586656Y-5080000D01*
X-14024328Y-4236508D01*
X-13693599Y-4236508D01*
X-11398074Y-4236508D01*
X-11067344Y-4236508D01*
X-11067344Y-5923492D01*
X-11398074Y-5923492D01*
X-11853686Y-5923492D01*
X-12379149Y-5923492D01*
G37*
G04 #@! TO.C,J5*
X-41056000Y-16808000D02*
X-43876000Y-16808000D01*
X-41056000Y-16808000D02*
X-39756000Y-18508000D01*
X-43876000Y-16808000D02*
X-45176000Y-18508000D01*
X-39756000Y-18508000D02*
X-39756000Y-27228000D01*
X-45176000Y-18508000D02*
X-45176000Y-27228000D01*
X-39756000Y-27228000D02*
X-45176000Y-27228000D01*
G04 #@! TO.C,R21*
X-61280664Y8199800D02*
X-59826536Y8199800D01*
X-61280664Y6379800D02*
X-59826536Y6379800D01*
G04 #@! TO.C,R9*
X-56541000Y13567064D02*
X-56541000Y12112936D01*
X-58361000Y13567064D02*
X-58361000Y12112936D01*
G04 #@! TO.C,J2*
X-20380000Y31302000D02*
X-19050000Y31302000D01*
X-20380000Y29972000D02*
X-20380000Y31302000D01*
X-20380000Y28702000D02*
X-20380000Y21022000D01*
X-20380000Y28702000D02*
X-17720000Y28702000D01*
X-20380000Y21022000D02*
X-17720000Y21022000D01*
X-17720000Y28702000D02*
X-17720000Y21022000D01*
G04 #@! TO.C,J21*
X-1330000Y1210000D02*
X-1330000Y2540000D01*
X0Y1210000D02*
X-1330000Y1210000D01*
X1270000Y1210000D02*
X6410000Y1210000D01*
X1270000Y1210000D02*
X1270000Y3870000D01*
X6410000Y1210000D02*
X6410000Y3870000D01*
X1270000Y3870000D02*
X6410000Y3870000D01*
G04 #@! TO.C,C2*
X-44403600Y19722752D02*
X-44403600Y18300248D01*
X-46223600Y19722752D02*
X-46223600Y18300248D01*
G04 #@! TO.C,R30*
X-3924134Y20685136D02*
X-3924134Y22139264D01*
X-2104134Y20685136D02*
X-2104134Y22139264D01*
G04 #@! TO.C,J20*
X-1330000Y20768000D02*
X-1330000Y22098000D01*
X0Y20768000D02*
X-1330000Y20768000D01*
X1270000Y20768000D02*
X6410000Y20768000D01*
X1270000Y20768000D02*
X1270000Y23428000D01*
X6410000Y20768000D02*
X6410000Y23428000D01*
X1270000Y23428000D02*
X6410000Y23428000D01*
G04 #@! TO.C,R25*
X-19954264Y16437867D02*
X-18500136Y16437867D01*
X-19954264Y14617867D02*
X-18500136Y14617867D01*
G04 #@! TO.C,JP8*
X-11947200Y18119400D02*
X-10617200Y18119400D01*
X-11947200Y16789400D02*
X-11947200Y18119400D01*
X-11947200Y15519400D02*
X-11947200Y10379400D01*
X-11947200Y15519400D02*
X-9287200Y15519400D01*
X-11947200Y10379400D02*
X-9287200Y10379400D01*
X-9287200Y15519400D02*
X-9287200Y10379400D01*
G04 #@! TO.C,kibuzzard-63F127EF*
G36*
X-44305714Y-2113492D02*
G01*
X-45069301Y-2113492D01*
X-45342351Y-2113492D01*
X-45673081Y-2113492D01*
X-45673081Y-1728787D01*
X-45342351Y-1728787D01*
X-45293139Y-1746250D01*
X-45224083Y-1763712D01*
X-45146295Y-1777206D01*
X-45069301Y-1782762D01*
X-44977623Y-1777008D01*
X-44899439Y-1759744D01*
X-44834351Y-1731962D01*
X-44781964Y-1694656D01*
X-44713701Y-1595437D01*
X-44691476Y-1470025D01*
X-44701994Y-1390253D01*
X-44733545Y-1322387D01*
X-44784147Y-1268016D01*
X-44851814Y-1228725D01*
X-44762914Y-1146175D01*
X-44729576Y-1033462D01*
X-44732613Y-1016000D01*
X-44591464Y-1016000D01*
X-44557680Y-1126480D01*
X-44523003Y-1232495D01*
X-44487433Y-1334046D01*
X-44450970Y-1431131D01*
X-44402022Y-1552222D01*
X-44353603Y-1662553D01*
X-44305714Y-1762125D01*
X-44142201Y-1762125D01*
X-44125901Y-1728787D01*
X-43754851Y-1728787D01*
X-43705639Y-1746250D01*
X-43636583Y-1763712D01*
X-43558795Y-1777206D01*
X-43481801Y-1782762D01*
X-43390123Y-1777008D01*
X-43311939Y-1759744D01*
X-43246851Y-1731962D01*
X-43194464Y-1694656D01*
X-43126201Y-1595437D01*
X-43103976Y-1470025D01*
X-43114494Y-1390253D01*
X-43146045Y-1322387D01*
X-43196647Y-1268016D01*
X-43264314Y-1228725D01*
X-43175414Y-1146175D01*
X-43142076Y-1033462D01*
X-43161126Y-923925D01*
X-43219864Y-835819D01*
X-43320670Y-777875D01*
X-43387147Y-762397D01*
X-43464339Y-757237D01*
X-43548675Y-764580D01*
X-43623883Y-786606D01*
X-43737389Y-844550D01*
X-43667539Y-987425D01*
X-43573083Y-942181D01*
X-43462751Y-923925D01*
X-43373058Y-954881D01*
X-43340514Y-1039812D01*
X-43355595Y-1100137D01*
X-43394489Y-1138237D01*
X-43448464Y-1158875D01*
X-43508789Y-1165225D01*
X-43581814Y-1165225D01*
X-43581814Y-1327150D01*
X-43521489Y-1327150D01*
X-43434573Y-1334889D01*
X-43364326Y-1358106D01*
X-43317892Y-1400770D01*
X-43302414Y-1466850D01*
X-43342895Y-1573212D01*
X-43398259Y-1605359D01*
X-43483389Y-1616075D01*
X-43558597Y-1611709D01*
X-43622295Y-1598612D01*
X-43716751Y-1565275D01*
X-43754851Y-1728787D01*
X-44125901Y-1728787D01*
X-44093518Y-1662553D01*
X-44042718Y-1552222D01*
X-43989801Y-1431131D01*
X-43950213Y-1334046D01*
X-43912411Y-1232495D01*
X-43876394Y-1126480D01*
X-43842164Y-1016000D01*
X-44040601Y-1016000D01*
X-44057072Y-1078309D01*
X-44077908Y-1144587D01*
X-44101323Y-1213048D01*
X-44125533Y-1281906D01*
X-44150337Y-1349970D01*
X-44175539Y-1416050D01*
X-44221576Y-1535113D01*
X-44265233Y-1416050D01*
X-44288053Y-1349970D01*
X-44310476Y-1281906D01*
X-44332106Y-1213048D01*
X-44352545Y-1144587D01*
X-44371000Y-1078309D01*
X-44386676Y-1016000D01*
X-44591464Y-1016000D01*
X-44732613Y-1016000D01*
X-44748626Y-923925D01*
X-44807364Y-835819D01*
X-44908170Y-777875D01*
X-44974647Y-762397D01*
X-45051839Y-757237D01*
X-45136175Y-764580D01*
X-45211383Y-786606D01*
X-45324889Y-844550D01*
X-45255039Y-987425D01*
X-45160583Y-942181D01*
X-45050251Y-923925D01*
X-44960558Y-954881D01*
X-44928014Y-1039812D01*
X-44943095Y-1100137D01*
X-44981989Y-1138237D01*
X-45035964Y-1158875D01*
X-45096289Y-1165225D01*
X-45169314Y-1165225D01*
X-45169314Y-1327150D01*
X-45108989Y-1327150D01*
X-45022073Y-1334889D01*
X-44951826Y-1358106D01*
X-44905392Y-1400770D01*
X-44889914Y-1466850D01*
X-44930395Y-1573212D01*
X-44985759Y-1605359D01*
X-45070889Y-1616075D01*
X-45146097Y-1611709D01*
X-45209795Y-1598612D01*
X-45304251Y-1565275D01*
X-45342351Y-1728787D01*
X-45673081Y-1728787D01*
X-45673081Y-426508D01*
X-45342351Y-426508D01*
X-43103976Y-426508D01*
X-42773247Y-426508D01*
X-42210919Y-1270000D01*
X-42773247Y-2113492D01*
X-43103976Y-2113492D01*
X-43481801Y-2113492D01*
X-44305714Y-2113492D01*
G37*
G04 #@! TO.C,R23*
X-19954264Y11425600D02*
X-18500136Y11425600D01*
X-19954264Y9605600D02*
X-18500136Y9605600D01*
G04 #@! TO.C,D1*
X-11726478Y-18416737D02*
X-9419438Y-20590781D01*
X-9419438Y-20590781D02*
X-6635016Y-17636024D01*
X-8942055Y-15461979D02*
X-11726478Y-18416737D01*
G04 #@! TO.C,R2*
X-6138840Y-5169549D02*
X-5080565Y-6166817D01*
X-7387029Y-6494095D02*
X-6328754Y-7491363D01*
G04 #@! TO.C,J18*
X-1330000Y25848000D02*
X-1330000Y27178000D01*
X0Y25848000D02*
X-1330000Y25848000D01*
X1270000Y25848000D02*
X6410000Y25848000D01*
X1270000Y25848000D02*
X1270000Y28508000D01*
X6410000Y25848000D02*
X6410000Y28508000D01*
X1270000Y28508000D02*
X6410000Y28508000D01*
G04 #@! TO.C,R27*
X-19954264Y13931734D02*
X-18500136Y13931734D01*
X-19954264Y12111734D02*
X-18500136Y12111734D01*
G04 #@! TO.C,JP6*
X-26400000Y-10220000D02*
X-26400000Y-7420000D01*
X-24400000Y-10220000D02*
X-26400000Y-10220000D01*
X-26400000Y-7420000D02*
X-24400000Y-7420000D01*
X-24400000Y-7420000D02*
X-24400000Y-10220000D01*
G04 #@! TO.C,kibuzzard-63EE93D3*
G36*
X-4234921Y-1265237D02*
G01*
X-5804165Y-1265237D01*
X-6444721Y-1265237D01*
X-6940815Y-1265237D01*
X-6940815Y0D01*
X-6444721Y0D01*
X-6434452Y-173980D01*
X-6403644Y-326827D01*
X-6352299Y-458539D01*
X-6280415Y-569119D01*
X-6154473Y-680244D01*
X-5995723Y-746919D01*
X-5804165Y-769144D01*
X-5674089Y-761107D01*
X-5565713Y-738187D01*
X-5211233Y-738187D01*
X-4918340Y-738187D01*
X-4918340Y-88106D01*
X-4527815Y-88106D01*
X-4527815Y-738187D01*
X-4234921Y-738187D01*
X-4234921Y428625D01*
X-4013465Y428625D01*
X-3918215Y185738D01*
X-3772958Y244078D01*
X-3620558Y328613D01*
X-3620558Y-495300D01*
X-3930121Y-495300D01*
X-3930121Y-738187D01*
X-3034771Y-738187D01*
X-3034771Y-495300D01*
X-3327665Y-495300D01*
X-3327665Y735806D01*
X-3527690Y735806D01*
X-3630083Y642938D01*
X-3756290Y557213D01*
X-3889640Y483394D01*
X-4013465Y428625D01*
X-4234921Y428625D01*
X-4234921Y735806D01*
X-4527815Y735806D01*
X-4527815Y154781D01*
X-4918340Y154781D01*
X-4918340Y735806D01*
X-5211233Y735806D01*
X-5211233Y-738187D01*
X-5565713Y-738187D01*
X-5560086Y-736997D01*
X-5392208Y-666750D01*
X-5466027Y-435769D01*
X-5586280Y-488156D01*
X-5775590Y-514350D01*
X-5945551Y-480715D01*
X-6060149Y-379809D01*
X-6108435Y-277019D01*
X-6137407Y-148034D01*
X-6147065Y7144D01*
X-6139028Y140494D01*
X-6114918Y250031D01*
X-6031574Y406003D01*
X-5914893Y489347D01*
X-5780352Y514350D01*
X-5602949Y489347D01*
X-5470790Y428625D01*
X-5394590Y661988D01*
X-5443405Y690563D01*
X-5523177Y726281D01*
X-5633905Y756047D01*
X-5775590Y769144D01*
X-5915190Y756345D01*
X-6043480Y717947D01*
X-6157780Y654844D01*
X-6255411Y567928D01*
X-6334886Y458093D01*
X-6394715Y326231D01*
X-6432219Y173236D01*
X-6444721Y0D01*
X-6940815Y0D01*
X-6940815Y1265238D01*
X-6444721Y1265238D01*
X-3034771Y1265238D01*
X-2538677Y1265238D01*
X-1695185Y0D01*
X-2538677Y-1265237D01*
X-3034771Y-1265237D01*
X-4234921Y-1265237D01*
G37*
G04 #@! TO.C,kibuzzard-63F11AD1*
G36*
X-15295386Y29128508D02*
G01*
X-16058974Y29128508D01*
X-16332024Y29128508D01*
X-16662753Y29128508D01*
X-16919223Y29513213D01*
X-16332024Y29513213D01*
X-16282811Y29495750D01*
X-16213755Y29478288D01*
X-16135967Y29464794D01*
X-16058974Y29459238D01*
X-15967295Y29464992D01*
X-15889111Y29482256D01*
X-15824024Y29510038D01*
X-15771636Y29547344D01*
X-15703374Y29646563D01*
X-15681149Y29771975D01*
X-15691666Y29851747D01*
X-15723217Y29919613D01*
X-15773819Y29973984D01*
X-15841486Y30013275D01*
X-15752586Y30095825D01*
X-15719249Y30208538D01*
X-15722286Y30226000D01*
X-15581136Y30226000D01*
X-15547352Y30115520D01*
X-15512675Y30009505D01*
X-15477105Y29907954D01*
X-15440642Y29810869D01*
X-15391694Y29689778D01*
X-15343276Y29579447D01*
X-15295386Y29479875D01*
X-15131874Y29479875D01*
X-15115574Y29513213D01*
X-14744524Y29513213D01*
X-14695311Y29495750D01*
X-14626255Y29478288D01*
X-14548467Y29464794D01*
X-14471474Y29459238D01*
X-14379795Y29464992D01*
X-14301611Y29482256D01*
X-14236524Y29510038D01*
X-14184136Y29547344D01*
X-14115874Y29646563D01*
X-14093649Y29771975D01*
X-14104166Y29851747D01*
X-14135717Y29919613D01*
X-14186319Y29973984D01*
X-14253986Y30013275D01*
X-14165086Y30095825D01*
X-14131749Y30208538D01*
X-14150799Y30318075D01*
X-14209536Y30406181D01*
X-14310342Y30464125D01*
X-14376819Y30479603D01*
X-14454011Y30484763D01*
X-14538347Y30477420D01*
X-14613555Y30455394D01*
X-14727061Y30397450D01*
X-14657211Y30254575D01*
X-14562755Y30299819D01*
X-14452424Y30318075D01*
X-14362730Y30287119D01*
X-14330186Y30202188D01*
X-14345267Y30141863D01*
X-14384161Y30103763D01*
X-14438136Y30083125D01*
X-14498461Y30076775D01*
X-14571486Y30076775D01*
X-14571486Y29914850D01*
X-14511161Y29914850D01*
X-14424245Y29907111D01*
X-14353999Y29883894D01*
X-14307564Y29841230D01*
X-14292086Y29775150D01*
X-14332567Y29668788D01*
X-14387931Y29636641D01*
X-14473061Y29625925D01*
X-14548269Y29630291D01*
X-14611967Y29643388D01*
X-14706424Y29676725D01*
X-14744524Y29513213D01*
X-15115574Y29513213D01*
X-15083190Y29579447D01*
X-15032390Y29689778D01*
X-14979474Y29810869D01*
X-14939885Y29907954D01*
X-14902083Y30009505D01*
X-14866067Y30115520D01*
X-14831836Y30226000D01*
X-15030274Y30226000D01*
X-15046744Y30163691D01*
X-15067580Y30097413D01*
X-15090995Y30028952D01*
X-15115205Y29960094D01*
X-15140010Y29892030D01*
X-15165211Y29825950D01*
X-15211249Y29706887D01*
X-15254905Y29825950D01*
X-15277725Y29892030D01*
X-15300149Y29960094D01*
X-15321778Y30028952D01*
X-15342217Y30097413D01*
X-15360672Y30163691D01*
X-15376349Y30226000D01*
X-15581136Y30226000D01*
X-15722286Y30226000D01*
X-15738299Y30318075D01*
X-15797036Y30406181D01*
X-15897842Y30464125D01*
X-15964319Y30479603D01*
X-16041511Y30484763D01*
X-16125847Y30477420D01*
X-16201055Y30455394D01*
X-16314561Y30397450D01*
X-16244711Y30254575D01*
X-16150255Y30299819D01*
X-16039924Y30318075D01*
X-15950230Y30287119D01*
X-15917686Y30202188D01*
X-15932767Y30141863D01*
X-15971661Y30103763D01*
X-16025636Y30083125D01*
X-16085961Y30076775D01*
X-16158986Y30076775D01*
X-16158986Y29914850D01*
X-16098661Y29914850D01*
X-16011745Y29907111D01*
X-15941499Y29883894D01*
X-15895064Y29841230D01*
X-15879586Y29775150D01*
X-15920067Y29668788D01*
X-15975431Y29636641D01*
X-16060561Y29625925D01*
X-16135769Y29630291D01*
X-16199467Y29643388D01*
X-16293924Y29676725D01*
X-16332024Y29513213D01*
X-16919223Y29513213D01*
X-17225081Y29972000D01*
X-16662753Y30815492D01*
X-16332024Y30815492D01*
X-14093649Y30815492D01*
X-13762919Y30815492D01*
X-13762919Y29128508D01*
X-14093649Y29128508D01*
X-14471474Y29128508D01*
X-15295386Y29128508D01*
G37*
G04 #@! TO.C,R24*
X-11527200Y20685136D02*
X-11527200Y22139264D01*
X-9707200Y20685136D02*
X-9707200Y22139264D01*
G04 #@! TO.C,kibuzzard-63F12006*
G36*
X-57741317Y-8092870D02*
G01*
X-57654954Y-8146481D01*
X-57572010Y-8202261D01*
X-57488045Y-8262554D01*
X-57626920Y-8395262D01*
X-57682766Y-8308098D01*
X-57734148Y-8222158D01*
X-57783783Y-8133451D01*
X-57835485Y-8036836D01*
X-57741317Y-8092870D01*
G37*
G36*
X-57953537Y-8834727D02*
G01*
X-57916208Y-8896769D01*
X-57915863Y-8955724D01*
X-57942349Y-9009580D01*
X-57985568Y-9058564D01*
X-58021669Y-9090867D01*
X-58057671Y-9118681D01*
X-58241925Y-8925863D01*
X-58166175Y-8853477D01*
X-58056987Y-8791955D01*
X-57953537Y-8834727D01*
G37*
G36*
X-58321089Y-8530516D02*
G01*
X-58274120Y-8563583D01*
X-58239699Y-8654752D01*
X-58298704Y-8756150D01*
X-58353795Y-8808794D01*
X-58509534Y-8645817D01*
X-58481836Y-8612761D01*
X-58449648Y-8579808D01*
X-58409031Y-8546484D01*
X-58365927Y-8527253D01*
X-58321089Y-8530516D01*
G37*
G36*
X-56404767Y-8240372D02*
G01*
X-56924688Y-8737202D01*
X-57651201Y-9431449D01*
X-57848611Y-9620091D01*
X-58087721Y-9848582D01*
X-59065844Y-9629749D01*
X-59235133Y-8670536D01*
X-58755994Y-8670536D01*
X-58096843Y-9360322D01*
X-58038567Y-9321925D01*
X-57982184Y-9280398D01*
X-57928843Y-9236837D01*
X-57879692Y-9192339D01*
X-57825628Y-9135460D01*
X-57780503Y-9076694D01*
X-57746855Y-9016546D01*
X-57727224Y-8955517D01*
X-57733922Y-8830171D01*
X-57763767Y-8766194D01*
X-57814661Y-8702019D01*
X-57867181Y-8659984D01*
X-57930419Y-8632583D01*
X-58006250Y-8628194D01*
X-58096549Y-8655196D01*
X-58089779Y-8530155D01*
X-58111303Y-8470577D01*
X-58150650Y-8417052D01*
X-58224591Y-8360354D01*
X-58321194Y-8337388D01*
X-58442064Y-8369451D01*
X-58511951Y-8412355D01*
X-58588809Y-8477839D01*
X-58679134Y-8574034D01*
X-58755994Y-8670536D01*
X-59235133Y-8670536D01*
X-59240046Y-8642700D01*
X-59000936Y-8414210D01*
X-58535349Y-7969301D01*
X-58040550Y-7969301D01*
X-57989774Y-8071122D01*
X-57937304Y-8175578D01*
X-57883139Y-8282670D01*
X-57827279Y-8392396D01*
X-57780442Y-8482678D01*
X-57730661Y-8575858D01*
X-57677936Y-8671934D01*
X-57622270Y-8770906D01*
X-57563658Y-8872775D01*
X-57416749Y-8732390D01*
X-57541449Y-8537555D01*
X-57352074Y-8356591D01*
X-57161953Y-8488910D01*
X-57010453Y-8344139D01*
X-57106361Y-8281687D01*
X-57200261Y-8221796D01*
X-57292153Y-8164467D01*
X-57382038Y-8109698D01*
X-57469914Y-8057490D01*
X-57577410Y-7995048D01*
X-57682715Y-7935041D01*
X-57785830Y-7877471D01*
X-57886754Y-7822336D01*
X-58040550Y-7969301D01*
X-58535349Y-7969301D01*
X-58145121Y-7596404D01*
X-57650322Y-7596404D01*
X-57538453Y-7713472D01*
X-57351373Y-7534702D01*
X-56784350Y-8128078D01*
X-56642032Y-7992080D01*
X-57209055Y-7398704D01*
X-57021975Y-7219932D01*
X-57133844Y-7102864D01*
X-57650322Y-7596404D01*
X-58145121Y-7596404D01*
X-57532388Y-7010884D01*
X-56734276Y-7010884D01*
X-56543440Y-7210589D01*
X-56723634Y-7382780D01*
X-56612862Y-7498701D01*
X-56432668Y-7326510D01*
X-56241832Y-7526215D01*
X-56120173Y-7409959D01*
X-56311009Y-7210254D01*
X-56130816Y-7038063D01*
X-56241588Y-6922143D01*
X-56421781Y-7094333D01*
X-56612617Y-6894628D01*
X-56734276Y-7010884D01*
X-57532388Y-7010884D01*
X-56813364Y-6323793D01*
X-56574253Y-6095302D01*
X-55421927Y-7301183D01*
X-55661038Y-7529675D01*
X-55841231Y-7701865D01*
X-56404767Y-8240372D01*
G37*
G04 #@! TO.C,R20*
X-47397000Y13567064D02*
X-47397000Y12112936D01*
X-49217000Y13567064D02*
X-49217000Y12112936D01*
G04 #@! TO.C,JP10*
X-9356400Y18119400D02*
X-8026400Y18119400D01*
X-9356400Y16789400D02*
X-9356400Y18119400D01*
X-9356400Y15519400D02*
X-9356400Y10379400D01*
X-9356400Y15519400D02*
X-6696400Y15519400D01*
X-9356400Y10379400D02*
X-6696400Y10379400D01*
X-6696400Y15519400D02*
X-6696400Y10379400D01*
G04 #@! TO.C,R16*
X-40319936Y-7728000D02*
X-41774064Y-7728000D01*
X-40319936Y-5908000D02*
X-41774064Y-5908000D01*
G04 #@! TO.C,R26*
X-6404867Y20685136D02*
X-6404867Y22139264D01*
X-4584867Y20685136D02*
X-4584867Y22139264D01*
G04 #@! TO.C,J3*
X-63880777Y-8960448D02*
X-62917628Y-8043254D01*
X-62963583Y-9923597D02*
X-63880777Y-8960448D01*
X-62087766Y-10843295D02*
X-58543121Y-14565539D01*
X-62087766Y-10843295D02*
X-60161469Y-9008907D01*
X-58543121Y-14565539D02*
X-56616824Y-12731151D01*
X-60161469Y-9008907D02*
X-56616824Y-12731151D01*
G04 #@! TO.C,J22*
X-1330000Y23308000D02*
X-1330000Y24638000D01*
X0Y23308000D02*
X-1330000Y23308000D01*
X1270000Y23308000D02*
X6410000Y23308000D01*
X1270000Y23308000D02*
X1270000Y25968000D01*
X6410000Y23308000D02*
X6410000Y25968000D01*
X1270000Y25968000D02*
X6410000Y25968000D01*
G04 #@! TO.C,kibuzzard-63F12026*
G36*
X-58558618Y-5515472D02*
G01*
X-58461032Y-5569336D01*
X-58368597Y-5652277D01*
X-58322354Y-5704976D01*
X-58284527Y-5757484D01*
X-58240285Y-5861226D01*
X-58244821Y-5962177D01*
X-58308187Y-6057863D01*
X-58320811Y-6069927D01*
X-58334533Y-6080845D01*
X-58790792Y-5603397D01*
X-58772875Y-5580786D01*
X-58752765Y-5560470D01*
X-58656674Y-5507071D01*
X-58558618Y-5515472D01*
G37*
G36*
X-58351665Y-6802805D02*
G01*
X-59011598Y-7433450D01*
X-59301969Y-7710935D01*
X-59541075Y-7939430D01*
X-60530373Y-7718115D01*
X-60703198Y-6738971D01*
X-60059525Y-6738971D01*
X-60046223Y-6826993D01*
X-60013620Y-6917980D01*
X-59960269Y-7009999D01*
X-59884723Y-7101118D01*
X-59797162Y-7182404D01*
X-59709967Y-7242630D01*
X-59624132Y-7282472D01*
X-59540659Y-7302612D01*
X-59459976Y-7303461D01*
X-59382513Y-7285429D01*
X-59308981Y-7248922D01*
X-59240093Y-7194343D01*
X-59172681Y-7124434D01*
X-59121943Y-7059479D01*
X-59063068Y-6963691D01*
X-59401971Y-6609049D01*
X-59543139Y-6743952D01*
X-59295268Y-7003335D01*
X-59319523Y-7033100D01*
X-59345971Y-7060571D01*
X-59428942Y-7111040D01*
X-59521766Y-7113284D01*
X-59589599Y-7086981D01*
X-59662763Y-7037226D01*
X-59741258Y-6964021D01*
X-59789135Y-6909039D01*
X-59827470Y-6854273D01*
X-59869915Y-6745519D01*
X-59861911Y-6640156D01*
X-59794528Y-6540631D01*
X-59706715Y-6480868D01*
X-59617319Y-6450336D01*
X-59688077Y-6302763D01*
X-59724766Y-6311475D01*
X-59780814Y-6332098D01*
X-59851335Y-6372042D01*
X-59931395Y-6436471D01*
X-59988037Y-6501853D01*
X-60029420Y-6575161D01*
X-60053823Y-6654748D01*
X-60059525Y-6738971D01*
X-60703198Y-6738971D01*
X-60706583Y-6719796D01*
X-60467476Y-6491301D01*
X-60138838Y-6177248D01*
X-59627965Y-6177248D01*
X-58949060Y-6887681D01*
X-58821665Y-6765939D01*
X-59272440Y-6294230D01*
X-59154532Y-6332213D01*
X-59038659Y-6371895D01*
X-58924821Y-6413278D01*
X-58812895Y-6456489D01*
X-58702761Y-6501656D01*
X-58594418Y-6548778D01*
X-58480794Y-6440197D01*
X-59159699Y-5729764D01*
X-59287095Y-5851506D01*
X-58869223Y-6288784D01*
X-58932226Y-6263353D01*
X-59005539Y-6234602D01*
X-59085978Y-6204425D01*
X-59170358Y-6174720D01*
X-59257275Y-6145520D01*
X-59345327Y-6116855D01*
X-59431891Y-6090609D01*
X-59514342Y-6068668D01*
X-59627965Y-6177248D01*
X-60138838Y-6177248D01*
X-59565410Y-5629268D01*
X-59036154Y-5629268D01*
X-58373701Y-6322485D01*
X-58283617Y-6261652D01*
X-58205751Y-6194926D01*
X-58141257Y-6123688D01*
X-58092384Y-6048164D01*
X-58061104Y-5968592D01*
X-58049388Y-5885207D01*
X-58058356Y-5797986D01*
X-58089131Y-5706900D01*
X-58143971Y-5612461D01*
X-58225133Y-5515180D01*
X-58316140Y-5431149D01*
X-58404901Y-5371871D01*
X-58491229Y-5335245D01*
X-58574935Y-5319170D01*
X-58656157Y-5323502D01*
X-58735032Y-5348098D01*
X-58810811Y-5390870D01*
X-58882744Y-5449730D01*
X-58958646Y-5528850D01*
X-59036154Y-5629268D01*
X-59565410Y-5629268D01*
X-58807887Y-4905363D01*
X-58568780Y-4676868D01*
X-57403273Y-5896502D01*
X-57642380Y-6124997D01*
X-57971772Y-6439771D01*
X-58351665Y-6802805D01*
G37*
G04 #@! TO.C,J23*
X-1330000Y6290000D02*
X-1330000Y7620000D01*
X0Y6290000D02*
X-1330000Y6290000D01*
X1270000Y6290000D02*
X6410000Y6290000D01*
X1270000Y6290000D02*
X1270000Y8950000D01*
X6410000Y6290000D02*
X6410000Y8950000D01*
X1270000Y8950000D02*
X6410000Y8950000D01*
G04 #@! TO.C,kibuzzard-63F118F7*
G36*
X1468437Y-4281091D02*
G01*
X972344Y-4281091D01*
X972344Y-3542109D01*
X1468437Y-3542109D01*
X1468437Y-3784997D01*
X2404269Y-3784997D01*
X2640012Y-3784997D01*
X2904331Y-3784997D01*
X2904331Y-2806303D01*
X2992834Y-2969683D01*
X3077369Y-3132799D01*
X3157934Y-3295650D01*
X3234531Y-3458501D01*
X3307159Y-3621617D01*
X3375819Y-3784997D01*
X3611563Y-3784997D01*
X3611563Y-2311003D01*
X3347244Y-2311003D01*
X3347244Y-3218259D01*
X3305274Y-3125391D01*
X3255566Y-3018234D01*
X3199606Y-2902148D01*
X3138884Y-2782491D01*
X3074888Y-2660749D01*
X3009106Y-2538413D01*
X2942431Y-2420243D01*
X2875756Y-2311003D01*
X2640012Y-2311003D01*
X2640012Y-3784997D01*
X2404269Y-3784997D01*
X2404269Y-3542109D01*
X2085181Y-3542109D01*
X2085181Y-2553891D01*
X2404269Y-2553891D01*
X2404269Y-2311003D01*
X1468437Y-2311003D01*
X1468437Y-2553891D01*
X1789906Y-2553891D01*
X1789906Y-3542109D01*
X1468437Y-3542109D01*
X972344Y-3542109D01*
X972344Y-1814909D01*
X1468437Y-1814909D01*
X3611563Y-1814909D01*
X4107656Y-1814909D01*
X4107656Y-4281091D01*
X3611563Y-4281091D01*
X3375819Y-4281091D01*
X1468437Y-4281091D01*
G37*
G04 #@! TO.C,R12*
X-49683000Y13567064D02*
X-49683000Y12112936D01*
X-51503000Y13567064D02*
X-51503000Y12112936D01*
G04 #@! TO.C,Q1*
X-7362923Y-7602274D02*
X-8581943Y-6453529D01*
X-7362923Y-7602274D02*
X-6889871Y-8048056D01*
X-9502677Y-9872926D02*
X-9975729Y-9427144D01*
X-9502677Y-9872926D02*
X-9029624Y-10318707D01*
G04 #@! TO.C,J17*
X-1330000Y-1330000D02*
X-1330000Y0D01*
X0Y-1330000D02*
X-1330000Y-1330000D01*
X1270000Y-1330000D02*
X6410000Y-1330000D01*
X1270000Y-1330000D02*
X1270000Y1330000D01*
X6410000Y-1330000D02*
X6410000Y1330000D01*
X1270000Y1330000D02*
X6410000Y1330000D01*
G04 #@! TO.C,kibuzzard-63F11AC7*
G36*
X-14371461Y22656006D02*
G01*
X-14306374Y22582188D01*
X-14273036Y22475825D01*
X-14263511Y22352000D01*
X-14266488Y22281952D01*
X-14275417Y22217856D01*
X-14315105Y22112288D01*
X-14388130Y22042438D01*
X-14500049Y22017038D01*
X-14517511Y22017038D01*
X-14534974Y22018625D01*
X-14534974Y22679025D01*
X-14506399Y22682994D01*
X-14477824Y22683788D01*
X-14371461Y22656006D01*
G37*
G36*
X-15046149Y21508508D02*
G01*
X-15958961Y21508508D01*
X-16360599Y21508508D01*
X-16691328Y21508508D01*
X-17253656Y22352000D01*
X-16360599Y22352000D01*
X-16353455Y22232739D01*
X-16332024Y22128956D01*
X-16297495Y22040850D01*
X-16251061Y21968619D01*
X-16193316Y21912263D01*
X-16124855Y21871781D01*
X-16046472Y21847373D01*
X-15958961Y21839238D01*
X-15861925Y21843206D01*
X-15780367Y21855113D01*
X-15762245Y21859875D01*
X-15536686Y21859875D01*
X-15360474Y21859875D01*
X-15360474Y22512338D01*
X-15301472Y22403417D01*
X-15245115Y22294674D01*
X-15191405Y22186106D01*
X-15140340Y22077539D01*
X-15091922Y21968795D01*
X-15046149Y21859875D01*
X-14888986Y21859875D01*
X-14888986Y21870988D01*
X-14730236Y21870988D01*
X-14623080Y21852731D01*
X-14520686Y21847175D01*
X-14424841Y21854120D01*
X-14337330Y21874956D01*
X-14259741Y21910873D01*
X-14193661Y21963063D01*
X-14139885Y22032317D01*
X-14099205Y22119431D01*
X-14073606Y22225595D01*
X-14065074Y22352000D01*
X-14072813Y22475627D01*
X-14096030Y22579806D01*
X-14133138Y22665928D01*
X-14182549Y22735381D01*
X-14244263Y22788364D01*
X-14318280Y22825075D01*
X-14402616Y22846506D01*
X-14495286Y22853650D01*
X-14604824Y22848888D01*
X-14730236Y22829838D01*
X-14730236Y21870988D01*
X-14888986Y21870988D01*
X-14888986Y22842538D01*
X-15065199Y22842538D01*
X-15065199Y22237700D01*
X-15093178Y22299613D01*
X-15126317Y22371050D01*
X-15163624Y22448441D01*
X-15204105Y22528213D01*
X-15246769Y22609373D01*
X-15290624Y22690931D01*
X-15335074Y22769711D01*
X-15379524Y22842538D01*
X-15536686Y22842538D01*
X-15536686Y21859875D01*
X-15762245Y21859875D01*
X-15671624Y21883688D01*
X-15671624Y22374225D01*
X-15866886Y22374225D01*
X-15866886Y22015450D01*
X-15904986Y22010688D01*
X-15943086Y22009100D01*
X-16037939Y22029936D01*
X-16106599Y22092444D01*
X-16137467Y22158325D01*
X-16155988Y22244844D01*
X-16162161Y22352000D01*
X-16158788Y22424827D01*
X-16148667Y22490906D01*
X-16104217Y22598856D01*
X-16025636Y22669500D01*
X-15908161Y22694900D01*
X-15803386Y22677438D01*
X-15717661Y22637750D01*
X-15666861Y22793325D01*
X-15699405Y22812375D01*
X-15754174Y22836188D01*
X-15832755Y22856031D01*
X-15935149Y22864763D01*
X-16021270Y22856627D01*
X-16101836Y22832219D01*
X-16174464Y22791539D01*
X-16236774Y22734588D01*
X-16287970Y22661761D01*
X-16327261Y22573456D01*
X-16352264Y22470070D01*
X-16360599Y22352000D01*
X-17253656Y22352000D01*
X-16691328Y23195492D01*
X-16360599Y23195492D01*
X-14065074Y23195492D01*
X-13734344Y23195492D01*
X-13734344Y21508508D01*
X-14065074Y21508508D01*
X-14520686Y21508508D01*
X-15046149Y21508508D01*
G37*
G04 #@! TO.C,U4*
X-41466000Y32876000D02*
X-41466000Y26126000D01*
X-41466000Y32876000D02*
X-23466000Y32876000D01*
X-41466000Y8126000D02*
X-41466000Y7376000D01*
X-41466000Y7376000D02*
X-40716000Y7376000D01*
X-40716000Y7376000D02*
X-38966000Y7376000D01*
X-24216000Y7376000D02*
X-25966000Y7376000D01*
X-23466000Y32876000D02*
X-23466000Y26126000D01*
X-23466000Y26936000D02*
X-41466000Y26936000D01*
X-23466000Y8126000D02*
X-23466000Y7376000D01*
X-23466000Y7376000D02*
X-24216000Y7376000D01*
G04 #@! TO.C,kibuzzard-63F1280A*
G36*
X-44971670Y1464469D02*
G01*
X-44946270Y1366044D01*
X-44924839Y1268413D01*
X-44905789Y1166813D01*
X-45097876Y1166813D01*
X-45078033Y1268413D01*
X-45055808Y1366044D01*
X-45030408Y1464469D01*
X-45001039Y1570038D01*
X-44971670Y1464469D01*
G37*
G36*
X-44158076Y1574006D02*
G01*
X-44092989Y1500188D01*
X-44059651Y1393825D01*
X-44050126Y1270000D01*
X-44053103Y1199952D01*
X-44062033Y1135856D01*
X-44101720Y1030288D01*
X-44174745Y960438D01*
X-44286664Y935038D01*
X-44304126Y935038D01*
X-44321589Y936625D01*
X-44321589Y1597025D01*
X-44293014Y1600994D01*
X-44264439Y1601788D01*
X-44158076Y1574006D01*
G37*
G36*
X-44307301Y426508D02*
G01*
X-44826414Y426508D01*
X-45382039Y426508D01*
X-45712768Y426508D01*
X-45712768Y777875D01*
X-45382039Y777875D01*
X-45178839Y777875D01*
X-45134389Y1004887D01*
X-44872451Y1004887D01*
X-44826414Y777875D01*
X-44616864Y777875D01*
X-44619477Y788988D01*
X-44516851Y788988D01*
X-44409695Y770731D01*
X-44307301Y765175D01*
X-44211456Y772120D01*
X-44123945Y792956D01*
X-44046356Y828873D01*
X-43980276Y881063D01*
X-43926500Y950317D01*
X-43885820Y1037431D01*
X-43860222Y1143595D01*
X-43851689Y1270000D01*
X-43765964Y1270000D01*
X-43759118Y1154013D01*
X-43738580Y1052116D01*
X-43704349Y964307D01*
X-43656426Y890588D01*
X-43572465Y816504D01*
X-43466632Y772054D01*
X-43338926Y757238D01*
X-43252209Y762595D01*
X-43176208Y778669D01*
X-43064289Y825500D01*
X-43113501Y979488D01*
X-43193670Y944563D01*
X-43319876Y927100D01*
X-43433184Y949523D01*
X-43509583Y1016794D01*
X-43541774Y1085321D01*
X-43561088Y1171310D01*
X-43567526Y1274763D01*
X-43562169Y1363663D01*
X-43546095Y1436688D01*
X-43490533Y1540669D01*
X-43412745Y1596231D01*
X-43323051Y1612900D01*
X-43204783Y1596231D01*
X-43116676Y1555750D01*
X-43065876Y1711325D01*
X-43098420Y1730375D01*
X-43151601Y1754188D01*
X-43225420Y1774031D01*
X-43319876Y1782763D01*
X-43412944Y1774230D01*
X-43498470Y1748631D01*
X-43574670Y1706563D01*
X-43639758Y1648619D01*
X-43692740Y1575395D01*
X-43732626Y1487488D01*
X-43757630Y1385491D01*
X-43765964Y1270000D01*
X-43851689Y1270000D01*
X-43859428Y1393627D01*
X-43882645Y1497806D01*
X-43919753Y1583928D01*
X-43969164Y1653381D01*
X-44030878Y1706364D01*
X-44104895Y1743075D01*
X-44189231Y1764506D01*
X-44281901Y1771650D01*
X-44391439Y1766888D01*
X-44516851Y1747838D01*
X-44516851Y788988D01*
X-44619477Y788988D01*
X-44643058Y889286D01*
X-44669569Y997458D01*
X-44696398Y1102392D01*
X-44723544Y1204087D01*
X-44751008Y1302544D01*
X-44785585Y1421954D01*
X-44820262Y1538089D01*
X-44855038Y1650950D01*
X-44889914Y1760538D01*
X-45102639Y1760538D01*
X-45136274Y1651843D01*
X-45170505Y1540073D01*
X-45205330Y1425228D01*
X-45240751Y1307306D01*
X-45269263Y1209675D01*
X-45297647Y1107916D01*
X-45325905Y1002030D01*
X-45354035Y892016D01*
X-45382039Y777875D01*
X-45712768Y777875D01*
X-45712768Y2113492D01*
X-45382039Y2113492D01*
X-43064289Y2113492D01*
X-42733560Y2113492D01*
X-42171232Y1270000D01*
X-42733560Y426508D01*
X-43064289Y426508D01*
X-43338926Y426508D01*
X-44307301Y426508D01*
G37*
G04 #@! TO.C,kibuzzard-63F11AB7*
G36*
X-16003871Y25219812D02*
G01*
X-15948706Y25192427D01*
X-15912987Y25145596D01*
X-15901081Y25078128D01*
X-15945531Y24967796D01*
X-16003871Y24938626D01*
X-16089993Y24928903D01*
X-16132856Y24928903D01*
X-16132856Y25224178D01*
X-16101106Y25228146D01*
X-16074118Y25228940D01*
X-16003871Y25219812D01*
G37*
G36*
X-15637556Y24074298D02*
G01*
X-16328118Y24074298D01*
X-16658847Y24074298D01*
X-16879333Y24405027D01*
X-16328118Y24405027D01*
X-16132856Y24405027D01*
X-16132856Y24766978D01*
X-16031256Y24766978D01*
X-15977479Y24677085D01*
X-15927274Y24588384D01*
X-15881832Y24498492D01*
X-15842343Y24405027D01*
X-15637556Y24405027D01*
X-15588343Y24405027D01*
X-15389906Y24405027D01*
X-15350615Y24476068D01*
X-15312118Y24539965D01*
X-15271637Y24601084D01*
X-15226393Y24663790D01*
X-15187102Y24609815D01*
X-15145431Y24549490D01*
X-15102568Y24481624D01*
X-15059706Y24405027D01*
X-14856506Y24405027D01*
X-14902543Y24490752D01*
X-14962868Y24590765D01*
X-15032718Y24694746D01*
X-15107331Y24792378D01*
X-14866031Y25151152D01*
X-15064468Y25151152D01*
X-15216868Y24917790D01*
X-15381968Y25151152D01*
X-15586756Y25151152D01*
X-15324818Y24789202D01*
X-15397049Y24695540D01*
X-15468487Y24596321D01*
X-15533574Y24497896D01*
X-15588343Y24405027D01*
X-15637556Y24405027D01*
X-15682799Y24509009D01*
X-15737568Y24618546D01*
X-15796306Y24723321D01*
X-15853456Y24814602D01*
X-15784002Y24859449D01*
X-15737568Y24920965D01*
X-15711374Y24994784D01*
X-15702643Y25076540D01*
X-15709191Y25153732D01*
X-15728837Y25220209D01*
X-15804243Y25321015D01*
X-15858218Y25355543D01*
X-15921718Y25379753D01*
X-15993949Y25394040D01*
X-16074118Y25398803D01*
X-16129681Y25397215D01*
X-16196356Y25393246D01*
X-16265412Y25385309D01*
X-16328118Y25373403D01*
X-16328118Y24405027D01*
X-16879333Y24405027D01*
X-17210592Y24901915D01*
X-16658847Y25729532D01*
X-16328118Y25729532D01*
X-14856506Y25729532D01*
X-14525776Y25729532D01*
X-14525776Y24074298D01*
X-14856506Y24074298D01*
X-15637556Y24074298D01*
G37*
G04 #@! TO.C,C3*
X-44149600Y-11125148D02*
X-44149600Y-12547652D01*
X-45969600Y-11125148D02*
X-45969600Y-12547652D01*
G04 #@! TO.C,kibuzzard-63EE940D*
G36*
X-4158721Y26446163D02*
G01*
X-5727965Y26446163D01*
X-6368521Y26446163D01*
X-6864615Y26446163D01*
X-6864615Y27711400D01*
X-6368521Y27711400D01*
X-6358252Y27537420D01*
X-6327444Y27384573D01*
X-6276099Y27252861D01*
X-6204215Y27142281D01*
X-6078273Y27031156D01*
X-5919523Y26964481D01*
X-5727965Y26942256D01*
X-5597889Y26950293D01*
X-5489513Y26973213D01*
X-5135033Y26973213D01*
X-4842140Y26973213D01*
X-4842140Y27623294D01*
X-4451615Y27623294D01*
X-4451615Y26973213D01*
X-4158721Y26973213D01*
X-4158721Y28140025D01*
X-3937265Y28140025D01*
X-3842015Y27897138D01*
X-3696758Y27955478D01*
X-3544358Y28040013D01*
X-3544358Y27216100D01*
X-3853921Y27216100D01*
X-3853921Y26973213D01*
X-2958571Y26973213D01*
X-2958571Y27216100D01*
X-3251465Y27216100D01*
X-3251465Y28447206D01*
X-3451490Y28447206D01*
X-3553883Y28354338D01*
X-3680090Y28268613D01*
X-3813440Y28194794D01*
X-3937265Y28140025D01*
X-4158721Y28140025D01*
X-4158721Y28447206D01*
X-4451615Y28447206D01*
X-4451615Y27866181D01*
X-4842140Y27866181D01*
X-4842140Y28447206D01*
X-5135033Y28447206D01*
X-5135033Y26973213D01*
X-5489513Y26973213D01*
X-5483886Y26974403D01*
X-5316008Y27044650D01*
X-5389827Y27275631D01*
X-5510080Y27223244D01*
X-5699390Y27197050D01*
X-5869351Y27230685D01*
X-5983949Y27331591D01*
X-6032235Y27434381D01*
X-6061207Y27563366D01*
X-6070865Y27718544D01*
X-6062828Y27851894D01*
X-6038718Y27961431D01*
X-5955374Y28117403D01*
X-5838693Y28200747D01*
X-5704152Y28225750D01*
X-5526749Y28200747D01*
X-5394590Y28140025D01*
X-5318390Y28373388D01*
X-5367205Y28401963D01*
X-5446977Y28437681D01*
X-5557705Y28467447D01*
X-5699390Y28480544D01*
X-5838990Y28467745D01*
X-5967280Y28429347D01*
X-6081580Y28366244D01*
X-6179211Y28279328D01*
X-6258686Y28169493D01*
X-6318515Y28037631D01*
X-6356019Y27884636D01*
X-6368521Y27711400D01*
X-6864615Y27711400D01*
X-6864615Y28976638D01*
X-6368521Y28976638D01*
X-2958571Y28976638D01*
X-2462477Y28976638D01*
X-1618985Y27711400D01*
X-2462477Y26446163D01*
X-2958571Y26446163D01*
X-4158721Y26446163D01*
G37*
G04 #@! TO.C,J24*
X-1330000Y18228000D02*
X-1330000Y19558000D01*
X0Y18228000D02*
X-1330000Y18228000D01*
X1270000Y18228000D02*
X6410000Y18228000D01*
X1270000Y18228000D02*
X1270000Y20888000D01*
X6410000Y18228000D02*
X6410000Y20888000D01*
X1270000Y20888000D02*
X6410000Y20888000D01*
G04 #@! TO.C,kibuzzard-63F118E7*
G36*
X1468438Y30699869D02*
G01*
X1538684Y30590331D01*
X1572022Y30427216D01*
X1578273Y30329882D01*
X1580356Y30226000D01*
X1578273Y30122416D01*
X1572022Y30025975D01*
X1538684Y29862859D01*
X1467247Y29752131D01*
X1346994Y29711650D01*
X1225550Y29752131D01*
X1155303Y29861669D01*
X1121966Y30024784D01*
X1115715Y30122118D01*
X1113631Y30226000D01*
X1115715Y30329584D01*
X1121966Y30426025D01*
X1155303Y30589141D01*
X1225550Y30699869D01*
X1346994Y30740350D01*
X1468438Y30699869D01*
G37*
G36*
X2532856Y28960763D02*
G01*
X1349375Y28960763D01*
X815975Y28960763D01*
X319881Y28960763D01*
X319881Y30226000D01*
X815975Y30226000D01*
X824533Y30047183D01*
X850205Y29891732D01*
X892994Y29759647D01*
X952897Y29650928D01*
X1057804Y29543110D01*
X1189964Y29478420D01*
X1349375Y29456856D01*
X1504950Y29478420D01*
X1635125Y29543110D01*
X1739900Y29650928D01*
X1800324Y29759647D01*
X1843484Y29891732D01*
X1865054Y30021213D01*
X2035175Y30021213D01*
X2041128Y29898578D01*
X2058988Y29787850D01*
X2091134Y29690814D01*
X2139950Y29609256D01*
X2293541Y29496147D01*
X2401590Y29466679D01*
X2532856Y29456856D01*
X2666206Y29466679D01*
X2775744Y29496147D01*
X2863850Y29544070D01*
X2932906Y29609256D01*
X2983508Y29690814D01*
X3016250Y29787850D01*
X3034109Y29898578D01*
X3040063Y30021213D01*
X3040063Y30718919D01*
X3192463Y30718919D01*
X3580606Y30718919D01*
X3580606Y29487813D01*
X3875881Y29487813D01*
X3875881Y30718919D01*
X4264025Y30718919D01*
X4264025Y30961806D01*
X3192463Y30961806D01*
X3192463Y30718919D01*
X3040063Y30718919D01*
X3040063Y30961806D01*
X2747169Y30961806D01*
X2747169Y30042644D01*
X2737644Y29886672D01*
X2704306Y29784278D01*
X2640013Y29728319D01*
X2537619Y29711650D01*
X2435225Y29728319D01*
X2372122Y29783088D01*
X2339975Y29884291D01*
X2330450Y30040263D01*
X2330450Y30961806D01*
X2035175Y30961806D01*
X2035175Y30021213D01*
X1865054Y30021213D01*
X1869380Y30047183D01*
X1878013Y30226000D01*
X1869529Y30404817D01*
X1844080Y30560268D01*
X1801664Y30692353D01*
X1742281Y30801072D01*
X1638035Y30908890D01*
X1506273Y30973580D01*
X1346994Y30995144D01*
X1192477Y30973580D01*
X1062302Y30908890D01*
X956469Y30801072D01*
X895003Y30692353D01*
X851098Y30560268D01*
X824756Y30404817D01*
X815975Y30226000D01*
X319881Y30226000D01*
X319881Y31491238D01*
X815975Y31491238D01*
X4264025Y31491238D01*
X4760119Y31491238D01*
X4760119Y28960763D01*
X4264025Y28960763D01*
X3875881Y28960763D01*
X2532856Y28960763D01*
G37*
G04 #@! TO.C,R13*
X-38714000Y-13990936D02*
X-38714000Y-15445064D01*
X-40534000Y-13990936D02*
X-40534000Y-15445064D01*
G04 #@! TO.C,R28*
X-8885600Y20685136D02*
X-8885600Y22139264D01*
X-7065600Y20685136D02*
X-7065600Y22139264D01*
G04 #@! TO.C,J19*
X-1315000Y3750000D02*
X-1315000Y5080000D01*
X15000Y3750000D02*
X-1315000Y3750000D01*
X1285000Y3750000D02*
X6425000Y3750000D01*
X1285000Y3750000D02*
X1285000Y6410000D01*
X6425000Y3750000D02*
X6425000Y6410000D01*
X1285000Y6410000D02*
X6425000Y6410000D01*
G04 #@! TO.C,U2*
X-7321000Y4418000D02*
X-15061000Y4418000D01*
X-15061000Y4418000D02*
X-15061000Y-882000D01*
X-7321000Y2768000D02*
X-7321000Y4418000D01*
X-7321000Y-882000D02*
X-7321000Y768000D01*
X-15061000Y-882000D02*
X-7321000Y-882000D01*
X-7321000Y2768000D02*
G75*
G03*
X-7321000Y768000I0J-1000000D01*
G01*
G04 #@! TO.C,kibuzzard-63F11AB2*
G36*
X-15897376Y26607462D02*
G01*
X-16352989Y26607462D01*
X-16683718Y26607462D01*
X-17231758Y27429522D01*
X-17012154Y27758928D01*
X-16352989Y27758928D01*
X-16094226Y27758928D01*
X-16094226Y26938191D01*
X-15897376Y26938191D01*
X-15567176Y26938191D01*
X-15368739Y26938191D01*
X-15329448Y27009231D01*
X-15290951Y27073128D01*
X-15250470Y27134247D01*
X-15205226Y27196953D01*
X-15165936Y27142978D01*
X-15124264Y27082653D01*
X-15081401Y27014788D01*
X-15038539Y26938191D01*
X-14835339Y26938191D01*
X-14881376Y27023916D01*
X-14941701Y27123928D01*
X-15011551Y27227910D01*
X-15086164Y27325541D01*
X-14844864Y27684316D01*
X-15043301Y27684316D01*
X-15195701Y27450953D01*
X-15360801Y27684316D01*
X-15565589Y27684316D01*
X-15303651Y27322366D01*
X-15375883Y27228703D01*
X-15447320Y27129485D01*
X-15512408Y27031060D01*
X-15567176Y26938191D01*
X-15897376Y26938191D01*
X-15897376Y27758928D01*
X-15638614Y27758928D01*
X-15638614Y27920853D01*
X-16352989Y27920853D01*
X-16352989Y27758928D01*
X-17012154Y27758928D01*
X-16683718Y28251582D01*
X-16352989Y28251582D01*
X-14835339Y28251582D01*
X-14504610Y28251582D01*
X-14504610Y26607462D01*
X-14835339Y26607462D01*
X-15897376Y26607462D01*
G37*
G04 #@! TO.C,R1*
X-10456840Y-11265549D02*
X-9398565Y-12262817D01*
X-11705029Y-12590095D02*
X-10646754Y-13587363D01*
G04 #@! TO.C,kibuzzard-63EE941D*
G36*
X-4225396Y3814763D02*
G01*
X-5794640Y3814763D01*
X-6435196Y3814763D01*
X-6931290Y3814763D01*
X-6931290Y5080000D01*
X-6435196Y5080000D01*
X-6424927Y4906020D01*
X-6394119Y4753173D01*
X-6342774Y4621461D01*
X-6270890Y4510881D01*
X-6144948Y4399756D01*
X-5986198Y4333081D01*
X-5794640Y4310856D01*
X-5664564Y4318893D01*
X-5556188Y4341813D01*
X-5201708Y4341813D01*
X-4908815Y4341813D01*
X-4908815Y4991894D01*
X-4518290Y4991894D01*
X-4518290Y4341813D01*
X-4225396Y4341813D01*
X-4225396Y4391819D01*
X-4020608Y4391819D01*
X-3946790Y4365625D01*
X-3843205Y4339431D01*
X-3726524Y4319191D01*
X-3611033Y4310856D01*
X-3473516Y4319488D01*
X-3356240Y4345384D01*
X-3258608Y4387056D01*
X-3180027Y4443016D01*
X-3077633Y4591844D01*
X-3044296Y4779963D01*
X-3060072Y4899620D01*
X-3107399Y5001419D01*
X-3183301Y5082977D01*
X-3284802Y5141913D01*
X-3151452Y5265738D01*
X-3101446Y5434806D01*
X-3130021Y5599113D01*
X-3218127Y5731272D01*
X-3369336Y5818188D01*
X-3469051Y5841405D01*
X-3584840Y5849144D01*
X-3711343Y5838130D01*
X-3824155Y5805091D01*
X-3994415Y5718175D01*
X-3889640Y5503863D01*
X-3747955Y5571728D01*
X-3582458Y5599113D01*
X-3447918Y5552678D01*
X-3399102Y5425281D01*
X-3421724Y5334794D01*
X-3480065Y5277644D01*
X-3561027Y5246688D01*
X-3651515Y5237163D01*
X-3761052Y5237163D01*
X-3761052Y4994275D01*
X-3670565Y4994275D01*
X-3540191Y4982666D01*
X-3434821Y4947841D01*
X-3365169Y4883845D01*
X-3341952Y4784725D01*
X-3402674Y4625181D01*
X-3485720Y4576961D01*
X-3613415Y4560888D01*
X-3726226Y4567436D01*
X-3821774Y4587081D01*
X-3963458Y4637088D01*
X-4020608Y4391819D01*
X-4225396Y4391819D01*
X-4225396Y5815806D01*
X-4518290Y5815806D01*
X-4518290Y5234781D01*
X-4908815Y5234781D01*
X-4908815Y5815806D01*
X-5201708Y5815806D01*
X-5201708Y4341813D01*
X-5556188Y4341813D01*
X-5550561Y4343003D01*
X-5382683Y4413250D01*
X-5456502Y4644231D01*
X-5576755Y4591844D01*
X-5766065Y4565650D01*
X-5936026Y4599285D01*
X-6050624Y4700191D01*
X-6098910Y4802981D01*
X-6127882Y4931966D01*
X-6137540Y5087144D01*
X-6129503Y5220494D01*
X-6105393Y5330031D01*
X-6022049Y5486003D01*
X-5905368Y5569347D01*
X-5770827Y5594350D01*
X-5593424Y5569347D01*
X-5461265Y5508625D01*
X-5385065Y5741988D01*
X-5433880Y5770563D01*
X-5513652Y5806281D01*
X-5624380Y5836047D01*
X-5766065Y5849144D01*
X-5905665Y5836345D01*
X-6033955Y5797947D01*
X-6148255Y5734844D01*
X-6245886Y5647928D01*
X-6325361Y5538093D01*
X-6385190Y5406231D01*
X-6422694Y5253236D01*
X-6435196Y5080000D01*
X-6931290Y5080000D01*
X-6931290Y6345238D01*
X-6435196Y6345238D01*
X-3044296Y6345238D01*
X-2548202Y6345238D01*
X-1704710Y5080000D01*
X-2548202Y3814763D01*
X-3044296Y3814763D01*
X-3611033Y3814763D01*
X-4225396Y3814763D01*
G37*
G04 #@! TO.C,R4*
X-58110800Y314936D02*
X-58110800Y1769064D01*
X-56290800Y314936D02*
X-56290800Y1769064D01*
G04 #@! TO.C,kibuzzard-63EE93FE*
G36*
X-4162293Y23906163D02*
G01*
X-5731536Y23906163D01*
X-6372093Y23906163D01*
X-6868186Y23906163D01*
X-6868186Y25171400D01*
X-6372093Y25171400D01*
X-6361824Y24997420D01*
X-6331016Y24844573D01*
X-6279670Y24712861D01*
X-6207786Y24602281D01*
X-6081845Y24491156D01*
X-5923095Y24424481D01*
X-5731536Y24402256D01*
X-5601461Y24410293D01*
X-5493085Y24433213D01*
X-5138605Y24433213D01*
X-4845711Y24433213D01*
X-4845711Y25083294D01*
X-4455186Y25083294D01*
X-4455186Y24433213D01*
X-4162293Y24433213D01*
X-4162293Y25745281D01*
X-3952743Y25745281D01*
X-3807486Y25540494D01*
X-3657468Y25652413D01*
X-3512211Y25685750D01*
X-3374099Y25636934D01*
X-3319330Y25497631D01*
X-3363383Y25371425D01*
X-3475302Y25242838D01*
X-3545549Y25174674D01*
X-3620558Y25103534D01*
X-3695568Y25027930D01*
X-3765815Y24946372D01*
X-3827727Y24857968D01*
X-3877733Y24761825D01*
X-3910773Y24657050D01*
X-3921786Y24542750D01*
X-3922977Y24492744D01*
X-3917024Y24433213D01*
X-2954999Y24433213D01*
X-2954999Y24676100D01*
X-3588411Y24676100D01*
X-3563408Y24754681D01*
X-3502686Y24839216D01*
X-3426486Y24920178D01*
X-3355049Y24988044D01*
X-3233605Y25107106D01*
X-3126449Y25235694D01*
X-3050249Y25372616D01*
X-3021674Y25519063D01*
X-3059774Y25703609D01*
X-3162168Y25835769D01*
X-3309805Y25914350D01*
X-3483636Y25940544D01*
X-3607759Y25928638D01*
X-3732477Y25892919D01*
X-3850051Y25832197D01*
X-3952743Y25745281D01*
X-4162293Y25745281D01*
X-4162293Y25907206D01*
X-4455186Y25907206D01*
X-4455186Y25326181D01*
X-4845711Y25326181D01*
X-4845711Y25907206D01*
X-5138605Y25907206D01*
X-5138605Y24433213D01*
X-5493085Y24433213D01*
X-5487458Y24434403D01*
X-5319580Y24504650D01*
X-5393399Y24735631D01*
X-5513652Y24683244D01*
X-5702961Y24657050D01*
X-5872923Y24690685D01*
X-5987521Y24791591D01*
X-6035807Y24894381D01*
X-6064779Y25023366D01*
X-6074436Y25178544D01*
X-6066400Y25311894D01*
X-6042290Y25421431D01*
X-5958946Y25577403D01*
X-5842265Y25660747D01*
X-5707724Y25685750D01*
X-5530321Y25660747D01*
X-5398161Y25600025D01*
X-5321961Y25833388D01*
X-5370777Y25861963D01*
X-5450549Y25897681D01*
X-5561277Y25927447D01*
X-5702961Y25940544D01*
X-5842562Y25927745D01*
X-5970852Y25889347D01*
X-6085152Y25826244D01*
X-6182783Y25739328D01*
X-6262258Y25629493D01*
X-6322086Y25497631D01*
X-6359591Y25344636D01*
X-6372093Y25171400D01*
X-6868186Y25171400D01*
X-6868186Y26436638D01*
X-6372093Y26436638D01*
X-2954999Y26436638D01*
X-2458905Y26436638D01*
X-1615414Y25171400D01*
X-2458905Y23906163D01*
X-2954999Y23906163D01*
X-4162293Y23906163D01*
G37*
G04 #@! TO.C,Q3*
X-12976323Y-13114074D02*
X-14195343Y-11965329D01*
X-12976323Y-13114074D02*
X-12503271Y-13559856D01*
X-15116077Y-15384726D02*
X-15589129Y-14938944D01*
X-15116077Y-15384726D02*
X-14643024Y-15830507D01*
G04 #@! TD*
D12*
G04 #@! TO.C,J6*
X-52299000Y29408000D03*
X-60279000Y29408000D03*
G04 #@! TD*
M02*
