M48
; DRILL file {KiCad 7.0.1} date Thu Mar 23 23:12:12 2023
; FORMAT={-:-/ absolute / metric / decimal}
; #@! TF.CreationDate,2023-03-23T23:12:12+01:00
; #@! TF.GenerationSoftware,Kicad,Pcbnew,7.0.1
; #@! TF.FileFunction,MixedPlating,1,2
FMAT,2
METRIC
; #@! TA.AperFunction,Plated,PTH,ViaDrill
T1C0.400
; #@! TA.AperFunction,Plated,PTH,ComponentDrill
T2C0.800
; #@! TA.AperFunction,Plated,PTH,ComponentDrill
T3C1.000
; #@! TA.AperFunction,Plated,PTH,ComponentDrill
T4C1.100
; #@! TA.AperFunction,Plated,PTH,ComponentDrill
T5C2.700
; #@! TA.AperFunction,Plated,PTH,ComponentDrill
T6C3.200
; #@! TA.AperFunction,NonPlated,NPTH,ComponentDrill
T7C1.000
%
G90
G05
T1
X-61.976Y15.494
X-61.493Y18.39
X-61.214Y11.176
X-58.649Y10.109
X-58.572Y20.955
X-57.658Y12.54
X-56.617Y-0.381
X-56.554Y16.98
X-55.347Y23.52
X-55.118Y12.7
X-54.788Y3.886
X-54.559Y20.752
X-53.035Y1.295
X-52.832Y12.7
X-51.511Y4.851
X-50.292Y12.7
X-49.632Y3.2
X-49.047Y23.825
X-48.26Y12.954
X-47.676Y25.273
X-47.32Y21.742
X-44.653Y8.992
X-43.437Y17.269
X-43.002Y16.256
X-42.926Y13.995
X-42.926Y10.16
X-39.459Y14.453
X-38.735Y17.577
X-37.846Y-8.128
X-37.414Y21.488
X-36.83Y9.398
X-34.214Y22.377
X-34.138Y25.629
X-34.038Y10.499
X-34.036Y12.497
X-34.009Y11.498
X-31.267Y25.298
X-29.718Y22.327
X-26.67Y1.016
X-26.289Y21.895
X-26.06Y4.699
X-25.649Y23.584
X-25.527Y12.548
X-25.438Y18.58
X-22.225Y10.363
X-20.396Y-12.065
X-19.279Y18.009
X-19.279Y10.566
X-19.253Y15.545
X-19.253Y13.081
X-15.138Y13.97
X-13.437Y-9.068
X-13.36Y11.862
X-13.259Y14.453
X-13.03Y20.117
X-13.005Y22.123
X-9.754Y-7.264
T2
X-13.731Y5.578
X-13.731Y-2.042
X-11.191Y5.578
X-11.191Y-2.042
X-8.651Y5.578
X-8.651Y-2.042
T3
X-62.0Y-9.006
X-60.503Y2.592
X-60.503Y0.052
X-60.249Y-10.846
X-58.497Y-12.685
X-40.64Y3.81
X-40.64Y1.27
X-40.64Y-1.27
X-38.1Y3.81
X-38.1Y1.27
X-38.1Y-1.27
X-33.02Y4.064
X-30.48Y4.064
X-27.94Y4.064
X-21.336Y-5.08
X-19.05Y29.972
X-19.05Y27.432
X-19.05Y24.892
X-19.05Y22.352
X-18.796Y-5.08
X-16.256Y-5.08
X-10.617Y16.789
X-10.617Y14.249
X-10.617Y11.709
X-8.026Y16.789
X-8.026Y14.249
X-8.026Y11.709
X-5.486Y16.789
X-5.486Y14.249
X-5.486Y11.709
X-2.946Y16.789
X-2.946Y14.249
X-2.946Y11.709
X0.0Y27.178
X0.0Y24.638
X0.0Y22.098
X0.0Y19.558
X0.0Y7.62
X0.0Y2.54
X0.0Y0.0
X0.015Y5.08
X2.54Y27.178
X2.54Y24.638
X2.54Y22.098
X2.54Y19.558
X2.54Y7.62
X2.54Y2.54
X2.54Y0.0
X2.555Y5.08
X5.08Y27.178
X5.08Y24.638
X5.08Y22.098
X5.08Y19.558
X5.08Y7.62
X5.08Y2.54
X5.08Y0.0
X5.095Y5.08
T4
X-67.056Y4.064
X-67.056Y1.524
X-67.056Y-1.016
T5
X-42.466Y-19.518
X-42.466Y-24.518
X-22.466Y-19.598
X-22.466Y-24.598
T6
X-67.466Y13.208
X-49.466Y-21.452
X-15.466Y-21.452
X2.534Y13.208
T7
X-60.279Y29.408
X-52.299Y29.408
T0
M30
